<svg width="108" height="24" viewBox="0 0 108 24" fill="none" xmlns="http://www.w3.org/2000/svg">
<path d="M24.6094 4.51703H16.1191V19.4885H24.6094V4.51703Z" fill="#EB621D"/>
<path d="M16.6587 12.0015C16.656 9.07914 18.0225 6.32075 20.3648 4.51709C16.152 1.2668 10.0524 1.9835 6.73986 6.11711C3.4273 10.2507 4.16043 16.2382 8.37323 19.4859C11.8933 22.1993 16.8474 22.1993 20.3648 19.4859C18.0225 17.6822 16.656 14.9239 16.6587 12.0015Z" fill="#E41522"/>
<path d="M36.0656 12.0014C36.0656 17.259 31.7207 21.5222 26.3624 21.5222C24.1872 21.5222 22.0768 20.8055 20.3652 19.4858C24.578 16.2355 25.3085 10.2507 21.9959 6.11441C21.5188 5.51936 20.9717 4.9825 20.3652 4.51439C24.578 1.2641 30.6776 1.9808 33.9901 6.11706C35.3351 7.79642 36.0656 9.86719 36.0656 12.0014Z" fill="#F59E1F"/>
<path d="M35.1374 17.9017V17.5949H35.2641V17.5314H34.9434V17.5949H35.07V17.9017H35.1374ZM35.76 17.9017V17.5314H35.663L35.5498 17.7853L35.4366 17.5314H35.3396V17.9017H35.4097V17.624L35.5148 17.8647H35.5875L35.6927 17.624V17.9043H35.76V17.9017Z" fill="#F59E1F"/>
<line x1="58.3109" y1="1.5299e-08" x2="58.3109" y2="24" stroke="#AEAEAE" stroke-width="0.7"/>
<path d="M94.3841 1.58838H105.483L107.053 0H93.5124C92.6698 0.0387409 92.0015 0.736077 92.0015 1.58838V7.92252C92.0015 8.73608 91.3817 9.40436 90.5971 9.49152H86.9264L88.5148 7.90315C89.677 6.73124 90.4422 5.86925 90.4422 4.21308C90.4422 3.90315 90.3744 3.58354 90.2582 3.26392C90.0548 2.6247 89.7061 2.13075 89.2896 1.7724C89.1734 1.65617 89.0572 1.54964 88.9313 1.46247L89.9095 0.00968534H85.2605L84.6697 0.803874H83.4106L81.8222 2.39225H79.3234V7.15738H82.1225C80.3404 8.16465 79.1394 10.092 79.1394 12.3002C79.1394 15.5835 81.8029 18.247 85.0765 18.247H85.2799C85.1152 18.4019 84.97 18.5956 84.815 18.799C84.7085 18.954 83.9433 20.0872 83.9433 20.0872C82.5293 22.0145 82.3065 22.1889 80.5244 22.1889H79.0813C78.2193 22.1889 77.6963 22.8378 77.6963 23.6901V23.7869H87.9821V22.1889H84.292C84.4276 22.2373 85.3768 20.7651 85.3768 20.7651C85.3768 20.7651 86.5584 18.9734 86.568 18.9734C86.7908 18.6344 87.1007 18.3632 87.5656 18.247H88.8732C89.5608 21.5303 92.4664 24 95.9531 24C96.4664 24 96.9604 23.9516 97.435 23.845C97.7255 23.7869 98.0161 23.7094 98.2873 23.6126C101.135 22.6344 103.188 19.9419 103.188 16.7651C103.188 12.7845 99.9822 9.55932 96.0112 9.53027H92.9604C93.3284 9.1138 93.5609 8.54237 93.5609 7.94189H99.1396L100.689 6.37288H93.5609V4.7845H102.278L103.837 3.19613H93.5609V2.40194C93.5609 1.9661 93.9192 1.60775 94.355 1.60775L94.3841 1.58838ZM95.9047 22.1211C95.9047 22.1211 95.7594 22.1211 95.6819 22.1211C95.5657 22.1211 95.4301 22.1211 95.2945 22.1017C93.096 21.8305 91.3042 20.2712 90.6843 18.2082H95.5754C95.5754 18.2082 95.5851 18.2082 95.5948 18.2082C96.6892 18.2082 97.5706 19.0896 97.5706 20.184C97.5706 21.2785 96.9895 22.0145 95.895 22.1211H95.9047ZM99.0234 21.2591C99.0234 21.2591 99.004 21.2688 98.9943 21.2785C99.1009 20.9395 99.1687 20.5714 99.1687 20.1937C99.1687 18.2276 97.5706 16.6295 95.6045 16.6295H85.1056C82.7036 16.6295 80.7472 14.6828 80.7472 12.2712C80.7472 10.9346 81.3477 9.74334 82.2968 8.93947L85.6867 5.53027H80.9312V3.94189H82.5196L84.0983 2.37288H85.5123L86.0547 1.58838H87.4494L86.878 2.37288H87.0329C87.4785 2.40194 88.2339 2.70218 88.6698 3.41889C88.786 3.68039 88.8635 3.99032 88.8635 4.3293C88.8635 5.06538 88.6891 5.49153 87.1395 7.05085C87.1201 7.0799 84.0402 10.1501 84.0402 10.1501C83.5172 10.6247 83.1879 11.3027 83.1879 12.0581C83.1879 13.4528 84.3017 14.5956 85.6964 14.6344H96.7764C98.7522 14.7506 100.321 16.3971 100.321 18.4019C100.321 19.5351 99.8176 20.5521 99.0234 21.2494V21.2591ZM95.9919 11.0896C99.0331 11.0896 101.513 13.54 101.532 16.5811C100.796 14.615 98.9556 13.1816 96.7667 13.0654H85.7351C85.1927 13.0654 84.7569 12.6199 84.7569 12.0775C84.7569 11.5351 85.2121 11.0993 85.7448 11.0993C85.9772 11.0993 95.9919 11.0993 95.9919 11.0993V11.0896Z" fill="black"/>
<path d="M84.9325 2.94952L83.9326 3.9494L84.9325 4.94928L85.9324 3.9494L84.9325 2.94952Z" fill="black"/>
<path d="M79.4953 4.7424L77.8174 3.06451L76.1395 4.74239L77.8174 6.42028L79.4953 4.7424Z" fill="black"/>
</svg>
