<svg width="148" height="24" viewBox="0 0 148 24" fill="none" xmlns="http://www.w3.org/2000/svg">
<path d="M8.2176 22.1894C9.30977 22.1894 10.3377 22.201 11.364 22.1828C11.6852 22.1763 11.7758 22.2718 11.7758 22.593C11.7791 23.8137 11.7923 23.8137 10.5617 23.8137C7.71517 23.8137 4.86863 23.8137 2.02208 23.8137C1.43399 23.8137 1.40599 23.7758 1.56248 23.2025C1.7338 22.5733 2.20988 22.2059 2.89845 22.1927C3.5689 22.1795 4.23936 22.1828 4.90981 22.1812C5.67581 22.1795 6.2952 21.883 6.79433 21.2966C7.58833 20.3642 8.20278 19.3099 8.9523 18.2936C6.02174 18.0909 3.96096 16.7072 3.17025 13.8903C2.39767 11.1377 3.39429 8.9072 5.78288 7.13964C5.07454 7.13964 4.48481 7.13305 3.89672 7.14129C3.12084 7.15282 3.12248 7.15776 3.12083 6.37364C3.12083 5.93381 3.11589 5.49233 3.1126 5.0525C3.1126 5.04262 3.09118 5.03273 3.00223 4.95696C2.61017 5.37208 2.20164 5.78555 1.81617 6.21715C1.64155 6.41318 1.52624 6.40165 1.35327 6.21715C0.962863 5.80038 0.562567 5.3902 0.145798 4.99814C-0.0650576 4.79882 -0.0354058 4.66868 0.158976 4.48418C0.572451 4.09047 0.977687 3.68524 1.3648 3.26518C1.55424 3.05926 1.66626 3.11692 1.82605 3.28824C2.21482 3.70501 2.61841 4.10695 3.11919 4.62256C3.11919 3.88786 3.13237 3.29647 3.1126 2.70509C3.10271 2.42175 3.19991 2.33939 3.47501 2.34763C4.0631 2.36575 4.65283 2.34433 5.24092 2.35751C5.48966 2.3641 5.6791 2.29656 5.84548 2.10877C6.03986 1.88803 6.27872 1.70682 6.45993 1.47785C6.89317 0.927647 7.41042 0.60807 8.14018 0.757975C8.44823 0.82222 8.5899 0.599834 8.70685 0.388979C8.87982 0.0743432 9.12362 -0.0047276 9.47121 0.000214315C10.8253 0.019982 12.181 0.00845009 13.629 0.00845009C13.3539 0.426866 13.1315 0.794216 12.8778 1.14015C12.718 1.35759 12.7559 1.4795 12.9437 1.66399C14.5186 3.21576 14.6141 5.16781 13.2106 6.87936C12.4759 7.7755 11.6045 8.54479 10.8138 9.39151C10.911 9.55624 11.0559 9.49035 11.1712 9.49035C12.1365 9.49694 13.1019 9.49858 14.0672 9.49199C15.0902 9.4854 15.7178 8.87425 15.7244 7.84469C15.7376 5.85309 15.7277 3.8615 15.7293 1.86991C15.7293 0.583361 16.2911 0.0249238 17.576 0.0232765C21.7469 0.0232765 25.9179 0.0232762 30.0906 0.0216288C30.252 0.0216288 30.4134 0.0216288 30.7248 0.0216288C30.1614 0.581713 29.6919 1.06437 29.1977 1.51903C29.1121 1.5981 28.9177 1.57339 28.7727 1.57504C25.3381 1.58163 21.9018 1.58492 18.4671 1.58986C17.5199 1.58986 17.1823 2.00828 17.3289 2.94725C17.3799 3.27671 17.6089 3.16139 17.7736 3.16304C19.6713 3.17128 21.569 3.16798 23.4667 3.16798C24.7879 3.16798 26.1107 3.16798 27.5669 3.16798C27.0183 3.72807 26.5521 4.21238 26.0728 4.68515C25.9443 4.812 25.7598 4.74775 25.6 4.74775C23.0318 4.75105 20.4637 4.75928 17.8955 4.74116C17.4672 4.73787 17.3025 4.82023 17.319 5.29136C17.3569 6.32258 17.3289 6.32422 18.3798 6.32422C20.1952 6.32422 22.0122 6.32422 23.8275 6.32422C23.984 6.32422 24.1421 6.32422 24.4518 6.32422C23.8786 6.90078 23.4091 7.38673 22.9248 7.85457C22.8012 7.97482 22.6101 7.91552 22.4487 7.91552C20.9118 7.91882 19.3732 7.92705 17.8362 7.90893C17.4837 7.90564 17.2844 7.97318 17.2679 8.36688C17.2531 8.74906 17.0258 9.06369 16.833 9.42281C17.0406 9.53318 17.235 9.48705 17.4195 9.49199C18.6434 9.52659 19.8723 9.40633 21.0897 9.63366C24.4666 10.2629 26.9557 13.3187 26.9294 16.8093C26.903 20.3296 24.3233 23.4233 20.887 23.9125C16.5612 24.5286 13.6125 21.7957 12.7592 18.7004C12.667 18.3644 12.5335 18.2754 12.1794 18.2392C11.1828 18.1371 10.5518 18.5522 10.0593 19.3907C9.50745 20.328 8.8617 21.2126 8.20937 22.1911L8.2176 22.1894ZM22.7683 21.1401C22.8144 21.173 22.8589 21.206 22.905 21.2389C22.9511 21.1516 22.9841 21.0528 23.045 20.9787C24.0696 19.7514 24.3316 18.3842 23.6858 16.9197C23.0302 15.4322 21.8178 14.6761 20.2001 14.6645C16.6848 14.6415 13.1694 14.6579 9.65406 14.6563C8.44493 14.6563 7.55044 14.0863 7.13368 13.0666C6.71855 12.0536 6.95906 10.9943 7.7926 10.1542C8.93254 9.00769 10.0758 7.86281 11.2108 6.71134C11.5995 6.31599 11.9833 5.91075 12.2782 5.43633C12.9882 4.29639 12.5072 2.93242 11.2371 2.48765C11.0609 2.4267 10.8764 2.38716 10.6639 2.32786C10.7528 2.19278 10.8269 2.089 10.8912 1.97863C10.9538 1.87155 11.0839 1.79743 11.0658 1.64752C10.0906 1.48773 9.93245 1.52727 9.3806 2.21584C9.20599 2.43164 9.00172 2.40528 8.80899 2.37563C8.11053 2.26855 7.57186 2.49424 7.16333 3.0642C7.07932 3.18281 6.94259 3.26188 6.85693 3.38049C6.5077 3.8615 6.05304 4.00976 5.46166 3.96857C4.71049 3.91586 4.70884 3.9554 4.70884 4.73457C4.70884 5.26501 4.97076 5.53022 5.49461 5.53022C6.77786 5.53022 8.05946 5.53022 9.34272 5.53022C9.37072 5.57635 9.39872 5.62082 9.42508 5.66695C8.27197 6.79206 7.12379 7.92211 5.96409 9.04063C4.58365 10.3733 4.1504 12.2183 4.83568 13.92C5.51602 15.6101 7.07767 16.6347 8.99019 16.6364C12.2601 16.6397 15.53 16.6364 18.8016 16.638C19.08 16.638 19.3583 16.6413 19.6334 16.6726C21.144 16.8423 22.1571 17.6511 22.6826 19.0678C22.933 19.7448 22.9248 20.44 22.7716 21.1401H22.7683ZM25.1783 16.3349C25.1289 13.5394 22.6991 11.1426 19.8904 11.1179C16.8478 11.0915 13.8053 11.1096 10.7643 11.1096C10.3229 11.1096 9.87974 11.0932 9.43991 11.1162C8.92595 11.1442 8.55366 11.5379 8.53224 12.0338C8.50918 12.5527 8.86829 12.9876 9.38554 13.0584C9.53051 13.0782 9.67877 13.0683 9.82702 13.0683C13.2946 13.0683 16.7622 13.0683 20.2298 13.0683C21.1852 13.0683 22.0682 13.322 22.8902 13.7981C23.9247 14.3977 24.6544 15.2724 25.1799 16.3349H25.1783ZM17.1625 18.2573C16.4113 18.2573 15.6601 18.2787 14.9106 18.2491C14.5004 18.2326 14.4362 18.3413 14.5943 18.7054C15.4625 20.7151 16.9846 21.8764 19.1508 22.1565C20.3352 22.3097 21.2033 21.5618 21.2873 20.4005C21.3697 19.249 20.5115 18.2837 19.3666 18.2606C18.6319 18.2458 17.8972 18.2573 17.1641 18.2573H17.1625Z" fill="#1B334F"/>
<path d="M43.8769 12.1342C43.9296 12.2397 44.0284 12.2594 44.1157 12.3022C45.8734 13.1753 46.0744 15.4799 44.4913 16.6478C43.8703 17.1058 43.1619 17.3644 42.3943 17.376C40.5806 17.404 38.7653 17.3875 36.9516 17.404C36.6584 17.4073 36.604 17.2936 36.604 17.0317C36.6106 13.8178 36.6089 10.6055 36.6073 7.39163C36.6073 7.18077 36.6007 7.0111 36.9022 7.01934C38.7307 7.06382 40.5625 6.93697 42.3893 7.09676C43.017 7.15112 43.6001 7.35868 44.1289 7.70462C45.7581 8.77372 45.7317 10.9795 44.0811 12.0057C44.0119 12.0486 43.9428 12.0914 43.8752 12.1342H43.8769ZM40.6201 15.447C40.6201 15.447 40.6201 15.442 40.6201 15.4404C41.0287 15.4404 41.4372 15.4404 41.8457 15.4404C41.9116 15.4404 41.9759 15.4338 42.0418 15.4255C42.7831 15.3284 43.1685 14.8457 43.0944 14.106C43.0351 13.513 42.5804 13.1045 41.8639 13.0798C41.032 13.0501 40.1968 13.0748 39.3632 13.0633C39.1359 13.06 39.0437 13.1259 39.0486 13.3648C39.0618 13.9512 39.0634 14.5393 39.0486 15.1257C39.042 15.3926 39.1524 15.4601 39.3962 15.4519C39.8047 15.4387 40.2133 15.4486 40.6218 15.4486L40.6201 15.447ZM40.5164 11.2348C40.5164 11.2348 40.5164 11.2183 40.5164 11.2101C40.9727 11.2101 41.4323 11.2496 41.8836 11.2018C42.7452 11.1096 43.1718 10.1888 42.6974 9.49689C42.419 9.09 41.9825 8.99611 41.5377 8.98293C40.8211 8.95986 40.1029 8.98293 39.3863 8.96975C39.1326 8.96481 39.0404 9.04717 39.047 9.30415C39.0618 9.84117 39.0634 10.3782 39.047 10.9136C39.0387 11.1788 39.1474 11.2496 39.3913 11.2397C39.7652 11.2249 40.1408 11.2364 40.5164 11.2364V11.2348Z" fill="#3A4945"/>
<path d="M96.635 13.607C97.6251 14.8754 98.5756 16.0911 99.5952 17.3958C98.648 17.3958 97.8079 17.3958 96.9678 17.3958C96.7273 17.3958 96.6515 17.1849 96.5362 17.0383C95.4753 15.6908 94.4211 14.34 93.3635 12.9909C93.2877 12.8937 93.2037 12.8015 93.0406 12.6104C93.0406 13.2759 93.0406 13.8211 93.0406 14.3664C93.0406 15.2477 93.0307 16.129 93.0472 17.0103C93.0521 17.3019 92.9747 17.4172 92.665 17.4057C92.0934 17.3843 91.5201 17.3925 90.9485 17.404C90.713 17.409 90.5977 17.3628 90.5977 17.0877C90.6059 13.8393 90.6042 10.5924 90.5993 7.34393C90.5993 7.12319 90.6504 7.01612 90.8975 7.02271C92.6453 7.06554 94.398 6.92881 96.1425 7.10178C98.1193 7.29781 99.4157 8.72602 99.3333 10.6336C99.2757 11.963 98.5163 12.8262 97.3384 13.3566C97.1309 13.4505 96.9101 13.5131 96.6367 13.6119L96.635 13.607ZM93.0719 10.4046C93.0604 10.4046 93.0488 10.4046 93.0373 10.4046C93.0373 10.8115 93.0423 11.2184 93.0357 11.6253C93.0324 11.7999 93.0752 11.8987 93.2778 11.8971C94.0438 11.8856 94.8148 11.9267 95.5775 11.8707C96.3764 11.8131 96.8723 11.2744 96.9003 10.5595C96.9316 9.72758 96.4868 9.19715 95.6434 9.02583C95.2529 8.94676 94.8625 8.96653 94.4721 8.97806C94.0059 8.99124 93.3816 8.76556 93.118 9.08019C92.894 9.3487 93.0719 9.94997 93.0719 10.4046Z" fill="#3A4945"/>
<path d="M138.294 12.1985C138.294 10.6319 138.309 9.0653 138.284 7.49871C138.277 7.10006 138.404 7.00452 138.781 7.01605C140.187 7.06382 141.597 6.93533 142.997 7.0803C145.702 7.36034 147.135 8.81326 147.389 11.5214C147.484 12.5345 147.417 13.5443 147.044 14.5096C146.326 16.3678 144.88 17.2491 142.969 17.3644C141.534 17.4517 140.091 17.3826 138.653 17.4056C138.319 17.4106 138.289 17.2639 138.291 16.9971C138.299 15.3975 138.295 13.798 138.295 12.1985H138.294ZM140.729 12.1869C140.729 13.116 140.75 14.0468 140.719 14.9742C140.705 15.3761 140.847 15.4832 141.219 15.4536C141.577 15.4256 141.938 15.4536 142.297 15.4453C143.448 15.4239 144.282 14.8473 144.7 13.77C145.074 12.8096 145.087 11.8278 144.797 10.846C144.486 9.79341 143.804 9.15755 142.686 9.01588C142.195 8.95328 141.705 9.00765 141.218 8.96811C140.842 8.93681 140.704 9.04718 140.717 9.44912C140.747 10.3617 140.727 11.2743 140.727 12.1886L140.729 12.1869Z" fill="#3A4945"/>
<path d="M47.9889 10.5545C47.9889 9.52657 48.0071 8.49701 47.979 7.47074C47.9692 7.08856 48.096 6.99631 48.4535 7.01608C48.9757 7.04408 49.5012 7.04244 50.0234 7.01608C50.3561 6.99961 50.4352 7.12645 50.4319 7.43779C50.4187 9.2976 50.4237 11.1591 50.4286 13.0189C50.4286 13.2956 50.4269 13.5789 50.478 13.8475C50.6922 14.9528 51.5751 15.5953 52.7299 15.5046C53.8813 15.4157 54.6572 14.6695 54.6803 13.5114C54.7182 11.5379 54.7099 9.56282 54.6918 7.5877C54.6885 7.1594 54.7692 6.96666 55.247 7.01114C55.7494 7.05726 56.2601 7.03091 56.7674 7.01773C57.0261 7.01114 57.1496 7.0655 57.148 7.36366C57.1315 9.46892 57.1776 11.5758 57.1134 13.6778C57.0442 15.9428 55.5254 17.3974 53.1829 17.5572C52.496 17.6033 51.809 17.5885 51.1336 17.4369C49.2277 17.0103 48.0878 15.6447 48.012 13.6366C47.9725 12.6103 48.0054 11.5808 48.0054 10.5528H47.9922L47.9889 10.5545Z" fill="#3A4945"/>
<path d="M79.9015 12.1821C79.9015 10.599 79.9098 9.01762 79.895 7.43455C79.8917 7.11992 79.9707 7.01449 80.3002 7.01614C82.5241 7.02932 84.7463 7.02932 86.9701 7.01614C87.298 7.01449 87.4561 7.09027 87.4232 7.44773C87.3787 7.93204 87.6208 8.55802 87.3325 8.86771C87.041 9.18235 86.4068 8.95831 85.9241 8.96655C84.8616 8.98302 83.7991 8.98138 82.7366 8.96655C82.445 8.96325 82.3264 9.03409 82.3412 9.34543C82.3643 9.83303 82.3643 10.3239 82.3412 10.8132C82.3264 11.1245 82.4137 11.2382 82.7448 11.2299C83.6426 11.2085 84.5437 11.2365 85.4414 11.2151C85.7808 11.2069 85.9192 11.3008 85.8813 11.65C85.8285 12.1294 86.0855 12.7521 85.7709 13.0568C85.4793 13.3369 84.8665 13.126 84.3954 13.1359C83.8238 13.1491 83.2505 13.1491 82.6789 13.1359C82.4236 13.1293 82.3346 13.215 82.3429 13.4719C82.3593 13.9941 82.3709 14.518 82.3396 15.0369C82.3165 15.4092 82.4829 15.4553 82.7975 15.452C84.1697 15.4388 85.5436 15.4619 86.9174 15.4355C87.3408 15.4273 87.4627 15.569 87.4248 15.9643C87.3803 16.4157 87.6093 17.0054 87.3391 17.2904C87.0443 17.6017 86.443 17.3876 85.9785 17.3909C84.1154 17.4041 82.2506 17.3876 80.3875 17.4041C80.0152 17.4073 79.8867 17.325 79.8933 16.9263C79.918 15.3449 79.9032 13.7619 79.9032 12.1788L79.9015 12.1821Z" fill="#3A4945"/>
<path d="M118.579 12.187C118.579 10.604 118.587 9.0209 118.572 7.43949C118.569 7.13144 118.638 7.01448 118.974 7.01613C121.214 7.03096 123.455 7.02766 125.693 7.01778C125.978 7.01778 126.122 7.08367 126.099 7.39666C126.062 7.89909 126.296 8.53495 126.008 8.8677C125.731 9.18728 125.084 8.95995 124.601 8.96819C123.555 8.98466 122.507 8.98466 121.461 8.96654C121.132 8.95995 120.987 9.03243 121.012 9.3932C121.041 9.84785 121.041 10.3074 121.012 10.7621C120.989 11.1163 121.081 11.2464 121.463 11.2332C122.361 11.2036 123.262 11.2332 124.16 11.2184C124.448 11.2135 124.585 11.2843 124.555 11.5973C124.506 12.0948 124.761 12.7273 124.445 13.0552C124.168 13.3434 123.544 13.1243 123.072 13.1359C122.501 13.1507 121.928 13.154 121.356 13.1342C121.055 13.1227 121.005 13.2594 121.013 13.5148C121.027 14.037 121.035 14.5591 121.01 15.0813C120.995 15.4026 121.134 15.4553 121.414 15.452C122.82 15.4405 124.226 15.4602 125.632 15.4388C126.003 15.4339 126.136 15.5459 126.097 15.9099C126.046 16.391 126.301 17.0186 125.987 17.32C125.698 17.5951 125.081 17.3925 124.609 17.3958C122.794 17.404 120.979 17.376 119.165 17.4139C118.643 17.4255 118.557 17.2591 118.565 16.788C118.595 15.2543 118.577 13.7207 118.577 12.187H118.579Z" fill="#3A4945"/>
<path d="M102.439 12.1935C102.439 10.6434 102.45 9.09323 102.43 7.54312C102.425 7.156 102.503 7.00775 102.933 7.01104C105.14 7.0341 107.348 7.02916 109.555 7.01433C109.903 7.01269 110.071 7.07693 110.033 7.4657C109.998 7.82151 110.003 8.18392 110.033 8.54139C110.059 8.88732 109.937 8.98287 109.595 8.97957C108.189 8.96145 106.783 8.98451 105.376 8.96475C104.997 8.9598 104.847 9.05535 104.877 9.45235C104.91 9.907 104.903 10.3666 104.877 10.8213C104.859 11.154 104.992 11.2331 105.3 11.2281C106.28 11.2133 107.262 11.238 108.242 11.215C108.596 11.2067 108.693 11.3253 108.67 11.6597C108.637 12.1292 108.819 12.7404 108.583 13.0352C108.333 13.3499 107.695 13.1225 107.227 13.1357C106.573 13.1538 105.919 13.1538 105.265 13.1357C104.962 13.1275 104.873 13.2362 104.877 13.5311C104.89 14.6727 104.872 15.8159 104.888 16.9575C104.893 17.2853 104.819 17.427 104.46 17.4072C103.921 17.3775 103.381 17.3792 102.842 17.4072C102.511 17.4237 102.429 17.3067 102.432 16.9921C102.445 15.3925 102.439 13.7946 102.439 12.1951V12.1935Z" fill="#3A4945"/>
<path d="M64.783 13.1901C64.783 14.4635 64.7698 15.7369 64.7912 17.0102C64.7961 17.3545 64.6643 17.4155 64.3645 17.404C63.8259 17.3842 63.2839 17.3759 62.7452 17.4072C62.3845 17.4287 62.3186 17.2919 62.3202 16.9625C62.3334 14.4816 62.3136 11.9991 62.34 9.5183C62.3449 9.05705 62.2082 8.94009 61.77 8.9648C61.1342 9.00104 60.495 8.96151 59.8575 8.97963C59.5709 8.98786 59.4391 8.92032 59.4605 8.60404C59.4934 8.10161 59.3024 7.44434 59.5544 7.133C59.8213 6.80189 60.5049 7.03086 61.0057 7.02922C63.0665 7.01768 65.1272 7.03251 67.1897 7.01604C67.5537 7.01274 67.6921 7.10334 67.6575 7.47893C67.6245 7.83475 67.6262 8.1988 67.6575 8.55462C67.6871 8.91373 67.5405 8.99281 67.2094 8.98127C66.5554 8.95821 65.8998 8.99445 65.2475 8.96645C64.89 8.95162 64.7698 9.04058 64.7764 9.42111C64.8011 10.678 64.7862 11.9349 64.7862 13.1918L64.783 13.1901Z" fill="#3A4945"/>
<path d="M74.6963 13.1951C74.6963 14.4685 74.6881 15.7418 74.7029 17.0152C74.7062 17.3117 74.6304 17.4188 74.3224 17.4056C73.7672 17.3826 73.2088 17.376 72.6553 17.4073C72.288 17.4287 72.2336 17.2804 72.2352 16.9576C72.2468 14.5097 72.2451 12.0601 72.2402 9.61222C72.2402 8.88246 72.339 8.9813 71.5796 8.97636C70.9586 8.97142 70.3359 8.96647 69.7149 8.97965C69.4661 8.98459 69.3393 8.91376 69.3755 8.65019C69.3805 8.61889 69.3755 8.5843 69.3755 8.553C69.3986 8.0654 69.1745 7.43777 69.4595 7.12973C69.7494 6.81509 70.3886 7.03418 70.8729 7.03089C72.9502 7.01936 75.0274 7.03583 77.1047 7.01771C77.4753 7.01442 77.6005 7.1149 77.5676 7.4839C77.5363 7.82324 77.5313 8.17247 77.5676 8.51017C77.6121 8.92035 77.4341 8.99777 77.0684 8.98295C76.4145 8.95659 75.7605 8.99118 75.1065 8.96977C74.7886 8.95989 74.6864 9.05213 74.6914 9.3783C74.7095 10.6517 74.6996 11.925 74.6996 13.1984L74.6963 13.1951Z" fill="#3A4945"/>
<path d="M128.866 12.2117C128.866 10.6303 128.874 9.04722 128.859 7.4658C128.856 7.13799 128.93 6.99632 129.289 7.01609C129.81 7.04409 130.337 7.04903 130.858 7.01609C131.241 6.99138 131.316 7.13799 131.314 7.49051C131.299 9.96971 131.319 12.4489 131.296 14.9265C131.291 15.3745 131.429 15.4668 131.848 15.4585C133.187 15.4322 134.528 15.4585 135.867 15.4421C136.178 15.4388 136.312 15.5162 136.292 15.8473C136.267 16.2542 136.274 16.6627 136.29 17.0696C136.3 17.3266 136.206 17.404 135.951 17.4024C133.712 17.3941 131.474 17.3925 129.235 17.404C128.917 17.4056 128.859 17.2854 128.861 17.0037C128.873 15.4058 128.866 13.8079 128.866 12.2084V12.2117Z" fill="#3A4945"/>
<path d="M115.052 12.2365C115.052 13.8015 115.037 15.3664 115.062 16.9297C115.069 17.3267 114.943 17.4272 114.568 17.4074C114.014 17.3778 113.458 17.3876 112.902 17.4041C112.619 17.4124 112.499 17.3465 112.501 17.0302C112.51 13.8196 112.51 10.609 112.501 7.40003C112.501 7.09033 112.608 7.00961 112.898 7.0195C113.486 7.03762 114.074 7.04421 114.66 7.01785C115.006 7.00138 115.059 7.14799 115.057 7.44615C115.046 9.04239 115.052 10.6403 115.052 12.2365Z" fill="#3A4945"/>
<path d="M8.60824 2.96875C8.84545 3.04288 8.9377 3.20431 9.0596 3.32622C9.68229 3.95219 9.67076 3.94396 9.0596 4.58146C8.80427 4.84833 8.64942 4.98176 8.3249 4.6177C7.70552 3.91925 7.67751 3.9456 8.33479 3.28503C8.43692 3.18125 8.52588 3.06429 8.60659 2.9704L8.60824 2.96875Z" fill="#1A141F"/>
</svg>
