<svg width="298" height="34" viewBox="0 0 298 34" fill="none" xmlns="http://www.w3.org/2000/svg">
<path d="M39.6727 3.67003H24.7314V30.3398H39.6727V3.67003Z" fill="#EB621D"/>
<path d="M25.6806 17.0027C25.6759 11.7969 28.0807 6.88314 32.2026 3.67013C24.7889 -2.11986 14.0549 -0.843143 8.22549 6.52038C2.39604 13.8839 3.68621 24.5499 11.0999 30.3352C17.2946 35.1689 26.0127 35.1689 32.2026 30.3352C28.0807 27.1222 25.6759 22.2085 25.6806 17.0027Z" fill="#E41522"/>
<path d="M59.8316 17.0026C59.8316 26.3683 52.1854 33.9627 42.7559 33.9627C38.9281 33.9627 35.2141 32.686 32.2021 30.3351C39.6158 24.5451 40.9013 13.8838 35.0718 6.51556C34.2323 5.45555 33.2694 4.49919 32.2021 3.66532C39.6158 -2.12468 50.3498 -0.84796 56.1793 6.52027C58.5461 9.51185 59.8316 13.2007 59.8316 17.0026Z" fill="#F59E1F"/>
<path d="M58.1999 27.5131V26.9666H58.4228V26.8536H57.8584V26.9666H58.0813V27.5131H58.1999ZM59.2956 27.5131V26.8536H59.1248L58.9256 27.3058L58.7264 26.8536H58.5557V27.5131H58.679V27.0185L58.864 27.4472H58.992L59.177 27.0185V27.5178H59.2956V27.5131Z" fill="#F59E1F"/>
<line x1="82.0775" y1="1" x2="82.0775" y2="33" stroke="#827C78" stroke-width="0.7"/>
<path d="M290.285 21.5973C292.455 21.5973 293.901 19.8539 293.901 17.2454C293.901 14.6368 292.558 12.958 290.285 12.958H288.167V21.5973H290.285ZM290.285 10.3882C294.663 10.3882 297.142 12.8676 297.142 17.2454C297.142 21.6231 294.637 24.18 290.285 24.18H284.939V10.4011H290.285V10.3882ZM282.24 24.1671H272.335V10.3882H275.563V21.5973H282.24V24.1671ZM266.537 15.9669V18.4722H261.81V21.5973H268.59V24.1671H258.569V10.3882H268.59V12.958H261.81V15.9669H266.537ZM250.472 10.3882H253.855V24.1671H250.472V10.3882ZM245.306 15.9669V18.4722H240.231V24.1671H237.003V10.3882H247.114V12.958H240.244V15.9669H245.319H245.306ZM229.616 14.9467C229.616 13.8232 228.79 12.958 227.369 12.958H224.399V16.8579H227.369C228.828 16.8579 229.616 16.0702 229.616 14.9467ZM221.158 24.1671V10.3882H227.485C230.817 10.3882 232.858 12.3123 232.858 14.9467C232.858 17 231.334 18.64 229.177 19.0791L233.18 24.1671H229.487L224.399 17.6973V24.1671H221.171H221.158ZM214.817 15.9669V18.4722H210.091V21.5973H216.87V24.1671H206.849V10.3882H216.87V12.958H210.091V15.9669H214.817ZM196.609 24.1671V12.958H192.773V10.3882H203.724V12.958H199.889V24.1671H196.622H196.609ZM183.359 24.1671V12.958H179.524V10.3882H190.475V12.958H186.639V24.1671H183.372H183.359ZM170.29 21.6489C172.085 21.6489 173.17 20.4867 173.17 18.5755V10.3753H176.399V18.3559C176.399 22.2946 174.281 24.3866 170.277 24.3866C166.274 24.3866 164.156 22.2946 164.156 18.3559V10.3753H167.385V18.5755C167.385 20.4996 168.457 21.6489 170.277 21.6489M155.633 21.5973C156.938 21.5973 157.661 21.042 157.661 20.0218C157.661 19.0016 156.938 18.3818 155.633 18.3818H152.198V21.5973H155.633ZM155.44 15.9927C156.615 15.9927 157.351 15.5149 157.351 14.5077C157.351 13.5004 156.602 12.958 155.44 12.958H152.211V15.9927H155.44ZM160.605 14.1719C160.605 15.5666 159.856 16.6384 158.487 17.2066C160.05 17.6844 160.915 18.8208 160.915 20.4092C160.915 22.6174 158.888 24.18 156.059 24.18H148.97V10.4011H155.582C158.59 10.4011 160.605 11.912 160.605 14.1848" fill="#1B334F"/>
<path d="M124.232 3.11784H139.031L141.123 1H123.07C121.946 1.05165 121.055 1.98144 121.055 3.11784V11.5634C121.055 12.6481 120.229 13.5391 119.183 13.6554H114.288L116.406 11.5375C117.956 9.97498 118.976 8.82567 118.976 6.61743C118.976 6.2042 118.886 5.77805 118.731 5.3519C118.459 4.4996 117.995 3.841 117.439 3.3632C117.284 3.20823 117.129 3.06618 116.961 2.94996L118.266 1.01291H112.067L111.279 2.07183H109.601L107.483 4.18967H104.151V10.5432H107.883C105.507 11.8862 103.906 14.456 103.906 17.4003C103.906 21.778 107.457 25.3293 111.822 25.3293H112.093C111.873 25.5359 111.68 25.7942 111.473 26.0654C111.331 26.272 110.311 27.7829 110.311 27.7829C108.425 30.3527 108.128 30.5852 105.752 30.5852H103.828C102.679 30.5852 101.981 31.4504 101.981 32.5868V32.7159H115.696V30.5852H110.776C110.957 30.6497 112.222 28.6868 112.222 28.6868C112.222 28.6868 113.798 26.2978 113.81 26.2978C114.107 25.8458 114.521 25.4843 115.141 25.3293H116.884C117.801 29.707 121.675 33 126.324 33C127.008 33 127.667 32.9354 128.3 32.7934C128.687 32.7159 129.075 32.6126 129.436 32.4835C133.233 31.1792 135.97 27.5892 135.97 23.3535C135.97 18.046 131.696 13.7458 126.401 13.707H122.334C122.824 13.1517 123.134 12.3898 123.134 11.5892H130.573L132.639 9.49718H123.134V7.37934H134.757L136.836 5.2615H123.134V4.20258C123.134 3.62147 123.612 3.14366 124.193 3.14366L124.232 3.11784ZM126.259 30.4948C126.259 30.4948 126.066 30.4948 125.962 30.4948C125.807 30.4948 125.627 30.4948 125.446 30.4689C122.514 30.1073 120.125 28.0282 119.299 25.2776H125.82C125.82 25.2776 125.833 25.2776 125.846 25.2776C127.305 25.2776 128.48 26.4528 128.48 27.912C128.48 29.3713 127.706 30.3527 126.246 30.4948H126.259ZM130.418 29.3454C130.418 29.3454 130.392 29.3584 130.379 29.3713C130.521 28.9193 130.611 28.4286 130.611 27.9249C130.611 25.3035 128.48 23.1727 125.859 23.1727H111.86C108.658 23.1727 106.049 20.5771 106.049 17.3616C106.049 15.5795 106.85 13.9911 108.115 12.9193L112.635 8.37369H106.295V6.25585H108.413L110.517 4.16384H112.403L113.126 3.11784H114.986L114.224 4.16384H114.43C115.024 4.20258 116.032 4.60291 116.613 5.55852C116.768 5.90718 116.871 6.32042 116.871 6.7724C116.871 7.75383 116.639 8.32203 114.572 10.4011C114.547 10.4399 110.44 14.5335 110.44 14.5335C109.743 15.1663 109.304 16.0702 109.304 17.0775C109.304 18.937 110.789 20.4609 112.648 20.5125H127.422C130.056 20.6675 132.148 22.8628 132.148 25.5359C132.148 27.0468 131.476 28.4027 130.418 29.3325V29.3454ZM126.376 15.7861C130.43 15.7861 133.736 19.0533 133.762 23.1082C132.781 20.4867 130.327 18.5755 127.409 18.4205H112.7C111.977 18.4205 111.396 17.8265 111.396 17.1033C111.396 16.3801 112.003 15.799 112.713 15.799C113.023 15.799 126.376 15.799 126.376 15.799V15.7861Z" fill="#1B334F"/>
<path d="M111.629 4.9327L110.296 6.26588L111.629 7.59905L112.962 6.26588L111.629 4.9327Z" fill="#1B334F"/>
<path d="M104.381 7.32317L102.144 5.086L99.9064 7.32317L102.144 9.56035L104.381 7.32317Z" fill="#1B334F"/>
</svg>
