<svg width="28" height="29" viewBox="0 0 28 29" fill="none" xmlns="http://www.w3.org/2000/svg">
<path d="M10.1172 16.8791C10.1172 18.3841 11.2722 19.5975 12.7072 19.5975H15.6355C16.8839 19.5975 17.8989 18.5358 17.8989 17.2291C17.8989 15.8058 17.2805 15.3041 16.3589 14.9775L11.6572 13.3441C10.7355 13.0175 10.1172 12.5158 10.1172 11.0925C10.1172 9.78579 11.1322 8.72412 12.3805 8.72412H15.3089C16.7439 8.72412 17.8989 9.93745 17.8989 11.4425" stroke="#4D494A" stroke-width="1.5" stroke-linecap="round" stroke-linejoin="round"/>
<path d="M14 7.16095V21.1609" stroke="#4D494A" stroke-width="1.5" stroke-linecap="round" stroke-linejoin="round"/>
<path d="M17.5 25.8276H10.5C4.66666 25.8276 2.33333 23.4943 2.33333 17.6609V10.6609C2.33333 4.8276 4.66666 2.49426 10.5 2.49426H17.5C23.3333 2.49426 25.6667 4.8276 25.6667 10.6609V17.6609C25.6667 23.4943 23.3333 25.8276 17.5 25.8276Z" stroke="#4D494A" stroke-width="1.5" stroke-linecap="round" stroke-linejoin="round"/>
</svg>
