<svg width="120" height="61" viewBox="0 0 120 61" fill="none" xmlns="http://www.w3.org/2000/svg">
<g clip-path="url(#clip0_951_1552)">
<path d="M48.247 6.65098C48.0993 7.30462 47.9572 7.92752 47.8182 8.51966C47.6784 9.11023 47.5269 9.64797 47.3643 10.1297C47.2018 10.6115 47.0282 11.0144 46.8453 11.3377C46.6623 11.661 46.4471 11.8731 46.2061 11.97C46.093 12.0142 46.0042 11.9566 45.9375 11.7926C45.8629 11.6081 45.8276 11.2959 45.8315 10.8536C45.8362 10.4128 45.848 9.94996 45.8684 9.46505C45.888 8.98013 45.9077 8.53386 45.9242 8.12227C45.9414 7.71069 45.9242 7.4434 45.8755 7.32118C45.8229 7.1903 45.7302 7.07202 45.6022 6.96321V6.96164C45.5614 6.85992 44.7737 5.48088 43.3995 4.87375C42.1015 4.30053 41.0649 4.72394 40.8623 4.80516C40.5435 4.93368 40.2419 5.24592 39.9538 5.74187C39.6679 6.23861 39.4064 6.83785 39.1701 7.53959C38.9329 8.24133 38.7225 9.00379 38.5371 9.82932C38.351 10.6533 38.2081 11.4489 38.1068 12.2152C38.0055 12.9816 37.9584 13.6794 37.9647 14.3063C37.9702 14.9347 38.0361 15.4023 38.161 15.709C38.2607 15.9542 38.4083 16.1931 38.5999 16.4249C38.7931 16.6567 39.0051 16.8562 39.2368 17.0257C39.47 17.1937 39.7033 17.3143 39.9396 17.3853C40.176 17.4562 40.3864 17.4555 40.5741 17.3798C40.8725 17.2599 41.1694 16.9075 41.4646 16.3248C41.7599 15.7429 42.03 15.0569 42.2727 14.2684C42.5169 13.4808 42.7344 12.6544 42.926 11.7934C43.1176 10.9308 43.2739 10.1668 43.3924 9.49974C43.438 10.0296 43.5 10.5271 43.5833 10.9923C43.6673 11.4591 43.7725 11.8455 43.8958 12.1514C43.9798 12.3564 44.1188 12.5259 44.3151 12.6615C44.5091 12.7971 44.7219 12.9083 44.9512 12.9943C45.1789 13.0802 45.3957 13.137 45.5983 13.1614C45.8032 13.1867 45.9595 13.1772 46.0702 13.133C46.5147 12.9541 46.89 12.6544 47.1979 12.2326C47.5049 11.8123 47.764 11.3148 47.9768 10.7416C48.1897 10.1684 48.375 9.54626 48.5383 8.87369C48.6985 8.2027 48.854 7.51672 49.0032 6.8134L48.2501 6.65177L48.247 6.65098ZM43.233 7.88415C43.1349 8.28076 43.0139 8.75227 42.8687 9.29789C42.7226 9.8443 42.5656 10.4246 42.3936 11.042C42.2232 11.6586 42.0598 12.2239 41.902 12.7388C41.7442 13.2552 41.5958 13.6889 41.4591 14.0421C41.3209 14.3954 41.2157 14.5862 41.1411 14.6162C40.9919 14.6761 40.8757 14.6028 40.7924 14.3993C40.6746 14.1139 40.622 13.7181 40.6322 13.215C40.6432 12.7104 40.688 12.1577 40.7673 11.5545C40.8458 10.9521 40.9573 10.3355 41.101 9.70711C41.2447 9.07712 41.401 8.5039 41.5675 7.98429C41.7347 7.46468 41.7473 7.39924 41.8981 7.05389C42.0488 6.70696 42.2428 6.38763 42.4266 6.33401C42.7501 6.24097 43.109 6.43415 43.255 6.71011C43.3014 6.79763 43.3618 6.93562 43.4286 7.07439C43.4231 7.09489 43.4184 7.11381 43.4136 7.1351C43.3909 7.23997 43.3296 7.48913 43.2322 7.88573" fill="#DC232C"/>
<path d="M21.1362 21.7637C20.6163 20.1907 20.8794 18.6058 21.2697 17.0352C21.6474 15.5197 22.0997 13.9988 22.7703 12.5819C22.9878 12.1206 23.2171 11.657 23.4904 11.2225C23.4888 11.2194 23.4881 11.2154 23.4865 11.2131C23.4189 11.0475 23.2258 10.8937 22.9046 10.7502C22.5834 10.6067 22.2363 10.4837 21.861 10.3765C21.4864 10.2709 21.1252 10.2007 20.7781 10.1636C20.4318 10.1274 20.1978 10.1329 20.0792 10.181C19.9889 10.2172 19.7871 10.5381 19.4761 11.1437C19.1651 11.7492 18.7976 12.5212 18.3783 13.4594C17.9566 14.3977 17.4917 15.4409 16.9837 16.5897C16.474 17.7401 15.9746 18.8684 15.4854 19.9786C14.9954 21.0887 14.5501 22.1161 14.1504 23.0615C13.7507 24.0085 13.2772 25.0808 13.0448 25.6233C13.0259 24.8939 13.2505 23.7041 13.4052 22.713C13.5599 21.7219 13.7664 20.6866 14.0232 19.6064C14.2808 18.5254 14.5713 17.4405 14.8949 16.35C15.2176 15.2588 15.5309 14.2527 15.8356 13.3286C15.984 12.8799 16.1254 12.4605 16.2604 12.0694C15.604 11.601 14.6137 11.5789 13.8253 11.6483C13.0754 11.7153 12.3302 11.8628 11.6014 12.0646C11.4632 12.4715 11.325 12.9059 11.19 13.3719C10.8633 14.4963 10.5539 15.7098 10.2657 17.01C9.97514 18.3125 9.73799 19.5686 9.5511 20.7804C9.36499 21.9923 9.2527 23.0631 9.21186 23.9919C9.17181 24.9199 9.22521 25.5641 9.37049 25.9213C9.50555 26.2509 9.74585 26.5387 10.0906 26.7847C10.4353 27.0307 10.8225 27.2278 11.2481 27.3753C11.676 27.5235 12.0836 27.6228 12.4715 27.6764C12.8594 27.7285 13.1735 27.7056 13.4138 27.6094C13.4735 27.5858 13.512 27.5534 13.5316 27.514C13.8167 27.2712 14.1967 26.6617 14.6718 25.6863C15.1469 24.711 15.655 23.6024 16.196 22.3598C16.7371 21.1179 17.2876 19.8153 17.8498 18.4521C18.4113 17.0888 18.8997 15.8911 19.3167 14.859C19.2413 15.5308 19.1863 16.2081 19.1518 16.8948C19.118 17.5808 19.1 18.2211 19.0976 18.8148C19.0953 19.4077 19.1078 19.9313 19.1361 20.3838C19.1636 20.838 19.363 22.7335 20.6053 22.7256C20.9037 22.724 21.1715 22.6129 21.4047 22.4402C21.3034 22.2194 21.2123 21.9947 21.1362 21.7637Z" fill="#DC232C"/>
<path d="M36.2425 8.60084C35.9849 7.97006 35.6818 7.51275 35.3347 7.22889C34.9876 6.94504 34.6437 6.76527 34.306 6.68958C33.9668 6.61467 33.6621 6.60285 33.3912 6.65488C33.1187 6.7085 32.9294 6.75581 32.8242 6.79839C32.507 6.92612 32.4245 7.04518 32.5761 7.1532C32.7284 7.26122 32.8431 7.41261 32.9239 7.60736C33.0425 7.89831 33.0323 8.40372 32.8957 9.12281C32.7575 9.8419 32.5407 10.6714 32.2463 11.6081C31.9518 12.5464 31.5906 13.532 31.1642 14.5641C30.7385 15.5978 30.2862 16.5644 29.8064 17.4633C29.3243 18.363 28.8492 19.1404 28.3772 19.7964C27.9061 20.4524 27.4577 20.8656 27.0344 21.0359C26.9284 20.6259 26.9402 19.9573 27.0706 19.03C27.1993 18.102 27.3964 17.0549 27.6611 15.8903C27.9249 14.7241 28.2241 13.5162 28.561 12.2649C28.861 11.1468 29.1342 10.0982 29.3785 9.11414C29.2348 8.99587 29.0722 8.89889 28.8908 8.83186C28.3977 8.6513 27.8707 8.6718 27.3603 8.76484C26.8201 8.86262 26.2774 9.03293 25.7285 9.14016C25.5024 9.98146 23.7905 16.8459 23.5847 17.979C23.3853 19.1317 23.4937 20.3988 23.7002 20.9074C23.8093 21.1739 24.0276 21.4041 24.3519 21.5973C24.6778 21.7905 25.0218 21.9403 25.3901 22.0467C25.7568 22.1524 26.1164 22.2194 26.4667 22.2478C26.8169 22.2762 27.0855 22.2525 27.27 22.1776L27.325 22.1981C27.3776 22.1768 27.4278 22.1484 27.4758 22.1161C27.5237 22.0822 27.5613 22.0609 27.5865 22.0507C28.2186 21.7108 28.828 21.1281 29.4154 20.2987C30.0012 19.4708 30.5501 18.5309 31.0605 17.4799C31.5717 16.4288 32.0287 15.3415 32.4339 14.2203C32.8391 13.0975 33.176 12.0749 33.4454 11.1484C33.414 12.6552 33.1737 14.296 32.7276 16.0685C32.2792 17.841 31.6848 19.5338 30.9396 21.1447C30.5037 22.0846 30.0255 22.9629 29.5041 23.7798C29.5057 23.7798 29.508 23.7814 29.5096 23.7814C29.1052 24.5683 23.3232 35.3396 16.0996 36.9363C12.3146 37.7744 9.85902 36.8267 8.0906 35.4082C6.49729 34.1301 5.2919 31.8948 4.85136 27.9824C4.62678 26.0001 4.96444 22.7437 5.3186 20.562C5.72694 18.046 5.97587 15.9289 6.34416 13.5485C6.71324 11.1689 7.17262 8.87917 7.72388 6.67933C8.75258 6.4073 9.57554 6.21728 10.1951 6.10926C10.8139 6.00282 11.322 5.92554 11.7193 5.87824C12.1151 5.83172 12.4614 5.7915 12.7567 5.7576C13.0504 5.72448 13.3888 5.64485 13.7689 5.52027C14.2385 5.38859 14.4426 5.15126 14.3806 4.80828C14.317 4.46687 14.1183 4.13019 13.783 3.79824C13.4469 3.46629 13.0488 3.18954 12.5878 2.96561C12.1269 2.74168 11.7319 2.68097 11.4052 2.78426C11.0778 2.88834 10.6663 3.03184 10.1716 3.21634C9.67606 3.40164 9.12401 3.61689 8.51621 3.86132C8.79106 2.87493 9.08632 1.95715 9.40278 1.10954C9.48053 0.900592 9.55905 0.697165 9.63836 0.497681C8.13614 0.748416 6.65356 1.28537 5.14427 1.54399C5.02177 1.9059 4.90005 2.28752 4.77991 2.69437C4.51448 3.59245 4.25849 4.57094 4.01348 5.62908C2.74135 6.1684 1.45743 6.71796 0.165665 7.27699C0.0981315 7.41655 0.0360953 7.55769 0.0211752 7.70908C-0.00630925 7.98189 -0.0235852 8.29886 0.0887083 8.55826C0.170376 8.74434 0.291308 8.84763 0.429515 8.91781C1.342 8.61898 2.37227 8.29491 3.52505 7.94483C3.13398 9.85452 2.80181 11.8738 2.53089 14.0019C2.25998 16.1308 2.07779 18.1958 1.9867 20.1962C1.89561 22.1981 1.91446 24.0542 2.04246 25.7683C2.07387 26.1767 2.12098 26.5623 2.17674 26.9329C2.17674 26.9329 2.21836 27.3973 2.39347 28.1314C3.15911 31.3286 6.18554 39.6368 16.6956 36.9844C27.0517 34.3714 32.7245 24.875 32.7245 24.875C32.9648 24.5004 33.1956 24.1094 33.4171 23.7009C34.1097 22.4189 34.7073 21.0485 35.2059 19.5914C35.7046 18.1335 36.0815 16.7182 36.3375 15.3431C36.5927 13.9696 36.716 12.6844 36.7042 11.4875C36.694 10.2905 36.5393 9.3286 36.2425 8.60005" fill="#DC232C"/>
</g>
<line x1="61.886" y1="0.500061" x2="61.886" y2="37.5001" stroke="#2C2A29" stroke-width="0.246064"/>
<path d="M102.265 9.39148H91.5703V28.6121H102.265V9.39148Z" fill="#EB621D"/>
<path d="M92.2493 19.0001C92.2459 15.2483 93.9674 11.7071 96.9178 9.39148C91.611 5.21869 83.9275 6.13881 79.7547 11.4456C75.5819 16.7524 76.5055 24.4393 81.8123 28.6087C86.2465 32.0923 92.487 32.0923 96.9178 28.6087C93.9674 26.2931 92.2459 22.7519 92.2493 19.0001Z" fill="#E41522"/>
<path d="M116.695 19.0001C116.695 25.7499 111.222 31.2231 104.472 31.2231C101.732 31.2231 99.0737 30.3029 96.9177 28.6087C102.225 24.4359 103.145 16.7524 98.9719 11.4422C98.3709 10.6783 97.6817 9.98901 96.9177 9.38805C102.225 5.21526 109.908 6.13538 114.081 11.4456C115.775 13.6016 116.695 16.2601 116.695 19.0001Z" fill="#F59E1F"/>
<path d="M115.527 26.5749V26.1811H115.687V26.0996H115.283V26.1811H115.442V26.5749H115.527ZM116.311 26.5749V26.0996H116.189L116.047 26.4256L115.904 26.0996H115.782V26.5749H115.87V26.2184L116.003 26.5274H116.094L116.227 26.2184V26.5783H116.311V26.5749Z" fill="#F59E1F"/>
<path d="M2.72262 53.7006C2.40887 53.7006 2.12623 53.7551 1.87471 53.864C1.62579 53.9703 1.41317 54.1258 1.23685 54.3307C1.06312 54.5329 0.929579 54.778 0.836232 55.0658C0.742885 55.3536 0.696212 55.6777 0.696212 56.0382C0.696212 56.5153 0.770111 56.9301 0.91791 57.2828C1.0683 57.6328 1.2913 57.9038 1.5869 58.0957C1.88509 58.2876 2.25718 58.3835 2.70317 58.3835C2.95728 58.3835 3.19583 58.3628 3.41883 58.3213C3.64441 58.2772 3.86352 58.2227 4.07614 58.1579V58.7335C3.86871 58.8113 3.6509 58.8684 3.42272 58.9047C3.19454 58.9436 2.92357 58.963 2.60982 58.963C2.03159 58.963 1.548 58.8437 1.15906 58.6052C0.772704 58.364 0.482292 58.0244 0.287819 57.5862C0.0959398 57.1479 0 56.6307 0 56.0343C0 55.6038 0.0596383 55.211 0.178915 54.8558C0.300784 54.4979 0.477106 54.1894 0.70788 53.9301C0.941247 53.6708 1.22647 53.4711 1.56356 53.3311C1.90324 53.1885 2.29218 53.1172 2.73039 53.1172C3.01821 53.1172 3.29566 53.1457 3.56274 53.2027C3.82981 53.2598 4.07096 53.3415 4.28617 53.4478L4.02169 54.0079C3.84018 53.9249 3.64053 53.8536 3.42272 53.7939C3.2075 53.7317 2.97413 53.7006 2.72262 53.7006Z" fill="#4D4D4D"/>
<path d="M8.88739 56.746C8.88739 57.0961 8.84202 57.4085 8.75126 57.6834C8.66051 57.9583 8.52956 58.1903 8.35843 58.3796C8.18729 58.5689 7.97986 58.7141 7.73612 58.8152C7.49497 58.9138 7.22141 58.963 6.91544 58.963C6.63022 58.963 6.36833 58.9138 6.12977 58.8152C5.89381 58.7141 5.68897 58.5689 5.51524 58.3796C5.3441 58.1903 5.21057 57.9583 5.11463 57.6834C5.02128 57.4085 4.97461 57.0961 4.97461 56.746C4.97461 56.2793 5.05369 55.8826 5.21186 55.5559C5.37003 55.2266 5.59562 54.9763 5.88863 54.8052C6.18423 54.6315 6.53557 54.5446 6.94267 54.5446C7.33161 54.5446 7.67129 54.6315 7.9617 54.8052C8.25471 54.9789 8.48159 55.2304 8.64236 55.5598C8.80571 55.8865 8.88739 56.2819 8.88739 56.746ZM5.64359 56.746C5.64359 57.0883 5.68897 57.3852 5.77972 57.6367C5.87048 57.8882 6.0105 58.0827 6.19978 58.2201C6.38907 58.3576 6.63281 58.4263 6.931 58.4263C7.2266 58.4263 7.46904 58.3576 7.65833 58.2201C7.85021 58.0827 7.99152 57.8882 8.08228 57.6367C8.17303 57.3852 8.21841 57.0883 8.21841 56.746C8.21841 56.4064 8.17303 56.1134 8.08228 55.867C7.99152 55.6181 7.8515 55.4262 7.66222 55.2914C7.47293 55.1565 7.22789 55.0891 6.92711 55.0891C6.48371 55.0891 6.1583 55.2356 5.95086 55.5286C5.74601 55.8216 5.64359 56.2274 5.64359 56.746Z" fill="#4D4D4D"/>
<path d="M12.0067 54.5446C12.5383 54.5446 12.9622 54.7274 13.2786 55.093C13.5949 55.4586 13.7531 56.0083 13.7531 56.7421C13.7531 57.227 13.6805 57.6341 13.5353 57.9634C13.3901 58.2927 13.1852 58.5417 12.9208 58.7102C12.6589 58.8788 12.349 58.963 11.9912 58.963C11.7656 58.963 11.5672 58.9332 11.3961 58.8736C11.225 58.8139 11.0784 58.7335 10.9566 58.6324C10.8347 58.5313 10.7336 58.4211 10.6532 58.3018H10.6065C10.6143 58.4029 10.6234 58.5248 10.6338 58.6674C10.6467 58.81 10.6532 58.9345 10.6532 59.0408V60.7911H10.0037V54.6224H10.5365L10.6221 55.2525H10.6532C10.7362 55.1228 10.8373 55.0049 10.9566 54.8986C11.0759 54.7896 11.2211 54.7041 11.3922 54.6418C11.5659 54.577 11.7708 54.5446 12.0067 54.5446ZM11.8939 55.0891C11.5983 55.0891 11.3598 55.1462 11.1783 55.2603C10.9994 55.3744 10.8684 55.5455 10.7854 55.7737C10.7025 55.9993 10.6584 56.2832 10.6532 56.6255V56.7499C10.6532 57.1104 10.6921 57.415 10.7699 57.6639C10.8503 57.9129 10.9812 58.1022 11.1627 58.2318C11.3468 58.3615 11.5932 58.4263 11.9017 58.4263C12.1662 58.4263 12.3866 58.355 12.5629 58.2124C12.7392 58.0697 12.8702 57.8714 12.9558 57.6173C13.0439 57.3606 13.088 57.0663 13.088 56.7344C13.088 56.2313 12.9895 55.832 12.7924 55.5364C12.5979 55.2382 12.2984 55.0891 11.8939 55.0891Z" fill="#4D4D4D"/>
<path d="M14.2082 54.6224H14.9005L15.8417 57.0961C15.8962 57.2413 15.9467 57.3813 15.9934 57.5161C16.0401 57.6484 16.0816 57.7754 16.1179 57.8973C16.1542 58.0192 16.1827 58.1372 16.2034 58.2513H16.2307C16.267 58.1216 16.3188 57.9518 16.3863 57.7417C16.4537 57.5291 16.5263 57.3126 16.6041 57.0922L17.4947 54.6224H18.191L16.3357 59.5114C16.2372 59.7733 16.1218 60.0015 15.9895 60.196C15.8599 60.3905 15.7017 60.5395 15.515 60.6433C15.3283 60.7496 15.1027 60.8027 14.8383 60.8027C14.7164 60.8027 14.6088 60.795 14.5154 60.7794C14.4221 60.7664 14.3417 60.7509 14.2743 60.7327V60.2154C14.3313 60.2284 14.4 60.2401 14.4804 60.2504C14.5634 60.2608 14.649 60.266 14.7371 60.266C14.8979 60.266 15.0366 60.2349 15.1533 60.1726C15.2726 60.113 15.375 60.0248 15.4606 59.9082C15.5461 59.7915 15.62 59.6528 15.6823 59.492L15.9156 58.893L14.2082 54.6224Z" fill="#4D4D4D"/>
<path d="M20.8086 54.5446C20.8941 54.5446 20.9836 54.5498 21.0769 54.5602C21.1703 54.5679 21.2533 54.5796 21.3259 54.5952L21.2442 55.1941C21.1742 55.176 21.0964 55.1617 21.0108 55.1514C20.9252 55.141 20.8449 55.1358 20.7697 55.1358C20.5985 55.1358 20.4365 55.1708 20.2835 55.2408C20.1331 55.3082 20.0008 55.4068 19.8868 55.5364C19.7727 55.6635 19.6832 55.8178 19.6184 55.9993C19.5536 56.1782 19.5212 56.3778 19.5212 56.5982V58.8852H18.8716V54.6224H19.4084L19.4784 55.4081H19.5056C19.5938 55.2499 19.7001 55.106 19.8245 54.9763C19.949 54.8441 20.0929 54.7391 20.2563 54.6613C20.4222 54.5835 20.6063 54.5446 20.8086 54.5446Z" fill="#4D4D4D"/>
<path d="M22.7766 54.6224V58.8852H22.131V54.6224H22.7766ZM22.4616 53.0277C22.5679 53.0277 22.6586 53.0627 22.7338 53.1327C22.8116 53.2002 22.8505 53.3065 22.8505 53.4517C22.8505 53.5943 22.8116 53.7006 22.7338 53.7706C22.6586 53.8406 22.5679 53.8756 22.4616 53.8756C22.3501 53.8756 22.2567 53.8406 22.1815 53.7706C22.1089 53.7006 22.0726 53.5943 22.0726 53.4517C22.0726 53.3065 22.1089 53.2002 22.1815 53.1327C22.2567 53.0627 22.3501 53.0277 22.4616 53.0277Z" fill="#4D4D4D"/>
<path d="M25.3359 60.7988C24.7758 60.7988 24.3441 60.6938 24.0407 60.4838C23.7373 60.2764 23.5856 59.9847 23.5856 59.6087C23.5856 59.3416 23.6699 59.1134 23.8384 58.9241C24.0096 58.7348 24.2455 58.6091 24.5463 58.5469C24.4348 58.495 24.3389 58.4172 24.2585 58.3135C24.1807 58.2098 24.1418 58.0905 24.1418 57.9557C24.1418 57.8001 24.1846 57.6639 24.2702 57.5473C24.3583 57.428 24.4919 57.3139 24.6708 57.205C24.4478 57.1142 24.2663 56.9613 24.1263 56.746C23.9888 56.5282 23.9201 56.2754 23.9201 55.9876C23.9201 55.6816 23.9836 55.421 24.1107 55.2058C24.2378 54.988 24.4219 54.8221 24.663 54.708C24.9041 54.5939 25.1959 54.5368 25.5381 54.5368C25.6133 54.5368 25.6885 54.5407 25.7637 54.5485C25.8415 54.5537 25.9154 54.5628 25.9854 54.5757C26.0554 54.5861 26.1164 54.5991 26.1682 54.6146H27.6307V55.0308L26.845 55.128C26.9228 55.2292 26.9876 55.351 27.0395 55.4936C27.0913 55.6362 27.1172 55.7944 27.1172 55.9681C27.1172 56.3934 26.9733 56.7318 26.6855 56.9833C26.3977 57.2322 26.0023 57.3567 25.4992 57.3567C25.38 57.3567 25.2581 57.3463 25.1336 57.3256C25.0066 57.3956 24.9093 57.4734 24.8419 57.5589C24.7771 57.6445 24.7447 57.743 24.7447 57.8545C24.7447 57.9375 24.7693 58.0036 24.8186 58.0529C24.8704 58.1022 24.9443 58.1385 25.0403 58.1618C25.1362 58.1825 25.2516 58.1929 25.3864 58.1929H26.1371C26.6012 58.1929 26.9565 58.2901 27.2028 58.4846C27.4517 58.6791 27.5762 58.963 27.5762 59.3364C27.5762 59.8083 27.3843 60.1701 27.0006 60.4216C26.6168 60.6731 26.0619 60.7988 25.3359 60.7988ZM25.3553 60.2932C25.708 60.2932 25.9997 60.2569 26.2305 60.1843C26.4638 60.1143 26.6375 60.0119 26.7516 59.877C26.8683 59.7448 26.9267 59.5866 26.9267 59.4025C26.9267 59.2314 26.8878 59.1017 26.81 59.0136C26.7322 58.928 26.6181 58.871 26.4677 58.8425C26.3173 58.8113 26.1332 58.7958 25.9154 58.7958H25.1764C24.9845 58.7958 24.8173 58.8256 24.6747 58.8852C24.5321 58.9449 24.4219 59.033 24.3441 59.1497C24.2689 59.2664 24.2313 59.4116 24.2313 59.5853C24.2313 59.8161 24.3285 59.9911 24.523 60.1104C24.7175 60.2323 24.9949 60.2932 25.3553 60.2932ZM25.5226 56.8861C25.8311 56.8861 26.0632 56.8083 26.2188 56.6527C26.3744 56.4971 26.4521 56.2702 26.4521 55.972C26.4521 55.6531 26.3731 55.4146 26.2149 55.2564C26.0567 55.0956 25.8234 55.0152 25.5148 55.0152C25.2192 55.0152 24.991 55.0982 24.8302 55.2642C24.6721 55.4275 24.593 55.6674 24.593 55.9837C24.593 56.2741 24.6734 56.4971 24.8341 56.6527C24.9949 56.8083 25.2244 56.8861 25.5226 56.8861Z" fill="#4D4D4D"/>
<path d="M29.1164 52.8333V54.6418C29.1164 54.7456 29.1138 54.8506 29.1086 54.9569C29.1035 55.0606 29.0944 55.1566 29.0814 55.2447H29.1242C29.2124 55.0943 29.3239 54.9686 29.4587 54.8674C29.5961 54.7637 29.7517 54.6859 29.9254 54.6341C30.0992 54.5796 30.2833 54.5524 30.4777 54.5524C30.82 54.5524 31.1052 54.6068 31.3334 54.7157C31.5642 54.8247 31.7366 54.9932 31.8507 55.2214C31.9674 55.4496 32.0257 55.7452 32.0257 56.1082V58.8852H31.3879V56.151C31.3879 55.7957 31.3062 55.5299 31.1428 55.3536C30.9821 55.1773 30.7344 55.0891 30.3999 55.0891C30.0836 55.0891 29.8308 55.1501 29.6415 55.2719C29.4548 55.3912 29.32 55.5675 29.237 55.8009C29.1566 56.0343 29.1164 56.3195 29.1164 56.6566V58.8852H28.4708V52.8333H29.1164Z" fill="#4D4D4D"/>
<path d="M34.7328 58.4341C34.8391 58.4341 34.948 58.425 35.0595 58.4068C35.171 58.3887 35.2618 58.3666 35.3318 58.3407V58.8425C35.2566 58.8762 35.1516 58.9047 35.0167 58.928C34.8845 58.9514 34.7548 58.963 34.6278 58.963C34.4022 58.963 34.1973 58.9241 34.0132 58.8463C33.8291 58.766 33.6813 58.6311 33.5698 58.4418C33.4609 58.2526 33.4065 57.9907 33.4065 57.6562V55.128H32.7997V54.813L33.4104 54.5602L33.6671 53.6345H34.056V54.6224H35.3045V55.128H34.056V57.6367C34.056 57.9038 34.117 58.1035 34.2388 58.2357C34.3633 58.3679 34.5279 58.4341 34.7328 58.4341Z" fill="#4D4D4D"/>
<path d="M40.8976 58.963C40.4749 58.963 40.0847 58.8904 39.7268 58.7452C39.3716 58.6 39.0617 58.3965 38.7973 58.1346C38.5354 57.8727 38.3318 57.5641 38.1866 57.2089C38.044 56.8511 37.9727 56.4621 37.9727 56.042C37.9727 55.6194 38.0453 55.2304 38.1905 54.8752C38.3357 54.5174 38.5393 54.2075 38.8012 53.9456C39.0656 53.6837 39.3755 53.4802 39.7307 53.335C40.0886 53.1898 40.4775 53.1172 40.8976 53.1172C41.3047 53.1172 41.6845 53.1911 42.0372 53.3389C42.3924 53.4841 42.7036 53.6889 42.9706 53.9534C43.2377 54.2153 43.4465 54.5239 43.5968 54.8791C43.7472 55.2343 43.8224 55.622 43.8224 56.042C43.8224 56.4621 43.7498 56.8511 43.6046 57.2089C43.4594 57.5641 43.2546 57.8727 42.9901 58.1346C42.7282 58.3965 42.4183 58.6 42.0605 58.7452C41.7053 58.8904 41.3176 58.963 40.8976 58.963ZM41.022 57.8195C40.4983 57.8195 40.1041 57.6588 39.8396 57.3372C39.5752 57.0131 39.4429 56.5814 39.4429 56.042C39.4429 55.6972 39.5051 55.3925 39.6296 55.128C39.7567 54.861 39.9395 54.6522 40.178 54.5018C40.4192 54.3488 40.7109 54.2723 41.0531 54.2723C41.2243 54.2723 41.3941 54.2931 41.5627 54.3346C41.7312 54.3761 41.8894 54.4344 42.0372 54.5096L41.8194 54.9608C41.6897 54.8934 41.5614 54.8428 41.4343 54.8091C41.3073 54.7728 41.1828 54.7546 41.0609 54.7546C40.7316 54.7546 40.4762 54.87 40.2947 55.1008C40.1132 55.329 40.0224 55.6427 40.0224 56.042C40.0224 56.4569 40.1041 56.7759 40.2675 56.9989C40.4334 57.2218 40.694 57.3333 41.0493 57.3333C41.1789 57.3333 41.3176 57.3165 41.4654 57.2828C41.6158 57.2491 41.7584 57.205 41.8933 57.1505V57.6251C41.7662 57.6821 41.6353 57.7288 41.5004 57.7651C41.3656 57.8014 41.2061 57.8195 41.022 57.8195ZM40.8976 58.5663C41.2424 58.5663 41.5653 58.5041 41.866 58.3796C42.1694 58.2551 42.4352 58.0801 42.6634 57.8545C42.8916 57.6264 43.0705 57.3593 43.2001 57.0533C43.3298 56.7447 43.3946 56.4077 43.3946 56.042C43.3946 55.6946 43.3324 55.3692 43.2079 55.0658C43.086 54.7624 42.9136 54.494 42.6906 54.2607C42.4676 54.0273 42.2031 53.8458 41.8972 53.7162C41.5938 53.5839 41.2606 53.5178 40.8976 53.5178C40.5346 53.5178 40.2001 53.58 39.8941 53.7045C39.5907 53.829 39.3262 54.0053 39.1006 54.2335C38.8776 54.459 38.7039 54.7261 38.5795 55.0347C38.4576 55.3407 38.3967 55.6764 38.3967 56.042C38.3967 56.3895 38.4576 56.7162 38.5795 57.0222C38.7013 57.3256 38.8738 57.5939 39.0968 57.8273C39.3223 58.0581 39.5868 58.2396 39.8902 58.3718C40.1962 58.5015 40.532 58.5663 40.8976 58.5663Z" fill="#4D4D4D"/>
<path d="M50.3995 58.8852H46.6734V58.3446L48.1942 56.8005C48.4768 56.5153 48.7141 56.2612 48.9059 56.0382C49.1004 55.8152 49.2482 55.5961 49.3493 55.3808C49.4505 55.163 49.501 54.9245 49.501 54.6652C49.501 54.3437 49.4051 54.0986 49.2132 53.9301C49.0239 53.7589 48.7737 53.6734 48.4625 53.6734C48.1903 53.6734 47.9491 53.72 47.7391 53.8134C47.5291 53.9067 47.3139 54.039 47.0935 54.2101L46.7473 53.7745C46.8977 53.6474 47.0611 53.5346 47.2374 53.4361C47.4163 53.3376 47.6069 53.2598 47.8091 53.2027C48.014 53.1457 48.2318 53.1172 48.4625 53.1172C48.8126 53.1172 49.1147 53.1781 49.3688 53.3C49.6229 53.4219 49.8187 53.5956 49.9561 53.8212C50.0961 54.0468 50.1661 54.3151 50.1661 54.6263C50.1661 54.9271 50.1065 55.2071 49.9872 55.4664C49.8679 55.7231 49.7007 55.9785 49.4855 56.2326C49.2703 56.4841 49.0187 56.7512 48.7309 57.0339L47.4941 58.2668V58.294H50.3995V58.8852Z" fill="#4D4D4D"/>
<path d="M54.989 56.0343C54.989 56.4958 54.954 56.9081 54.884 57.2711C54.814 57.6341 54.7038 57.9414 54.5534 58.1929C54.403 58.4444 54.2086 58.6363 53.97 58.7686C53.7315 58.8982 53.4449 58.963 53.1104 58.963C52.6878 58.963 52.3377 58.8476 52.0603 58.6169C51.7854 58.3861 51.5793 58.0529 51.4419 57.6173C51.307 57.1791 51.2396 56.6514 51.2396 56.0343C51.2396 55.4275 51.3005 54.9063 51.4224 54.4707C51.5469 54.0325 51.7465 53.6967 52.0214 53.4633C52.2962 53.2274 52.6593 53.1094 53.1104 53.1094C53.5383 53.1094 53.8909 53.2261 54.1684 53.4595C54.4458 53.6902 54.652 54.0247 54.7868 54.4629C54.9216 54.8986 54.989 55.4223 54.989 56.0343ZM51.8892 56.0343C51.8892 56.5632 51.9293 57.004 52.0097 57.3567C52.0901 57.7093 52.2198 57.9738 52.3987 58.1501C52.5802 58.3239 52.8174 58.4107 53.1104 58.4107C53.4034 58.4107 53.6394 58.3239 53.8183 58.1501C53.9998 57.9764 54.1308 57.7132 54.2112 57.3606C54.2941 57.0079 54.3356 56.5658 54.3356 56.0343C54.3356 55.5131 54.2954 55.0775 54.215 54.7274C54.1347 54.3748 54.005 54.1103 53.8261 53.934C53.6472 53.7551 53.4086 53.6656 53.1104 53.6656C52.8123 53.6656 52.5737 53.7551 52.3948 53.934C52.2159 54.1103 52.0862 54.3748 52.0058 54.7274C51.928 55.0775 51.8892 55.5131 51.8892 56.0343Z" fill="#4D4D4D"/>
<path d="M59.5164 58.8852H55.7903V58.3446L57.311 56.8005C57.5937 56.5153 57.8309 56.2612 58.0228 56.0382C58.2173 55.8152 58.3651 55.5961 58.4662 55.3808C58.5673 55.163 58.6179 54.9245 58.6179 54.6652C58.6179 54.3437 58.522 54.0986 58.3301 53.9301C58.1408 53.7589 57.8906 53.6734 57.5794 53.6734C57.3072 53.6734 57.066 53.72 56.856 53.8134C56.6459 53.9067 56.4307 54.039 56.2103 54.2101L55.8642 53.7745C56.0146 53.6474 56.1779 53.5346 56.3542 53.4361C56.5332 53.3376 56.7237 53.2598 56.926 53.2027C57.1308 53.1457 57.3486 53.1172 57.5794 53.1172C57.9295 53.1172 58.2315 53.1781 58.4857 53.3C58.7398 53.4219 58.9355 53.5956 59.073 53.8212C59.213 54.0468 59.283 54.3151 59.283 54.6263C59.283 54.9271 59.2234 55.2071 59.1041 55.4664C58.9848 55.7231 58.8176 55.9785 58.6023 56.2326C58.3871 56.4841 58.1356 56.7512 57.8478 57.0339L56.6109 58.2668V58.294H59.5164V58.8852Z" fill="#4D4D4D"/>
<path d="M63.8648 54.5252C63.8648 54.7793 63.8155 54.9997 63.717 55.1864C63.6184 55.3731 63.481 55.526 63.3047 55.6453C63.1284 55.762 62.9209 55.8437 62.6824 55.8904V55.9215C63.1336 55.9785 63.4719 56.1237 63.6975 56.3571C63.9257 56.5905 64.0398 56.8964 64.0398 57.275C64.0398 57.6043 63.962 57.896 63.8064 58.1501C63.6534 58.4042 63.4175 58.6039 63.0985 58.7491C62.7822 58.8917 62.3764 58.963 61.8811 58.963C61.5804 58.963 61.3016 58.9384 61.0449 58.8891C60.7908 58.8425 60.5471 58.7634 60.3137 58.6519V58.0451C60.5497 58.1618 60.8064 58.2538 61.0838 58.3213C61.3613 58.3861 61.6296 58.4185 61.8889 58.4185C62.4075 58.4185 62.7822 58.3161 63.013 58.1112C63.2438 57.9038 63.3591 57.6212 63.3591 57.2633C63.3591 57.017 63.2943 56.8186 63.1647 56.6682C63.0376 56.5153 62.8535 56.4038 62.6124 56.3338C62.3738 56.2612 62.086 56.2249 61.7489 56.2249H61.1811V55.6726H61.7528C62.0614 55.6726 62.3233 55.6272 62.5385 55.5364C62.7537 55.4457 62.917 55.3186 63.0285 55.1553C63.1426 54.9893 63.1997 54.7935 63.1997 54.5679C63.1997 54.2801 63.1037 54.0584 62.9119 53.9029C62.72 53.7447 62.4594 53.6656 62.1301 53.6656C61.9278 53.6656 61.7437 53.6863 61.5778 53.7278C61.4118 53.7693 61.2562 53.8264 61.111 53.899C60.9658 53.9716 60.8206 54.0558 60.6754 54.1518L60.3487 53.7084C60.5561 53.5476 60.809 53.4089 61.1071 53.2922C61.4053 53.1755 61.7437 53.1172 62.1223 53.1172C62.7031 53.1172 63.1387 53.2494 63.4292 53.5139C63.7196 53.7784 63.8648 54.1155 63.8648 54.5252Z" fill="#4D4D4D"/>
<defs>
<clipPath id="clip0_951_1552">
<rect width="49" height="37" fill="white" transform="translate(0 0.500061)"/>
</clipPath>
</defs>
</svg>
