<svg width="120" height="37" viewBox="0 0 120 37" fill="none" xmlns="http://www.w3.org/2000/svg">
<g clip-path="url(#clip0_338_2596)">
<path d="M48.5922 6.15092C48.4446 6.80456 48.3024 7.42746 48.1634 8.0196C48.0237 8.61017 47.8721 9.14791 47.7095 9.62967C47.547 10.1114 47.3735 10.5143 47.1905 10.8376C47.0075 11.1609 46.7924 11.373 46.5513 11.47C46.4382 11.5141 46.3495 11.4566 46.2827 11.2926C46.2081 11.1081 46.1728 10.7958 46.1767 10.3535C46.1814 9.91273 46.1932 9.4499 46.2136 8.96499C46.2332 8.48007 46.2529 8.0338 46.2694 7.62221C46.2866 7.21063 46.2694 6.94333 46.2207 6.82112C46.1681 6.69023 46.0754 6.57196 45.9474 6.46315V6.46158C45.9066 6.35986 45.1189 4.98082 43.7447 4.37369C42.4467 3.80047 41.4101 4.22388 41.2075 4.3051C40.8887 4.43362 40.5872 4.74585 40.299 5.24181C40.0131 5.73854 39.7516 6.33779 39.5153 7.03953C39.2781 7.74127 39.0677 8.50373 38.8823 9.32926C38.6962 10.1532 38.5533 10.9488 38.452 11.7152C38.3507 12.4816 38.3036 13.1794 38.3099 13.8062C38.3154 14.4346 38.3813 14.9022 38.5062 15.2089C38.6059 15.4541 38.7536 15.693 38.9452 15.9249C39.1383 16.1567 39.3504 16.3562 39.582 16.5257C39.8152 16.6936 40.0485 16.8143 40.2848 16.8852C40.5212 16.9562 40.7317 16.9554 40.9193 16.8797C41.2177 16.7599 41.5146 16.4074 41.8098 15.8247C42.1051 15.2428 42.3752 14.5569 42.6179 13.7684C42.8621 12.9807 43.0796 12.1544 43.2712 11.2934C43.4628 10.4308 43.6191 9.66673 43.7377 8.99968C43.7832 9.52953 43.8452 10.0271 43.9285 10.4923C44.0125 10.959 44.1177 11.3454 44.241 11.6513C44.325 11.8563 44.464 12.0258 44.6604 12.1615C44.8543 12.2971 45.0671 12.4083 45.2964 12.4942C45.5241 12.5801 45.7409 12.6369 45.9435 12.6614C46.1484 12.6866 46.3047 12.6771 46.4154 12.633C46.8599 12.454 47.2352 12.1544 47.5431 11.7325C47.8501 11.3123 48.1093 10.8147 48.3221 10.2415C48.5349 9.66831 48.7202 9.0462 48.8835 8.37363C49.0437 7.70264 49.1992 7.01666 49.3484 6.31334L48.5953 6.15171L48.5922 6.15092ZM43.5782 7.38409C43.4801 7.7807 43.3592 8.2522 43.2139 8.79783C43.0678 9.34424 42.9108 9.92456 42.7388 10.5419C42.5684 11.1585 42.4051 11.7239 42.2472 12.2387C42.0894 12.7552 41.941 13.1888 41.8043 13.5421C41.6661 13.8953 41.5609 14.0861 41.4863 14.1161C41.3371 14.176 41.2209 14.1027 41.1376 13.8993C41.0198 13.6138 40.9672 13.218 40.9774 12.715C40.9884 12.2104 41.0332 11.6576 41.1125 11.0544C41.191 10.4521 41.3025 9.83546 41.4462 9.20705C41.59 8.57706 41.7462 8.00383 41.9127 7.48423C42.08 6.96462 42.0925 6.89918 42.2433 6.55383C42.3941 6.2069 42.588 5.88757 42.7718 5.83395C43.0953 5.74091 43.4542 5.93409 43.6002 6.21005C43.6466 6.29757 43.707 6.43556 43.7738 6.57433C43.7683 6.59483 43.7636 6.61375 43.7589 6.63504C43.7361 6.73991 43.6748 6.98907 43.5775 7.38567" fill="#DC232C"/>
<path d="M21.4814 21.2636C20.9615 19.6906 21.2246 18.1058 21.6149 16.5351C21.9926 15.0197 22.4449 13.4987 23.1155 12.0818C23.3331 11.6206 23.5624 11.1569 23.8356 10.7225C23.8341 10.7193 23.8333 10.7154 23.8317 10.713C23.7642 10.5474 23.571 10.3937 23.2498 10.2502C22.9286 10.1067 22.5815 9.98368 22.2062 9.87645C21.8316 9.77079 21.4704 9.70062 21.1233 9.66356C20.777 9.62729 20.543 9.63281 20.4244 9.68091C20.3341 9.71718 20.1323 10.0381 19.8213 10.6436C19.5104 11.2492 19.1429 12.0211 18.7235 12.9594C18.3018 13.8977 17.837 14.9408 17.3289 16.0896C16.8192 17.24 16.3198 18.3683 15.8306 19.4785C15.3406 20.5887 14.8953 21.6161 14.4956 22.5614C14.0959 23.5084 13.6224 24.5807 13.39 25.1232C13.3711 24.3939 13.5957 23.204 13.7504 22.2129C13.9051 21.2218 14.1116 20.1866 14.3684 19.1063C14.626 18.0253 14.9165 16.9404 15.2401 15.8499C15.5628 14.7587 15.8761 13.7526 16.1808 12.8285C16.3292 12.3799 16.4706 11.9604 16.6057 11.5693C15.9492 11.101 14.9589 11.0789 14.1705 11.1483C13.4206 11.2153 12.6754 11.3627 11.9467 11.5646C11.8084 11.9714 11.6702 12.4059 11.5352 12.8719C11.2085 13.9962 10.8991 15.2097 10.6109 16.5099C10.3204 17.8125 10.0832 19.0685 9.89631 20.2804C9.71021 21.4923 9.59791 22.563 9.55708 23.4918C9.51703 24.4199 9.57043 25.0641 9.7157 25.4212C9.85077 25.7508 10.0911 26.0386 10.4358 26.2846C10.7805 26.5306 11.1677 26.7277 11.5933 26.8752C12.0213 27.0234 12.4288 27.1228 12.8167 27.1764C13.2047 27.2284 13.5188 27.2056 13.7591 27.1094C13.8187 27.0857 13.8572 27.0534 13.8768 27.014C14.1619 26.7711 14.542 26.1616 15.0171 25.1863C15.4921 24.2109 16.0002 23.1023 16.5413 21.8597C17.0823 20.6178 17.6328 19.3153 18.195 17.952C18.7565 16.5887 19.2449 15.391 19.6619 14.3589C19.5865 15.0307 19.5316 15.708 19.497 16.3948C19.4632 17.0807 19.4452 17.721 19.4428 18.3147C19.4405 18.9076 19.453 19.4312 19.4813 19.8838C19.5088 20.3379 19.7082 22.2334 20.9505 22.2256C21.2489 22.224 21.5167 22.1128 21.7499 21.9401C21.6486 21.7193 21.5576 21.4946 21.4814 21.2636Z" fill="#DC232C"/>
<path d="M36.5877 8.10072C36.3301 7.46994 36.027 7.01262 35.6799 6.72877C35.3328 6.44492 34.9889 6.26515 34.6512 6.18946C34.312 6.11455 34.0073 6.10272 33.7364 6.15476C33.4639 6.20838 33.2747 6.25569 33.1694 6.29826C32.8522 6.426 32.7697 6.54506 32.9213 6.65308C33.0736 6.7611 33.1883 6.91249 33.2692 7.10724C33.3877 7.39819 33.3775 7.9036 33.2409 8.62269C33.1027 9.34178 32.886 10.1713 32.5915 11.108C32.297 12.0463 31.9358 13.0318 31.5094 14.064C31.0838 15.0976 30.6314 16.0643 30.1516 16.9632C29.6695 17.8628 29.1944 18.6403 28.7225 19.2963C28.2513 19.9523 27.8029 20.3655 27.3796 20.5358C27.2736 20.1258 27.2854 19.4571 27.4158 18.5299C27.5445 17.6018 27.7417 16.5548 28.0063 15.3902C28.2701 14.224 28.5693 13.0161 28.9062 11.7648C29.2062 10.6467 29.4795 9.59803 29.7237 8.61402C29.58 8.49575 29.4174 8.39876 29.236 8.33174C28.7429 8.15118 28.216 8.17168 27.7055 8.26472C27.1653 8.36249 26.6226 8.5328 26.0737 8.64004C25.8476 9.48134 24.1357 16.3458 23.93 17.4788C23.7305 18.6316 23.8389 19.8987 24.0454 20.4072C24.1545 20.6737 24.3728 20.904 24.6972 21.0972C25.0231 21.2903 25.367 21.4401 25.7353 21.5466C26.102 21.6522 26.4617 21.7193 26.8119 21.7477C27.1621 21.776 27.4307 21.7524 27.6152 21.6775L27.6702 21.698C27.7228 21.6767 27.7731 21.6483 27.821 21.616C27.8689 21.5821 27.9066 21.5608 27.9317 21.5505C28.5638 21.2107 29.1732 20.628 29.7606 19.7985C30.3464 18.9706 30.8953 18.0308 31.4057 16.9797C31.9169 15.9287 32.374 14.8414 32.7792 13.7202C33.1844 12.5974 33.5212 11.5747 33.7906 10.6483C33.7592 12.1551 33.5189 13.7959 33.0728 15.5684C32.6245 17.3409 32.03 19.0337 31.2848 20.6446C30.849 21.5844 30.3707 22.4628 29.8493 23.2797C29.8509 23.2797 29.8532 23.2812 29.8548 23.2812C29.4504 24.0681 23.6685 34.8395 16.4448 36.4362C12.6598 37.2743 10.2042 36.3266 8.43581 34.9081C6.8425 33.63 5.63712 31.3946 5.19658 27.4822C4.97199 25.5 5.30966 22.2436 5.66381 20.0619C6.07215 17.5459 6.32108 15.4288 6.68938 13.0484C7.05845 10.6688 7.51783 8.37905 8.06909 6.17921C9.0978 5.90718 9.92076 5.71716 10.5403 5.60914C11.1591 5.50269 11.6672 5.42542 12.0645 5.37811C12.4603 5.33159 12.8066 5.29138 13.1019 5.25748C13.3956 5.22436 13.734 5.14473 14.1141 5.02015C14.5837 4.88847 14.7879 4.65114 14.7258 4.30815C14.6622 3.96674 14.4635 3.63006 14.1282 3.29812C13.7921 2.96617 13.394 2.68941 12.9331 2.46549C12.4721 2.24156 12.0771 2.18085 11.7504 2.28414C11.423 2.38822 11.0115 2.53172 10.5168 2.71622C10.0213 2.90151 9.46923 3.11677 8.86143 3.36119C9.13627 2.37481 9.43153 1.45703 9.748 0.609415C9.82574 0.40047 9.90427 0.197043 9.98358 -0.00244141C8.48136 0.248294 6.99877 0.785245 5.48948 1.04387C5.36698 1.40578 5.24527 1.7874 5.12512 2.19425C4.8597 3.09232 4.6037 4.07082 4.3587 5.12896C3.08656 5.66827 1.80265 6.21784 0.510879 6.77687C0.443346 6.91643 0.38131 7.05757 0.36639 7.20895C0.338906 7.48177 0.32163 7.79873 0.433923 8.05814C0.515591 8.24422 0.636523 8.34751 0.77473 8.41769C1.68721 8.11885 2.71749 7.79479 3.87026 7.44471C3.4792 9.35439 3.14703 11.3737 2.87611 13.5018C2.60519 15.6307 2.42301 17.6957 2.33192 19.696C2.24083 21.698 2.25967 23.554 2.38767 25.2682C2.41908 25.6766 2.4662 26.0622 2.52195 26.4328C2.52195 26.4328 2.56357 26.8972 2.73869 27.6313C3.50432 30.8285 6.53075 39.1367 17.0408 36.4843C27.3969 33.8712 33.0697 24.3749 33.0697 24.3749C33.31 24.0003 33.5409 23.6092 33.7623 23.2008C34.4549 21.9188 35.0525 20.5484 35.5512 19.0913C36.0498 17.6334 36.4267 16.2181 36.6827 14.843C36.9379 13.4694 37.0612 12.1842 37.0494 10.9873C37.0392 9.79042 36.8845 8.82848 36.5877 8.09993" fill="#DC232C"/>
</g>
<line x1="62.2312" y1="5.3779e-09" x2="62.2312" y2="37" stroke="#2C2A29" stroke-width="0.246064"/>
<path d="M102.61 8.89136H91.9153V28.112H102.61V8.89136Z" fill="#EB621D"/>
<path d="M92.5943 18.5C92.5909 14.7483 94.3123 11.207 97.2628 8.89142C91.956 4.71863 84.2725 5.63875 80.0997 10.9456C75.9269 16.2524 76.8504 23.9393 82.1572 28.1087C86.5915 31.5922 92.832 31.5922 97.2628 28.1087C94.3123 25.7931 92.5909 22.2518 92.5943 18.5Z" fill="#E41522"/>
<path d="M117.04 18.5C117.04 25.2498 111.567 30.723 104.817 30.723C102.077 30.723 99.4187 29.8029 97.2627 28.1086C102.57 23.9358 103.49 16.2523 99.3168 10.9421C98.7159 10.1782 98.0266 9.48895 97.2627 8.88799C102.57 4.7152 110.253 5.63532 114.426 10.9455C116.12 13.1015 117.04 15.76 117.04 18.5Z" fill="#F59E1F"/>
<path d="M115.872 26.0749V25.6811H116.032V25.5996H115.628V25.6811H115.788V26.0749H115.872ZM116.657 26.0749V25.5996H116.534L116.392 25.9256L116.249 25.5996H116.127V26.0749H116.215V25.7184L116.348 26.0274H116.439L116.572 25.7184V26.0783H116.657V26.0749Z" fill="#F59E1F"/>
<defs>
<clipPath id="clip0_338_2596">
<rect width="49" height="37" fill="white" transform="translate(0.345215)"/>
</clipPath>
</defs>
</svg>
