<svg width="50" height="32" viewBox="0 0 50 32" fill="none" xmlns="http://www.w3.org/2000/svg">
<path d="M31.6844 3.87622H18.2034V28.104H31.6844V3.87622Z" fill="#FF5F00"/>
<path d="M19.0602 16.0012C19.0583 13.6684 19.5873 11.3658 20.607 9.26769C21.6267 7.16957 23.1104 5.33096 24.9457 3.89105C22.6731 2.1011 19.9426 0.986979 17.0664 0.676141C14.1903 0.365303 11.2847 0.870301 8.68215 2.13336C6.07957 3.39642 3.88506 5.36654 2.34966 7.81834C0.814269 10.2701 0 13.1046 0 15.9975C0 18.8904 0.814269 21.7248 2.34966 24.1766C3.88506 26.6284 6.07957 28.5986 8.68215 29.8616C11.2847 31.1247 14.1903 31.6297 17.0664 31.3188C19.9426 31.008 22.6731 29.8939 24.9457 28.1039C23.1114 26.6648 21.6283 24.8274 20.6086 22.7306C19.589 20.6339 19.0595 18.3327 19.0602 16.0012Z" fill="#EB001B"/>
<path d="M49.8738 16.0011C49.8755 18.8928 49.0632 21.7265 47.5298 24.1781C45.9964 26.6296 43.8039 28.6001 41.2031 29.864C38.6023 31.1278 35.6982 31.6341 32.8232 31.3248C29.9481 31.0155 27.2182 29.9031 24.9457 28.115C26.7775 26.6732 28.2582 24.8345 29.2763 22.7375C30.2944 20.6404 30.8234 18.3397 30.8234 16.0086C30.8234 13.6774 30.2944 11.3767 29.2763 9.27966C28.2582 7.18262 26.7775 5.34394 24.9457 3.90214C27.2172 2.11479 29.9458 1.00263 32.8195 0.692776C35.6932 0.382924 38.5961 0.887887 41.1964 2.14995C43.7967 3.412 45.9894 5.38023 47.5239 7.82963C49.0584 10.279 49.8727 13.1108 49.8738 16.0011V16.0011ZM48.3838 25.5485V25.053H48.585V24.9413H48.0933V25.0418H48.2944V25.5373L48.3838 25.5485ZM49.3747 25.5485V24.9413H49.2182L49.0394 25.351L48.8569 24.9413H48.7004V25.5373H48.8122V25.0865L48.9798 25.4777H49.0953L49.2629 25.0865V25.5373L49.3747 25.5485Z" fill="#F79E1B"/>
</svg>
