<svg width="18" height="136" viewBox="0 0 18 136" fill="none" xmlns="http://www.w3.org/2000/svg">
<path d="M5.84143 84.9017L5.74072 84.1945C6.04285 84.1238 6.34497 84.0531 6.54639 83.9116C6.7478 83.7702 6.7478 83.6287 6.7478 83.3459C6.7478 83.1337 6.64709 82.9216 6.54639 82.7801C6.44568 82.6387 6.24426 82.568 6.04285 82.568C5.94214 82.568 5.84143 82.568 5.74072 82.6387C5.64001 82.7094 5.53931 82.7801 5.53931 82.9216C5.53931 82.9923 5.4386 83.2044 5.33789 83.4873C5.23718 83.9116 5.03577 84.1945 4.83435 84.3359C4.53223 84.5481 4.2301 84.6895 3.72656 84.6895C3.42444 84.6895 3.22302 84.6188 3.02161 84.5481C2.82019 84.4066 2.61877 84.2652 2.51807 84.0531C2.41736 83.8409 2.31665 83.6287 2.31665 83.3459C2.31665 82.9216 2.41736 82.568 2.71948 82.2851C3.02161 82.0729 3.42444 81.9315 3.92798 81.9315V82.7094C3.62585 82.7094 3.42444 82.7801 3.32373 82.9216C3.22302 83.063 3.12231 83.2044 3.12231 83.4166C3.12231 83.6287 3.22302 83.7702 3.32373 83.9116C3.42444 83.9823 3.52515 84.0531 3.62585 84.0531C3.72656 84.0531 3.82727 84.0531 3.92798 83.9116C4.02869 83.8409 4.12939 83.558 4.2301 83.2044C4.33081 82.8508 4.43152 82.568 4.63293 82.4265C4.73364 82.2851 4.93506 82.1437 5.13647 82.0022C5.33789 81.9315 5.64001 81.8608 5.94214 81.8608C6.24426 81.8608 6.54639 81.9315 6.7478 82.0022C7.04993 82.1437 7.25134 82.2851 7.35205 82.4972C7.45276 82.7094 7.55347 82.9923 7.55347 83.2751C7.55347 83.7702 7.35205 84.1238 7.04993 84.3359C6.84851 84.6895 6.44568 84.831 5.84143 84.9017Z" fill="#4D4D4D"/>
<path d="M2.31665 81.295V80.5171H5.23718C5.74072 80.5171 5.94214 80.5171 6.14355 80.5171C6.34497 80.4464 6.54639 80.4464 6.64709 80.3049C6.7478 80.1635 6.84851 80.022 6.84851 79.8099C6.84851 79.5977 6.7478 79.4563 6.64709 79.3149C6.54639 79.1734 6.34497 79.1734 6.14355 79.1027C5.94214 79.1027 5.64001 79.1027 5.23718 79.1027H2.31665L2.31665 78.3248H5.03577C5.64001 78.3248 6.14356 78.3248 6.44568 78.3955C6.7478 78.4662 6.94922 78.537 7.15063 78.6077C7.35205 78.7491 7.45276 78.8905 7.55347 79.032C7.65417 79.2441 7.75488 79.4563 7.75488 79.7392C7.75488 80.0928 7.65417 80.3756 7.55347 80.5171C7.45276 80.7292 7.25134 80.8707 7.04993 80.9414C6.84851 81.0121 6.6471 81.1535 6.44568 81.1535C6.14356 81.2243 5.74072 81.2243 5.13647 81.2243H2.31665V81.295Z" fill="#4D4D4D"/>
<path d="M7.55347 77.6882H2.31665L2.31665 76.486C2.31665 76.0617 2.31665 75.7081 2.41736 75.5667C2.51807 75.3545 2.71948 75.1424 2.9209 75.0009C3.22302 74.8595 3.52515 74.7888 3.92798 74.7888C4.2301 74.7888 4.53223 74.8595 4.73364 74.9302C4.93506 75.0009 5.13647 75.1424 5.23718 75.2131C5.33789 75.3545 5.4386 75.496 5.4386 75.5667C5.53931 75.7788 5.53931 75.991 5.53931 76.3446V76.8396H7.55347V77.6882ZM3.22302 76.9103H4.73364L4.73364 76.486C4.73364 76.2032 4.73364 75.991 4.63293 75.9203C4.53223 75.8496 4.53223 75.7788 4.33081 75.7081C4.2301 75.6374 4.12939 75.6374 3.92798 75.6374C3.72656 75.6374 3.62585 75.7081 3.42444 75.7788C3.32373 75.8496 3.22302 75.991 3.22302 76.0617C3.22302 76.1324 3.22302 76.3446 3.22302 76.6275L3.22302 76.9103V76.9103Z" fill="#4D4D4D"/>
<path d="M7.55347 74.2939H2.31665L2.31665 71.5359H3.22302L3.22302 73.516H4.43152V71.6773H5.33789V73.516H6.7478L6.7478 71.4652H7.65417L7.65417 74.2939H7.55347Z" fill="#4D4D4D"/>
<path d="M7.55347 70.8995H2.31665L2.31665 69.3437C2.31665 68.9194 2.31665 68.6366 2.41736 68.4951C2.51807 68.3537 2.71948 68.2122 2.9209 68.0708C3.12231 68.0001 3.42444 67.9294 3.72656 67.9294C4.12939 67.9294 4.43152 68.0001 4.73364 68.1415C5.03577 68.283 5.13647 68.5658 5.23718 68.8487C5.33789 68.7073 5.53931 68.5658 5.64001 68.4244C5.84143 68.283 6.04285 68.1415 6.44568 68.0001L7.45276 67.5758V68.4951L6.34497 69.0609C6.04285 69.2023 5.74072 69.3437 5.64001 69.4145C5.53931 69.4852 5.4386 69.5559 5.4386 69.6266C5.4386 69.6973 5.33789 69.8388 5.33789 69.9802V70.1216H7.55347V70.8995ZM4.53223 70.1924L4.53223 69.6266C4.53223 69.273 4.53223 69.0609 4.43152 68.9901C4.43152 68.9194 4.33081 68.8487 4.2301 68.778C4.12939 68.7073 4.02869 68.6366 3.82727 68.6366C3.62585 68.6366 3.52515 68.6366 3.42444 68.7073C3.32373 68.778 3.22302 68.8487 3.22302 68.9901C3.22302 69.0609 3.22302 69.273 3.22302 69.5559V70.1216H4.53223V70.1924Z" fill="#4D4D4D"/>
<path d="M7.55347 67.2928H2.31665L2.31665 66.5149H7.65417V67.2928H7.55347Z" fill="#4D4D4D"/>
<path d="M7.55347 65.8784H2.31665V65.1712L5.84143 63.6154H2.31665L2.31665 62.9082H7.65417V63.6861L4.12939 65.1712H7.65417V65.8784H7.55347Z" fill="#4D4D4D"/>
<path d="M7.55347 61.4233H3.22302V62.4841H2.31665L2.31665 59.5139H3.22302L3.22302 60.5747H7.65417L7.65417 61.4233H7.55347Z" fill="#4D4D4D"/>
<path d="M7.55347 59.16H2.31665L2.31665 56.402H3.22302L3.22302 58.3821H4.43152V56.5435H5.33789V58.3821H6.7478L6.7478 56.3313H7.65417L7.65417 59.16H7.55347Z" fill="#4D4D4D"/>
<path d="M7.55347 55.7658H2.31665V55.0586L5.84143 53.5028H2.31665L2.31665 52.7956H7.65417V53.5028L4.12939 54.9879H7.65417V55.7658H7.55347Z" fill="#4D4D4D"/>
<path d="M2.31665 52.0882L2.31665 50.7445C2.31665 50.4617 2.31665 50.1788 2.41736 50.0374C2.51807 49.8252 2.61877 49.6131 2.9209 49.4716C3.12231 49.3302 3.42444 49.1887 3.72656 49.118C4.02869 49.0473 4.43152 48.9766 4.93506 48.9766C5.33789 48.9766 5.74072 48.9766 6.04285 49.0473C6.44568 49.1887 6.84851 49.3302 7.04993 49.5423C7.25134 49.6838 7.35205 49.8252 7.45276 50.0374C7.55347 50.1788 7.55347 50.4617 7.55347 50.6738V52.0882H2.31665V52.0882ZM3.22302 51.381H6.7478V50.8153C6.7478 50.6031 6.7478 50.4617 6.7478 50.391C6.7478 50.2495 6.64709 50.1788 6.54639 50.1081C6.44568 50.0374 6.24426 49.9666 6.04285 49.8959C5.84143 49.8252 5.4386 49.8252 5.03577 49.8252C4.63293 49.8252 4.33081 49.8252 4.12939 49.8959C3.92798 49.9666 3.72656 50.0374 3.62585 50.1081C3.52515 50.1788 3.42444 50.3202 3.42444 50.4617C3.42444 50.6031 3.42444 50.7445 3.42444 51.0981V51.381H3.22302Z" fill="#4D4D4D"/>
<path d="M7.55347 48.4817H2.31665L2.31665 45.7237H3.22302L3.22302 47.7038H4.43152V45.8651H5.33789V47.7038H6.7478L6.7478 45.653H7.65417L7.65417 48.4817H7.55347Z" fill="#4D4D4D"/>
<path d="M7.55347 45.0871H2.31665V44.38L5.84143 42.8241H2.31665L2.31665 42.117H7.65417V42.8949L4.12939 44.38H7.65417V45.0871H7.55347Z" fill="#4D4D4D"/>
<path d="M5.64001 39.0761L5.94214 38.3689C6.54639 38.5104 6.94922 38.6518 7.25134 38.9347C7.55347 39.2175 7.65417 39.5004 7.65417 39.9247C7.65417 40.4198 7.45276 40.8441 6.94922 41.1269C6.44568 41.4805 5.84143 41.622 5.03577 41.622C4.12939 41.622 3.52515 41.4805 3.02161 41.1269C2.51807 40.7733 2.31665 40.4198 2.31665 39.854C2.31665 39.4297 2.51807 39.0054 2.9209 38.7225C3.12231 38.5811 3.42444 38.4396 3.92798 38.3689L4.2301 39.0761C3.92798 39.1468 3.72656 39.2175 3.62585 39.359C3.42444 39.5004 3.42444 39.6418 3.42444 39.854C3.42444 40.1369 3.52515 40.349 3.82727 40.4905C4.12939 40.6319 4.53223 40.7733 5.23718 40.7733C5.94214 40.7733 6.34497 40.7026 6.64709 40.4905C6.94922 40.349 7.04993 40.1369 7.04993 39.854C7.04993 39.6418 6.94922 39.5004 6.7478 39.359C6.34497 39.2175 6.04285 39.1468 5.64001 39.0761Z" fill="#4D4D4D"/>
<path d="M7.55347 37.8032H2.31665L2.31665 37.0253H7.65417V37.8032H7.55347Z" fill="#4D4D4D"/>
<path d="M7.5531 33.0649V33.8428L6.3446 34.1964L6.3446 35.6815L7.5531 35.9644V36.813L2.21558 35.3986L2.21558 34.6207L7.5531 33.0649ZM5.43823 34.4086L3.52478 34.9036L5.43823 35.3986L5.43823 34.4086Z" fill="#4D4D4D"/>
<path d="M7.55347 31.58H2.31665L2.31665 29.0342H3.22302L3.22302 30.8021H4.43152V29.2463H5.33789V30.8021H7.55347V31.58Z" fill="#4D4D4D"/>
<path d="M7.55347 28.5392H2.31665L2.31665 27.7613H7.65417V28.5392H7.55347Z" fill="#4D4D4D"/>
<path d="M7.55347 27.1247H2.31665V26.4176L5.84143 24.8618H2.31665L2.31665 24.1546H7.65417V24.9325L4.12939 26.4176H7.65417V27.1247H7.55347Z" fill="#4D4D4D"/>
<path d="M7.5531 20.1235V20.9014L6.3446 21.255L6.3446 22.7401L7.5531 23.0229V23.8008L2.21558 22.3865L2.21558 21.6086L7.5531 20.1235ZM5.43823 21.4671L3.52478 21.9622L5.43823 22.4572L5.43823 21.4671Z" fill="#4D4D4D"/>
<path d="M7.55347 19.8407H2.31665V19.1335L5.84143 17.5777H2.31665L2.31665 16.8705H7.65417V17.6484L4.12939 19.1335H7.65417V19.8407H7.55347Z" fill="#4D4D4D"/>
<path d="M5.63965 13.759L5.94177 13.0518C6.54602 13.1932 6.94885 13.3347 7.25098 13.6176C7.5531 13.9004 7.65381 14.1833 7.65381 14.6076C7.65381 15.1026 7.45239 15.527 6.94885 15.8098C6.44531 16.1634 5.84106 16.3049 4.93469 16.3049C4.02832 16.3049 3.42407 16.1634 2.92053 15.8098C2.41699 15.527 2.21558 15.1026 2.21558 14.5369C2.21558 14.1126 2.41699 13.6883 2.81982 13.4054C3.02124 13.264 3.32336 13.1225 3.8269 13.0518L4.02832 13.8297C3.7262 13.9004 3.52478 13.9712 3.42407 14.1126C3.22266 14.254 3.22266 14.3955 3.22266 14.6076C3.22266 14.8905 3.32336 15.1026 3.62549 15.3148C3.92761 15.527 4.33044 15.5977 5.0354 15.5977C5.74036 15.5977 6.14319 15.527 6.44531 15.3148C6.74744 15.1734 6.84814 14.8905 6.84814 14.6783C6.84814 14.4662 6.74744 14.3247 6.54602 14.1833C6.3446 13.9712 6.04248 13.8297 5.63965 13.759Z" fill="#4D4D4D"/>
<path d="M7.55347 12.4861H2.31665L2.31665 11.7082H7.65417V12.4861H7.55347Z" fill="#4D4D4D"/>
<path d="M7.55347 11.1423H2.31665L2.31665 8.3843H3.22302L3.22302 10.3644H4.43152V8.52574H5.33789V10.3644H6.7478L6.7478 8.31358H7.65417L7.65417 11.1423H7.55347Z" fill="#4D4D4D"/>
<path d="M7.55347 7.74795H2.31665L2.31665 6.19215C2.31665 5.76784 2.31665 5.48496 2.41736 5.34353C2.51807 5.13137 2.71948 4.98993 2.9209 4.91922C3.12231 4.77778 3.42444 4.77778 3.72656 4.77778C4.12939 4.77778 4.43152 4.8485 4.73364 4.98993C5.03577 5.13137 5.13647 5.34353 5.23718 5.69712C5.33789 5.55568 5.53931 5.41424 5.64001 5.27281C5.84143 5.13137 6.04285 5.06065 6.44568 4.8485L7.45276 4.42419V5.34353L6.44568 5.83855C6.04285 6.05071 5.74072 6.19215 5.64001 6.26287C5.53931 6.33358 5.4386 6.4043 5.4386 6.47502C5.4386 6.54574 5.33789 6.68718 5.33789 6.82861V6.97005H7.55347V7.74795V7.74795ZM4.53223 7.04077L4.53223 6.47502C4.53223 6.12143 4.53223 5.90927 4.43152 5.83855C4.43152 5.76784 4.33081 5.69712 4.2301 5.6264C4.12939 5.55568 4.02869 5.48496 3.82727 5.48496C3.62585 5.48496 3.52515 5.48496 3.42444 5.55568C3.32373 5.6264 3.22302 5.76784 3.22302 5.90927C3.22302 5.97999 3.22302 6.12143 3.22302 6.47502V7.04077H4.53223Z" fill="#4D4D4D"/>
<path d="M7.5531 0.746826V1.52473L6.3446 1.87832L6.3446 3.36341L7.5531 3.64628V4.42418L2.21558 3.00981V2.23191L7.5531 0.746826ZM5.43823 2.09048L3.52478 2.65622L5.43823 3.15125V2.09048Z" fill="#4D4D4D"/>
<path d="M10.4734 60.4331L10.4734 59.0895C10.4734 58.8066 10.4734 58.5237 10.5741 58.3823C10.6748 58.1701 10.8762 57.958 11.0776 57.8165C11.2791 57.6751 11.5812 57.5337 11.984 57.4629C12.2861 57.3922 12.689 57.3215 13.1925 57.3215C13.5953 57.3215 13.9982 57.3922 14.3003 57.4629C14.7031 57.5337 15.0052 57.6751 15.2067 57.8873C15.4081 58.0287 15.5088 58.1701 15.6095 58.3823C15.7102 58.5237 15.7102 58.8066 15.7102 59.0187V60.4331H10.4734ZM11.3798 59.7259H14.9045V59.1602C14.9045 58.948 14.9045 58.8066 14.8038 58.7359C14.8038 58.5944 14.7031 58.5237 14.6024 58.453C14.5017 58.3823 14.3003 58.3116 14.0989 58.2408C13.8975 58.1701 13.4946 58.1701 13.0918 58.1701C12.689 58.1701 12.3868 58.1701 12.1854 58.2408C11.984 58.3116 11.7826 58.3823 11.6819 58.453C11.5812 58.5237 11.4805 58.6652 11.4805 58.8066C11.4805 58.8773 11.3798 59.0895 11.3798 59.4431V59.7259V59.7259Z" fill="#4D4D4D"/>
<path d="M15.7102 56.7556H10.4734L10.4734 53.9976H11.3798V55.9777H12.5883V54.139H13.4946V55.9777H14.9045V53.9268H15.8109V56.7556H15.7102Z" fill="#4D4D4D"/>
<path d="M13.7968 49.6838L14.0989 48.9766C14.7031 49.118 15.106 49.2595 15.4081 49.5423C15.7102 49.8252 15.8109 50.1081 15.8109 50.5324C15.8109 51.0274 15.6095 51.4517 15.106 51.7346C14.6024 52.0882 13.9982 52.2296 13.1925 52.2296C12.2861 52.2296 11.6819 52.0882 11.1783 51.7346C10.6748 51.381 10.4734 51.0274 10.4734 50.4617C10.4734 50.0374 10.6748 49.6131 11.0776 49.3302C11.2791 49.1887 11.5812 49.0473 12.0847 48.9766L12.3868 49.6838C12.0847 49.7545 11.8833 49.8252 11.7826 49.9666C11.5812 50.1081 11.5812 50.2495 11.5812 50.4617C11.5812 50.7446 11.6819 50.9567 11.984 51.0981C12.2861 51.2396 12.689 51.381 13.3939 51.381C14.0989 51.381 14.5017 51.3103 14.8038 51.0981C15.106 50.9567 15.2067 50.6738 15.2067 50.4617C15.2067 50.2495 15.106 50.1081 14.9045 49.9666C14.5017 49.8252 14.1996 49.7545 13.7968 49.6838Z" fill="#4D4D4D"/>
<path d="M13.1926 48.5524C12.6891 48.5524 12.1855 48.4817 11.7827 48.411C11.4806 48.3403 11.2792 48.1988 11.0778 48.0574C10.8763 47.916 10.6749 47.7745 10.5742 47.5624C10.4735 47.3502 10.3728 47.0673 10.3728 46.7845C10.3728 46.2187 10.5742 45.7944 11.0778 45.5115C11.5813 45.1579 12.1855 45.0165 13.0919 45.0165C13.9983 45.0165 14.6025 45.1579 15.1061 45.5115C15.6096 45.8651 15.811 46.2894 15.811 46.8552C15.811 47.4209 15.6096 47.8452 15.1061 48.1988C14.7032 48.411 13.9983 48.5524 13.1926 48.5524ZM13.0919 47.7745C13.6962 47.7745 14.099 47.7038 14.5018 47.4917C14.804 47.2795 15.0054 47.0673 15.0054 46.7845C15.0054 46.5016 14.804 46.2187 14.5018 46.0773C14.1997 45.8651 13.6962 45.7944 13.0919 45.7944C12.4877 45.7944 11.9841 45.8651 11.682 46.0773C11.3799 46.2894 11.2792 46.5016 11.2792 46.8552C11.2792 47.1381 11.3799 47.4209 11.7827 47.6331C12.0848 47.7038 12.4877 47.7745 13.0919 47.7745Z" fill="#4D4D4D"/>
<path d="M15.7102 44.4508H10.4734V43.6729H14.8038V41.8342H15.7102V44.4508Z" fill="#4D4D4D"/>
<path d="M13.1926 41.4805C12.6891 41.4805 12.1855 41.4097 11.7827 41.339C11.4806 41.2683 11.2792 41.1269 11.0778 40.9854C10.8763 40.844 10.6749 40.7026 10.5742 40.4904C10.4735 40.2783 10.3728 39.9954 10.3728 39.7125C10.3728 39.1468 10.5742 38.7224 11.0778 38.3689C11.5813 38.0153 12.1855 37.8738 13.0919 37.8738C13.9983 37.8738 14.6025 38.0153 15.1061 38.3689C15.6096 38.7224 15.811 39.1468 15.811 39.7125C15.811 40.2782 15.6096 40.7026 15.1061 41.0562C14.7032 41.339 13.9983 41.4805 13.1926 41.4805ZM13.0919 40.7733C13.6962 40.7733 14.099 40.7026 14.5018 40.4904C14.804 40.2783 15.0054 40.0661 15.0054 39.7832C15.0054 39.5003 14.804 39.2175 14.5018 39.076C14.1997 38.8639 13.6962 38.7932 13.0919 38.7932C12.4877 38.7932 11.9841 38.8639 11.682 39.076C11.3799 39.2882 11.2792 39.5003 11.2792 39.7832C11.2792 40.0661 11.3799 40.349 11.7827 40.5611C12.0848 40.6318 12.4877 40.7733 13.0919 40.7733Z" fill="#4D4D4D"/>
<path d="M15.7102 37.379H10.4734L10.4734 36.2475L14.0989 35.611L10.4734 34.9746V33.8431H15.7102V34.5502H11.5812L15.7102 35.2574V35.9646L11.5812 36.6718H15.7102V37.379V37.379Z" fill="#4D4D4D"/>
<path d="M10.4734 33.2063L10.4734 31.7212C10.4734 31.4384 10.4734 31.2262 10.4734 31.0848C10.4734 30.9433 10.5741 30.8019 10.6748 30.6605C10.7755 30.519 10.9769 30.4483 11.0776 30.3776C11.2791 30.3069 11.4805 30.2362 11.6819 30.2362C11.984 30.2362 12.1854 30.3069 12.3868 30.3776C12.5883 30.4483 12.7897 30.5898 12.8904 30.7312C12.9911 30.519 13.1925 30.3069 13.3939 30.2362C13.5953 30.0947 13.8975 30.024 14.1996 30.024C14.401 30.024 14.7031 30.0947 14.9045 30.1654C15.106 30.2362 15.3074 30.3776 15.4081 30.4483C15.5088 30.5898 15.6095 30.7312 15.6095 30.9433C15.6095 31.0848 15.6095 31.3677 15.6095 31.8627V33.1356H10.4734V33.2063ZM11.3798 32.4284H12.5883V31.9334C12.5883 31.6505 12.5883 31.4384 12.5883 31.3677C12.5883 31.2262 12.4875 31.1555 12.3868 31.0848C12.2861 31.0141 12.1854 31.0141 11.984 31.0141C11.7826 31.0141 11.6819 31.0141 11.5812 31.0848C11.4805 31.1555 11.3798 31.2262 11.3798 31.3677C11.3798 31.4384 11.3798 31.6505 11.3798 32.0041V32.4284ZM13.4946 32.4284H14.9045V31.7212C14.9045 31.4384 14.9045 31.2969 14.9045 31.2262C14.9045 31.0848 14.8038 31.0141 14.7031 30.9433C14.6024 30.8726 14.5017 30.8726 14.3003 30.8726C14.0989 30.8726 13.9982 30.8726 13.8975 30.9433C13.7968 31.0141 13.696 31.0848 13.696 31.1555C13.5953 31.2262 13.5953 31.5091 13.5953 31.792V32.4284H13.4946Z" fill="#4D4D4D"/>
<path d="M15.7102 29.529H10.4734V28.7511H15.7102V29.529V29.529Z" fill="#4D4D4D"/>
<path d="M15.7102 24.791V25.5689L14.5017 25.9225V27.4076L15.7102 27.6905V28.4684L10.4734 27.054V26.2761L15.7102 24.791ZM13.696 26.2054L11.7826 26.7004L13.696 27.1955V26.2054Z" fill="#4D4D4D"/>
<path d="M13.2938 131.434L4.53223 133.627V132.283L10.9775 130.727L4.53223 129.242V127.898L13.2938 130.091L13.2938 131.434Z" fill="#4D4D4D"/>
<path d="M13.2938 126.838H4.53223V125.565H13.2938V126.838Z" fill="#4D4D4D"/>
<path d="M10.0712 121.11H8.56055V118.422H12.0853C12.4882 118.705 12.7903 119.059 13.0924 119.554C13.3945 120.049 13.4952 120.544 13.4952 121.039C13.4952 121.675 13.2938 122.241 12.891 122.736C12.4882 123.231 11.9846 123.585 11.2797 123.797C10.5747 124.009 9.76904 124.151 8.96338 124.151C8.05701 124.151 7.25134 124.009 6.54639 123.726C5.84143 123.443 5.23718 123.09 4.93506 122.524C4.63293 122.1 4.53223 121.605 4.53223 121.039C4.53223 120.261 4.73364 119.695 5.23718 119.271C5.74072 118.847 6.34497 118.564 7.15063 118.422L7.45276 119.695C7.04993 119.766 6.64709 119.978 6.44568 120.19C6.14355 120.402 6.04285 120.756 6.04285 121.11C6.04285 121.675 6.24426 122.1 6.7478 122.383C7.25134 122.736 7.9563 122.878 8.96338 122.878C9.97046 122.878 10.7761 122.736 11.2797 122.383C11.7832 122.029 12.0853 121.605 12.0853 121.11C12.0853 120.827 11.9846 120.615 11.8839 120.332C11.6825 120.049 11.5818 119.837 11.3804 119.625H10.0712V121.11Z" fill="#4D4D4D"/>
<path d="M13.2938 116.866H4.53223V115.593H13.2938V116.866Z" fill="#4D4D4D"/>
<path d="M13.2938 113.967H4.53223L4.53223 112.694H11.7832V109.653H13.2938L13.2938 113.967Z" fill="#4D4D4D"/>
<path d="M13.2938 102.723V104.066L11.2797 104.632L11.2797 107.107L13.2938 107.602V108.946L4.53223 106.542V105.198L13.2938 102.723ZM9.76904 105.056L6.54639 105.905L9.76904 106.754V105.056Z" fill="#4D4D4D"/>
<path d="M4.53223 101.662L4.53223 99.399C4.53223 98.904 4.63293 98.4797 4.73364 98.1968C4.83435 97.8432 5.13647 97.5603 5.53931 97.2774C5.94214 96.9946 6.44568 96.8531 6.94922 96.7117C7.55347 96.5703 8.15771 96.4995 9.06409 96.4995C9.76904 96.4995 10.3733 96.5703 10.9775 96.7117C11.5818 96.8531 12.186 97.0653 12.4882 97.3482C12.7903 97.5603 12.9917 97.8432 13.1931 98.1968C13.2938 98.4797 13.3945 98.8333 13.3945 99.2576V101.591H4.53223V101.662ZM6.04285 100.389H11.8839V99.4697C11.8839 99.1161 11.8839 98.904 11.7832 98.6918C11.6825 98.4797 11.5818 98.3382 11.3804 98.1968C11.179 98.0554 10.8768 97.9846 10.5747 97.8432C10.1719 97.7725 9.66833 97.7018 8.96338 97.7018C8.25842 97.7018 7.75488 97.7725 7.35205 97.8432C6.94922 97.9139 6.7478 98.0554 6.54639 98.1968C6.34497 98.3382 6.24426 98.5504 6.14355 98.7625C6.04285 98.9747 6.04285 99.3283 6.04285 99.894L6.04285 100.389Z" fill="#4D4D4D"/>
<path d="M8.96301 95.2266C8.05664 95.2266 7.35168 95.1559 6.74744 94.9437C6.2439 94.8023 5.94177 94.5901 5.53894 94.378C5.13611 94.0951 4.93469 93.8829 4.73328 93.6001C4.53186 93.2465 4.43115 92.7514 4.43115 92.2564C4.43115 91.3371 4.83398 90.6299 5.63965 90.0641C6.44531 89.4984 7.5531 89.2155 8.96301 89.2155C10.3729 89.2155 11.4807 89.4984 12.2864 90.0641C13.092 90.6299 13.4949 91.3371 13.4949 92.2564C13.4949 93.1757 13.092 93.8829 12.2864 94.4487C11.4807 94.9437 10.3729 95.2266 8.96301 95.2266ZM8.8623 93.9537C9.86938 93.9537 10.5743 93.8122 11.1786 93.4586C11.6821 93.1758 11.9843 92.7514 11.9843 92.2564C11.9843 91.7614 11.6821 91.3371 11.1786 91.0542C10.675 90.7006 9.86938 90.5592 8.8623 90.5592C7.85522 90.5592 7.04956 90.7006 6.64673 91.0542C6.14319 91.3371 5.94177 91.7614 5.94177 92.2564C5.94177 92.7514 6.14319 93.1757 6.64673 93.5293C7.15027 93.8122 7.85522 93.9537 8.8623 93.9537Z" fill="#4D4D4D"/>
<path d="M0 87.3062L0 135.253H1.81274L1.81274 87.3062H0Z" fill="#4D4D4D"/>
<path d="M17.7249 87.3062H15.9121L15.9121 135.253H17.7249L17.7249 87.3062Z" fill="#4D4D4D"/>
</svg>
