<svg width="62" height="61" viewBox="0 0 62 61" fill="none" xmlns="http://www.w3.org/2000/svg">
<path d="M52.35 30.5C52.35 27.6963 51.7978 24.92 50.7249 22.3297C49.6519 19.7394 48.0793 17.3858 46.0968 15.4033C44.1142 13.4207 41.7606 11.8481 39.1703 10.7752C36.58 9.70223 33.8037 9.15 31 9.15C28.1963 9.15 25.42 9.70223 22.8297 10.7752C20.2394 11.8481 17.8858 13.4207 15.9033 15.4033C13.9208 17.3858 12.3481 19.7394 11.2752 22.3297C10.2023 24.92 9.65002 27.6963 9.65002 30.5C9.65002 36.1624 11.8994 41.5928 15.9033 45.5967C19.9072 49.6006 25.3377 51.85 31 51.85C36.6624 51.85 42.0929 49.6006 46.0968 45.5967C50.1007 41.5928 52.35 36.1624 52.35 30.5ZM13.2084 30.5C13.2084 25.7814 15.0828 21.256 18.4194 17.9194C21.756 14.5828 26.2814 12.7083 31 12.7083C35.7187 12.7083 40.244 14.5828 43.5806 17.9194C46.9172 21.256 48.7917 25.7814 48.7917 30.5C48.7917 35.2186 46.9172 39.744 43.5806 43.0806C40.244 46.4172 35.7187 48.2917 31 48.2917C26.2814 48.2917 21.756 46.4172 18.4194 43.0806C15.0828 39.744 13.2084 35.2186 13.2084 30.5ZM27.4417 26.0521C27.4417 26.4025 27.3727 26.7496 27.2385 27.0734C27.1044 27.3972 26.9078 27.6914 26.66 27.9392C26.4122 28.187 26.118 28.3836 25.7942 28.5177C25.4704 28.6518 25.1234 28.7208 24.7729 28.7208C24.4225 28.7208 24.0754 28.6518 23.7517 28.5177C23.4279 28.3836 23.1337 28.187 22.8858 27.9392C22.638 27.6914 22.4415 27.3972 22.3073 27.0734C22.1732 26.7496 22.1042 26.4025 22.1042 26.0521C22.1042 25.3443 22.3854 24.6655 22.8858 24.165C23.3863 23.6645 24.0651 23.3833 24.7729 23.3833C25.4807 23.3833 26.1595 23.6645 26.66 24.165C27.1605 24.6655 27.4417 25.3443 27.4417 26.0521ZM39.8959 26.0521C39.8959 26.7599 39.6147 27.4387 39.1142 27.9392C38.6137 28.4397 37.9349 28.7208 37.2271 28.7208C36.5193 28.7208 35.8405 28.4397 35.34 27.9392C34.8395 27.4387 34.5584 26.7599 34.5584 26.0521C34.5584 25.3443 34.8395 24.6655 35.34 24.165C35.8405 23.6645 36.5193 23.3833 37.2271 23.3833C37.9349 23.3833 38.6137 23.6645 39.1142 24.165C39.6147 24.6655 39.8959 25.3443 39.8959 26.0521ZM24.3531 40.5416C27.6445 36.6417 34.352 36.6417 37.647 40.5416C37.794 40.7308 37.9777 40.8883 38.1871 41.0047C38.3965 41.1211 38.6273 41.194 38.8655 41.2191C39.1038 41.2442 39.3446 41.2209 39.5737 41.1506C39.8027 41.0803 40.0152 40.9645 40.1984 40.8101C40.3815 40.6556 40.5317 40.4658 40.6397 40.252C40.7477 40.0382 40.8115 39.8047 40.8271 39.5657C40.8427 39.3266 40.8098 39.0868 40.7305 38.8608C40.6512 38.6347 40.5271 38.427 40.3656 38.2501C35.6508 32.6635 26.3457 32.6635 21.6345 38.2501C21.473 38.427 21.3488 38.6347 21.2695 38.8608C21.1902 39.0868 21.1574 39.3266 21.173 39.5657C21.1886 39.8047 21.2523 40.0382 21.3604 40.252C21.4684 40.4658 21.6185 40.6556 21.8017 40.8101C21.9849 40.9645 22.1973 41.0803 22.4264 41.1506C22.6554 41.2209 22.8963 41.2442 23.1345 41.2191C23.3728 41.194 23.6035 41.1211 23.8129 41.0047C24.0223 40.8883 24.206 40.7308 24.3531 40.5416Z" fill="#E01F26"/>
</svg>
