<svg width="12" height="12" viewBox="0 0 12 12" fill="none" xmlns="http://www.w3.org/2000/svg">
<path d="M0.75 5.44444H5.39187V0.799999H0.75V5.44444ZM1.91047 1.96111H4.2314V4.28333H1.91047V1.96111ZM0.75 11.25H5.39187V6.60555H0.75V11.25ZM1.91047 7.76667H4.2314V10.0889H1.91047V7.76667ZM6.55233 0.799999V5.44444H11.1942V0.799999H6.55233ZM10.0337 4.28333H7.7128V1.96111H10.0337V4.28333ZM6.55813 6.60555H7.7186V7.76667H6.55813V6.60555ZM7.7186 7.76667H8.87907V8.92778H7.7186V7.76667ZM6.55813 8.92778H7.7186V10.0889H6.55813V8.92778ZM8.87907 8.92778H10.0395V10.0889H8.87907V8.92778ZM10.0395 10.0889H11.2V11.25H10.0395V10.0889ZM7.7186 10.0889H8.87907V11.25H7.7186V10.0889ZM8.87907 6.60555H10.0395V7.76667H8.87907V6.60555ZM10.0395 7.76667H11.2V8.92778H10.0395V7.76667Z" fill="white"/>
</svg>
