<svg width="24" height="24" viewBox="0 0 24 24" fill="none" xmlns="http://www.w3.org/2000/svg">
<path fill-rule="evenodd" clip-rule="evenodd" d="M16.7069 11.293L9.70685 4.29297C9.614 4.20013 9.50378 4.12648 9.38247 4.07623C9.26117 4.02598 9.13115 4.00012 8.99985 4.00012C8.73467 4.00012 8.48036 4.10546 8.29285 4.29297C8.2 4.38582 8.12636 4.49604 8.07611 4.61735C8.02586 4.73865 8 4.86867 8 4.99997C8 5.26515 8.10534 5.51946 8.29285 5.70697L14.5858 12L8.29285 18.293C8.10534 18.4805 8 18.7348 8 19C8 19.2651 8.10534 19.5195 8.29285 19.707C8.48036 19.8945 8.73467 19.9998 8.99985 19.9998C9.26503 19.9998 9.51934 19.8945 9.70685 19.707L16.7069 12.707C16.7998 12.6142 16.8735 12.504 16.9238 12.3827C16.9742 12.2613 17 12.1313 17 12C17 11.8686 16.9742 11.7386 16.9238 11.6173C16.8735 11.496 16.7998 11.3858 16.7069 11.293Z" fill="#439B3A"/>
</svg>
