<svg width="242" height="33" viewBox="0 0 242 33" fill="none" xmlns="http://www.w3.org/2000/svg">
<g clip-path="url(#clip0_28_499)">
<path d="M67.2865 32.2097H67.0173V27.3042V9.32416V0.5H67.2865V2.32869V18.8242V32.2097Z" fill="black"/>
<path d="M33.7548 4.11194H19.3865V29.104H33.7548V4.11194Z" fill="#FF5F00"/>
<path d="M20.2989 16.6063C20.2946 11.7298 22.608 7.12287 26.5703 4.10823C19.4408 -1.31564 9.11464 -0.117251 3.51202 6.78699C-2.0948 13.6871 -0.85819 23.6806 6.27548 29.1045C12.2314 33.6368 20.6185 33.6368 26.5745 29.1045C22.6123 26.094 20.2989 21.487 20.3031 16.6063H20.2989Z" fill="#E8001B"/>
<path d="M53.1417 16.6056C53.1417 25.3842 45.7893 32.4999 36.7208 32.4999C33.0404 32.4999 29.4651 31.3015 26.5713 29.0996C33.7008 23.6716 34.9374 13.6781 29.3305 6.77797C28.523 5.78691 27.5976 4.88708 26.5713 4.1075C33.7008 -1.31637 44.0269 -0.122125 49.6295 6.78211C51.9051 9.58113 53.1417 13.0436 53.1417 16.6056Z" fill="#F49B1B"/>
<path d="M51.5756 26.454V25.944H51.7902V25.8403H51.2476V25.944H51.4621V26.454H51.5798H51.5756ZM52.6272 26.454V25.8362H52.4589L52.2655 26.2591L52.072 25.8362H51.9037V26.454H52.0215V25.9896L52.2024 26.3918H52.3243L52.5052 25.9896V26.454H52.623H52.6272Z" fill="#F49B1B"/>
<path d="M96.5693 11.9697C96.4768 11.7665 96.3127 11.6462 96.3127 11.6462L94.3779 9.97096V7.68198C94.3779 7.68198 94.3442 7.49538 94.298 7.39172C94.2433 7.26732 94.1424 7.16365 94.1424 7.16365L86.9246 1.50342V22.1622H90.525V24.2604H95.787C95.787 24.2604 96.094 24.2895 96.4053 23.9992C96.6324 23.7877 96.6408 23.4187 96.6408 23.4187V12.2226C96.6408 12.2226 96.6072 12.0609 96.5651 11.9697" fill="#F3CC23"/>
<path d="M83.2573 13.2633C83.3246 13.1347 83.4045 13.0435 83.4045 13.0435L88.8304 8.55261V25.1684H84.0396C84.0396 25.1684 83.6905 25.1933 83.4255 24.9237C83.1647 24.6542 83.1773 24.3308 83.1773 24.3308V13.5701C83.1773 13.5701 83.1984 13.3752 83.2573 13.2633Z" fill="#3A683D"/>
<path d="M92.3423 23.9537H93.4065V9.66425L92.3423 8.78516V23.9537Z" fill="#3A683D"/>
<path d="M94.7484 10.7754L93.7263 9.92944V23.9494H94.7484V10.7754Z" fill="#3A683D"/>
<path d="M92.0232 8.51964L91.5016 8.08838L90.8455 7.54517V23.9536H91.5016H92.0232V8.51964Z" fill="#3A683D"/>
<path d="M96.25 12.1023C96.1785 11.9904 96.1196 11.9074 96.1196 11.9074L95.7116 11.5715L95.0723 11.0408V23.9494H96.0775C96.0775 23.9494 96.1869 23.937 96.2668 23.8831C96.3341 23.8333 96.3299 23.7296 96.3299 23.7296V12.3553C96.3299 12.3553 96.3299 12.2267 96.25 12.1023Z" fill="#3A683D"/>
<path d="M113.449 17.1778C113.108 17.9906 112.528 18.6831 111.724 19.2387C110.904 19.8027 110.046 20.093 109.167 20.093C107.586 20.093 106.282 19.4544 105.285 18.1896C104.364 17.0203 103.897 15.6104 103.897 13.9973C103.897 12.3843 104.33 11.1029 105.184 9.98748C106.118 8.7725 107.354 8.15464 108.86 8.15464C109.886 8.15464 110.799 8.41588 111.577 8.93836C112.393 9.47743 112.936 10.228 113.192 11.1651L113.218 11.2564H113.79L113.651 8.26245L113.176 8.22928L113.133 8.29148C113.108 8.3288 113.066 8.37027 112.961 8.37027C112.936 8.37027 112.814 8.35368 112.385 8.16293C111.35 7.69021 110.164 7.44556 108.86 7.44556C106.866 7.44556 105.175 8.15879 103.842 9.56451C102.547 10.9371 101.89 12.6331 101.89 14.6069C101.89 16.39 102.555 17.8911 103.867 19.0687C105.138 20.2049 106.706 20.7813 108.532 20.7813C109.079 20.7813 110.273 20.6362 112.191 20.3335L112.233 20.3252L112.263 20.2961C113.045 19.5332 113.651 18.5545 114.063 17.3769L114.105 17.2525L113.487 17.0742L113.445 17.1778H113.449Z" fill="#272425"/>
<path d="M203.692 13.3878C205.265 13.0022 206.069 12.0443 206.069 10.5183C206.069 9.49407 205.455 8.69376 204.247 8.14225C203.309 7.71514 202.237 7.49951 201.067 7.49951C198.779 7.49951 196.844 7.55342 195.313 7.65294L195.196 7.66123V8.3247H195.322C196.685 8.3247 197.349 8.69376 197.349 9.4526V18.7578C197.349 19.4337 197.139 19.8525 196.706 20.0391C196.47 20.1428 195.936 20.1967 195.112 20.2091H195.015L194.855 20.7938H201.543C202.939 20.7938 204.104 20.5491 204.996 20.064C206.144 19.442 206.729 18.4717 206.729 17.1903C206.729 16.0044 206.414 15.0921 205.795 14.4742C205.345 14.0098 204.634 13.6449 203.696 13.3878M199.204 8.23762H201.37C203.187 8.23762 204.071 9.11672 204.071 10.9247C204.071 11.8701 203.751 12.488 203.095 12.8156C202.641 13.0436 201.871 13.1597 200.807 13.1597H199.204V8.23762ZM203.654 19.3217C203.015 19.8525 202.212 20.122 201.265 20.122C199.873 20.122 199.2 19.7032 199.2 18.8407V13.8149H201.69C202.683 13.8149 203.444 14.1259 203.961 14.7355C204.432 15.3036 204.672 16.108 204.672 17.1157C204.672 18.0321 204.34 18.7536 203.654 19.3176" fill="#272425"/>
<path d="M124.259 20.2464C123.889 20.2464 123.51 19.9768 123.136 19.4585C123.136 19.4585 121.344 16.9663 121.003 16.4936C121.55 16.2448 122.004 15.9131 122.337 15.5109C122.732 15.0423 122.93 14.5156 122.93 13.9476C122.93 12.8155 122.353 12.0401 121.226 11.6378C120.528 11.389 119.438 11.2605 117.987 11.2605C116.683 11.2605 115.682 11.302 115.014 11.3849L114.934 11.3932V11.8037H115.026C115.573 11.7954 115.952 11.8949 116.158 12.094C116.28 12.2142 116.339 12.3718 116.339 12.5709V19.2553C116.339 19.67 116.25 19.9603 116.074 20.1137C115.897 20.2713 115.569 20.35 115.102 20.3459H114.946L114.875 20.8062H119.468L119.485 20.6445L119.409 20.3791H119.338C118.904 20.4039 118.543 20.3293 118.261 20.1634C117.945 19.9768 117.79 19.7073 117.79 19.3424V16.7549C118.286 16.8668 118.702 16.929 119.018 16.929C119.228 16.929 119.443 16.9083 119.661 16.8834C119.716 16.9663 121.335 19.3507 121.335 19.3507C121.579 19.7156 122.008 20.0432 122.614 20.3335C123.216 20.6237 123.758 20.7647 124.229 20.7564C124.233 20.7564 124.41 20.7398 124.41 20.7398L124.334 20.2464H124.259ZM119.157 16.3402C118.564 16.3402 118.109 16.3029 117.79 16.2324V11.8659C117.912 11.8535 118.349 11.8037 118.349 11.8037C118.601 11.7664 118.812 11.7498 118.976 11.7498C119.632 11.7498 120.187 11.9737 120.616 12.4133C121.024 12.8362 121.23 13.3546 121.23 13.9517C121.23 14.6483 121.079 15.2081 120.784 15.6145C120.427 16.1038 119.897 16.3402 119.161 16.3402" fill="#272425"/>
<path d="M133.273 18.4593C133.046 19.5457 132.608 20.0765 131.927 20.0765H128.865C128.642 20.0765 128.343 20.0101 128.343 19.4462V16.1744H131.052C131.418 16.1744 131.683 16.5518 131.83 17.3023L131.843 17.3728H132.246V14.3955H131.838L131.826 14.4701C131.704 15.1792 131.443 15.54 131.048 15.54H128.339V12.0568H131.767C132.322 12.0568 132.646 12.5212 132.755 13.4791L132.764 13.5579H133.21L133.121 11.385H125.289V11.7914H125.378C125.988 11.7914 126.396 11.8494 126.598 11.9655C126.766 12.0651 126.85 12.2683 126.85 12.571V19.5664C126.85 20.0806 126.295 20.3502 125.205 20.3584H125.117V20.7731H133.441L133.752 18.4136L133.29 18.3805L133.273 18.4551V18.4593Z" fill="#272425"/>
<path d="M142.758 12.1562C141.592 11.5798 140.003 11.2896 138.021 11.2896C136.697 11.2896 135.632 11.331 134.858 11.414L134.778 11.4222V11.8494L135.245 11.8245C136.024 11.8245 136.112 12.1977 136.112 12.4755V19.33C136.112 19.7281 136.011 19.9893 135.796 20.1344C135.607 20.263 135.275 20.3252 134.804 20.321H134.711V20.773H139.527C141.13 20.773 142.459 20.3003 143.485 19.3673C144.516 18.4301 145.037 17.2276 145.037 15.7887C145.037 14.13 144.268 12.9109 142.758 12.1562ZM142.408 18.9982C141.757 19.8898 140.789 20.3459 139.523 20.3459H138.055C137.933 20.3459 137.567 20.3459 137.567 19.4751V11.7954C137.702 11.7913 138.282 11.7706 138.282 11.7706C141.635 11.7706 143.262 13.168 143.262 16.0375C143.262 17.2359 142.976 18.2353 142.413 18.9982" fill="#272425"/>
<path d="M145.79 11.7872H145.883C146.383 11.7831 146.737 11.8411 146.934 11.9655C147.166 12.1148 147.275 12.3885 147.275 12.8032V19.3301C147.275 20.0184 146.804 20.3501 145.837 20.3501H145.744V20.7565H150.148V20.3501H150.06C149.563 20.3543 149.21 20.2921 149.017 20.1718C148.781 20.0226 148.667 19.7489 148.667 19.3301V12.8032C148.667 12.119 149.122 11.7831 150.064 11.7831H150.152V11.3767H145.795V11.7831L145.79 11.7872Z" fill="#272425"/>
<path d="M159.834 18.2726C159.565 18.8532 159.111 19.3466 158.484 19.7406C157.841 20.1428 157.164 20.3501 156.474 20.3501C155.233 20.3501 154.207 19.894 153.424 18.9942C152.701 18.1607 152.335 17.1572 152.335 16.0127C152.335 14.8682 152.676 13.9559 153.344 13.1598C154.076 12.2931 155.048 11.8536 156.234 11.8536C157.037 11.8536 157.757 12.0402 158.366 12.4092C159.006 12.7949 159.431 13.3256 159.633 13.9932L159.654 14.0554H160.087L159.977 11.924L159.624 11.9033L159.595 11.9448C159.565 11.9863 159.519 12.007 159.452 12.007C159.422 12.007 159.325 11.9945 158.993 11.8577C158.186 11.5218 157.256 11.3518 156.242 11.3518C154.686 11.3518 153.365 11.8577 152.326 12.8571C151.313 13.8357 150.8 15.0424 150.8 16.4439C150.8 17.717 151.321 18.7868 152.347 19.6245C153.34 20.4289 154.564 20.8394 155.99 20.8394C156.415 20.8394 157.349 20.7358 158.85 20.5201H158.875L158.896 20.4994C159.506 19.9562 159.982 19.2595 160.301 18.4219L160.339 18.3307L159.872 18.2104L159.839 18.2768L159.834 18.2726Z" fill="#272425"/>
<path d="M170.291 12.4548C169.286 11.671 167.982 11.2729 166.426 11.2729C164.87 11.2729 163.524 11.7664 162.527 12.7409C161.564 13.6905 161.072 14.9013 161.072 16.3443C161.072 17.7874 161.606 18.849 162.661 19.6741C163.658 20.4579 164.95 20.8559 166.514 20.8559C168.079 20.8559 169.421 20.3625 170.422 19.388C171.393 18.4384 171.89 17.2276 171.89 15.7845C171.89 14.3415 171.351 13.2799 170.291 12.4548ZM169.404 19.0729C168.769 19.8815 167.827 20.292 166.607 20.292C165.387 20.292 164.436 19.8193 163.726 18.8863C163.099 18.0611 162.779 17.0659 162.779 15.9297C162.779 14.7935 163.053 13.819 163.591 13.0892C164.218 12.2433 165.147 11.812 166.354 11.812C167.562 11.812 168.546 12.2972 169.274 13.2592C169.913 14.1051 170.241 15.1169 170.241 16.2614C170.241 17.4059 169.959 18.3596 169.404 19.0729Z" fill="#272425"/>
<path d="M181.543 20.2464C181.173 20.2464 180.798 19.9768 180.42 19.4585C180.42 19.4585 178.401 16.6553 178.287 16.4936C178.834 16.2448 179.284 15.9131 179.62 15.5109C180.016 15.0423 180.214 14.5156 180.214 13.9476C180.214 12.8155 179.641 12.0401 178.51 11.6378C177.812 11.389 176.722 11.2605 175.271 11.2605C173.967 11.2605 172.966 11.302 172.298 11.3849L172.218 11.3932V11.8037H172.31C172.857 11.7954 173.24 11.8949 173.442 12.094C173.564 12.2142 173.622 12.3718 173.622 12.5709V19.2553C173.622 19.67 173.534 19.9561 173.357 20.1137C173.181 20.2754 172.857 20.35 172.39 20.3459H172.23L172.159 20.8062H176.811L176.693 20.3791H176.621C176.188 20.4039 175.826 20.3293 175.545 20.1634C175.229 19.9768 175.074 19.7073 175.074 19.3424V16.7549C175.578 16.871 175.986 16.929 176.302 16.929C176.508 16.929 176.727 16.9083 176.945 16.8834C177 16.9663 178.619 19.3507 178.619 19.3507C178.863 19.7114 179.297 20.0432 179.898 20.3335C180.504 20.6237 181.046 20.7647 181.517 20.7564C181.522 20.7564 181.698 20.7398 181.698 20.7398L181.618 20.2464H181.543ZM176.441 16.3402C175.848 16.3402 175.389 16.3029 175.074 16.2324V11.8659C175.196 11.8535 175.633 11.8037 175.633 11.8037C175.885 11.7664 176.096 11.7498 176.26 11.7498C176.916 11.7498 177.471 11.9737 177.9 12.4133C178.308 12.8362 178.514 13.3546 178.514 13.9517C178.514 14.6483 178.363 15.2081 178.068 15.6145C177.715 16.0955 177.172 16.3402 176.445 16.3402" fill="#272425"/>
<path d="M188.87 11.6377C188.171 11.3889 187.078 11.2645 185.622 11.2645C184.318 11.2645 183.317 11.306 182.644 11.3889L182.565 11.3972V11.8036H182.657C183.208 11.8036 183.587 11.899 183.789 12.098C183.91 12.2183 183.969 12.3717 183.969 12.5707V19.2511C183.969 19.6657 183.881 19.956 183.704 20.1094C183.528 20.267 183.2 20.3458 182.737 20.3416H182.577L182.506 20.8019H187.158L187.036 20.3748H186.964C186.535 20.3997 186.173 20.325 185.887 20.1592C185.572 19.9726 185.416 19.703 185.416 19.3381V16.7506C185.921 16.8626 186.337 16.9248 186.649 16.9248C187.625 16.9248 188.512 16.6552 189.282 16.1244C190.131 15.5398 190.56 14.8058 190.56 13.9433C190.56 12.8112 189.988 12.0358 188.861 11.6336M188.415 15.6227C188.058 16.1079 187.528 16.3401 186.792 16.3401C186.199 16.3401 185.744 16.3028 185.42 16.2323V11.8658C185.547 11.8534 185.98 11.8036 185.98 11.8036C186.232 11.7663 186.447 11.7538 186.607 11.7538C187.267 11.7538 187.818 11.9778 188.247 12.4173C188.655 12.8361 188.861 13.3545 188.861 13.9557C188.861 14.6565 188.71 15.2205 188.415 15.6268" fill="#272425"/>
<path d="M216.294 20.2133C216.126 20.1345 215.97 19.9355 215.84 19.6245L212.374 11.4016H211.385L211.272 11.5799L211.339 11.6297C211.339 11.6297 211.381 11.6711 211.381 11.7333C211.381 11.7665 211.377 11.7914 211.364 11.8163C211.364 11.8204 208.155 19.4006 208.155 19.4006C207.894 20.0101 207.579 20.317 207.208 20.317H206.62V20.7897H210.384V20.317H209.328C208.891 20.317 208.836 20.118 208.836 19.9396C208.836 19.8733 208.899 19.6203 209.328 18.6417L209.964 17.2401C210.035 17.0743 210.132 17.0535 210.207 17.0535H213.063C213.122 17.0535 213.215 17.0743 213.291 17.265L214.052 19.0771C214.216 19.4669 214.3 19.7613 214.3 19.9521C214.3 20.205 214.182 20.317 213.917 20.317H212.786V20.7897H217.207V20.317H217.118C216.719 20.317 216.445 20.2838 216.302 20.2175M212.744 16.2906H210.38C210.409 16.2118 210.599 15.7473 211.596 13.3837C211.604 13.363 211.608 13.3547 211.617 13.3464C211.629 13.3588 211.646 13.3713 211.654 13.3837C211.654 13.3837 212.74 15.9713 212.79 16.0957C212.79 16.104 212.794 16.2408 212.794 16.2408C212.794 16.274 212.794 16.2864 212.74 16.2864" fill="#272425"/>
<path d="M229.295 11.4016H225.964V11.9034H226.057C226.364 11.8909 226.625 11.9407 226.856 12.0402C227.121 12.1605 227.251 12.3305 227.251 12.5585V18.5132C226.953 18.198 220.479 11.4016 220.479 11.4016H218.061L217.989 11.8495L218.082 11.8619C218.364 11.8909 218.603 11.9573 218.814 12.0609C219.074 12.1853 219.196 12.3305 219.196 12.5129V19.894C219.196 20.1926 218.826 20.3419 218.09 20.3419H217.968L218.111 20.7856H221.535V20.3377L221.119 20.3626C220.349 20.3626 219.975 20.118 219.975 19.6079V13.1018C220.273 13.4003 227.621 20.7897 227.621 20.7897H228.067V12.5585C228.067 12.2641 228.172 12.0817 228.391 12.007C228.421 11.9987 228.564 11.9739 229.232 11.8992L229.426 11.8785L229.291 11.4016H229.295Z" fill="#272425"/>
<path d="M241.232 20.3585C240.736 20.4041 240.29 20.375 239.903 20.2755C239.764 20.2382 239.436 20.0309 238.658 19.2264L238.431 18.9818L237.451 17.9326C236.522 16.9872 235.71 16.3196 235.037 15.9422C235.192 15.7971 236.395 14.6858 236.395 14.6858C236.526 14.5614 236.896 14.1094 237.527 13.3049C237.998 12.7037 238.393 12.3014 238.696 12.1148C238.881 12.007 239.087 11.9365 239.298 11.9158L239.55 11.9075L240.059 11.8868V11.3933H236.13L236.042 11.8038L236.143 11.8121C236.652 11.8536 237.258 11.9656 237.258 12.2683C237.258 12.4092 237.115 12.7285 236.442 13.4542L235.276 14.636C234.683 15.2456 234.074 15.6934 233.455 15.9795V12.8239C233.455 12.5254 233.539 12.2931 233.708 12.1273C233.931 11.9075 234.317 11.7997 234.847 11.8038H234.94V11.3975H230.582V11.8038H230.675C231.171 11.7997 231.525 11.8577 231.726 11.9821C231.958 12.1314 232.067 12.4051 232.067 12.8198V19.3508C232.067 19.6494 231.987 19.8733 231.815 20.0392C231.583 20.2631 231.184 20.375 230.629 20.3709H230.536V20.7773H234.94V20.3709H234.847C234.355 20.375 234.002 20.3128 233.804 20.1843C233.569 20.035 233.455 19.7613 233.455 19.3508V16.7135C234.296 17.1199 235.167 17.7336 236.046 18.5546L236.98 19.3881C237.628 19.9977 237.661 20.147 237.661 20.1677C237.661 20.2465 237.544 20.3004 237.447 20.3294C237.308 20.3792 237.178 20.4041 237.047 20.4041C236.9 20.4041 236.757 20.3875 236.627 20.3543L236.534 20.3294L236.454 20.7731H241.333V20.346L241.237 20.3543L241.232 20.3585Z" fill="#272425"/>
<path d="M175.675 29.1288C175.511 29.5518 175.276 29.9001 174.969 30.1738C174.216 30.2857 173.732 30.3396 173.513 30.3396C172.794 30.3396 172.184 30.1364 171.684 29.7301C171.166 29.3112 170.91 28.7805 170.91 28.1419C170.91 27.4328 171.166 26.8315 171.675 26.3422C172.201 25.8363 172.857 25.5834 173.644 25.5834C174.161 25.5834 174.62 25.6663 175.032 25.8405C175.162 25.8944 175.25 25.9193 175.284 25.9193C175.335 25.9193 175.368 25.9027 175.398 25.8695L175.511 25.8778L175.562 26.8771H175.423C175.318 26.5247 175.095 26.2468 174.758 26.0437C174.439 25.8488 174.064 25.7534 173.644 25.7534C173.021 25.7534 172.521 25.9815 172.134 26.4376C171.785 26.8523 171.608 27.3499 171.608 27.9263C171.608 28.5026 171.797 29.0417 172.172 29.4813C172.584 29.954 173.109 30.1903 173.761 30.1903C174.123 30.1903 174.472 30.0825 174.813 29.8711C175.141 29.6637 175.381 29.4066 175.52 29.0998L175.671 29.1412L175.675 29.1288Z" fill="#272425"/>
<path d="M180.092 29.8958V30.0285L178.968 30.3105V29.7175C178.51 30.128 178.005 30.3354 177.463 30.3354C176.92 30.3354 176.655 30.0036 176.655 29.3484V27.8805C176.655 27.7437 176.605 27.6359 176.499 27.5612C176.394 27.4824 176.268 27.4451 176.117 27.4451L176.1 27.3083L177.206 27.1341V29.2945C177.206 29.4853 177.273 29.647 177.412 29.7797C177.551 29.9165 177.723 29.9912 177.934 29.9912C178.144 29.9912 178.489 29.8295 178.973 29.5185V27.6898C178.973 27.5239 178.737 27.4285 178.262 27.4036V27.2917L179.507 27.0885V29.676C179.507 29.8419 179.608 29.9248 179.81 29.9248C179.864 29.9248 179.961 29.9082 180.096 29.8834" fill="#272425"/>
<path d="M183.717 29.4853C183.414 30.07 182.927 30.3644 182.266 30.3644C181.837 30.3644 181.48 30.1985 181.185 29.8626C180.912 29.5516 180.773 29.1991 180.773 28.8094C180.773 28.3657 180.912 27.9925 181.194 27.6898C181.492 27.3663 181.888 27.2046 182.375 27.2046C182.762 27.2046 183.074 27.3083 183.318 27.5156C183.557 27.7271 183.679 28.0049 183.679 28.3532H181.286C181.273 28.4444 181.265 28.5398 181.265 28.6393C181.265 28.9711 181.379 29.2738 181.602 29.5516C181.846 29.8585 182.148 30.0119 182.506 30.0119C182.969 30.0119 183.322 29.8253 183.566 29.4521H183.595C183.65 29.4521 183.688 29.4604 183.717 29.4894M183.107 28.1666C183.099 27.9427 183.011 27.7561 182.842 27.6151C182.678 27.4741 182.468 27.4036 182.216 27.4036C182.005 27.4036 181.82 27.4866 181.656 27.6483C181.513 27.7934 181.416 27.9676 181.362 28.1666H183.103H183.107Z" fill="#272425"/>
<path d="M188.348 30.3023H186.678V30.153C187.019 30.153 187.187 30.0037 187.187 29.7052V28.1958C187.187 28.0009 187.145 27.8392 187.053 27.7023C186.943 27.5365 186.792 27.4577 186.59 27.4577C186.27 27.4577 185.883 27.607 185.421 27.9055V29.8006C185.421 30.0203 185.61 30.1364 185.993 30.1572L185.972 30.3064H184.369L184.356 30.2774L184.382 30.1738C184.537 30.1738 184.663 30.1157 184.756 30.0037C184.844 29.9001 184.891 29.7798 184.891 29.6347V27.8101C184.891 27.7314 184.811 27.665 184.659 27.6194C184.638 27.6111 184.52 27.5862 184.302 27.5448V27.4618C184.411 27.4452 184.588 27.3955 184.832 27.3001C185.055 27.2089 185.21 27.1384 185.286 27.0845L185.425 27.1757V27.7687C186.152 27.354 186.657 27.1508 186.931 27.1508C187.204 27.1508 187.41 27.2628 187.557 27.4826C187.684 27.665 187.747 27.8848 187.747 28.1377V29.8669C187.747 30.0452 187.94 30.1406 188.327 30.1406L188.348 30.3023Z" fill="#272425"/>
<path d="M190.935 29.7174C190.712 30.1072 190.413 30.3021 190.026 30.3021C189.799 30.3021 189.606 30.2399 189.45 30.1155C189.286 29.9828 189.206 29.8169 189.206 29.6096V27.528H188.849L188.794 27.3663C189.063 27.275 189.257 27.1382 189.383 26.9599C189.475 26.8272 189.555 26.6116 189.627 26.3171H189.757V27.2709H190.939L190.783 27.5321H189.757V29.4106C189.757 29.5267 189.824 29.6469 189.955 29.7838C190.089 29.9165 190.22 29.9828 190.35 29.9828C190.434 29.9828 190.607 29.8626 190.868 29.6179C190.918 29.6179 190.939 29.6552 190.939 29.7299" fill="#272425"/>
<path d="M195.028 29.9705C194.78 30.1322 194.654 30.2151 194.649 30.2193C194.49 30.3063 194.342 30.3519 194.204 30.3519C193.993 30.3519 193.846 30.2068 193.766 29.9165C193.467 30.1114 193.303 30.2151 193.27 30.2317C193.106 30.3146 192.921 30.3519 192.706 30.3519C192.492 30.3519 192.319 30.2897 192.176 30.1571C192.033 30.0285 191.962 29.8709 191.962 29.6843C191.962 29.4521 192.063 29.2614 192.269 29.1162C192.391 29.0292 192.605 28.9296 192.916 28.8135L193.754 28.5067V28.0132C193.754 27.8391 193.682 27.6939 193.543 27.5737C193.404 27.4534 193.236 27.3954 193.043 27.3954C192.727 27.3954 192.572 27.5446 192.572 27.8432C192.572 27.8639 192.572 27.8888 192.588 27.922C192.601 27.9552 192.605 27.98 192.605 27.9966C192.605 28.0796 192.538 28.1501 192.399 28.2164C192.281 28.2745 192.168 28.2993 192.067 28.2993C192.025 28.2993 192.004 28.2703 192.004 28.2081C192.004 27.9137 192.138 27.6732 192.416 27.4866C192.668 27.3124 192.963 27.2253 193.303 27.2253C193.644 27.2253 193.892 27.2834 194.048 27.3954C194.225 27.5198 194.313 27.7312 194.313 28.0257V29.7341C194.313 29.9248 194.384 30.0202 194.532 30.0202C194.62 30.0202 194.784 29.958 195.02 29.8336L195.028 29.9705ZM193.754 29.6926V28.6974L193.005 28.996C192.668 29.1287 192.496 29.3402 192.496 29.6346C192.496 29.7631 192.542 29.8626 192.63 29.9373C192.723 30.0119 192.837 30.0492 192.98 30.0492C193.123 30.0492 193.266 30.0161 193.396 29.9414C193.455 29.9083 193.577 29.8253 193.754 29.6968" fill="#272425"/>
<path d="M200.883 29.4853C200.58 30.07 200.092 30.3602 199.432 30.3602C199.003 30.3602 198.641 30.2068 198.346 29.8999C198.065 29.6055 197.922 29.2655 197.922 28.8757C197.922 28.3905 198.107 27.9883 198.481 27.669C198.851 27.358 199.31 27.2046 199.856 27.2046C200.021 27.2046 200.21 27.2502 200.424 27.3414C200.677 27.441 200.799 27.5488 200.799 27.6607C200.799 27.8681 200.685 27.9759 200.466 27.9759C200.328 27.9759 200.239 27.9261 200.197 27.8266C200.155 27.7354 200.117 27.64 200.084 27.5488C200.004 27.4451 199.848 27.3995 199.617 27.3995C199.242 27.3995 198.952 27.5488 198.742 27.8515C198.565 28.1086 198.477 28.4113 198.477 28.7679C198.477 29.0623 198.595 29.3401 198.826 29.5972C199.074 29.8668 199.36 30.0036 199.676 30.0036C200.138 30.0036 200.487 29.817 200.731 29.4438C200.832 29.4438 200.883 29.4521 200.883 29.4811" fill="#272425"/>
<path d="M205.077 28.7928C205.077 29.2531 204.913 29.6263 204.584 29.9124C204.256 30.2027 203.84 30.3436 203.323 30.3436C202.856 30.3436 202.452 30.1944 202.111 29.9C201.775 29.6055 201.602 29.2489 201.602 28.8301C201.602 28.3532 201.758 27.9676 202.069 27.669C202.38 27.3705 202.801 27.2212 203.331 27.2212C203.861 27.2212 204.252 27.3663 204.58 27.6649C204.908 27.9634 205.072 28.3367 205.072 28.7886M204.408 29.0831C204.408 28.6477 204.332 28.2786 204.176 27.9842C203.97 27.5902 203.655 27.3912 203.222 27.3912C202.835 27.3912 202.566 27.528 202.418 27.81C202.313 28.0049 202.263 28.2952 202.263 28.6891C202.263 29.0499 202.359 29.3692 202.553 29.6594C202.78 29.9953 203.083 30.1612 203.457 30.1612C204.088 30.1612 204.408 29.8004 204.408 29.0831Z" fill="#272425"/>
<path d="M209.661 30.3023H207.991V30.153C208.332 30.153 208.5 30.0037 208.5 29.7052V28.1958C208.5 28.0009 208.454 27.8392 208.366 27.7023C208.256 27.5365 208.105 27.4577 207.903 27.4577C207.587 27.4577 207.196 27.607 206.734 27.9055V29.8006C206.734 30.0203 206.923 30.1364 207.306 30.1572L207.285 30.3064H205.686L205.669 30.2774L205.69 30.1738C205.846 30.1738 205.972 30.1157 206.069 30.0037C206.157 29.9001 206.204 29.7798 206.204 29.6347V27.8101C206.204 27.7314 206.128 27.665 205.968 27.6194C205.951 27.6111 205.829 27.5862 205.615 27.5448V27.4618C205.724 27.4452 205.901 27.3955 206.145 27.3001C206.372 27.2089 206.523 27.1384 206.599 27.0845L206.734 27.1757V27.7687C207.461 27.354 207.962 27.1508 208.239 27.1508C208.517 27.1508 208.715 27.2628 208.862 27.4826C208.988 27.665 209.051 27.8848 209.051 28.1377V29.8669C209.051 30.0452 209.245 30.1406 209.632 30.1406L209.653 30.3023H209.661Z" fill="#272425"/>
<path d="M216.685 30.3023H215.016V30.153C215.356 30.153 215.525 30.0037 215.525 29.7052V28.1958C215.525 28.0009 215.478 27.8392 215.39 27.7023C215.285 27.5365 215.129 27.4577 214.927 27.4577C214.612 27.4577 214.221 27.607 213.758 27.9055V29.8006C213.758 30.0203 213.947 30.1364 214.33 30.1572L214.309 30.3064H212.711L212.698 30.2774L212.719 30.1738C212.875 30.1738 213.001 30.1157 213.098 30.0037C213.186 29.9001 213.232 29.7798 213.232 29.6347V27.8101C213.232 27.7314 213.156 27.665 213.001 27.6194C212.98 27.6111 212.862 27.5862 212.643 27.5448V27.4618C212.753 27.4452 212.929 27.3955 213.173 27.3001C213.4 27.2089 213.552 27.1384 213.628 27.0845L213.766 27.1757V27.7687C214.494 27.354 214.995 27.1508 215.272 27.1508C215.55 27.1508 215.747 27.2628 215.895 27.4826C216.021 27.665 216.084 27.8848 216.084 28.1377V29.8669C216.084 30.0452 216.277 30.1406 216.669 30.1406L216.69 30.3023H216.685Z" fill="#3A683D"/>
<path d="M220.584 28.7928C220.584 29.2531 220.42 29.6263 220.096 29.9124C219.768 30.2027 219.348 30.3436 218.83 30.3436C218.363 30.3436 217.96 30.1944 217.623 29.9C217.283 29.6055 217.114 29.2489 217.114 28.8301C217.114 28.3532 217.27 27.9676 217.585 27.669C217.897 27.3705 218.317 27.2212 218.843 27.2212C219.369 27.2212 219.764 27.3663 220.092 27.6649C220.425 27.9634 220.589 28.3367 220.589 28.7886M219.916 29.0831C219.916 28.6477 219.84 28.2786 219.684 27.9842C219.482 27.5902 219.163 27.3912 218.729 27.3912C218.342 27.3912 218.073 27.528 217.922 27.81C217.817 28.0049 217.766 28.2952 217.766 28.6891C217.766 29.0499 217.863 29.3692 218.061 29.6594C218.288 29.9953 218.591 30.1612 218.965 30.1612C219.596 30.1612 219.911 29.8004 219.911 29.0831" fill="#3A683D"/>
<path d="M223.693 29.477C223.693 29.7092 223.575 29.9083 223.34 30.07C223.121 30.2234 222.881 30.3022 222.616 30.3022C222.528 30.3022 222.394 30.2897 222.221 30.2566C222.044 30.2275 221.914 30.211 221.826 30.211C221.733 30.211 221.67 30.2524 221.636 30.3437L221.493 30.3146L221.456 29.4563L221.54 29.4438C221.758 29.9207 222.074 30.1571 222.486 30.1571C222.966 30.1571 223.205 29.9622 223.205 29.5765C223.205 29.3526 223.058 29.1784 222.755 29.054C222.478 28.9462 222.204 28.8384 221.922 28.7347C221.624 28.5689 221.477 28.3284 221.477 28.0091C221.477 27.781 221.603 27.5861 221.855 27.4327C222.078 27.2917 222.318 27.2253 222.583 27.2253C222.991 27.2253 223.298 27.2792 223.508 27.3912L223.554 28.1376L223.466 28.1501C223.306 27.8515 223.201 27.6732 223.151 27.6151C223.012 27.4659 222.814 27.3912 222.553 27.3912C222.385 27.3912 222.234 27.4368 222.103 27.5322C221.96 27.6276 221.889 27.752 221.889 27.8971C221.889 28.0754 222.044 28.233 222.351 28.3615C222.924 28.5979 223.21 28.7182 223.218 28.7264C223.529 28.913 223.689 29.1618 223.689 29.4729" fill="#3A683D"/>
<path d="M228.029 28.7928C228.029 29.2531 227.865 29.6263 227.541 29.9124C227.213 30.2027 226.793 30.3436 226.275 30.3436C225.813 30.3436 225.409 30.1944 225.068 29.9C224.727 29.6055 224.559 29.2489 224.559 28.8301C224.559 28.3532 224.715 27.9676 225.026 27.669C225.337 27.3705 225.758 27.2212 226.288 27.2212C226.818 27.2212 227.205 27.3663 227.537 27.6649C227.865 27.9634 228.033 28.3367 228.033 28.7886M227.36 29.0831C227.36 28.6477 227.285 28.2786 227.129 27.9842C226.927 27.5902 226.607 27.3912 226.174 27.3912C225.787 27.3912 225.518 27.528 225.371 27.81C225.266 28.0049 225.215 28.2952 225.215 28.6891C225.215 29.0499 225.312 29.3692 225.51 29.6594C225.737 29.9953 226.04 30.1612 226.414 30.1612C227.045 30.1612 227.36 29.8004 227.36 29.0831Z" fill="#3A683D"/>
<path d="M230.755 29.7174C230.537 30.1072 230.23 30.3021 229.847 30.3021C229.616 30.3021 229.426 30.2399 229.267 30.1155C229.102 29.9828 229.023 29.8169 229.023 29.6096V27.528H228.665L228.61 27.3663C228.875 27.275 229.073 27.1382 229.199 26.9599C229.292 26.8272 229.376 26.6116 229.443 26.3171H229.574V27.2709H230.755L230.6 27.5321H229.574V29.4106C229.574 29.5267 229.641 29.6469 229.771 29.7838C229.906 29.9165 230.036 29.9828 230.162 29.9828C230.251 29.9828 230.423 29.8626 230.684 29.6179C230.73 29.6179 230.755 29.6552 230.751 29.7299" fill="#3A683D"/>
<path d="M234.111 27.3414C234.103 27.4658 234.027 27.6358 233.88 27.8514C233.573 27.7104 233.363 27.6358 233.249 27.6358C233.102 27.6358 232.972 27.7021 232.858 27.8265C232.774 27.9468 232.686 28.0629 232.601 28.1748V29.8169C232.601 30.0533 232.77 30.1735 233.102 30.1735H233.367L233.384 30.2938H231.554V30.1984C231.903 30.1901 232.076 30.0616 232.076 29.8211V27.8763C232.076 27.7477 231.899 27.6482 231.542 27.5819V27.4616C231.76 27.4367 232.067 27.3248 232.463 27.1216L232.606 27.1465V27.9302C232.9 27.4326 233.165 27.1838 233.396 27.1838C233.514 27.1838 233.754 27.2335 234.116 27.3372" fill="#3A683D"/>
<path d="M238.103 28.7928C238.103 29.2531 237.939 29.6263 237.615 29.9124C237.287 30.2027 236.867 30.3436 236.349 30.3436C235.882 30.3436 235.478 30.1944 235.142 29.9C234.801 29.6055 234.633 29.2489 234.633 28.8301C234.633 28.3532 234.789 27.9676 235.1 27.669C235.411 27.3705 235.832 27.2212 236.362 27.2212C236.892 27.2212 237.283 27.3663 237.611 27.6649C237.939 27.9634 238.103 28.3367 238.103 28.7886M237.439 29.0831C237.439 28.6477 237.363 28.2786 237.207 27.9842C237.001 27.5902 236.686 27.3912 236.252 27.3912C235.865 27.3912 235.596 27.528 235.449 27.81C235.344 28.0049 235.293 28.2952 235.293 28.6891C235.293 29.0499 235.39 29.3692 235.588 29.6594C235.811 29.9953 236.114 30.1612 236.488 30.1612C237.119 30.1612 237.434 29.8004 237.434 29.0831" fill="#3A683D"/>
<path d="M241.22 29.477C241.22 29.7092 241.102 29.9083 240.862 30.07C240.643 30.2234 240.404 30.3022 240.139 30.3022C240.046 30.3022 239.916 30.2897 239.743 30.2566C239.567 30.2275 239.436 30.211 239.348 30.211C239.251 30.211 239.188 30.2524 239.154 30.3437L239.011 30.3146L238.974 29.4563L239.062 29.4438C239.281 29.9207 239.596 30.1571 240.008 30.1571C240.488 30.1571 240.728 29.9622 240.728 29.5765C240.728 29.3526 240.58 29.1784 240.278 29.054C240.004 28.9462 239.722 28.8384 239.445 28.7347C239.146 28.5689 238.999 28.3284 238.999 28.0091C238.999 27.781 239.125 27.5861 239.377 27.4327C239.6 27.2917 239.84 27.2253 240.109 27.2253C240.513 27.2253 240.82 27.2792 241.03 27.3912L241.081 28.1376L240.993 28.1501C240.833 27.8515 240.728 27.6732 240.677 27.6151C240.538 27.4659 240.341 27.3912 240.08 27.3912C239.912 27.3912 239.764 27.4368 239.634 27.5322C239.487 27.6276 239.415 27.752 239.415 27.8971C239.415 28.0754 239.571 28.233 239.882 28.3615C240.45 28.5979 240.74 28.7182 240.749 28.7264C241.064 28.913 241.22 29.1618 241.22 29.4729" fill="#3A683D"/>
</g>
<defs>
<clipPath id="clip0_28_499">
<rect width="241.333" height="32" fill="white" transform="translate(0 0.5)"/>
</clipPath>
</defs>
</svg>
