<svg width="24" height="16" viewBox="0 0 16 16" fill="none" xmlns="http://www.w3.org/2000/svg">
<path fill-rule="evenodd" clip-rule="evenodd" d="M5.2 0.25C5.61421 0.25 5.95 0.585786 5.95 1V1.64998H10.05V1C10.05 0.585786 10.3858 0.25 10.8 0.25C11.2142 0.25 11.55 0.585786 11.55 1V1.64998H12.2C14.1606 1.64998 15.75 3.23937 15.75 5.19998V12.2C15.75 14.1606 14.1606 15.75 12.2 15.75H3.8C1.83939 15.75 0.25 14.1606 0.25 12.2V5.19998C0.25 3.23937 1.83939 1.64998 3.8 1.64998H4.45V1C4.45 0.585786 4.78579 0.25 5.2 0.25ZM4.45 3.14998H3.8C2.66782 3.14998 1.75 4.06779 1.75 5.19998V5.85H14.25V5.19998C14.25 4.0678 13.3322 3.14998 12.2 3.14998H11.55V3.8C11.55 4.21421 11.2142 4.55 10.8 4.55C10.3858 4.55 10.05 4.21421 10.05 3.8V3.14998H5.95V3.8C5.95 4.21421 5.61421 4.55 5.2 4.55C4.78579 4.55 4.45 4.21421 4.45 3.8V3.14998ZM14.25 7.35H1.75V12.2C1.75 13.3322 2.66782 14.25 3.8 14.25H12.2C13.3322 14.25 14.25 13.3322 14.25 12.2V7.35Z" fill="#000"/>
</svg>
