<svg width="40" height="41" viewBox="0 0 40 41" fill="none" xmlns="http://www.w3.org/2000/svg">
<path opacity="0.3" d="M40 20.9473C40 31.993 31.0457 40.9473 20 40.9473C8.9543 40.9473 0 31.993 0 20.9473C0 9.90157 8.9543 0.947266 20 0.947266C31.0457 0.947266 40 9.90157 40 20.9473ZM6.23634 20.9473C6.23634 28.5487 12.3985 34.7109 20 34.7109C27.6015 34.7109 33.7637 28.5487 33.7637 20.9473C33.7637 13.3458 27.6015 7.1836 20 7.1836C12.3985 7.1836 6.23634 13.3458 6.23634 20.9473Z" fill="#00C7B1"/>
<path d="M36.8818 20.9473C38.6039 20.9473 40.0248 19.5429 39.7574 17.8417C39.5126 16.284 39.0838 14.7571 38.4776 13.2936C37.4725 10.8671 35.9993 8.6623 34.1421 6.80513C32.285 4.94796 30.0802 3.47477 27.6537 2.46967C26.1901 1.86347 24.6633 1.4347 23.1056 1.18985C21.4043 0.922442 20 2.34332 20 4.06543C20 5.78755 21.4135 7.14849 23.0916 7.53531C23.8331 7.70623 24.5608 7.93874 25.2671 8.2313C26.937 8.92299 28.4543 9.93681 29.7324 11.2149C31.0105 12.493 32.0243 14.0103 32.716 15.6801C33.0085 16.3865 33.241 17.1142 33.412 17.8557C33.7988 19.5338 35.1597 20.9473 36.8818 20.9473Z" fill="#009490"/>
</svg>