<svg width="33" height="32" viewBox="0 0 33 32" fill="none" xmlns="http://www.w3.org/2000/svg">
<g id="u:lock">
<path id="Vector" d="M23.4167 12V9.33335C23.4167 7.56524 22.7143 5.86955 21.4641 4.61931C20.2138 3.36907 18.5182 2.66669 16.75 2.66669C14.9819 2.66669 13.2862 3.36907 12.036 4.61931C10.7858 5.86955 10.0834 7.56524 10.0834 9.33335V12C9.02251 12 8.00509 12.4214 7.25495 13.1716C6.5048 13.9217 6.08337 14.9392 6.08337 16V25.3334C6.08337 26.3942 6.5048 27.4116 7.25495 28.1618C8.00509 28.9119 9.02251 29.3334 10.0834 29.3334H23.4167C24.4776 29.3334 25.495 28.9119 26.2451 28.1618C26.9953 27.4116 27.4167 26.3942 27.4167 25.3334V16C27.4167 14.9392 26.9953 13.9217 26.2451 13.1716C25.495 12.4214 24.4776 12 23.4167 12ZM12.75 9.33335C12.75 8.27249 13.1715 7.25507 13.9216 6.50493C14.6718 5.75478 15.6892 5.33335 16.75 5.33335C17.8109 5.33335 18.8283 5.75478 19.5785 6.50493C20.3286 7.25507 20.75 8.27249 20.75 9.33335V12H12.75V9.33335ZM24.75 25.3334C24.75 25.687 24.6096 26.0261 24.3595 26.2762C24.1095 26.5262 23.7703 26.6667 23.4167 26.6667H10.0834C9.72975 26.6667 9.39061 26.5262 9.14057 26.2762C8.89052 26.0261 8.75004 25.687 8.75004 25.3334V16C8.75004 15.6464 8.89052 15.3073 9.14057 15.0572C9.39061 14.8072 9.72975 14.6667 10.0834 14.6667H23.4167C23.7703 14.6667 24.1095 14.8072 24.3595 15.0572C24.6096 15.3073 24.75 15.6464 24.75 16V25.3334Z" fill="#1B334F"/>
</g>
</svg>
