<svg width="46" height="45" viewBox="0 0 46 45" fill="none" xmlns="http://www.w3.org/2000/svg">
<path fill-rule="evenodd" clip-rule="evenodd" d="M13.0363 0.000319705C13.0961 0.000477891 13.1558 0.000635453 13.215 0.000635453H32.2845C32.3438 0.000635453 32.4034 0.000477891 32.4633 0.000319705C33.1404 -0.00146899 33.8497 -0.00334301 34.4675 0.221526C35.4849 0.591824 36.2863 1.39326 36.6566 2.41064C36.8563 2.95937 36.8772 3.58026 36.8781 4.18662L40.5858 4.18662C41.0342 4.18659 41.4463 4.18657 41.7923 4.21018C42.1641 4.23555 42.5729 4.29334 42.9884 4.46543C43.8859 4.83718 44.5989 5.55022 44.9707 6.44769C45.1428 6.86316 45.2005 7.272 45.2259 7.64381C45.2495 7.98984 45.2495 8.40184 45.2495 8.85031V9.94236C45.2495 10.0243 45.2495 10.1051 45.2495 10.1847C45.2501 11.8967 45.2505 13.0649 44.982 14.0667C44.2563 16.7753 42.1407 18.8909 39.4321 19.6166C38.6051 19.8383 37.6646 19.8766 36.3984 19.883C34.9163 25.4211 30.1532 29.6179 24.3195 30.2628V33.4885H25.773C30.7499 33.4885 34.7845 37.5231 34.7845 42.5C34.7845 43.8807 33.6652 45 32.2845 45H13.215C11.8343 45 10.7151 43.8807 10.7151 42.5C10.7151 37.5231 14.7497 33.4885 19.7266 33.4885H21.18V30.2628C15.3464 29.6179 10.5833 25.4211 9.10121 19.883C7.83498 19.8766 6.89451 19.8383 6.06743 19.6166C3.3589 18.8909 1.24329 16.7753 0.517542 14.0667C0.249101 13.0649 0.249486 11.8967 0.250051 10.1847C0.250077 10.1051 0.250103 10.0243 0.250103 9.94236L0.250102 8.85032C0.250075 8.40184 0.25005 7.98984 0.273659 7.64381C0.299028 7.272 0.356821 6.86316 0.528913 6.44769C0.900659 5.55022 1.6137 4.83718 2.51117 4.46543C2.92664 4.29334 3.33549 4.23555 3.70729 4.21018C4.05332 4.18657 4.46532 4.18659 4.9138 4.18662C4.92894 4.18662 4.94412 4.18662 4.95934 4.18662H8.62148C8.62239 3.58026 8.64325 2.95937 8.84297 2.41064C9.21327 1.39326 10.0147 0.591824 11.0321 0.221526C11.6499 -0.00334301 12.3592 -0.00146899 13.0363 0.000319705ZM8.62208 7.32611H4.95934C4.45025 7.32611 4.14706 7.32696 3.921 7.34239C3.78113 7.35193 3.72168 7.3647 3.70629 7.36861C3.58315 7.42151 3.48499 7.51967 3.43209 7.6428C3.42818 7.6582 3.41541 7.71764 3.40587 7.85752C3.39044 8.08358 3.38959 8.38678 3.38959 8.89586V9.94236C3.38959 11.9898 3.40308 12.7057 3.55006 13.2542C3.98551 14.8793 5.25487 16.1487 6.87999 16.5841C7.25772 16.6853 7.71476 16.7232 8.63132 16.737C8.62518 16.5659 8.62208 16.394 8.62208 16.2213V7.32611ZM11.7616 4.59359C11.7616 4.14146 11.7622 3.87221 11.7745 3.67091C11.7821 3.54557 11.7923 3.492 11.7954 3.47836C11.8485 3.33791 11.9594 3.22702 12.0998 3.17393C12.1134 3.17088 12.167 3.16063 12.2924 3.15302C12.4937 3.1408 12.7629 3.14013 13.215 3.14013H32.2845C32.7367 3.14013 33.0059 3.1408 33.2072 3.15302C33.3326 3.16063 33.3861 3.17088 33.3998 3.17393C33.5402 3.22702 33.6511 3.3379 33.7042 3.47835C33.7073 3.49198 33.7175 3.54554 33.7251 3.67091C33.7373 3.87221 33.738 4.14146 33.738 4.59359V16.2213C33.738 22.29 28.8184 27.2096 22.7498 27.2096C16.6812 27.2096 11.7616 22.29 11.7616 16.2213V4.59359ZM36.8775 7.32611V16.2213C36.8775 16.394 36.8744 16.5659 36.8683 16.737C37.7848 16.7232 38.2419 16.6853 38.6196 16.5841C40.2447 16.1487 41.5141 14.8793 41.9495 13.2542C42.0965 12.7057 42.11 11.9898 42.11 9.94236V8.89586C42.11 8.38678 42.1091 8.08358 42.0937 7.85752C42.0842 7.71761 42.0714 7.65816 42.0675 7.64279C42.0146 7.51966 41.9164 7.42151 41.7933 7.36861C41.7779 7.3647 41.7184 7.35193 41.5786 7.34239C41.3525 7.32696 41.0493 7.32611 40.5402 7.32611H36.8775ZM19.7266 36.628C16.6997 36.628 14.2077 38.9183 13.889 41.8605H31.6106C31.2919 38.9183 28.7999 36.628 25.773 36.628H19.7266Z" fill="white"/>
</svg>
