<svg width="16" height="20" viewBox="0 0 16 20" fill="none" xmlns="http://www.w3.org/2000/svg">
<path d="M14.6552 10.9827C14.7139 13.495 13.4402 17.2508 10.1899 18.7826C9.37298 19.1675 8.91901 18.794 7.93378 18.8415C7.05347 18.8839 6.78153 19.1944 5.94312 18.8942C2.46151 17.6477 0.915591 13.9963 0.852717 11.3052C0.770518 7.78696 3.64843 5.92836 7.68572 8.22423C11.3491 5.88123 14.573 7.46449 14.6552 10.9827Z" fill="#FF542F"/>
<path fill-rule="evenodd" clip-rule="evenodd" d="M7.66872 7.53459C5.67153 6.48446 3.83982 6.34749 2.45388 7.05246C0.98088 7.80173 0.211205 9.39868 0.256076 11.3192C0.322512 14.1628 1.95009 18.0986 5.742 19.4562C6.26595 19.6438 6.64634 19.6453 7.01743 19.5857C7.14487 19.5653 7.24892 19.5437 7.34678 19.5235C7.53437 19.4846 7.69924 19.4505 7.96262 19.4378C8.27565 19.4227 8.50105 19.455 8.75728 19.4917C8.85089 19.5051 8.9486 19.5191 9.05621 19.5316C9.46279 19.5788 9.90236 19.578 10.4444 19.3226C13.9821 17.6554 15.314 13.6233 15.252 10.9689C15.2065 9.02145 14.2762 7.50763 12.7474 6.85642C11.3169 6.24712 9.50675 6.45429 7.66872 7.53459ZM10.19 18.7826C13.4403 17.2509 14.7139 13.4951 14.6553 10.9828C14.5731 7.46455 11.3491 5.8813 7.68581 8.22429C3.64853 5.92842 0.770609 7.78702 0.852809 11.3053C0.915683 13.9964 2.4616 17.6477 5.94321 18.8943C6.48756 19.0892 6.79312 19.0267 7.18143 18.9472C7.3912 18.9043 7.62512 18.8564 7.93387 18.8416C8.30852 18.8235 8.60634 18.8663 8.87652 18.9052C9.31684 18.9685 9.68371 19.0212 10.19 18.7826Z" fill="#734125"/>
<path fill-rule="evenodd" clip-rule="evenodd" d="M8.86271 17.1897C12.113 15.658 13.1212 11.9022 13.0625 9.38987C13.0453 8.65414 12.8907 8.00303 12.6235 7.45475C13.8352 8.0228 14.6156 9.2748 14.6555 10.9829C14.7142 13.4952 13.4406 17.251 10.1902 18.7827C9.68397 19.0213 9.3171 18.9686 8.87678 18.9053C8.60661 18.8664 8.30878 18.8236 7.93414 18.8416C7.62538 18.8565 7.39146 18.9044 7.18169 18.9473C6.79338 19.0267 6.48782 19.0893 5.94347 18.8944C4.67005 18.4384 3.65559 17.6608 2.87793 16.7261C3.247 16.9512 3.64869 17.1451 4.08495 17.3013C4.64641 17.5024 5.0729 17.4295 5.55777 17.3467C5.79694 17.3059 6.05032 17.2626 6.34111 17.2486C6.7062 17.231 7.0348 17.2712 7.34538 17.3093C7.87294 17.3738 8.34853 17.432 8.86271 17.1897Z" fill="#ED4A27"/>
<path d="M12.6748 10.3225C12.6342 10.613 12.3659 10.8156 12.0755 10.7751C11.785 10.7346 11.5824 10.4663 11.6229 10.1758C11.6634 9.88536 11.9317 9.68275 12.2222 9.72327C12.5127 9.76379 12.7153 10.0321 12.6748 10.3225Z" fill="#C53622"/>
<path d="M14.1118 11.8598C14.0712 12.1502 13.8029 12.3528 13.5125 12.3123C13.222 12.2718 13.0194 12.0035 13.0599 11.713C13.1005 11.4226 13.3688 11.22 13.6592 11.2605C13.9497 11.301 14.1523 11.5693 14.1118 11.8598Z" fill="#C53622"/>
<path d="M14.081 9.84836C14.0506 10.0662 13.8494 10.2182 13.6316 10.1878C13.4137 10.1574 13.2618 9.95615 13.2921 9.73831C13.3225 9.52047 13.5238 9.36851 13.7416 9.3989C13.9594 9.42929 14.1114 9.63052 14.081 9.84836Z" fill="#C53622"/>
<path d="M13.5895 13.7066C13.549 13.997 13.2807 14.1997 12.9903 14.1591C12.6998 14.1186 12.4972 13.8503 12.5377 13.5599C12.5782 13.2694 12.8465 13.0668 13.137 13.1073C13.4275 13.1478 13.6301 13.4161 13.5895 13.7066Z" fill="#C53622"/>
<path d="M12.1525 12.1692C12.112 12.4597 11.8437 12.6623 11.5533 12.6218C11.2628 12.5813 11.0602 12.313 11.1007 12.0225C11.1412 11.732 11.4095 11.5294 11.7 11.5699C11.9904 11.6105 12.1931 11.8788 12.1525 12.1692Z" fill="#C53622"/>
<path d="M12.7133 15.7196C12.6728 16.0101 12.4045 16.2127 12.114 16.1722C11.8236 16.1317 11.621 15.8634 11.6615 15.5729C11.702 15.2825 11.9703 15.0798 12.2608 15.1204C12.5512 15.1609 12.7538 15.4292 12.7133 15.7196Z" fill="#C53622"/>
<path d="M11.6462 14.1101C11.6057 14.4006 11.3374 14.6032 11.0469 14.5627C10.7565 14.5222 10.5538 14.2539 10.5944 13.9634C10.6349 13.673 10.9032 13.4703 11.1936 13.5109C11.4841 13.5514 11.6867 13.8197 11.6462 14.1101Z" fill="#C53622"/>
<path d="M11.6604 16.8985C11.63 17.1164 11.4287 17.2683 11.2109 17.2379C10.9931 17.2076 10.8411 17.0063 10.8715 16.7885C10.9019 16.5706 11.1031 16.4187 11.321 16.4491C11.5388 16.4795 11.6908 16.6807 11.6604 16.8985Z" fill="#C53622"/>
<path d="M10.6648 2.78898C10.6648 2.78898 11.2547 5.22139 10.6336 6.54569C9.88487 8.14183 7.62395 8.2426 7.62395 8.2426C7.62395 8.2426 6.93939 6.37673 7.84403 4.75432C8.5399 3.5063 10.6648 2.78898 10.6648 2.78898Z" fill="#7CD623"/>
<path fill-rule="evenodd" clip-rule="evenodd" d="M11.2446 2.64812L10.6646 2.7888L10.4737 2.22326C10.6323 2.16972 10.806 2.18524 10.9526 2.26602C11.0993 2.34681 11.2052 2.48544 11.2446 2.64812ZM10.1035 3.01401C10.4357 2.86607 10.6646 2.7888 10.6646 2.7888C10.6646 2.7888 10.7209 3.02116 10.7805 3.38134C10.9135 4.18653 11.0625 5.63051 10.6333 6.54551C9.88464 8.14165 7.62371 8.24242 7.62371 8.24242C7.62371 8.24242 6.93915 6.37655 7.84379 4.75414C8.31128 3.91572 9.4237 3.31682 10.1035 3.01401ZM7.62371 8.24242C7.06334 8.44802 7.06326 8.44781 7.06319 8.44761L7.06264 8.44612L7.0617 8.44352L7.05911 8.43626C7.05708 8.43051 7.05444 8.42295 7.05126 8.41364C7.04492 8.39503 7.03644 8.36941 7.02639 8.33729C7.00631 8.27311 6.97989 8.18267 6.95179 8.07023C6.89577 7.84602 6.83214 7.53046 6.79985 7.15828C6.73587 6.42073 6.79145 5.41579 7.32246 4.46345C7.75739 3.68342 8.59272 3.12475 9.23053 2.77878C9.5625 2.59872 9.86967 2.46125 10.0939 2.36867C10.2063 2.32223 10.2989 2.2867 10.3644 2.26241C10.3971 2.25026 10.4232 2.24089 10.4417 2.23436C10.4509 2.23109 10.4583 2.22853 10.4637 2.22668L10.4702 2.22443L10.4731 2.22345L10.4737 2.22326C10.4738 2.22321 10.4737 2.22326 10.6646 2.7888C11.2446 2.64812 11.2446 2.648 11.2446 2.64812L11.245 2.6494L11.2455 2.65157L11.2471 2.65854L11.2528 2.68274C11.2575 2.70332 11.2641 2.73268 11.2722 2.76995C11.2882 2.84443 11.3101 2.95077 11.3341 3.08192C11.3821 3.34352 11.4394 3.70752 11.4764 4.11688C11.5472 4.90201 11.5571 5.9817 11.1737 6.79899C10.6996 7.80981 9.76619 8.30992 9.04045 8.55746C8.6697 8.68391 8.32801 8.75348 8.07939 8.7917C7.95442 8.81092 7.85123 8.82247 7.77748 8.82932C7.74056 8.83275 7.71089 8.835 7.6894 8.83645C7.67866 8.83717 7.66995 8.8377 7.66339 8.83806L7.65519 8.8385L7.65232 8.83863L7.6512 8.83869L7.65072 8.83871C7.6505 8.83872 7.65029 8.83873 7.62371 8.24242ZM7.06334 8.44802L7.62371 8.24242L7.65029 8.83873C7.3904 8.85031 7.15294 8.69224 7.06334 8.44802Z" fill="#156319"/>
<path d="M10.2336 6.5546C10.7911 5.55477 10.4631 3.52128 10.4631 3.52128C8.80598 5.24286 8.38884 7.15565 8.29419 7.84637C8.29419 7.84637 9.67615 7.55442 10.2336 6.5546Z" fill="#6FC21C"/>
<path d="M4.50913 5.59916C5.08295 5.73627 6.98541 7.35504 7.51876 8.363C7.56326 8.44708 7.79277 8.31546 7.755 8.24183C7.45087 7.28176 6.48076 5.01563 5.70064 4.33267C4.67306 4.31103 4.47682 5.38322 4.50913 5.59916Z" fill="#943D31"/>
<path fill-rule="evenodd" clip-rule="evenodd" d="M4.37059 6.17984C4.13374 6.12324 3.95501 5.92844 3.91898 5.6876C3.89493 5.52681 3.91855 5.33533 3.95553 5.17394C3.99657 4.99481 4.07038 4.78114 4.19428 4.57234C4.45376 4.13506 4.94155 3.71977 5.71339 3.73603C5.85367 3.73898 5.98843 3.79126 6.094 3.88369C6.35339 4.11077 6.59655 4.43735 6.81206 4.77676C7.03287 5.12451 7.2474 5.52246 7.44255 5.92091C7.82461 6.70098 8.15011 7.51959 8.3154 8.03407C8.43802 8.34839 8.2626 8.60578 8.20872 8.67394C8.12826 8.77572 8.03078 8.84388 7.95264 8.88629C7.87603 8.92787 7.75842 8.9771 7.61643 8.9858C7.48025 8.99414 7.16052 8.96199 6.99135 8.64229C6.77706 8.23731 6.23623 7.63919 5.63192 7.10002C5.3386 6.83832 5.04892 6.60709 4.80481 6.43655C4.68255 6.35115 4.57775 6.2852 4.49398 6.23915C4.41824 6.19752 4.37955 6.18327 4.37158 6.18033C4.36989 6.17971 4.36958 6.17959 4.37059 6.17984ZM7.75519 8.24195C7.75484 8.24086 7.75449 8.23976 7.75414 8.23866C7.71371 8.11126 7.66163 7.96106 7.5999 7.79474C7.52151 7.58353 7.42754 7.34633 7.32205 7.09685C6.88345 6.05953 6.24578 4.80988 5.70083 4.33279C4.67324 4.31115 4.477 5.38334 4.50931 5.59928C4.923 5.69813 6.02724 6.56707 6.81119 7.42204C6.97709 7.60297 7.12864 7.78327 7.25627 7.95551C7.35124 8.08369 7.43297 8.2074 7.4975 8.32358C7.50487 8.33686 7.51202 8.35004 7.51894 8.36312C7.56344 8.44721 7.79295 8.31559 7.75519 8.24195ZM7.18095 8.40584C7.19093 8.44092 7.205 8.47718 7.22407 8.51435C7.20889 8.48475 7.19621 8.45393 7.18616 8.42221C7.18444 8.4168 7.18271 8.41134 7.18095 8.40584Z" fill="#633526"/>
<path d="M5.89949 4.35257C6.08698 4.55258 5.95636 4.97963 5.60776 5.30641C5.25916 5.6332 4.82457 5.73597 4.63708 5.53597C4.4496 5.33596 4.58021 4.90892 4.92881 4.58213C5.27742 4.25535 5.712 4.15257 5.89949 4.35257Z" fill="#C26649"/>
<path d="M4.85433 8.24368C5.64371 8.63219 5.81121 9.90701 5.22846 11.0911C4.64571 12.2751 3.53337 12.9201 2.74399 12.5316C1.95461 12.1431 1.78711 10.8682 2.36987 9.68418C2.95262 8.50011 4.06496 7.85518 4.85433 8.24368Z" fill="#FF896F"/>
<path fill-rule="evenodd" clip-rule="evenodd" d="M3.94066 9.19418C4.19381 9.40534 4.22785 9.78173 4.01669 10.0349C3.87918 10.1997 3.7892 10.3737 3.7391 10.56C3.65346 10.8783 3.32598 11.0669 3.00764 10.9813C2.6893 10.8957 2.50066 10.5682 2.5863 10.2498C2.68341 9.88884 2.85719 9.56125 3.09995 9.27021C3.31111 9.01706 3.68751 8.98302 3.94066 9.19418Z" fill="white"/>
</svg>
