<svg width="15" height="20" viewBox="0 0 15 20" fill="none" xmlns="http://www.w3.org/2000/svg">
<path d="M14.375 12.3438C14.375 16.227 11.297 19.375 7.5 19.375C3.70304 19.375 0.625 16.227 0.625 12.3438C0.625 8.4605 3.70304 0.625 7.5 0.625C11.297 0.625 14.375 8.4605 14.375 12.3438Z" fill="#F2EB76"/>
<path fill-rule="evenodd" clip-rule="evenodd" d="M15 12.3438C15 16.5589 11.6553 20 7.5 20C3.3447 20 0 16.5589 0 12.3438C0 10.2796 0.805132 7.25254 2.08164 4.74465C2.7225 3.48558 3.50058 2.32012 4.38951 1.46065C5.27496 0.604539 6.32688 0 7.5 0C8.67312 0 9.72504 0.604539 10.6105 1.46065C11.4994 2.32012 12.2775 3.48558 12.9184 4.74465C14.1949 7.25254 15 10.2796 15 12.3438ZM7.5 19.375C11.297 19.375 14.375 16.227 14.375 12.3438C14.375 8.4605 11.297 0.625 7.5 0.625C3.70304 0.625 0.625 8.4605 0.625 12.3438C0.625 16.227 3.70304 19.375 7.5 19.375Z" fill="#538642"/>
<path fill-rule="evenodd" clip-rule="evenodd" d="M7.5 19.375C11.297 19.375 14.375 16.227 14.375 12.3438C14.375 8.4605 11.297 0.625 7.5 0.625C3.70304 0.625 0.625 8.4605 0.625 12.3438C0.625 16.227 3.70304 19.375 7.5 19.375ZM7.5 18.75C10.9518 18.75 13.75 15.8643 13.75 12.3047C13.75 8.74504 10.9518 1.5625 7.5 1.5625C4.04822 1.5625 1.25 8.74504 1.25 12.3047C1.25 15.8643 4.04822 18.75 7.5 18.75Z" fill="#D9DE2E"/>
<path d="M12.3319 16.0409C12.0903 16.3052 11.6803 16.3236 11.416 16.082C11.1517 15.8404 11.1332 15.4304 11.3748 15.1661C11.6164 14.9018 12.0265 14.8833 12.2908 15.1249C12.5551 15.3665 12.5735 15.7766 12.3319 16.0409Z" fill="#C4CB29"/>
<path d="M9.83193 18.2284C9.59035 18.4927 9.18025 18.5111 8.91595 18.2695C8.65166 18.0279 8.63324 17.6179 8.87483 17.3536C9.11641 17.0893 9.52651 17.0708 9.79081 17.3124C10.0551 17.554 10.0735 17.9641 9.83193 18.2284Z" fill="#C4CB29"/>
<path d="M2.64443 14.7909C2.40285 15.0552 1.99275 15.0736 1.72845 14.832C1.46416 14.5904 1.44574 14.1804 1.68733 13.9161C1.92891 13.6518 2.33901 13.6333 2.60331 13.8749C2.86761 14.1165 2.88602 14.5266 2.64443 14.7909Z" fill="#C4CB29"/>
<path d="M11.2905 17.5117C11.1211 17.697 10.8334 17.71 10.6481 17.5405C10.4627 17.3711 10.4498 17.0835 10.6192 16.8981C10.7887 16.7128 11.0763 16.6999 11.2616 16.8693C11.447 17.0387 11.4599 17.3263 11.2905 17.5117Z" fill="#C4CB29"/>
<path d="M8.16549 18.7617C7.99606 18.947 7.70845 18.96 7.52309 18.7905C7.33773 18.6211 7.32481 18.3335 7.49424 18.1481C7.66367 17.9628 7.95129 17.9499 8.13665 18.1193C8.32201 18.2887 8.33492 18.5763 8.16549 18.7617Z" fill="#C4CB29"/>
<path d="M3.16549 15.9492C2.99606 16.1345 2.70845 16.1475 2.52309 15.978C2.33773 15.8086 2.32481 15.521 2.49424 15.3356C2.66367 15.1503 2.95129 15.1374 3.13665 15.3068C3.32201 15.4762 3.33492 15.7638 3.16549 15.9492Z" fill="#C4CB29"/>
<path d="M2.54049 12.8242C2.37106 13.0095 2.08345 13.0225 1.89809 12.853C1.71273 12.6836 1.69981 12.396 1.86924 12.2106C2.03867 12.0253 2.32629 12.0124 2.51165 12.1818C2.69701 12.3512 2.70992 12.6388 2.54049 12.8242Z" fill="#C4CB29"/>
<path d="M13.478 14.6992C13.3086 14.8845 13.0209 14.8975 12.8356 14.728C12.6502 14.5586 12.6373 14.271 12.8067 14.0856C12.9762 13.9003 13.2638 13.8874 13.4491 14.0568C13.6345 14.2262 13.6474 14.5138 13.478 14.6992Z" fill="#C4CB29"/>
<path d="M11.875 12.5C11.875 14.9162 9.91625 16.875 7.5 16.875C5.08375 16.875 3.125 14.9162 3.125 12.5C3.125 10.0838 5.08375 8.125 7.5 8.125C9.91625 8.125 11.875 10.0838 11.875 12.5Z" fill="#BAC73A"/>
<path d="M10.3125 12.5C10.3125 14.0533 9.0533 15.3125 7.5 15.3125C5.9467 15.3125 4.6875 14.0533 4.6875 12.5C4.6875 10.9467 5.9467 9.6875 7.5 9.6875C9.0533 9.6875 10.3125 10.9467 10.3125 12.5Z" fill="#B6472C"/>
<path fill-rule="evenodd" clip-rule="evenodd" d="M10.9375 12.5C10.9375 14.3985 9.39848 15.9375 7.5 15.9375C5.60152 15.9375 4.0625 14.3985 4.0625 12.5C4.0625 10.6015 5.60152 9.0625 7.5 9.0625C9.39848 9.0625 10.9375 10.6015 10.9375 12.5ZM7.5 15.3125C9.0533 15.3125 10.3125 14.0533 10.3125 12.5C10.3125 10.9467 9.0533 9.6875 7.5 9.6875C5.9467 9.6875 4.6875 10.9467 4.6875 12.5C4.6875 14.0533 5.9467 15.3125 7.5 15.3125Z" fill="#662513"/>
<path fill-rule="evenodd" clip-rule="evenodd" d="M7.18751 14.375C8.74081 14.375 10 13.1158 10 11.5625C10 11.4242 9.99002 11.2882 9.97072 11.1552C10.1887 11.5547 10.3125 12.0129 10.3125 12.5C10.3125 14.0533 9.05331 15.3125 7.50001 15.3125C6.08507 15.3125 4.91417 14.2677 4.7168 12.9074C5.19376 13.7818 6.12136 14.375 7.18751 14.375Z" fill="#A43E25"/>
<path d="M6.875 11.5625C6.875 11.9077 6.59518 12.1875 6.25 12.1875C5.90482 12.1875 5.625 11.9077 5.625 11.5625C5.625 11.2173 5.90482 10.9375 6.25 10.9375C6.59518 10.9375 6.875 11.2173 6.875 11.5625Z" fill="#F5A05F"/>
<path d="M7.20849 2.56904C7.70042 3.09928 7.45444 4.12731 6.65908 4.86521C5.86372 5.60311 4.82016 5.77146 4.32823 5.24121C3.83629 4.71097 4.08227 3.68294 4.87763 2.94504C5.67299 2.20714 6.71655 2.03879 7.20849 2.56904Z" fill="#FFFAA3"/>
<path fill-rule="evenodd" clip-rule="evenodd" d="M5.76455 4.45682C6.05847 4.2992 6.178 3.93619 6.03108 3.6334C5.88039 3.32284 5.50649 3.19325 5.19594 3.34393C5.1038 3.38864 5.00064 3.44362 4.9103 3.51717C4.7945 3.61144 4.72142 3.71743 4.67329 3.82734C4.65865 3.86077 4.64424 3.90081 4.64367 3.90241L4.64365 3.90246C4.6433 3.90339 4.643 3.9042 4.64273 3.9049C4.63954 3.9098 4.63253 3.91982 4.61954 3.93567C4.40072 4.20262 4.43973 4.59642 4.70669 4.81524C4.97364 5.03407 5.36744 4.99505 5.58626 4.72809C5.6651 4.63192 5.72188 4.54355 5.76455 4.45682ZM4.64493 3.9013C4.64495 3.90129 4.6447 3.90175 4.64412 3.9027C4.64462 3.90178 4.64491 3.90131 4.64493 3.9013Z" fill="white"/>
</svg>
