<svg width="50" height="31" viewBox="0 0 50 31" fill="none" xmlns="http://www.w3.org/2000/svg">
<path d="M20.2201 4.73109C19.7999 4.61107 19.2292 5.60908 17.5734 9.03263C17.4605 9.26002 17.3601 9.4811 17.2598 9.68323C18.8842 7.92724 19.5553 6.8029 20.101 5.88069C20.5212 5.18588 20.4585 4.78794 20.2201 4.73109Z" fill="#1450C9" fill-opacity="0.1"/>
<path d="M43.2391 9.60741C43.1513 9.24106 42.7562 8.93787 42.2168 8.93787C41.4955 8.93787 40.561 9.54425 39.6327 11.0602C38.7609 12.4562 38.8801 13.6058 39.363 13.7574C39.8899 13.9153 41.5708 12.7973 43.2517 9.62637C43.2454 9.62005 43.2391 9.61373 43.2391 9.60741Z" fill="#1450C9" fill-opacity="0.1"/>
<path d="M45.9734 13.6942C44.9824 15.0901 43.1761 16.3598 41.9405 15.905C41.5203 15.7534 41.1314 15.2986 41.1314 14.8438C41.1314 14.5153 41.1942 14.1553 41.3196 13.751C39.8081 15.2102 38.9425 15.5639 38.4533 15.4186C37.9139 15.267 37.431 14.9006 37.3432 13.9974C37.3056 13.7258 37.3118 13.3973 37.3746 13.0246C35.9069 14.6859 35.079 15.0901 34.4581 14.907C33.9187 14.7554 33.6176 14.269 33.6176 13.6942C33.6176 12.753 36.7787 8.5715 36.208 8.5715C35.8755 8.5715 33.7556 9.59478 31.4789 13.4668C31.3158 13.8395 31.1967 14.1679 31.1528 14.4206C31.0901 14.6922 30.8831 14.8438 30.6134 14.7554C30.0426 14.6038 29.798 14.0605 29.798 13.5426C29.798 13.3278 29.9925 12.8667 30.2935 12.2793C28.7945 14.1363 27.6593 14.8501 26.9129 14.6038C26.4613 14.4206 26.1039 14.029 26.1039 13.4794C26.1039 13.2078 26.4488 12.5193 26.8879 11.6919C25.4265 13.2205 23.9463 14.2374 22.8299 14.4774C22.5853 14.5343 22.3595 14.5532 22.1588 14.528C22.1463 14.528 22.1337 14.5217 22.1149 14.5217C22.071 14.5153 22.0334 14.509 21.9895 14.5027C21.933 14.4901 21.8766 14.4711 21.8264 14.4522C21.494 14.3322 21.1616 13.9658 21.1051 13.5426C21.0424 13.271 21.1929 12.9362 21.5567 13.0246C22.6668 13.2963 23.9965 12.2982 24.6864 10.9339C25.3763 9.56951 25.439 8.47676 24.9561 8.32516C24.354 8.12935 22.3407 10.3654 20.7601 13.1952C19.8507 15.027 18.7092 17.3451 18.4521 18.141C18.3329 18.5074 18.0005 18.6842 17.6116 18.5074C17.16 18.2926 16.8276 17.9326 16.8276 17.3262C16.8276 16.7893 18.3329 14.4332 19.5371 12.1214C17.3796 14.8817 15.8367 15.387 15.1718 15.0522C14.7516 14.8375 14.3879 14.3827 14.3628 13.8395C14.3565 13.7005 14.3628 13.5552 14.3753 13.4036C12.7822 15.4312 11.415 15.9429 10.6623 15.5386C10.2735 15.3238 9.9724 14.9322 9.9724 14.509C9.9724 14.0416 10.1543 13.4857 10.3926 12.8983C8.003 15.5386 6.27194 16.4671 4.79176 15.8102C3.49974 15.2354 2.7471 12.873 4.34018 9.87271C6.32839 6.14597 10.7188 4.08678 13.7293 5.05321C14.783 5.38798 15.291 6.11438 15.291 6.53759C15.291 7.08081 14.7516 7.35874 14.4506 7.05554C14.2122 6.81552 13.8485 6.63234 13.3655 6.51232C10.6247 5.78593 7.58905 7.75667 6.26567 10.2706C5.15554 12.4246 5.51303 13.7258 6.2343 13.9974C7.31935 14.4206 9.72152 12.6962 12.2491 8.1483C12.5188 7.63034 12.7007 7.47875 12.9704 7.47875C13.3593 7.47875 13.8736 8.11671 13.8736 8.69152C13.8736 9.14631 13.0331 10.3275 12.431 11.6287C11.7975 13.0246 11.7662 13.3847 12.1927 13.5363C12.5815 13.6752 13.4408 13.0625 15.1405 10.8518C15.4666 10.0369 15.8868 9.07683 16.3761 7.92722C18.0319 4.04888 19.418 2.59608 20.71 2.93086C21.8515 3.23405 22.0647 4.44683 21.2243 5.99437C20.4152 7.47875 19.0604 9.32317 16.4262 11.7992C16.1503 12.7593 16.3196 13.0689 16.652 13.1762C17.0534 13.3215 19.5058 11.6982 21.2744 8.26831C21.494 7.69351 21.6884 7.13765 21.8327 6.63233C21.9205 6.32914 22.1651 6.24071 22.4661 6.32914C22.8863 6.51232 23.2815 7.05554 23.2815 7.5735C23.2815 7.73141 23.0118 8.39464 22.5978 9.31685C23.8397 7.75036 25.0564 6.66392 25.715 6.8471C26.8879 7.18187 27.4022 8.69783 26.1666 11.1802C26.1101 11.2876 26.06 11.3887 26.0035 11.4897C27.0509 10.5612 28.0231 9.4116 28.6126 8.35674C28.7945 7.97775 28.9325 7.63666 28.9952 7.35873C29.0579 7.08712 29.2085 6.96711 29.5095 7.08712C29.9925 7.30188 30.35 7.63034 30.35 8.23673C30.35 8.62835 29.7165 9.53793 29.1771 10.5991C28.575 11.7171 27.9415 12.6583 28.3053 12.8415C28.6001 12.9931 30.8643 11.1486 32.3758 7.98407C32.4824 7.69982 32.5702 7.4598 32.6079 7.29557C32.6957 6.99238 32.8776 6.87236 33.1786 6.99237C33.6616 7.17555 33.994 7.51033 33.994 7.9588C33.994 8.21778 33.7306 8.81785 33.3793 9.53793C34.9348 7.80089 36.5028 7.01764 36.9982 7.01764C37.6003 7.01764 38.2024 7.62403 38.2024 8.35042C38.2024 8.86838 35.3738 12.8983 35.6748 13.0752C35.932 13.2268 36.7411 12.5572 38.4094 10.4412C38.4596 10.3591 38.5098 10.277 38.5662 10.1948C39.6764 8.55887 40.8555 7.61771 42.2353 7.61771C43.0193 7.61771 43.5587 8.1104 43.7782 8.58414C43.8472 8.43886 43.9162 8.28726 43.9852 8.13567C44.1043 7.86406 44.3176 7.6493 44.6751 7.80089C45.0389 7.95249 45.365 8.43886 45.3399 8.7989C45.3086 9.19052 43.9287 11.4645 43.4458 12.374C42.9315 13.3721 42.8123 14.13 43.2075 14.3132C43.5963 14.4964 44.3803 13.9469 45.3148 12.8288C45.4967 12.6141 45.7037 12.5256 45.8856 12.6457C46.0675 12.8162 46.2431 13.3026 45.9734 13.6942ZM35.5055 24.786L33.7933 24.1796L32.6518 23.3648L32.081 24.5144L29.704 22.032L28.4684 21.154L27.3833 18.7284L26.1164 17.3957L25.2132 17.1241L26.2356 18.7284L25.784 19.8781L26.1164 21.2993L25.5143 21.7541L26.2356 22.3289L26.2669 23.1753L25.0063 22.2088L24.492 22.6005L27.1701 24.7228L27.9227 26.1756L23.9839 23.0237L23.501 23.4469L28.1924 27.1736L27.3206 27.3252L22.9867 23.9333L22.5037 24.388L26.3861 27.42L25.3951 27.4831L21.6633 24.5144L19.9511 24.028L24.3414 27.4831L23.1999 27.3947L18.7469 23.8827L18.1134 24.2491L21.8452 27.1863L20.4905 26.9146L17.1224 24.2491L16.8841 24.9439L18.8974 26.5167C16.5203 25.7587 14.9837 25.0323 13.422 24.2743L14.1119 23.9712L15.4039 24.3375L16.997 23.0363L18.3204 23.2195L21.3873 21.2803L22.2591 19.1896L23.5512 18.3116L24.1219 17.1304L24.9624 16.3408L26.499 16.764L28.0356 18.3368L29.2963 20.6992L30.2559 21.3688L31.4915 22.67L32.5138 22.3352L34.1069 23.5164L36.5153 24.3059L35.5055 24.786ZM30.5381 3.78991C31.1402 3.66989 32.1939 4.30786 32.1939 4.85108C32.1939 5.64064 30.927 6.36704 30.3876 6.09543C29.8482 5.91225 29.9109 4.0931 30.5381 3.78991ZM24.9749 0C7.46361 0 0 5.66591 0 13.1194C0 21.1161 14.714 30.3571 25 30.3571C35.2609 30.3571 50 21.1161 50 13.1194C50.0063 5.66591 42.4862 0 24.9749 0Z" fill="#1450C9" fill-opacity="0.1"/>
</svg>
