<svg width="33" height="50" viewBox="0 0 33 50" fill="none" xmlns="http://www.w3.org/2000/svg">
<g opacity="0.3">
<path opacity="0.7" d="M1.95624 42.4264C2.18507 42.7265 2.4266 43.0266 2.67449 43.3201C3.11306 43.8355 3.57707 44.3312 4.06013 44.8009C4.53685 45.2641 5.03899 45.7077 5.56019 46.1186C6.07504 46.5231 6.60896 46.9014 7.15559 47.2537C7.86113 47.7038 8.59844 48.1017 9.36118 48.4409C10.1112 48.7802 10.8867 49.0737 11.6748 49.302C12.4566 49.5303 13.2575 49.7065 14.0647 49.8239C14.872 49.9413 15.6856 50 16.4992 50C17.3127 50 18.1263 49.9413 18.9336 49.8239C19.7408 49.7065 20.5353 49.5303 21.3235 49.302C22.1117 49.0672 22.8871 48.7802 23.6371 48.4409C24.3999 48.0952 25.1308 47.6973 25.8427 47.2537C26.3957 46.9014 26.9296 46.5231 27.4381 46.1186C27.9593 45.7077 28.4615 45.2641 28.9382 44.8009C29.4213 44.3312 29.8853 43.8355 30.3238 43.3201C30.5717 43.0331 30.8133 42.733 31.0421 42.4329C31.3408 42.0415 31.3027 41.4805 30.9531 41.1413C29.2878 39.4844 27.6225 37.8275 25.9571 36.1705C25.544 35.7596 24.8639 35.8183 24.527 36.3075C24.3554 36.5554 24.1711 36.7968 23.9804 37.0251C23.7198 37.3317 23.4401 37.6318 23.1414 37.9057C22.8426 38.1797 22.5312 38.4341 22.207 38.669C21.8828 38.9038 21.5396 39.1126 21.19 39.3083C20.8341 39.4974 20.4718 39.667 20.0968 39.8171C19.7217 39.9671 19.334 40.0845 18.9399 40.1889C18.5458 40.2868 18.1454 40.365 17.7386 40.4172C17.3255 40.4694 16.9123 40.4955 16.4992 40.4955C16.086 40.4955 15.6729 40.4694 15.2597 40.4172C14.8529 40.365 14.4525 40.2933 14.0584 40.1889C13.6707 40.0911 13.2829 39.9671 12.9079 39.8171C12.5329 39.6736 12.1706 39.504 11.8147 39.3083C11.4587 39.1191 11.1218 38.9038 10.7977 38.669C10.4735 38.4341 10.1557 38.1797 9.86332 37.9057C9.56458 37.6318 9.28491 37.3382 9.02431 37.0251C8.83362 36.7968 8.64929 36.5554 8.47768 36.3075C8.1408 35.8183 7.46704 35.7596 7.04754 36.1705C5.38222 37.8275 3.7169 39.4844 2.05159 41.1413C1.69564 41.474 1.6575 42.035 1.95624 42.4264Z" fill="#009490"/>
<path opacity="0.7" d="M27.9261 4.40467C24.9641 1.56131 20.9081 0 16.5003 0C12.0732 0 8.00442 1.56765 5.0488 4.40467C2.09957 7.24168 0.474609 11.1386 0.474609 15.3846C0.474609 19.6243 2.09957 23.5275 5.0488 26.3582C8.00442 29.2016 12.0732 30.7692 16.5003 30.7692C20.9081 30.7692 24.9705 29.2016 27.9261 26.3582C30.8881 23.5149 32.5259 19.6179 32.5259 15.3846C32.5259 11.1513 30.8881 7.25438 27.9261 4.40467ZM16.4939 21.5473C12.9497 21.5473 10.2819 18.9007 10.2819 15.3846C10.2819 11.8685 12.9497 9.22188 16.4939 9.22188C19.9997 9.22188 22.6482 11.8685 22.6482 15.3846C22.6482 18.9007 20.0061 21.5473 16.4939 21.5473Z" fill="#009490"/>
</g>
</svg>
