<svg width="20" height="20" viewBox="0 0 20 20" fill="none" xmlns="http://www.w3.org/2000/svg">
<path d="M19.0128 9.50003C19.0162 10.8199 18.7078 12.1219 18.1128 13.3C17.4072 14.7118 16.3225 15.8992 14.9802 16.7293C13.6379 17.5594 12.091 17.9994 10.5128 18C9.19289 18.0035 7.89087 17.6951 6.71276 17.1L1.01276 19L2.91276 13.3C2.31769 12.1219 2.00932 10.8199 2.01276 9.50003C2.01337 7.92179 2.45337 6.37488 3.28348 5.03258C4.11358 3.69028 5.30101 2.6056 6.71276 1.90003C7.89087 1.30496 9.19289 0.996587 10.5128 1.00003H11.0128C13.0971 1.11502 15.0658 1.99479 16.5419 3.47089C18.018 4.94699 18.8978 6.91568 19.0128 9.00003V9.50003Z" stroke="#1C3D1A" stroke-width="1.5" stroke-linecap="round" stroke-linejoin="round"/>
</svg>
