<svg width="32" height="32" viewBox="0 0 32 32" fill="none" xmlns="http://www.w3.org/2000/svg">
<rect x="32" width="32" height="32" rx="12" transform="rotate(90 32 0)" fill="#DAE23D"/>
<path fill-rule="evenodd" clip-rule="evenodd" d="M23.7364 15.3637C24.0879 15.7152 24.0879 16.285 23.7364 16.6365L17.7364 22.6365C17.3849 22.988 16.8151 22.988 16.4636 22.6365C16.1121 22.285 16.1121 21.7152 16.4636 21.3637L21.8272 16.0001L16.4636 10.6365C16.1121 10.285 16.1121 9.71517 16.4636 9.3637C16.8151 9.01223 17.3849 9.01223 17.7364 9.3637L23.7364 15.3637Z" fill="#1C3D1A"/>
<path fill-rule="evenodd" clip-rule="evenodd" d="M15.9363 15.3637C16.2878 15.7152 16.2878 16.285 15.9363 16.6365L9.93635 22.6365C9.58487 22.988 9.01503 22.988 8.66355 22.6365C8.31208 22.285 8.31208 21.7152 8.66355 21.3637L14.0272 16.0001L8.66355 10.6365C8.31208 10.285 8.31208 9.71517 8.66355 9.3637C9.01503 9.01223 9.58488 9.01223 9.93635 9.3637L15.9363 15.3637Z" fill="#1C3D1A"/>
</svg>
