<svg width="32" height="32" viewBox="0 0 32 32" fill="none" xmlns="http://www.w3.org/2000/svg">
<rect width="32" height="32" rx="12" transform="matrix(4.37114e-08 1 1 -4.37114e-08 0 0)" fill="#DAE23D"/>
<path fill-rule="evenodd" clip-rule="evenodd" d="M8.2636 15.3637C7.91213 15.7152 7.91213 16.285 8.2636 16.6365L14.2636 22.6365C14.6151 22.988 15.1849 22.988 15.5364 22.6365C15.8879 22.285 15.8879 21.7152 15.5364 21.3637L10.1728 16.0001L15.5364 10.6365C15.8879 10.285 15.8879 9.71517 15.5364 9.3637C15.1849 9.01223 14.6151 9.01223 14.2636 9.3637L8.2636 15.3637Z" fill="#1C3D1A"/>
<path fill-rule="evenodd" clip-rule="evenodd" d="M16.0637 15.3637C15.7122 15.7152 15.7122 16.285 16.0637 16.6365L22.0637 22.6365C22.4151 22.988 22.985 22.988 23.3364 22.6365C23.6879 22.285 23.6879 21.7152 23.3364 21.3637L17.9728 16.0001L23.3364 10.6365C23.6879 10.285 23.6879 9.71517 23.3364 9.3637C22.985 9.01223 22.4151 9.01223 22.0637 9.3637L16.0637 15.3637Z" fill="#1C3D1A"/>
</svg>
