<svg width="20" height="20" viewBox="0 0 41 40" fill="none" xmlns="http://www.w3.org/2000/svg">
<g id="camera" clip-path="url(#clip0_5658_39957)">
<path id="Vector" d="M38.9401 31.6667C38.9401 32.5507 38.5889 33.3986 37.9638 34.0237C37.3387 34.6488 36.4908 35 35.6068 35H5.60677C4.72272 35 3.87487 34.6488 3.24975 34.0237C2.62463 33.3986 2.27344 32.5507 2.27344 31.6667V13.3333C2.27344 12.4493 2.62463 11.6014 3.24975 10.9763C3.87487 10.3512 4.72272 10 5.60677 10H12.2734L15.6068 5H25.6068L28.9401 10H35.6068C36.4908 10 37.3387 10.3512 37.9638 10.9763C38.5889 11.6014 38.9401 12.4493 38.9401 13.3333V31.6667Z" stroke="black" stroke-width="3.33333" stroke-linecap="round" stroke-linejoin="round"/>
<path id="Vector_2" d="M20.6042 28.3333C24.2861 28.3333 27.2708 25.3486 27.2708 21.6667C27.2708 17.9848 24.2861 15 20.6042 15C16.9223 15 13.9375 17.9848 13.9375 21.6667C13.9375 25.3486 16.9223 28.3333 20.6042 28.3333Z" stroke="black" stroke-width="3.33333" stroke-linecap="round" stroke-linejoin="round"/>
</g>
<defs>
<clipPath id="clip0_5658_39957">
<rect width="40" height="40" fill="black" transform="translate(0.605469)"/>
</clipPath>
</defs>
</svg>
