<svg width="19" height="22" viewBox="0 0 19 22" fill="none" xmlns="http://www.w3.org/2000/svg">
<path fill-rule="evenodd" clip-rule="evenodd" d="M5.78065 0.25H12.2449C13.0577 0.249993 13.7133 0.249987 14.2442 0.293364C14.7909 0.338026 15.271 0.432385 15.7152 0.658726C16.4208 1.01825 16.9945 1.59193 17.354 2.29754C17.5804 2.74175 17.6747 3.2219 17.7194 3.76853C17.7628 4.29944 17.7628 4.95505 17.7628 5.76788V9C17.7628 9.41421 17.427 9.75 17.0128 9.75C16.5985 9.75 16.2628 9.41421 16.2628 9V5.8C16.2628 4.94755 16.2622 4.35331 16.2244 3.89068C16.1873 3.4368 16.1182 3.17604 16.0175 2.97852C15.8018 2.55516 15.4576 2.21095 15.0342 1.99524C14.8367 1.8946 14.576 1.82547 14.1221 1.78838C13.6594 1.75058 13.0652 1.75 12.2128 1.75H5.81276C4.9603 1.75 4.36607 1.75058 3.90344 1.78838C3.44956 1.82547 3.18879 1.8946 2.99128 1.99524C2.56791 2.21095 2.22371 2.55516 2.00799 2.97852C1.90735 3.17604 1.83822 3.4368 1.80114 3.89068C1.76334 4.35331 1.76276 4.94755 1.76276 5.8V16.2C1.76276 17.0525 1.76334 17.6467 1.80114 18.1093C1.83822 18.5632 1.90735 18.824 2.00799 19.0215C2.22371 19.4448 2.56791 19.789 2.99128 20.0048C3.1888 20.1054 3.44956 20.1745 3.90344 20.2116C4.36607 20.2494 4.9603 20.25 5.81276 20.25H9.01276C9.42697 20.25 9.76276 20.5858 9.76276 21C9.76276 21.4142 9.42697 21.75 9.01276 21.75H5.78063C4.9678 21.75 4.31219 21.75 3.78129 21.7066C3.23465 21.662 2.75451 21.5676 2.31029 21.3413C1.60469 20.9817 1.03101 20.4081 0.671482 19.7025C0.445142 19.2582 0.350782 18.7781 0.30612 18.2315C0.262743 17.7006 0.262749 17.0449 0.262757 16.2321V5.7679C0.262749 4.95506 0.262743 4.29944 0.30612 3.76853C0.350782 3.2219 0.445142 2.74175 0.671482 2.29754C1.03101 1.59193 1.60468 1.01825 2.31029 0.658726C2.75451 0.432385 3.23465 0.338026 3.78129 0.293364C4.3122 0.249987 4.96781 0.249993 5.78065 0.25ZM4.26276 6C4.26276 5.58579 4.59854 5.25 5.01276 5.25H13.0128C13.427 5.25 13.7628 5.58579 13.7628 6C13.7628 6.41421 13.427 6.75 13.0128 6.75H5.01276C4.59854 6.75 4.26276 6.41421 4.26276 6ZM4.26276 10C4.26276 9.58579 4.59854 9.25 5.01276 9.25H9.51276C9.92697 9.25 10.2628 9.58579 10.2628 10C10.2628 10.4142 9.92697 10.75 9.51276 10.75H5.01276C4.59854 10.75 4.26276 10.4142 4.26276 10ZM14.0096 12.8275C15.0464 12.0907 16.4691 11.9987 17.6168 12.9261C18.9621 14.0132 19.1279 15.8845 18.0874 17.1862C17.6484 17.7355 16.7261 18.598 15.9626 19.2855C15.571 19.6381 15.2048 19.9592 14.9366 20.192C14.8024 20.3085 14.6925 20.403 14.616 20.4686L14.5274 20.5445L14.4962 20.571L14.01 20L13.5244 20.5715L13.4926 20.5445L13.404 20.4686C13.3275 20.403 13.2177 20.3085 13.0835 20.192C12.8153 19.9592 12.449 19.6381 12.0574 19.2855C11.294 18.598 10.3717 17.7355 9.93259 17.1862C8.88525 15.8759 9.08552 14.0206 10.3954 12.9325C11.5347 11.9862 12.9712 12.0905 14.0096 12.8275ZM14.01 20L13.5244 20.5715C13.8044 20.8094 14.2162 20.8089 14.4962 20.571L14.01 20ZM14.01 19.0099C14.2672 18.7862 14.6027 18.4915 14.9588 18.1708C15.7444 17.4634 16.5679 16.6848 16.9158 16.2497C17.4491 15.5824 17.3672 14.653 16.674 14.0928C16.0093 13.5556 15.1443 13.6767 14.5731 14.326C14.4307 14.4878 14.2256 14.5806 14.01 14.5806C13.7945 14.5806 13.5893 14.4878 13.4469 14.326C12.8702 13.6704 11.9936 13.555 11.3539 14.0864C10.6597 14.663 10.5778 15.591 11.1043 16.2497C11.4521 16.6848 12.2756 17.4634 13.0612 18.1708C13.4173 18.4915 13.7528 18.7862 14.01 19.0099ZM4.26276 14C4.26276 13.5858 4.59854 13.25 5.01276 13.25H6.01276C6.42697 13.25 6.76276 13.5858 6.76276 14C6.76276 14.4142 6.42697 14.75 6.01276 14.75H5.01276C4.59854 14.75 4.26276 14.4142 4.26276 14Z" fill="#1C3D1A"/>
</svg>
