<svg width="18" height="18" viewBox="0 0 18 18" fill="none" xmlns="http://www.w3.org/2000/svg">
<path fill-rule="evenodd" clip-rule="evenodd" d="M4.19863 5.80544C2.93422 6.86072 2.05041 8.09968 1.60402 8.80649C1.57468 8.85295 1.55365 8.88629 1.53598 8.91539C1.51872 8.94381 1.50933 8.9606 1.50378 8.97129C1.50249 8.97376 1.5015 8.97575 1.50074 8.97731C1.50032 8.98339 1.5 8.99129 1.5 9.00033C1.5 9.00936 1.50032 9.01726 1.50074 9.02334C1.5015 9.0249 1.50249 9.02689 1.50377 9.02936C1.50933 9.04005 1.51872 9.05685 1.53598 9.08526C1.55365 9.11436 1.57468 9.1477 1.60402 9.19416C2.05041 9.90097 2.93422 11.1399 4.19863 12.1952C5.46127 13.249 7.05825 14.0837 8.95346 14.0837C10.8487 14.0837 12.4457 13.249 13.7083 12.1952C14.9727 11.1399 15.8565 9.90097 16.3029 9.19416C16.3322 9.1477 16.3533 9.11436 16.3709 9.08526C16.3882 9.05684 16.3976 9.04005 16.4031 9.02936C16.4044 9.02689 16.4054 9.0249 16.4062 9.02334C16.4066 9.01726 16.4069 9.00936 16.4069 9.00033C16.4069 8.99129 16.4066 8.98339 16.4062 8.97731C16.4054 8.97575 16.4044 8.97376 16.4031 8.97129C16.3976 8.9606 16.3882 8.94381 16.3709 8.91539C16.3533 8.88629 16.3322 8.85295 16.3029 8.80649C15.8565 8.09968 14.9727 6.86072 13.7083 5.80544C12.4457 4.75162 10.8487 3.91699 8.95346 3.91699C7.05825 3.91699 5.46127 4.75162 4.19863 5.80544ZM1.49861 8.98192C1.49861 8.98191 1.49865 8.98182 1.49872 8.98166L1.49861 8.98192ZM3.23748 4.65383C4.66862 3.45938 6.5945 2.41699 8.95346 2.41699C11.3124 2.41699 13.2383 3.45938 14.6694 4.65383C16.0988 5.8468 17.0797 7.22736 17.5712 8.00553C17.5775 8.01562 17.584 8.02585 17.5906 8.03624C17.6889 8.19107 17.809 8.38034 17.8701 8.64658C17.9192 8.86096 17.9192 9.13969 17.8701 9.35407C17.809 9.62031 17.6889 9.80958 17.5906 9.96441C17.584 9.97479 17.5775 9.98503 17.5712 9.99512C17.0797 10.7733 16.0988 12.1538 14.6694 13.3468C13.2383 14.5413 11.3124 15.5837 8.95346 15.5837C6.5945 15.5837 4.66862 14.5413 3.23748 13.3468C1.8081 12.1538 0.82722 10.7733 0.335768 9.99512C0.329395 9.98503 0.322899 9.9748 0.316305 9.96441C0.218022 9.80958 0.0978781 9.62031 0.0368526 9.35407C-0.0122842 9.13969 -0.0122842 8.86096 0.0368525 8.64658C0.097878 8.38034 0.218021 8.19107 0.316305 8.03624C0.322899 8.02585 0.329395 8.01562 0.335768 8.00553C0.827219 7.22736 1.8081 5.8468 3.23748 4.65383ZM8.95346 7.25033C7.98696 7.25033 7.20346 8.03383 7.20346 9.00033C7.20346 9.96682 7.98696 10.7503 8.95346 10.7503C9.91996 10.7503 10.7035 9.96682 10.7035 9.00033C10.7035 8.03383 9.91996 7.25033 8.95346 7.25033ZM5.70346 9.00033C5.70346 7.2054 7.15854 5.75033 8.95346 5.75033C10.7484 5.75033 12.2035 7.2054 12.2035 9.00033C12.2035 10.7952 10.7484 12.2503 8.95346 12.2503C7.15854 12.2503 5.70346 10.7952 5.70346 9.00033Z" fill="#FF8080"/>
<path fill-rule="evenodd" clip-rule="evenodd" d="M0.46967 0.46967C0.762563 0.176777 1.23744 0.176777 1.53033 0.46967L17.0303 15.9697C17.3232 16.2626 17.3232 16.7374 17.0303 17.0303C16.7374 17.3232 16.2626 17.3232 15.9697 17.0303L0.46967 1.53033C0.176777 1.23744 0.176777 0.762563 0.46967 0.46967Z" fill="#FF8080"/>
</svg>
