<svg width="21" height="21" viewBox="0 0 21 21" fill="none" xmlns="http://www.w3.org/2000/svg">
<g id="cuentas">
<path id="Vector" d="M18.8333 16.3333C18.8333 16.7754 18.6577 17.1993 18.3452 17.5118C18.0326 17.8244 17.6087 18 17.1667 18H3.83332C3.3913 18 2.96737 17.8244 2.65481 17.5118C2.34225 17.1993 2.16666 16.7754 2.16666 16.3333V4.66667C2.16666 4.22464 2.34225 3.80072 2.65481 3.48816C2.96737 3.17559 3.3913 3 3.83332 3H7.99999L9.66666 5.5H17.1667C17.6087 5.5 18.0326 5.67559 18.3452 5.98816C18.6577 6.30072 18.8333 6.72464 18.8333 7.16667V16.3333Z" stroke="white" stroke-width="2" stroke-linecap="round" stroke-linejoin="round"/>
<path id="Vector_2" d="M10.5 9.6665V14.6665" stroke="white" stroke-width="2" stroke-linecap="round" stroke-linejoin="round"/>
<path id="Vector_3" d="M8 12.1665H13" stroke="white" stroke-width="2" stroke-linecap="round" stroke-linejoin="round"/>
</g>
</svg>
