<svg width="25" height="25" viewBox="0 0 25 25" fill="none" xmlns="http://www.w3.org/2000/svg">
<g clip-path="url(#clip0_5672_40664)">
<path d="M11.9023 4.5H4.90234C4.37191 4.5 3.8632 4.71071 3.48813 5.08579C3.11306 5.46086 2.90234 5.96957 2.90234 6.5V20.5C2.90234 21.0304 3.11306 21.5391 3.48813 21.9142C3.8632 22.2893 4.37191 22.5 4.90234 22.5H18.9023C19.4328 22.5 19.9415 22.2893 20.3166 21.9142C20.6916 21.5391 20.9023 21.0304 20.9023 20.5V13.5" stroke="#FF8080" stroke-width="2" stroke-linecap="round" stroke-linejoin="round"/>
<path d="M19.4023 3.00023C19.8002 2.6024 20.3397 2.37891 20.9023 2.37891C21.465 2.37891 22.0045 2.6024 22.4023 3.00023C22.8002 3.39805 23.0237 3.93762 23.0237 4.50023C23.0237 5.06284 22.8002 5.6024 22.4023 6.00023L12.9023 15.5002L8.90234 16.5002L9.90234 12.5002L19.4023 3.00023Z" stroke="#FF8080" stroke-width="2" stroke-linecap="round" stroke-linejoin="round"/>
</g>
<defs>
<clipPath id="clip0_5672_40664">
<rect width="24" height="24" fill="white" transform="translate(0.902344 0.5)"/>
</clipPath>
</defs>
</svg>
