<svg width="20" height="20" viewBox="0 0 20 20" fill="none" xmlns="http://www.w3.org/2000/svg">
<path fill-rule="evenodd" clip-rule="evenodd" d="M5.2455 6.80544C3.9811 7.86072 3.09728 9.09968 2.65089 9.80649C2.62155 9.85295 2.60053 9.88629 2.58285 9.91539C2.5656 9.94381 2.5562 9.9606 2.55065 9.97129C2.54937 9.97376 2.54837 9.97575 2.54761 9.97731C2.54719 9.98339 2.54688 9.99129 2.54688 10.0003C2.54688 10.0094 2.54719 10.0173 2.54761 10.0233C2.54837 10.0249 2.54937 10.0269 2.55065 10.0294C2.5562 10.04 2.5656 10.0568 2.58285 10.0853C2.60053 10.1144 2.62155 10.1477 2.65089 10.1942C3.09728 10.901 3.9811 12.1399 5.2455 13.1952C6.50814 14.249 8.10513 15.0837 10.0003 15.0837C11.8955 15.0837 13.4925 14.249 14.7552 13.1952C16.0196 12.1399 16.9034 10.901 17.3498 10.1942C17.3791 10.1477 17.4001 10.1144 17.4178 10.0853C17.4351 10.0568 17.4445 10.04 17.45 10.0294C17.4513 10.0269 17.4523 10.0249 17.4531 10.0233C17.4535 10.0173 17.4538 10.0094 17.4538 10.0003C17.4538 9.99129 17.4535 9.98339 17.4531 9.97731C17.4523 9.97575 17.4513 9.97376 17.45 9.97129C17.4445 9.9606 17.4351 9.94381 17.4178 9.91539C17.4001 9.88629 17.3791 9.85295 17.3498 9.80649C16.9034 9.09968 16.0196 7.86072 14.7552 6.80544C13.4925 5.75162 11.8955 4.91699 10.0003 4.91699C8.10513 4.91699 6.50814 5.75162 5.2455 6.80544ZM2.54549 9.98192C2.54549 9.98191 2.54552 9.98182 2.54559 9.98166L2.54549 9.98192ZM4.28436 5.65383C5.71549 4.45938 7.64137 3.41699 10.0003 3.41699C12.3593 3.41699 14.2852 4.45938 15.7163 5.65383C17.1457 6.8468 18.1266 8.22736 18.618 9.00553C18.6244 9.01562 18.6309 9.02585 18.6375 9.03624C18.7358 9.19107 18.8559 9.38034 18.9169 9.64658C18.9661 9.86096 18.9661 10.1397 18.9169 10.3541C18.8559 10.6203 18.7358 10.8096 18.6375 10.9644C18.6309 10.9748 18.6244 10.985 18.618 10.9951C18.1266 11.7733 17.1457 13.1538 15.7163 14.3468C14.2852 15.5413 12.3593 16.5837 10.0003 16.5837C7.64137 16.5837 5.71549 15.5413 4.28436 14.3468C2.85498 13.1538 1.87409 11.7733 1.38264 10.9951C1.37627 10.985 1.36977 10.9748 1.36318 10.9644C1.2649 10.8096 1.14475 10.6203 1.08373 10.3541C1.03459 10.1397 1.03459 9.86096 1.08373 9.64658C1.14475 9.38034 1.2649 9.19107 1.36318 9.03624C1.36977 9.02585 1.37627 9.01562 1.38264 9.00553C1.87409 8.22736 2.85498 6.8468 4.28436 5.65383ZM10.0003 8.25033C9.03384 8.25033 8.25034 9.03383 8.25034 10.0003C8.25034 10.9668 9.03384 11.7503 10.0003 11.7503C10.9668 11.7503 11.7503 10.9668 11.7503 10.0003C11.7503 9.03383 10.9668 8.25033 10.0003 8.25033ZM6.75034 10.0003C6.75034 8.2054 8.20541 6.75033 10.0003 6.75033C11.7953 6.75033 13.2503 8.2054 13.2503 10.0003C13.2503 11.7952 11.7953 13.2503 10.0003 13.2503C8.20541 13.2503 6.75034 11.7952 6.75034 10.0003Z" fill="#FF8080"/>
</svg>
