<svg width="23" height="21" viewBox="0 0 23 21" fill="none" xmlns="http://www.w3.org/2000/svg">
<path d="M20.2913 2.99561C19.7805 2.48462 19.1741 2.07926 18.5066 1.8027C17.8392 1.52614 17.1238 1.38379 16.4013 1.38379C15.6788 1.38379 14.9634 1.52614 14.2959 1.8027C13.6285 2.07926 13.022 2.48462 12.5113 2.99561L11.4513 4.05561L10.3913 2.99561C9.3596 1.96392 7.96032 1.38432 6.50129 1.38432C5.04226 1.38432 3.64298 1.96392 2.61129 2.99561C1.5796 4.02731 1 5.42658 1 6.88561C1 8.34465 1.5796 9.74392 2.61129 10.7756L3.67129 11.8356L11.4513 19.6156L19.2313 11.8356L20.2913 10.7756C20.8023 10.2649 21.2076 9.65843 21.4842 8.99097C21.7608 8.32351 21.9031 7.6081 21.9031 6.88561C21.9031 6.16313 21.7608 5.44772 21.4842 4.78026C21.2076 4.1128 20.8023 3.50637 20.2913 2.99561Z" stroke="#DAE23D" stroke-width="2" stroke-linecap="round" stroke-linejoin="round"/>
</svg>
