<svg width="25" height="24" viewBox="0 0 25 24" fill="none" xmlns="http://www.w3.org/2000/svg">
<g id="FileDoc">
<path id="Vector (Stroke)" fill-rule="evenodd" clip-rule="evenodd" d="M3.875 15.75C3.875 15.3358 4.21079 15 4.625 15H5.9375C6.73315 15 7.49621 15.3161 8.05882 15.8787C8.62143 16.4413 8.9375 17.2044 8.9375 18C8.9375 18.7956 8.62143 19.5587 8.05882 20.1213C7.49621 20.6839 6.73315 21 5.9375 21H4.625C4.21079 21 3.875 20.6642 3.875 20.25V15.75ZM5.375 16.5V19.5H5.9375C6.33533 19.5 6.71686 19.342 6.99816 19.0607C7.27946 18.7794 7.4375 18.3978 7.4375 18C7.4375 17.6022 7.27946 17.2206 6.99816 16.9393C6.71686 16.658 6.33533 16.5 5.9375 16.5H5.375Z" fill="black"/>
<path id="Vector (Stroke)_2" fill-rule="evenodd" clip-rule="evenodd" d="M12.6875 16.5C12.0227 16.5 11.375 17.1088 11.375 18C11.375 18.8912 12.0227 19.5 12.6875 19.5C13.3523 19.5 14 18.8912 14 18C14 17.1088 13.3523 16.5 12.6875 16.5ZM9.875 18C9.875 16.4059 11.0741 15 12.6875 15C14.3009 15 15.5 16.4059 15.5 18C15.5 19.5941 14.3009 21 12.6875 21C11.0741 21 9.875 19.5941 9.875 18Z" fill="black"/>
<path id="Vector (Stroke)_3" fill-rule="evenodd" clip-rule="evenodd" d="M19.0595 16.5C18.3913 16.5018 17.75 17.1057 17.75 18C17.75 18.8943 18.3913 19.4982 19.0595 19.5C19.3594 19.4968 19.6476 19.3832 19.869 19.1808C20.1747 18.9013 20.6491 18.9226 20.9285 19.2283C21.208 19.534 21.1868 20.0084 20.881 20.2879C20.3855 20.7409 19.7399 20.9946 19.0685 21L19.0625 21V21C17.4443 21 16.25 19.5981 16.25 18C16.25 16.4019 17.4443 15 19.0625 15H19.0685L19.0685 15C19.7399 15.0054 20.3855 15.2591 20.881 15.7121C21.1868 15.9916 21.208 16.466 20.9285 16.7717C20.6491 17.0774 20.1747 17.0987 19.869 16.8192C19.6476 16.6168 19.3594 16.5032 19.0595 16.5Z" fill="black"/>
<path id="Vector (Stroke)_4" fill-rule="evenodd" clip-rule="evenodd" d="M4.68934 2.68934C4.97064 2.40804 5.35217 2.25 5.75 2.25H14.75C14.9489 2.25 15.1397 2.32902 15.2803 2.46967L20.5303 7.71967C20.671 7.86032 20.75 8.05109 20.75 8.25V12C20.75 12.4142 20.4142 12.75 20 12.75C19.5858 12.75 19.25 12.4142 19.25 12V8.56066L14.4393 3.75L5.75 3.75L5.75 12C5.75 12.4142 5.41421 12.75 5 12.75C4.58579 12.75 4.25 12.4142 4.25 12V3.75C4.25 3.35217 4.40804 2.97064 4.68934 2.68934Z" fill="black"/>
<path id="Vector (Stroke)_5" fill-rule="evenodd" clip-rule="evenodd" d="M14.75 2.25C15.1642 2.25 15.5 2.58579 15.5 3V7.5H20C20.4142 7.5 20.75 7.83579 20.75 8.25C20.75 8.66421 20.4142 9 20 9H14.75C14.3358 9 14 8.66421 14 8.25V3C14 2.58579 14.3358 2.25 14.75 2.25Z" fill="black"/>
</g>
</svg>
