<svg width="20" height="20" viewBox="0 0 20 20" fill="none" xmlns="http://www.w3.org/2000/svg">
<path fill-rule="evenodd" clip-rule="evenodd" d="M3.78524 1.875H16.2142C16.6613 1.87499 17.0391 1.87498 17.3325 1.90135C17.6168 1.92691 17.9598 1.98484 18.2311 2.20879C18.5823 2.49876 18.7778 2.93614 18.7597 3.3912C18.7458 3.74267 18.5602 4.03697 18.3897 4.26585C18.2137 4.50207 17.9618 4.78363 17.6637 5.1168L12.8885 10.4538C12.8223 10.5278 12.7855 10.5691 12.7589 10.6015C12.7357 10.6298 12.733 10.6361 12.7346 10.6332C12.7247 10.6509 12.7174 10.67 12.713 10.6898C12.7138 10.6865 12.7115 10.693 12.71 10.7296C12.7082 10.7715 12.708 10.8268 12.708 10.9261V15.382C12.708 15.3926 12.7081 15.4041 12.7082 15.4164C12.7091 15.5358 12.7105 15.7326 12.6423 15.9154C12.5843 16.071 12.4898 16.2105 12.3669 16.3222C12.2226 16.4533 12.0393 16.5251 11.9281 16.5686C11.9166 16.5731 11.9059 16.5773 11.8961 16.5813L9.04287 17.7226C8.90717 17.7769 8.76909 17.8321 8.64941 17.8678C8.52225 17.9058 8.33386 17.9487 8.12111 17.9045C7.85234 17.8486 7.61649 17.6889 7.46482 17.4601C7.34475 17.279 7.3146 17.0882 7.30261 16.956C7.29132 16.8316 7.29135 16.6829 7.29137 16.5368L7.29138 10.9261C7.29138 10.8268 7.29124 10.7715 7.28946 10.7296C7.2879 10.693 7.28566 10.6865 7.2864 10.6898C7.28199 10.67 7.2747 10.6509 7.26477 10.6332C7.26643 10.6361 7.26372 10.6298 7.24052 10.6015C7.2139 10.5691 7.17712 10.5278 7.11092 10.4538L2.33577 5.11685C2.03764 4.78365 1.78569 4.50208 1.60972 4.26585C1.43922 4.03697 1.25363 3.74267 1.23968 3.3912C1.22161 2.93614 1.41716 2.49876 1.76834 2.20879C2.03958 1.98484 2.38265 1.92691 2.66691 1.90135C2.9603 1.87498 3.33814 1.87499 3.78524 1.875ZM2.55144 3.18415C2.51343 3.2212 2.49098 3.2714 2.48872 3.32443C2.49604 3.34117 2.52348 3.40006 2.61216 3.51912C2.7504 3.70469 2.96384 3.94416 3.28727 4.30565L8.04247 9.62028C8.05064 9.62941 8.05888 9.63859 8.06717 9.64782C8.1678 9.75993 8.27551 9.87992 8.35513 10.0219C8.42466 10.146 8.47567 10.2795 8.50655 10.4183C8.54192 10.5772 8.54166 10.7385 8.54141 10.8891C8.54139 10.9015 8.54138 10.9138 8.54138 10.9261V16.5153C8.54138 16.5369 8.54138 16.5574 8.54139 16.5768C8.55944 16.5696 8.57843 16.562 8.59852 16.554L11.4318 15.4207C11.4411 15.417 11.4498 15.4135 11.458 15.4102C11.458 15.4013 11.458 15.392 11.458 15.382V10.9261C11.458 10.9138 11.458 10.9015 11.458 10.8891C11.4578 10.7384 11.4575 10.5772 11.4929 10.4183C11.5237 10.2795 11.5748 10.146 11.6443 10.0219C11.7239 9.87992 11.8316 9.75993 11.9322 9.64783C11.9405 9.63859 11.9488 9.62942 11.9569 9.62028L16.7121 4.30565C17.0356 3.94416 17.249 3.70469 17.3873 3.51912C17.4759 3.40006 17.5034 3.34117 17.5107 3.32443C17.5084 3.2714 17.486 3.2212 17.448 3.18415C17.4306 3.17845 17.3684 3.15963 17.2206 3.14633C16.9901 3.12561 16.6693 3.125 16.1843 3.125H3.81515C3.33009 3.125 3.00931 3.12561 2.77884 3.14633C2.63098 3.15963 2.56879 3.17845 2.55144 3.18415Z" fill="#FF8080"/>
</svg>
