<svg width="46" height="46" viewBox="0 0 46 46" fill="#009490" xmlns="http://www.w3.org/2000/svg">
<path d="M39.998 9.14376C39.0403 8.18564 37.9032 7.42559 36.6517 6.90704C35.4003 6.38848 34.0589 6.12158 32.7042 6.12158C31.3495 6.12158 30.0081 6.38848 28.7567 6.90704C27.5052 7.42559 26.3681 8.18564 25.4105 9.14376L23.423 11.1313L21.4355 9.14376C19.501 7.20933 16.8774 6.12258 14.1417 6.12258C11.406 6.12258 8.78238 7.20933 6.84795 9.14376C4.91353 11.0782 3.82678 13.7018 3.82678 16.4375C3.82678 19.1732 4.91353 21.7968 6.84795 23.7313L8.83545 25.7188L23.423 40.3063L38.0105 25.7188L39.998 23.7313C40.9561 22.7736 41.7161 21.6365 42.2347 20.385C42.7532 19.1336 43.0201 17.7922 43.0201 16.4375C43.0201 15.0828 42.7532 13.7414 42.2347 12.49C41.7161 11.2385 40.9561 10.1014 39.998 9.14376Z" stroke="#009490" stroke-width="3.75" stroke-linecap="round" stroke-linejoin="round"/>
</svg>
