<svg width="20" height="21" viewBox="0 0 20 21" fill="none" xmlns="http://www.w3.org/2000/svg">
<path fill-rule="evenodd" clip-rule="evenodd" d="M9.94893 2.02538C9.94234 2.02809 9.91829 2.03936 9.86659 2.0739C9.78221 2.13027 9.67502 2.21307 9.49092 2.35626L2.70862 7.63138C2.22172 8.01008 2.09548 8.11652 2.00779 8.23509C1.91737 8.35733 1.85002 8.49504 1.80904 8.64146C1.76929 8.78347 1.76277 8.94847 1.76277 9.5653V16.8002C1.76277 17.3727 1.76335 17.7569 1.78753 18.0527C1.81099 18.3399 1.85287 18.4772 1.89901 18.5677C2.01885 18.8029 2.21008 18.9941 2.44528 19.114C2.53584 19.1601 2.67312 19.202 2.96025 19.2255C3.25613 19.2496 3.64034 19.2502 4.21277 19.2502H6.26277L6.26277 12.574C6.26275 12.3165 6.26273 12.08 6.27889 11.8824C6.2963 11.6692 6.33616 11.4361 6.45351 11.2057C6.62129 10.8765 6.889 10.6087 7.21829 10.441C7.44859 10.3236 7.68177 10.2838 7.8949 10.2663C8.09258 10.2502 8.32906 10.2502 8.58654 10.2502H11.439C11.6965 10.2502 11.933 10.2502 12.1306 10.2663C12.3438 10.2838 12.5769 10.3236 12.8073 10.441C13.1365 10.6087 13.4043 10.8765 13.572 11.2057C13.6894 11.4361 13.7292 11.6692 13.7467 11.8824C13.7628 12.08 13.7628 12.3165 13.7628 12.574L13.7628 19.2502H15.8128C16.3852 19.2502 16.7694 19.2496 17.0653 19.2255C17.3524 19.202 17.4897 19.1601 17.5803 19.114C17.8155 18.9941 18.0067 18.8029 18.1265 18.5677C18.1727 18.4772 18.2146 18.3399 18.238 18.0527C18.2622 17.7569 18.2628 17.3727 18.2628 16.8002V9.5653C18.2628 8.94847 18.2563 8.78347 18.2165 8.64146C18.1755 8.49504 18.1082 8.35733 18.0178 8.23509C17.9301 8.11652 17.8038 8.01008 17.3169 7.63138L10.5346 2.35626C10.3505 2.21307 10.2433 2.13027 10.1589 2.0739C10.1073 2.03936 10.0832 2.02809 10.0766 2.02538C10.0348 2.01433 9.99077 2.01433 9.94893 2.02538ZM10.0747 2.02467C10.0747 2.02463 10.0755 2.02492 10.0766 2.02538L10.0747 2.02467ZM15.8432 20.7502C16.3774 20.7502 16.8232 20.7502 17.1874 20.7205C17.5673 20.6895 17.924 20.6223 18.2612 20.4505C18.7787 20.1868 19.1994 19.7661 19.463 19.2487C19.6349 18.9114 19.702 18.5548 19.733 18.1749C19.7628 17.8107 19.7628 17.3648 19.7628 16.8307V9.5653C19.7628 9.5364 19.7628 9.50786 19.7628 9.47966C19.7631 8.98899 19.7634 8.60303 19.661 8.23713C19.5708 7.91502 19.4226 7.61205 19.2237 7.34311C18.9978 7.03764 18.693 6.80088 18.3055 6.49991C18.2832 6.48261 18.2607 6.4651 18.2378 6.44736L11.4555 1.17223C11.432 1.15396 11.4084 1.13549 11.3847 1.11692C11.1089 0.901042 10.8154 0.671396 10.4701 0.577911C10.1706 0.496816 9.85493 0.496816 9.55541 0.577911C9.21014 0.671396 8.91669 0.901042 8.64083 1.11692C8.6171 1.13549 8.5935 1.15396 8.57001 1.17223L1.78771 6.44735C1.76489 6.4651 1.74234 6.48261 1.72007 6.49991C1.33257 6.80088 1.02775 7.03764 0.801808 7.34311C0.602898 7.61205 0.454722 7.91501 0.364558 8.23713C0.262141 8.60302 0.262401 8.98899 0.262732 9.47965C0.262751 9.50785 0.26277 9.53639 0.26277 9.5653L0.26277 16.8307C0.262759 17.3648 0.262751 17.8107 0.29251 18.1749C0.323547 18.5548 0.390659 18.9114 0.562503 19.2487C0.826154 19.7661 1.24685 20.1868 1.7643 20.4505C2.10156 20.6223 2.45822 20.6895 2.8381 20.7205C3.20233 20.7502 3.64817 20.7502 4.18232 20.7502H15.8432ZM12.2628 19.2502V12.6002C12.2628 12.3078 12.2622 12.1336 12.2516 12.0045C12.2452 11.9257 12.2367 11.8926 12.2339 11.8837C12.2104 11.8391 12.1739 11.8026 12.1293 11.7791C12.1204 11.7763 12.0873 11.7678 12.0085 11.7614C11.8794 11.7508 11.7052 11.7502 11.4128 11.7502H8.61277C8.32037 11.7502 8.14617 11.7508 8.01705 11.7614C7.93824 11.7678 7.90511 11.7763 7.89623 11.7791C7.85159 11.8026 7.81511 11.8391 7.79159 11.8837C7.78884 11.8926 7.78034 11.9257 7.7739 12.0045C7.76335 12.1336 7.76277 12.3078 7.76277 12.6002V19.2502H12.2628ZM7.7925 11.8811C7.79251 11.8811 7.79233 11.8817 7.79194 11.8826L7.7925 11.8811ZM7.89365 11.78C7.89361 11.7799 7.89408 11.7798 7.89513 11.7794L7.89365 11.78ZM12.1319 11.78C12.1319 11.78 12.1313 11.7798 12.1304 11.7794L12.1319 11.78ZM12.233 11.8811C12.2331 11.8811 12.2333 11.8816 12.2336 11.8826L12.233 11.8811ZM9.94893 2.02538C9.95006 2.02492 9.95088 2.02463 9.95086 2.02467L9.94893 2.02538Z" fill="#1C3D1A"/>
</svg>
