<svg width="42" height="42" viewBox="0 0 42 42" fill="none" xmlns="http://www.w3.org/2000/svg">
<path id="Vector" d="M40.425 8.40525V1.68C40.425 0.75075 39.6743 0 38.745 0H3.25503C2.32578 0 1.57503 0.75075 1.57503 1.68V8.40525C0.698282 8.45775 3.25286e-05 9.1875 3.25286e-05 10.08V16.9942C-0.0033296 18.265 0.253972 19.5229 0.756032 20.6903C0.981782 21.2257 1.26003 21.7297 1.57503 22.2075V40.32C1.57503 41.244 2.32578 42 3.25503 42H38.745C39.6743 42 40.425 41.2492 40.425 40.32V22.2075C40.745 21.7285 41.0192 21.2206 41.244 20.6903C41.7427 19.5195 42 18.2752 42 16.9942V10.08C42 9.1875 41.3018 8.45775 40.425 8.40525ZM5.35503 3.78H36.645V8.4H5.35503V3.78ZM24.36 38.2252H17.64V32.76H24.36V38.2252ZM36.645 38.2252H27.72V31.08C27.72 30.1507 26.9693 29.4 26.04 29.4H15.96C15.0308 29.4 14.28 30.1507 14.28 31.08V38.2252H5.35503V25.5098C5.50728 25.5833 5.66478 25.6567 5.82753 25.7198C6.99828 26.2133 8.24253 26.46 9.52353 26.46C10.8045 26.46 12.0435 26.2133 13.2195 25.7198C13.944 25.4153 14.6265 25.0267 15.2513 24.5595C15.2618 24.5542 15.2723 24.5542 15.2828 24.5595C15.9095 25.0287 16.5919 25.4185 17.3145 25.7198C18.4853 26.2133 19.7295 26.46 21.0105 26.46C22.2915 26.46 23.5305 26.2133 24.7065 25.7198C25.431 25.4153 26.1135 25.0267 26.7383 24.5595C26.7488 24.5542 26.7593 24.5542 26.7698 24.5595C27.3965 25.0287 28.0789 25.4185 28.8015 25.7198C29.9723 26.2133 31.2165 26.46 32.4975 26.46C33.7785 26.46 35.0175 26.2133 36.1935 25.7198C36.351 25.6515 36.5085 25.5833 36.666 25.5098V38.2252H36.645ZM38.22 16.9942C38.22 20.1338 35.6475 22.68 32.4818 22.68C30.3398 22.68 28.4708 21.5197 27.4838 19.7978C27.3315 19.5352 27.0585 19.3725 26.754 19.3725H26.7225C26.4233 19.3725 26.145 19.5352 25.9928 19.7978C25.4891 20.6762 24.7618 21.4056 23.8849 21.9118C23.0079 22.4181 22.0126 22.6831 21 22.68C18.8633 22.68 16.9995 21.525 16.0125 19.8082C15.855 19.5405 15.5715 19.3725 15.2618 19.3725C14.952 19.3725 14.6633 19.5405 14.511 19.8082C14.0044 20.6833 13.2762 21.4094 12.3997 21.9136C11.5232 22.4177 10.5294 22.6821 9.51828 22.68C6.35253 22.68 3.78003 20.1338 3.78003 16.9942V12.2062C3.78003 12.1905 3.79053 12.18 3.80628 12.18H38.1938C38.2095 12.18 38.22 12.1905 38.22 12.2062V16.9942Z" fill="white"/>
</svg>
