<svg width="73" height="97" viewBox="0 0 73 97" fill="none" xmlns="http://www.w3.org/2000/svg">
<g id="fa6-regular:file-image" clip-path="url(#clip0_5646_39467)">
<path id="Vector" d="M12.1667 87.9062C10.4938 87.9062 9.125 86.5422 9.125 84.875V12.125C9.125 10.4578 10.4938 9.09375 12.1667 9.09375H42.5833V24.25C42.5833 27.6033 45.3018 30.3125 48.6667 30.3125H63.875V84.875C63.875 86.5422 62.5063 87.9062 60.8333 87.9062H12.1667ZM12.1667 0C5.45599 0 0 5.4373 0 12.125V84.875C0 91.5627 5.45599 97 12.1667 97H60.8333C67.544 97 73 91.5627 73 84.875V29.2705C73 26.0498 71.7263 22.9617 69.4451 20.6883L52.2216 3.54277C49.9404 1.26934 46.8607 0 43.6289 0H12.1667ZM30.4167 48.5C30.4167 46.8921 29.7757 45.3501 28.6349 44.2132C27.4941 43.0762 25.9467 42.4375 24.3333 42.4375C22.7199 42.4375 21.1726 43.0762 20.0318 44.2132C18.8909 45.3501 18.25 46.8921 18.25 48.5C18.25 50.1079 18.8909 51.6499 20.0318 52.7868C21.1726 53.9238 22.7199 54.5625 24.3333 54.5625C25.9467 54.5625 27.4941 53.9238 28.6349 52.7868C29.7757 51.6499 30.4167 50.1079 30.4167 48.5ZM43.5719 57.3853C43.0016 56.5707 42.0701 56.0781 41.0625 56.0781C40.055 56.0781 39.1234 56.5707 38.5531 57.3853L30.7018 68.6957L28.4396 65.0771C27.8883 64.1867 26.8997 63.6562 25.8542 63.6562C24.8086 63.6562 23.8391 64.1867 23.2688 65.0771L15.6646 77.2021C15.0753 78.1305 15.0563 79.3051 15.5885 80.2713C16.1208 81.2375 17.1474 81.8248 18.25 81.8248H54.75C55.8906 81.8248 56.9172 81.1996 57.4495 80.1955C57.9818 79.1914 57.9057 77.9978 57.2594 77.0695L43.5719 57.3664V57.3853Z" fill="#DAE23D" fill-opacity="0.7"/>
</g>
<defs>
<clipPath id="clip0_5646_39467">
<rect width="73" height="97" fill="white"/>
</clipPath>
</defs>
</svg>
