<svg width="14" height="14" viewBox="0 0 14 14" fill="none" xmlns="http://www.w3.org/2000/svg">
<path id="Vector" d="M13.475 3.10162V1.02C13.475 0.732375 13.2248 0.5 12.915 0.5H1.08501C0.77526 0.5 0.52501 0.732375 0.52501 1.02V3.10162C0.232761 3.11788 1.08429e-05 3.34375 1.08429e-05 3.62V5.76013C-0.00110987 6.15345 0.0846573 6.5428 0.252011 6.90412C0.327261 7.06987 0.420011 7.22587 0.52501 7.37375V12.98C0.52501 13.266 0.77526 13.5 1.08501 13.5H12.915C13.2248 13.5 13.475 13.2676 13.475 12.98V7.37375C13.5817 7.2255 13.6731 7.06827 13.748 6.90412C13.9143 6.54175 14 6.15662 14 5.76013V3.62C14 3.34375 13.7673 3.11788 13.475 3.10162ZM1.78501 1.67H12.215V3.1H1.78501V1.67ZM8.12 12.3316H5.88001V10.64H8.12V12.3316ZM12.215 12.3316H9.24V10.12C9.24 9.83237 8.98975 9.6 8.68 9.6H5.32001C5.01026 9.6 4.76001 9.83237 4.76001 10.12V12.3316H1.78501V8.39587C1.83576 8.41862 1.88826 8.44138 1.94251 8.46088C2.33276 8.61363 2.74751 8.69 3.17451 8.69C3.60151 8.69 4.01451 8.61363 4.40651 8.46088C4.64801 8.36663 4.87551 8.24637 5.08376 8.10175C5.08726 8.10012 5.09076 8.10012 5.09426 8.10175C5.30315 8.24699 5.53064 8.36762 5.77151 8.46088C6.16176 8.61363 6.57651 8.69 7.00351 8.69C7.43051 8.69 7.8435 8.61363 8.2355 8.46088C8.477 8.36663 8.7045 8.24637 8.91275 8.10175C8.91625 8.10012 8.91975 8.10012 8.92325 8.10175C9.13215 8.24699 9.35964 8.36762 9.6005 8.46088C9.99075 8.61363 10.4055 8.69 10.8325 8.69C11.2595 8.69 11.6725 8.61363 12.0645 8.46088C12.117 8.43975 12.1695 8.41862 12.222 8.39587V12.3316H12.215ZM12.74 5.76013C12.74 6.73187 11.8825 7.52 10.8273 7.52C10.1133 7.52 9.49025 7.16087 9.16125 6.62787C9.1105 6.54662 9.0195 6.49625 8.918 6.49625H8.9075C8.80775 6.49625 8.715 6.54662 8.66425 6.62787C8.49636 6.89976 8.25393 7.12553 7.96162 7.28223C7.66931 7.43892 7.33753 7.52096 7.00001 7.52C6.28776 7.52 5.66651 7.1625 5.33751 6.63112C5.28501 6.54825 5.19051 6.49625 5.08726 6.49625C4.98401 6.49625 4.88776 6.54825 4.83701 6.63112C4.66813 6.90197 4.4254 7.12673 4.13324 7.28278C3.84108 7.43882 3.5098 7.52064 3.17276 7.52C2.11751 7.52 1.26001 6.73187 1.26001 5.76013V4.27812C1.26001 4.27325 1.26351 4.27 1.26876 4.27H12.7313C12.7365 4.27 12.74 4.27325 12.74 4.27812V5.76013Z" fill="#FF8080"/>
</svg>
