<svg width="23" height="23" viewBox="0 0 23 23" fill="none" xmlns="http://www.w3.org/2000/svg">
<path id="Vector" d="M22.1375 5.09551V1.6757C22.1375 1.20317 21.7264 0.821411 21.2175 0.821411H1.78252C1.27364 0.821411 0.862517 1.20317 0.862517 1.6757V5.09551C0.382392 5.12221 1.78133e-05 5.49329 1.78133e-05 5.94713V9.46305C-0.00182335 10.1092 0.13908 10.7489 0.414018 11.3425C0.537642 11.6148 0.690017 11.8711 0.862517 12.114V21.3243C0.862517 21.7941 1.27364 22.1786 1.78252 22.1786H21.2175C21.7264 22.1786 22.1375 21.7968 22.1375 21.3243V12.114C22.3127 11.8704 22.4629 11.6121 22.586 11.3425C22.8591 10.7471 23 10.1144 23 9.46305V5.94713C23 5.49329 22.6176 5.12221 22.1375 5.09551ZM2.93252 2.74355H20.0675V5.09284H2.93252V2.74355ZM13.34 20.2591H9.66001V17.48H13.34V20.2591ZM20.0675 20.2591H15.18V16.6257C15.18 16.1532 14.7689 15.7714 14.26 15.7714H8.74001C8.23114 15.7714 7.82001 16.1532 7.82001 16.6257V20.2591H2.93252V13.7932C3.01589 13.8306 3.10214 13.868 3.19127 13.9C3.83239 14.1509 4.51376 14.2764 5.21526 14.2764C5.91676 14.2764 6.59526 14.1509 7.23926 13.9C7.63601 13.7452 8.00976 13.5476 8.35189 13.31C8.35764 13.3073 8.36339 13.3073 8.36914 13.31C8.71233 13.5486 9.08605 13.7468 9.48176 13.9C10.1229 14.1509 10.8043 14.2764 11.5058 14.2764C12.2073 14.2764 12.8858 14.1509 13.5298 13.9C13.9265 13.7452 14.3003 13.5476 14.6424 13.31C14.6481 13.3073 14.6539 13.3073 14.6596 13.31C15.0028 13.5486 15.3765 13.7468 15.7723 13.9C16.4134 14.1509 17.0948 14.2764 17.7963 14.2764C18.4978 14.2764 19.1763 14.1509 19.8203 13.9C19.9065 13.8653 19.9928 13.8306 20.079 13.7932V20.2591H20.0675ZM20.93 9.46305C20.93 11.0595 19.5213 12.3543 17.7876 12.3543C16.6146 12.3543 15.5911 11.7643 15.0506 10.8886C14.9673 10.7552 14.8178 10.6724 14.651 10.6724H14.6338C14.4699 10.6724 14.3175 10.7552 14.2341 10.8886C13.9583 11.3353 13.56 11.7062 13.0798 11.9636C12.5996 12.2211 12.0545 12.3558 11.5 12.3543C10.3299 12.3543 9.30926 11.7669 8.76876 10.894C8.68251 10.7578 8.52726 10.6724 8.35764 10.6724C8.18801 10.6724 8.02989 10.7578 7.94651 10.894C7.66908 11.3389 7.2703 11.7082 6.79032 11.9645C6.31034 12.2209 5.7661 12.3553 5.21239 12.3543C3.47877 12.3543 2.07002 11.0595 2.07002 9.46305V7.02833C2.07002 7.02032 2.07577 7.01498 2.08439 7.01498H20.9156C20.9243 7.01498 20.93 7.02032 20.93 7.02833V9.46305Z" fill="white"/>
</svg>
