<svg width="21" height="26" viewBox="0 0 21 26" fill="none" xmlns="http://www.w3.org/2000/svg">
<path id="Vector" d="M9.33333 15.9167V18.25C7.47682 18.25 5.69634 18.9875 4.38359 20.3003C3.07083 21.613 2.33333 23.3935 2.33333 25.25H0C0 22.7746 0.983331 20.4007 2.73367 18.6503C4.48401 16.9 6.85798 15.9167 9.33333 15.9167ZM9.33333 14.75C5.46583 14.75 2.33333 11.6175 2.33333 7.75C2.33333 3.8825 5.46583 0.75 9.33333 0.75C13.2008 0.75 16.3333 3.8825 16.3333 7.75C16.3333 11.6175 13.2008 14.75 9.33333 14.75ZM9.33333 12.4167C11.9117 12.4167 14 10.3283 14 7.75C14 5.17167 11.9117 3.08333 9.33333 3.08333C6.755 3.08333 4.66667 5.17167 4.66667 7.75C4.66667 10.3283 6.755 12.4167 9.33333 12.4167ZM19.8333 19.4167H21V25.25H11.6667V19.4167H12.8333V18.25C12.8333 17.3217 13.2021 16.4315 13.8585 15.7751C14.5148 15.1187 15.4051 14.75 16.3333 14.75C17.2616 14.75 18.1518 15.1187 18.8082 15.7751C19.4646 16.4315 19.8333 17.3217 19.8333 18.25V19.4167ZM17.5 19.4167V18.25C17.5 17.9406 17.3771 17.6438 17.1583 17.425C16.9395 17.2062 16.6428 17.0833 16.3333 17.0833C16.0239 17.0833 15.7272 17.2062 15.5084 17.425C15.2896 17.6438 15.1667 17.9406 15.1667 18.25V19.4167H17.5Z" fill="#009490"/>
</svg>
