<svg width="25" height="25" viewBox="0 0 25 25" fill="none" xmlns="http://www.w3.org/2000/svg">
<path d="M17.5 2.0708H7.5C4.73858 2.0708 2.5 4.30938 2.5 7.0708V17.0708C2.5 19.8322 4.73858 22.0708 7.5 22.0708H17.5C20.2614 22.0708 22.5 19.8322 22.5 17.0708V7.0708C22.5 4.30938 20.2614 2.0708 17.5 2.0708Z" stroke="white" stroke-width="2" stroke-linecap="round" stroke-linejoin="round"/>
<path d="M16.5 11.4406C16.6234 12.2729 16.4813 13.1228 16.0938 13.8696C15.7063 14.6164 15.0932 15.222 14.3416 15.6003C13.5901 15.9785 12.7385 16.1102 11.9078 15.9765C11.0771 15.8429 10.3098 15.4507 9.71485 14.8558C9.11993 14.2609 8.72774 13.4935 8.59408 12.6628C8.46042 11.8322 8.59208 10.9805 8.97034 10.229C9.3486 9.47747 9.9542 8.86435 10.701 8.47686C11.4478 8.08936 12.2978 7.9472 13.13 8.07061C13.9789 8.1965 14.7649 8.59208 15.3717 9.19892C15.9785 9.80576 16.3741 10.5917 16.5 11.4406Z" stroke="white" stroke-width="2" stroke-linecap="round" stroke-linejoin="round"/>
<path d="M18 6.5708H18.01" stroke="white" stroke-width="2" stroke-linecap="round" stroke-linejoin="round"/>
</svg>
