<svg width="16" height="14" viewBox="0 0 16 14" fill="none" xmlns="http://www.w3.org/2000/svg">
<path fill-rule="evenodd" clip-rule="evenodd" d="M13.8006 5.84238C13.9062 8.01866 12.0327 10.2021 9.26861 10.947C6.51439 11.6892 3.80692 10.7521 2.7961 8.83142C2.32892 8.95194 1.86215 8.71601 1.75025 8.30075C1.63834 7.88549 1.92336 7.44697 2.38785 7.31642C2.29672 5.14788 4.16673 2.97731 6.92094 2.23511C9.68499 1.49025 12.4019 2.43667 13.4042 4.37128C13.798 4.35259 14.1541 4.5767 14.2499 4.93234C14.3458 5.28799 14.1505 5.66069 13.8006 5.84238Z" fill="#FFD12F"/>
<path fill-rule="evenodd" clip-rule="evenodd" d="M14.2745 6.08726C14.2367 8.45302 12.188 10.6471 9.39086 11.4008C6.62627 12.1458 3.78791 11.3072 2.54243 9.33174C1.98879 9.32686 1.45298 9.00485 1.29617 8.42295C1.13936 7.84104 1.44082 7.2934 1.91705 7.01099C2.0013 4.67723 4.03393 2.52597 6.7985 1.78098C9.59567 1.0272 12.4693 1.89476 13.6908 3.92114C14.1518 4.00207 14.5697 4.31216 14.7038 4.80986C14.8379 5.30756 14.6325 5.78562 14.2745 6.08726ZM13.8006 5.84224C13.9061 8.01852 12.0326 10.202 9.26852 10.9469C6.5143 11.6891 3.80683 10.752 2.79601 8.83128C2.32883 8.9518 1.86206 8.71587 1.75016 8.30061C1.63825 7.88534 1.92327 7.44682 2.38776 7.31628C2.29663 5.14774 4.16664 2.97717 6.92084 2.23496C9.68489 1.49011 12.4019 2.43652 13.4041 4.37114C13.7979 4.35245 14.154 4.57656 14.2498 4.9322C14.3457 5.28785 14.1504 5.66055 13.8006 5.84224Z" fill="#755F13"/>
<path d="M7.61622 4.03915C7.95162 4.77439 7.32948 5.77826 6.22662 6.28136C5.12377 6.78446 3.95784 6.59628 3.62243 5.86105C3.28703 5.12581 3.90918 4.12194 5.01203 3.61884C6.11488 3.11574 7.28082 3.30392 7.61622 4.03915Z" fill="#FFEA2F"/>
<path d="M2.55559 7.69322C2.63096 7.85846 2.54267 8.06056 2.35837 8.14463C2.17408 8.22871 1.96357 8.16291 1.88819 7.99767C1.81281 7.83244 1.90111 7.63033 2.08541 7.54626C2.2697 7.46219 2.48021 7.52798 2.55559 7.69322Z" fill="#FFEA2F"/>
<path fill-rule="evenodd" clip-rule="evenodd" d="M7.58982 9.63023C10.7276 8.78467 12.7834 6.28875 12.1815 4.05544C12.0036 3.39531 11.6135 2.83201 11.071 2.38782C12.1065 2.78989 12.9396 3.47436 13.4042 4.3712C13.7979 4.35251 14.154 4.57662 14.2499 4.93226C14.3457 5.2879 14.1504 5.6606 13.8006 5.84229C13.9062 8.01856 12.0326 10.202 9.26857 10.9469C6.87776 11.5912 4.52218 10.9701 3.28101 9.53864C4.50184 9.98418 6.03275 10.0498 7.58982 9.63023Z" fill="#DEB523"/>
<path d="M12.0661 6.86612C11.9081 7.03893 11.64 7.05097 11.4672 6.89301C11.2944 6.73505 11.2824 6.46691 11.4403 6.2941C11.5983 6.12129 11.8664 6.10925 12.0392 6.26721C12.212 6.42517 12.2241 6.69331 12.0661 6.86612Z" fill="#C89616"/>
<path d="M12.4328 8.1149C12.2748 8.28771 12.0067 8.29974 11.8339 8.14179C11.6611 7.98383 11.649 7.71569 11.807 7.54288C11.965 7.37007 12.2331 7.35803 12.4059 7.51599C12.5787 7.67395 12.5908 7.94209 12.4328 8.1149Z" fill="#C89616"/>
<path d="M13.2058 6.95495C13.0873 7.08455 12.8862 7.09358 12.7566 6.97511C12.627 6.85665 12.618 6.65554 12.7364 6.52593C12.8549 6.39633 13.056 6.3873 13.1856 6.50577C13.3152 6.62424 13.3242 6.82534 13.2058 6.95495Z" fill="#C89616"/>
<path d="M11.4318 9.20999C11.2739 9.3828 11.0057 9.39484 10.8329 9.23688C10.6601 9.07892 10.6481 8.81078 10.806 8.63797C10.964 8.46516 11.2321 8.45312 11.4049 8.61108C11.5777 8.76904 11.5898 9.03718 11.4318 9.20999Z" fill="#C89616"/>
<path d="M11.0651 7.72635C10.9072 7.89916 10.639 7.9112 10.4662 7.75324C10.2934 7.59528 10.2814 7.32714 10.4393 7.15433C10.5973 6.98152 10.8654 6.96948 11.0382 7.12744C11.211 7.2854 11.2231 7.55354 11.0651 7.72635Z" fill="#C89616"/>
<path d="M10.0401 9.86616C9.83305 10.0927 9.4816 10.1084 9.2551 9.9014C9.0286 9.69437 9.01282 9.34292 9.21985 9.11642C9.42689 8.88991 9.77834 8.87413 10.0048 9.08117C10.2313 9.28821 10.2471 9.63966 10.0401 9.86616Z" fill="#C89616"/>
<path d="M8.30561 10.4335C8.14765 10.6063 7.87951 10.6183 7.7067 10.4604C7.53389 10.3024 7.52185 10.0343 7.67981 9.86148C7.83777 9.68867 8.10591 9.67663 8.27872 9.83459C8.45153 9.99255 8.46357 10.2607 8.30561 10.4335Z" fill="#C89616"/>
<path d="M9.57553 8.32276C9.45461 8.45504 9.24936 8.46426 9.11708 8.34335C8.9848 8.22243 8.97559 8.01718 9.0965 7.8849C9.21741 7.75262 9.42266 7.7434 9.55494 7.86432C9.68722 7.98523 9.69644 8.19048 9.57553 8.32276Z" fill="#C89616"/>
<path d="M8.7738 9.38142C8.67637 9.48801 8.51097 9.49544 8.40437 9.398C8.29778 9.30057 8.29035 9.13517 8.38779 9.02858C8.48522 8.92198 8.65062 8.91456 8.75722 9.01199C8.86381 9.10943 8.87124 9.27482 8.7738 9.38142Z" fill="#C89616"/>
<path d="M6.66744 10.6826C6.54897 10.8122 6.34786 10.8212 6.21826 10.7028C6.08865 10.5843 6.07962 10.3832 6.19809 10.2536C6.31656 10.124 6.51766 10.115 6.64727 10.2334C6.77688 10.3519 6.78591 10.553 6.66744 10.6826Z" fill="#C89616"/>
<path fill-rule="evenodd" clip-rule="evenodd" d="M5.50848 4.44873C5.62461 4.68099 5.53047 4.96342 5.29821 5.07955C5.11222 5.17254 4.96346 5.2929 4.8454 5.44047C4.68319 5.64324 4.38731 5.67612 4.18454 5.5139C3.98176 5.35168 3.94889 5.0558 4.11111 4.85303C4.31821 4.59415 4.57591 4.38934 4.87767 4.23846C5.10993 4.12233 5.39235 4.21647 5.50848 4.44873Z" fill="white"/>
<path fill-rule="evenodd" clip-rule="evenodd" d="M13.3772 5.62678C13.7709 5.62678 14.09 5.30761 14.09 4.9139C14.09 4.79037 14.0586 4.67417 14.0033 4.57288C14.2249 4.69379 14.3752 4.92887 14.3752 5.19905C14.3752 5.59277 14.056 5.91193 13.6623 5.91193C13.3921 5.91193 13.157 5.76163 13.0361 5.54008C13.1374 5.59536 13.2536 5.62678 13.3772 5.62678Z" fill="#AE8C14"/>
</svg>
