<svg width="41" height="40" viewBox="0 0 41 40" fill="none" xmlns="http://www.w3.org/2000/svg">
<g clip-path="url(#clip0_8197_42977)">
<path d="M5.5 20H7.16667M20.5 5V6.66667M33.8333 20H35.5M9.83333 9.33333L11 10.5M31.1667 9.33333L30 10.5" stroke="#009490" stroke-width="2" stroke-linecap="round" stroke-linejoin="round"/>
<path d="M15.4993 26.666C14.1001 25.6166 13.0666 24.1535 12.5451 22.4841C12.0236 20.8146 12.0406 19.0234 12.5937 17.3641C13.1467 15.7049 14.2079 14.2617 15.6268 13.239C17.0456 12.2163 18.7503 11.666 20.4993 11.666C22.2484 11.666 23.9531 12.2163 25.3719 13.239C26.7908 14.2617 27.852 15.7049 28.405 17.3641C28.9581 19.0234 28.9751 20.8146 28.4536 22.4841C27.9321 24.1535 26.8986 25.6166 25.4993 26.666C24.8486 27.3102 24.3587 28.0984 24.0691 28.9671C23.7796 29.8357 23.6986 30.7603 23.8327 31.666C23.8327 32.5501 23.4815 33.3979 22.8564 34.023C22.2312 34.6482 21.3834 34.9993 20.4993 34.9993C19.6153 34.9993 18.7674 34.6482 18.1423 34.023C17.5172 33.3979 17.166 32.5501 17.166 31.666C17.3001 30.7603 17.2191 29.8357 16.9296 28.9671C16.64 28.0984 16.1501 27.3102 15.4993 26.666Z" stroke="#009490" stroke-width="2" stroke-linecap="round" stroke-linejoin="round"/>
<path d="M16.666 28.334H24.3327" stroke="#009490" stroke-width="2" stroke-linecap="round" stroke-linejoin="round"/>
</g>
<defs>
<clipPath id="clip0_8197_42977">
<rect width="40" height="40" fill="white" transform="translate(0.5)"/>
</clipPath>
</defs>
</svg>
