<svg width="27" height="27" viewBox="0 0 27 27" fill="none" xmlns="http://www.w3.org/2000/svg">
<path d="M18.3001 8.6499C20.2097 8.6499 22.041 9.4484 23.3913 10.8697C24.7415 12.2911 25.5001 14.2188 25.5001 16.2289V25.071H20.7001V16.2289C20.7001 15.5588 20.4472 14.9163 19.9972 14.4425C19.5471 13.9687 18.9366 13.7025 18.3001 13.7025C17.6636 13.7025 17.0531 13.9687 16.603 14.4425C16.153 14.9163 15.9001 15.5588 15.9001 16.2289V25.071H11.1001V16.2289C11.1001 14.2188 11.8587 12.2911 13.2089 10.8697C14.5592 9.4484 16.3905 8.6499 18.3001 8.6499Z" stroke="white" stroke-width="2" stroke-linecap="round" stroke-linejoin="round"/>
<path d="M6.3 9.91309H1.5V25.071H6.3V9.91309Z" stroke="white" stroke-width="2" stroke-linecap="round" stroke-linejoin="round"/>
<path d="M3.9 6.12343C5.22548 6.12343 6.3 4.99236 6.3 3.59712C6.3 2.20187 5.22548 1.0708 3.9 1.0708C2.57452 1.0708 1.5 2.20187 1.5 3.59712C1.5 4.99236 2.57452 6.12343 3.9 6.12343Z" stroke="white" stroke-width="2" stroke-linecap="round" stroke-linejoin="round"/>
</svg>
