<svg width="124" height="29" viewBox="0 0 124 29" fill="none" xmlns="http://www.w3.org/2000/svg">
<path d="M80.5206 8.71533H76.862C76.612 8.71533 76.4077 8.9195 76.4077 9.16938V22.3762C76.4077 22.6261 76.612 22.8302 76.862 22.8302H80.5206C80.7706 22.8302 80.9749 22.6261 80.9749 22.3762V9.16938C80.9749 8.9195 80.7706 8.71533 80.5206 8.71533Z" fill="#1C3D1A"/>
<path d="M78.6911 6.42703C79.4625 6.42703 80.1698 6.14668 80.679 5.64083C81.1881 5.13499 81.4686 4.43717 81.4686 3.6784C81.4686 2.90439 81.1881 2.20048 80.679 1.69159C80.1698 1.18269 79.4625 0.902344 78.6911 0.902344C77.1057 0.902344 75.9136 2.09687 75.9136 3.6784C75.9136 4.43717 76.1971 5.13194 76.7154 5.64083C77.2276 6.14973 77.9289 6.42703 78.6911 6.42703Z" fill="#1C3D1A"/>
<path d="M72.3283 10.5041C71.0782 9.13586 69.3648 8.38623 67.5019 8.38623C66.7275 8.38623 65.9927 8.5325 65.3128 8.81894C64.7396 9.06272 64.2183 9.40097 63.7579 9.82758C63.7213 9.8611 63.6634 9.83673 63.6634 9.78492V9.16633C63.6634 8.91645 63.4591 8.71229 63.2091 8.71229H59.5505C59.3005 8.71229 59.0962 8.91645 59.0962 9.16633V27.587C59.0962 27.8369 59.3005 28.0411 59.5505 28.0411H63.2091C63.4591 28.0411 63.6634 27.8369 63.6634 27.587V21.7546C63.6634 21.7058 63.7213 21.6784 63.7579 21.7119C64.2183 22.1385 64.7396 22.4798 65.3128 22.7205C65.9927 23.007 66.7275 23.1533 67.5019 23.1533C69.3648 23.1533 71.0782 22.4006 72.3283 21.0354C73.5752 19.6702 74.2613 17.7992 74.2613 15.7667C74.2613 13.7342 73.5752 11.8692 72.3283 10.5041ZM66.6269 18.7317C64.9378 18.7317 63.6664 17.461 63.6664 15.7728C63.6664 14.0846 64.9378 12.8139 66.6269 12.8139C68.3251 12.8139 69.5599 14.0572 69.5599 15.7728C69.5599 17.4853 68.3251 18.7317 66.6269 18.7317Z" fill="#1C3D1A"/>
<path d="M46.3214 10.5502C45.8946 9.89195 45.3275 9.37087 44.6293 8.9991C43.8671 8.59381 42.989 8.38965 42.0194 8.38965C40.5712 8.38965 39.3425 8.88635 38.3608 9.87062C38.3242 9.90718 38.2632 9.87976 38.2632 9.831V9.17279C38.2632 8.92292 38.062 8.71875 37.809 8.71875H34.1503C33.9003 8.71875 33.696 8.91987 33.696 9.17279V22.3796C33.696 22.6295 33.9003 22.8337 34.1503 22.8337H37.809C38.059 22.8337 38.2632 22.6325 38.2632 22.3796V15.0083C38.2632 13.698 39.1779 12.8173 40.5377 12.8173C41.7694 12.8173 42.5652 13.6553 42.5652 14.9534V22.3796C42.5652 22.6295 42.7695 22.8337 43.0195 22.8337H46.6781C46.9281 22.8337 47.1324 22.6325 47.1324 22.3796V15.0083C47.1324 13.698 48.0349 12.8173 49.3794 12.8173C50.6111 12.8173 51.4069 13.6553 51.4069 14.9534V18.4121C51.4069 21.3466 52.9588 22.8337 56.0229 22.8337H56.8644C57.1144 22.8337 57.3187 22.6325 57.3187 22.3796V18.857C57.3187 18.6132 57.1266 18.4151 56.8857 18.4029C56.2881 18.3786 55.9741 18.0403 55.9741 17.4217V13.6066C55.9741 12.0586 55.4924 10.7482 54.5777 9.81272C53.6661 8.88026 52.3917 8.38965 50.8886 8.38965C49.9404 8.38965 49.0715 8.58772 48.2971 8.98082C47.5806 9.34344 46.9464 9.87367 46.4129 10.5593C46.3885 10.5837 46.3427 10.5806 46.3214 10.5502Z" fill="#1C3D1A"/>
<path d="M16.967 24.5064C17.0767 24.6466 17.1926 24.7868 17.3115 24.9239C17.5219 25.1646 17.7444 25.3962 17.9761 25.6156C18.2048 25.832 18.4457 26.0392 18.6957 26.2312C18.9426 26.4201 19.1987 26.5968 19.4609 26.7614C19.7994 26.9717 20.153 27.1575 20.5189 27.316C20.8787 27.4745 21.2506 27.6116 21.6287 27.7182C22.0037 27.8249 22.3879 27.9072 22.7751 27.962C23.1623 28.0169 23.5525 28.0443 23.9428 28.0443C24.333 28.0443 24.7233 28.0169 25.1105 27.962C25.4977 27.9072 25.8788 27.8249 26.2569 27.7182C26.6349 27.6085 27.0069 27.4745 27.3666 27.316C27.7325 27.1545 28.0831 26.9686 28.4246 26.7614C28.6899 26.5968 28.946 26.4201 29.1899 26.2312C29.4399 26.0392 29.6807 25.832 29.9094 25.6156C30.1411 25.3962 30.3637 25.1646 30.5741 24.9239C30.693 24.7898 30.8088 24.6496 30.9186 24.5095C31.0619 24.3266 31.0436 24.0646 30.8759 23.9061C30.0771 23.1321 29.2783 22.3581 28.4795 21.5841C28.2813 21.3921 27.9551 21.4196 27.7935 21.6481C27.7112 21.7639 27.6228 21.8766 27.5313 21.9833C27.4063 22.1265 27.2721 22.2667 27.1288 22.3947C26.9855 22.5227 26.8361 22.6415 26.6807 22.7512C26.5252 22.8609 26.3605 22.9584 26.1928 23.0498C26.0221 23.1382 25.8483 23.2174 25.6684 23.2875C25.4885 23.3576 25.3026 23.4125 25.1135 23.4612C24.9245 23.5069 24.7324 23.5435 24.5373 23.5679C24.3391 23.5922 24.1409 23.6044 23.9428 23.6044C23.7446 23.6044 23.5464 23.5922 23.3482 23.5679C23.1531 23.5435 22.961 23.51 22.772 23.4612C22.586 23.4155 22.4 23.3576 22.2202 23.2875C22.0403 23.2205 21.8665 23.1413 21.6958 23.0498C21.525 22.9615 21.3634 22.8609 21.2079 22.7512C21.0524 22.6415 20.9 22.5227 20.7598 22.3947C20.6165 22.2667 20.4823 22.1296 20.3573 21.9833C20.2658 21.8766 20.1774 21.7639 20.0951 21.6481C19.9335 21.4196 19.6103 21.3921 19.4091 21.5841C18.6103 22.3581 17.8115 23.1321 17.0127 23.9061C16.842 24.0615 16.8237 24.3236 16.967 24.5064Z" fill="#1C3D1A"/>
<path d="M29.3849 6.40874C27.9733 5.04357 26.0403 4.29395 23.9397 4.29395C21.8298 4.29395 19.8908 5.04662 18.4822 6.40874C17.0767 7.77087 16.3022 9.64189 16.3022 11.6805C16.3022 13.7161 17.0767 15.5901 18.4822 16.9492C19.8908 18.3144 21.8298 19.0671 23.9397 19.0671C26.0403 19.0671 27.9764 18.3144 29.3849 16.9492C30.7966 15.584 31.5771 13.713 31.5771 11.6805C31.5771 9.64798 30.7966 7.77696 29.3849 6.40874ZM23.9366 14.6394C22.2475 14.6394 20.9762 13.3687 20.9762 11.6805C20.9762 9.99232 22.2475 8.72161 23.9366 8.72161C25.6074 8.72161 26.8696 9.99232 26.8696 11.6805C26.8696 13.3687 25.6104 14.6394 23.9366 14.6394Z" fill="#1C3D1A"/>
<path d="M14.5705 17.0832H10.5857C10.4271 17.0832 10.2808 17.1655 10.1985 17.2996C9.64356 18.1985 8.70451 18.7287 7.63741 18.7287C5.94834 18.7287 4.67696 17.458 4.67696 15.7699C4.67696 14.0847 5.94834 12.811 7.63741 12.811C8.70146 12.811 9.64356 13.3412 10.1985 14.2432C10.2808 14.3773 10.4271 14.4595 10.5857 14.4595H14.5705C14.8632 14.4595 15.0797 14.1853 15.0126 13.8988C14.851 13.2193 14.5919 12.5763 14.2382 11.9791C13.8114 11.2538 13.2595 10.6139 12.5979 10.0776C11.9333 9.53821 11.1741 9.12074 10.3448 8.83125C9.49112 8.53566 8.57951 8.3833 7.63741 8.3833C5.52759 8.3833 3.58851 9.13597 2.17994 10.4981C0.774411 11.8602 0 13.7312 0 15.7668C0 17.8024 0.774411 19.6764 2.17994 21.0386C3.58851 22.4037 5.52759 23.1534 7.63741 23.1534C8.57951 23.1534 9.49112 23.0041 10.3448 22.7054C11.1741 22.419 11.9302 21.9985 12.5979 21.4591C13.2595 20.9228 13.8114 20.2829 14.2382 19.5576C14.5919 18.9603 14.851 18.3143 15.0126 17.6378C15.0797 17.3575 14.8632 17.0832 14.5705 17.0832Z" fill="#1C3D1A"/>
<path d="M101.256 4.33108C100.95 4.24411 100.533 4.96737 99.3237 7.44843C99.2413 7.61323 99.168 7.77344 99.0947 7.91993C100.281 6.64735 100.771 5.83254 101.169 5.16421C101.476 4.66067 101.431 4.37228 101.256 4.33108Z" fill="#1C3D1A"/>
<path d="M118.065 7.86462C118.001 7.59912 117.712 7.37939 117.319 7.37939C116.792 7.37939 116.109 7.81885 115.432 8.91747C114.795 9.92912 114.882 10.7623 115.235 10.8721C115.619 10.9866 116.847 10.1763 118.074 7.87836C118.07 7.87378 118.065 7.8692 118.065 7.86462Z" fill="#1C3D1A"/>
<path d="M120.062 10.8266C119.338 11.8383 118.019 12.7584 117.117 12.4288C116.81 12.3189 116.526 11.9893 116.526 11.6597C116.526 11.4217 116.572 11.1608 116.663 10.8678C115.56 11.9252 114.928 12.1816 114.57 12.0763C114.176 11.9664 113.824 11.7009 113.76 11.0463C113.732 10.8495 113.737 10.6115 113.783 10.3414C112.711 11.5453 112.106 11.8383 111.653 11.7055C111.259 11.5956 111.039 11.2432 111.039 10.8266C111.039 10.1445 113.347 7.11416 112.931 7.11416C112.688 7.11416 111.14 7.85573 109.477 10.6618C109.358 10.9319 109.271 11.1699 109.239 11.353C109.193 11.5499 109.042 11.6597 108.845 11.5956C108.429 11.4858 108.25 11.0921 108.25 10.7167C108.25 10.5611 108.392 10.2269 108.612 9.80122C107.517 11.147 106.688 11.6643 106.143 11.4858C105.813 11.353 105.552 11.0692 105.552 10.671C105.552 10.4741 105.804 9.97517 106.125 9.3755C105.058 10.4833 103.977 11.2203 103.162 11.3942C102.983 11.4354 102.818 11.4492 102.671 11.4309C102.662 11.4309 102.653 11.4263 102.639 11.4263C102.607 11.4217 102.58 11.4171 102.548 11.4125C102.507 11.4034 102.465 11.3896 102.429 11.3759C102.186 11.2889 101.943 11.0234 101.902 10.7167C101.856 10.5199 101.966 10.2773 102.232 10.3414C103.042 10.5382 104.013 9.81495 104.517 8.82619C105.021 7.83743 105.067 7.0455 104.714 6.93564C104.274 6.79373 102.804 8.4142 101.65 10.465C100.986 11.7925 100.152 13.4725 99.9646 14.0492C99.8776 14.3147 99.6349 14.4429 99.3509 14.3147C99.0212 14.1591 98.7784 13.8982 98.7784 13.4587C98.7784 13.0696 99.8776 11.3622 100.757 9.68678C99.1815 11.6872 98.0548 12.0534 97.5693 11.8108C97.2624 11.6552 96.9968 11.3256 96.9785 10.9319C96.9739 10.8312 96.9785 10.7259 96.9876 10.616C95.8243 12.0854 94.8259 12.4562 94.2763 12.1633C93.9923 12.0076 93.7725 11.7238 93.7725 11.4171C93.7725 11.0784 93.9053 10.6755 94.0793 10.2498C92.3343 12.1633 91.0702 12.8362 89.9894 12.3601C89.0459 11.9435 88.4963 10.2315 89.6596 8.05715C91.1115 5.35636 94.3175 3.86406 96.5159 4.56443C97.2853 4.80705 97.6563 5.33347 97.6563 5.64017C97.6563 6.03385 97.2624 6.23526 97.0426 6.01554C96.8685 5.84159 96.6029 5.70884 96.2503 5.62186C94.2488 5.09544 92.0321 6.52365 91.0657 8.34554C90.255 9.90651 90.5161 10.8495 91.0428 11.0463C91.8351 11.353 93.5893 10.1033 95.435 6.80746C95.632 6.4321 95.7648 6.32224 95.9617 6.32224C96.2457 6.32224 96.6212 6.78457 96.6212 7.20114C96.6212 7.53073 96.0075 8.38674 95.5678 9.32973C95.1052 10.3414 95.0823 10.6023 95.3938 10.7122C95.6777 10.8129 96.3052 10.3688 97.5464 8.76668C97.7846 8.17617 98.0914 7.48037 98.4487 6.64725C99.6578 3.83659 100.67 2.78374 101.613 3.02635C102.447 3.24608 102.603 4.12498 101.989 5.2465C101.398 6.32224 100.409 7.6589 98.4853 9.45332C98.2838 10.1491 98.4074 10.3734 98.6502 10.4512C98.9433 10.5565 100.734 9.38008 102.026 6.89444C102.186 6.47788 102.328 6.07504 102.433 5.70884C102.497 5.48911 102.676 5.42502 102.896 5.48911C103.203 5.62186 103.491 6.01554 103.491 6.3909C103.491 6.50534 103.294 6.98599 102.992 7.65432C103.899 6.51907 104.787 5.73172 105.268 5.86448C106.125 6.10709 106.5 7.20572 105.598 9.00472C105.557 9.08254 105.52 9.15578 105.479 9.22902C106.244 8.55611 106.954 7.72299 107.384 6.95852C107.517 6.68387 107.618 6.43668 107.664 6.23526C107.709 6.03842 107.819 5.95145 108.039 6.03842C108.392 6.19406 108.653 6.4321 108.653 6.87155C108.653 7.15536 108.19 7.81454 107.796 8.58358C107.357 9.39382 106.894 10.0759 107.16 10.2086C107.375 10.3185 109.029 8.98183 110.132 6.68844C110.21 6.48245 110.274 6.3085 110.302 6.18949C110.366 5.96976 110.499 5.88278 110.719 5.96976C111.071 6.10251 111.314 6.34513 111.314 6.67014C111.314 6.85782 111.122 7.29269 110.865 7.81454C112.001 6.5557 113.146 5.98807 113.508 5.98807C113.947 5.98807 114.387 6.42752 114.387 6.95395C114.387 7.32931 112.322 10.2498 112.541 10.378C112.729 10.4879 113.32 10.0026 114.538 8.46914C114.575 8.40963 114.612 8.35012 114.653 8.29061C115.463 7.10501 116.324 6.42294 117.332 6.42294C117.905 6.42294 118.298 6.78 118.459 7.12332C118.509 7.01803 118.56 6.90817 118.61 6.79831C118.697 6.60147 118.853 6.44583 119.114 6.5557C119.379 6.66556 119.618 7.01803 119.599 7.27896C119.576 7.56277 118.569 9.21071 118.216 9.86989C117.84 10.5931 117.753 11.1425 118.042 11.2752C118.326 11.408 118.898 11.0097 119.581 10.1995C119.714 10.0438 119.865 9.97975 119.998 10.0667C120.13 10.1903 120.259 10.5428 120.062 10.8266ZM112.418 18.8649L111.167 18.4254L110.334 17.8349L109.917 18.6681L108.181 16.869L107.279 16.2328L106.487 14.475L105.561 13.5091L104.902 13.3123L105.648 14.475L105.319 15.3081L105.561 16.3381L105.122 16.6676L105.648 17.0842L105.671 17.6976L104.751 16.9972L104.375 17.281L106.331 18.8191L106.88 19.872L104.004 17.5877L103.652 17.8944L107.077 20.5952L106.441 20.7051L103.276 18.2469L102.923 18.5765L105.758 20.7738L105.035 20.8195L102.31 18.6681L101.059 18.3156L104.265 20.8195L103.432 20.7554L100.18 18.2103L99.7173 18.4758L102.442 20.6044L101.453 20.4075L98.9937 18.4758L98.8196 18.9793L100.29 20.1192C98.554 19.5698 97.4319 19.0434 96.2915 18.4941L96.7953 18.2744L97.7388 18.5399L98.9021 17.5969L99.8685 17.7296L102.108 16.3243L102.745 14.8091L103.688 14.1728L104.105 13.3168L104.719 12.7446L105.841 13.0513L106.963 14.1912L107.884 15.9032L108.584 16.3884L109.487 17.3314L110.233 17.0888L111.396 17.9448L113.155 18.517L112.418 18.8649ZM108.79 3.64891C109.23 3.56194 109.999 4.02427 109.999 4.41795C109.999 4.99015 109.074 5.51658 108.68 5.31974C108.287 5.18699 108.332 3.86864 108.79 3.64891ZM104.728 0.902344C91.9404 0.902344 86.4902 5.00846 86.4902 10.41C86.4902 16.2053 97.235 22.9023 104.746 22.9023C112.239 22.9023 123.002 16.2053 123.002 10.41C123.007 5.00846 117.515 0.902344 104.728 0.902344Z" fill="#1C3D1A"/>
</svg>
