<svg width="124" height="29" viewBox="0 0 124 29" fill="none" xmlns="http://www.w3.org/2000/svg">
<path d="M81.0205 8.74219H77.3619C77.1119 8.74219 76.9076 8.94636 76.9076 9.19623V22.4031C76.9076 22.6529 77.1119 22.8571 77.3619 22.8571H81.0205C81.2705 22.8571 81.4748 22.6529 81.4748 22.4031V9.19623C81.4748 8.94636 81.2705 8.74219 81.0205 8.74219Z" fill="white"/>
<path d="M79.1912 6.45388C79.9626 6.45388 80.6699 6.17354 81.1791 5.66769C81.6882 5.16185 81.9687 4.46402 81.9687 3.70525C81.9687 2.93125 81.6882 2.22733 81.1791 1.71844C80.6699 1.20955 79.9626 0.929199 79.1912 0.929199C77.6058 0.929199 76.4137 2.12373 76.4137 3.70525C76.4137 4.46402 76.6972 5.1588 77.2155 5.66769C77.7278 6.17658 78.429 6.45388 79.1912 6.45388Z" fill="white"/>
<path d="M72.8282 10.5309C71.5782 9.16271 69.8647 8.41309 68.0019 8.41309C67.2274 8.41309 66.4927 8.55935 65.8128 8.8458C65.2396 9.08958 64.7182 9.42782 64.2578 9.85444C64.2213 9.88796 64.1633 9.86358 64.1633 9.81178V9.19318C64.1633 8.94331 63.9591 8.73914 63.7091 8.73914H60.0504C59.8004 8.73914 59.5961 8.94331 59.5961 9.19318V27.6139C59.5961 27.8638 59.8004 28.0679 60.0504 28.0679H63.7091C63.9591 28.0679 64.1633 27.8638 64.1633 27.6139V21.7814C64.1633 21.7327 64.2213 21.7052 64.2578 21.7388C64.7182 22.1654 65.2396 22.5067 65.8128 22.7474C66.4927 23.0338 67.2274 23.1801 68.0019 23.1801C69.8647 23.1801 71.5782 22.4274 72.8282 21.0623C74.0752 19.6971 74.7612 17.8261 74.7612 15.7935C74.7612 13.761 74.0752 11.8961 72.8282 10.5309ZM67.1268 18.7585C65.4378 18.7585 64.1664 17.4878 64.1664 15.7996C64.1664 14.1115 65.4378 12.8408 67.1268 12.8408C68.825 12.8408 70.0598 14.084 70.0598 15.7996C70.0598 17.5122 68.825 18.7585 67.1268 18.7585Z" fill="white"/>
<path d="M46.8214 10.577C46.3946 9.9188 45.8275 9.39772 45.1293 9.02596C44.3671 8.62067 43.489 8.4165 42.5194 8.4165C41.0712 8.4165 39.8425 8.91321 38.8608 9.89747C38.8242 9.93404 38.7632 9.90662 38.7632 9.85786V9.19965C38.7632 8.94977 38.562 8.74561 38.309 8.74561H34.6503C34.4003 8.74561 34.196 8.94673 34.196 9.19965V22.4065C34.196 22.6564 34.4003 22.8605 34.6503 22.8605H38.309C38.559 22.8605 38.7632 22.6594 38.7632 22.4065V15.0352C38.7632 13.7248 39.6779 12.8442 41.0377 12.8442C42.2694 12.8442 43.0652 13.6822 43.0652 14.9803V22.4065C43.0652 22.6564 43.2695 22.8605 43.5195 22.8605H47.1781C47.4281 22.8605 47.6324 22.6594 47.6324 22.4065V15.0352C47.6324 13.7248 48.5349 12.8442 49.8794 12.8442C51.1111 12.8442 51.9069 13.6822 51.9069 14.9803V18.4389C51.9069 21.3735 53.4588 22.8605 56.5229 22.8605H57.3644C57.6144 22.8605 57.8187 22.6594 57.8187 22.4065V18.8838C57.8187 18.6401 57.6266 18.442 57.3857 18.4298C56.7881 18.4054 56.4741 18.0672 56.4741 17.4486V13.6334C56.4741 12.0854 55.9924 10.7751 55.0777 9.83958C54.1661 8.90711 52.8917 8.4165 51.3886 8.4165C50.4404 8.4165 49.5715 8.61458 48.7971 9.00767C48.0806 9.3703 47.4464 9.90052 46.9129 10.5862C46.8885 10.6105 46.8427 10.6075 46.8214 10.577Z" fill="white"/>
<path d="M17.4669 24.5333C17.5767 24.6735 17.6926 24.8136 17.8115 24.9508C18.0218 25.1915 18.2444 25.4231 18.4761 25.6425C18.7048 25.8588 18.9456 26.0661 19.1956 26.258C19.4426 26.447 19.6987 26.6237 19.9609 26.7883C20.2993 26.9985 20.653 27.1844 21.0189 27.3429C21.3786 27.5013 21.7506 27.6384 22.1287 27.7451C22.5037 27.8517 22.8878 27.934 23.275 27.9889C23.6622 28.0437 24.0525 28.0712 24.4427 28.0712C24.833 28.0712 25.2232 28.0437 25.6105 27.9889C25.9977 27.934 26.3788 27.8517 26.7568 27.7451C27.1349 27.6354 27.5068 27.5013 27.8666 27.3429C28.2325 27.1814 28.5831 26.9955 28.9246 26.7883C29.1898 26.6237 29.4459 26.447 29.6898 26.258C29.9398 26.0661 30.1807 25.8588 30.4094 25.6425C30.6411 25.4231 30.8637 25.1915 31.074 24.9508C31.1929 24.8167 31.3088 24.6765 31.4185 24.5363C31.5618 24.3535 31.5435 24.0914 31.3759 23.933C30.5771 23.159 29.7783 22.385 28.9795 21.611C28.7813 21.419 28.455 21.4464 28.2935 21.675C28.2111 21.7907 28.1227 21.9035 28.0313 22.0102C27.9063 22.1534 27.7721 22.2935 27.6288 22.4215C27.4855 22.5495 27.3361 22.6684 27.1806 22.7781C27.0251 22.8878 26.8605 22.9853 26.6928 23.0767C26.5221 23.1651 26.3483 23.2443 26.1684 23.3144C25.9885 23.3845 25.8025 23.4393 25.6135 23.4881C25.4245 23.5338 25.2324 23.5703 25.0373 23.5947C24.8391 23.6191 24.6409 23.6313 24.4427 23.6313C24.2446 23.6313 24.0464 23.6191 23.8482 23.5947C23.6531 23.5703 23.461 23.5368 23.272 23.4881C23.086 23.4424 22.9 23.3845 22.7201 23.3144C22.5402 23.2473 22.3665 23.1681 22.1957 23.0767C22.025 22.9883 21.8634 22.8878 21.7079 22.7781C21.5524 22.6684 21.4 22.5495 21.2597 22.4215C21.1164 22.2935 20.9823 22.1564 20.8573 22.0102C20.7658 21.9035 20.6774 21.7907 20.5951 21.675C20.4335 21.4464 20.1103 21.419 19.9091 21.611C19.1103 22.385 18.3115 23.159 17.5127 23.933C17.3419 24.0884 17.3236 24.3504 17.4669 24.5333Z" fill="white"/>
<path d="M29.885 6.4356C28.4733 5.07043 26.5404 4.3208 24.4397 4.3208C22.3299 4.3208 20.3908 5.07347 18.9822 6.4356C17.5767 7.79772 16.8023 9.66874 16.8023 11.7074C16.8023 13.7429 17.5767 15.617 18.9822 16.9761C20.3908 18.3412 22.3299 19.0939 24.4397 19.0939C26.5404 19.0939 28.4764 18.3412 29.885 16.9761C31.2966 15.6109 32.0771 13.7399 32.0771 11.7074C32.0771 9.67484 31.2966 7.80382 29.885 6.4356ZM24.4366 14.6662C22.7476 14.6662 21.4762 13.3955 21.4762 11.7074C21.4762 10.0192 22.7476 8.74847 24.4366 8.74847C26.1074 8.74847 27.3696 10.0192 27.3696 11.7074C27.3696 13.3955 26.1105 14.6662 24.4366 14.6662Z" fill="white"/>
<path d="M15.0705 17.1101H11.0857C10.9271 17.1101 10.7808 17.1924 10.6985 17.3264C10.1436 18.2254 9.20451 18.7556 8.13741 18.7556C6.44834 18.7556 5.17696 17.4849 5.17696 15.7967C5.17696 14.1116 6.44834 12.8378 8.13741 12.8378C9.20146 12.8378 10.1436 13.368 10.6985 14.27C10.7808 14.4041 10.9271 14.4864 11.0857 14.4864H15.0705C15.3632 14.4864 15.5797 14.2121 15.5126 13.9257C15.351 13.2462 15.0919 12.6032 14.7382 12.0059C14.3114 11.2807 13.7595 10.6408 13.0979 10.1044C12.4333 9.56507 11.6741 9.14759 10.8448 8.8581C9.99112 8.56252 9.07951 8.41016 8.13741 8.41016C6.02759 8.41016 4.08851 9.16283 2.67994 10.525C1.27441 11.8871 0.5 13.7581 0.5 15.7937C0.5 17.8292 1.27441 19.7033 2.67994 21.0654C4.08851 22.4306 6.02759 23.1802 8.13741 23.1802C9.07951 23.1802 9.99112 23.0309 10.8448 22.7323C11.6741 22.4458 12.4302 22.0253 13.0979 21.486C13.7595 20.9496 14.3114 20.3097 14.7382 19.5845C15.0919 18.9872 15.351 18.3412 15.5126 17.6647C15.5797 17.3843 15.3632 17.1101 15.0705 17.1101Z" fill="white"/>
<path d="M101.757 4.35794C101.45 4.27096 101.033 4.99422 99.8238 7.47529C99.7413 7.64008 99.6681 7.8003 99.5948 7.94678C100.781 6.67421 101.271 5.85939 101.67 5.19106C101.976 4.68752 101.931 4.39913 101.757 4.35794Z" fill="white"/>
<path d="M118.565 7.89148C118.501 7.62597 118.213 7.40625 117.819 7.40625C117.292 7.40625 116.61 7.8457 115.932 8.94433C115.295 9.95598 115.382 10.7891 115.735 10.899C116.119 11.0134 117.347 10.2032 118.574 7.90521C118.57 7.90063 118.565 7.89605 118.565 7.89148Z" fill="white"/>
<path d="M120.562 10.8535C119.838 11.8651 118.519 12.7852 117.617 12.4556C117.31 12.3458 117.026 12.0162 117.026 11.6866C117.026 11.4486 117.072 11.1876 117.164 10.8947C116.06 11.9521 115.428 12.2084 115.07 12.1031C114.677 11.9933 114.324 11.7278 114.26 11.0732C114.232 10.8763 114.237 10.6383 114.283 10.3682C113.211 11.5721 112.606 11.8651 112.153 11.7324C111.759 11.6225 111.539 11.27 111.539 10.8535C111.539 10.1714 113.848 7.14102 113.431 7.14102C113.188 7.14102 111.64 7.88259 109.977 10.6887C109.858 10.9587 109.771 11.1968 109.739 11.3799C109.694 11.5767 109.542 11.6866 109.345 11.6225C108.929 11.5126 108.75 11.119 108.75 10.7436C108.75 10.588 108.892 10.2538 109.112 9.82808C108.017 11.1739 107.188 11.6912 106.643 11.5126C106.313 11.3799 106.052 11.0961 106.052 10.6978C106.052 10.501 106.304 10.002 106.625 9.40236C105.558 10.5101 104.477 11.2471 103.662 11.4211C103.483 11.4623 103.318 11.476 103.172 11.4577C103.162 11.4577 103.153 11.4531 103.139 11.4531C103.107 11.4485 103.08 11.444 103.048 11.4394C103.007 11.4302 102.965 11.4165 102.929 11.4028C102.686 11.3158 102.443 11.0503 102.402 10.7436C102.356 10.5468 102.466 10.3041 102.732 10.3682C103.543 10.5651 104.514 9.84181 105.017 8.85305C105.521 7.86428 105.567 7.07235 105.214 6.96249C104.775 6.82058 103.304 8.44106 102.15 10.4918C101.486 11.8193 100.653 13.4993 100.465 14.0761C100.378 14.3416 100.135 14.4698 99.851 14.3416C99.5213 14.186 99.2785 13.925 99.2785 13.4856C99.2785 13.0965 100.378 11.389 101.257 9.71364C99.6816 11.7141 98.5549 12.0803 98.0694 11.8377C97.7626 11.682 97.4969 11.3524 97.4786 10.9587C97.474 10.858 97.4786 10.7528 97.4878 10.6429C96.3244 12.1123 95.326 12.4831 94.7764 12.1901C94.4924 12.0345 94.2726 11.7507 94.2726 11.444C94.2726 11.1052 94.4054 10.7024 94.5794 10.2767C92.8345 12.1901 91.5704 12.863 90.4895 12.387C89.546 11.9704 88.9964 10.2584 90.1597 8.08401C91.6116 5.38322 94.8176 3.89091 97.016 4.59129C97.7855 4.8339 98.1564 5.36033 98.1564 5.66703C98.1564 6.0607 97.7626 6.26212 97.5427 6.04239C97.3687 5.86844 97.103 5.73569 96.7504 5.64872C94.7489 5.12229 92.5322 6.55051 91.5658 8.3724C90.7551 9.93336 91.0162 10.8763 91.5429 11.0732C92.3352 11.3799 94.0894 10.1302 95.9351 6.83432C96.1321 6.45895 96.2649 6.34909 96.4618 6.34909C96.7458 6.34909 97.1214 6.81143 97.1214 7.22799C97.1214 7.55758 96.5076 8.41359 96.0679 9.35658C95.6054 10.3682 95.5825 10.6292 95.8939 10.739C96.1779 10.8397 96.8053 10.3957 98.0465 8.79353C98.2847 8.20302 98.5915 7.50723 98.9488 6.6741C100.158 3.86345 101.17 2.8106 102.114 3.05321C102.947 3.27294 103.103 4.15184 102.489 5.27335C101.898 6.34909 100.909 7.68575 98.9854 9.48018C98.7839 10.176 98.9076 10.4003 99.1503 10.4781C99.4434 10.5834 101.234 9.40694 102.526 6.92129C102.686 6.50473 102.828 6.1019 102.933 5.73569C102.998 5.51597 103.176 5.45188 103.396 5.51597C103.703 5.64872 103.991 6.04239 103.991 6.41776C103.991 6.5322 103.794 7.01284 103.492 7.68118C104.399 6.54593 105.288 5.75858 105.768 5.89133C106.625 6.13394 107 7.23257 106.098 9.03157C106.057 9.10939 106.02 9.18263 105.979 9.25587C106.744 8.58297 107.454 7.74984 107.884 6.98538C108.017 6.71072 108.118 6.46353 108.164 6.26212C108.21 6.06528 108.32 5.9783 108.539 6.06528C108.892 6.22092 109.153 6.45895 109.153 6.8984C109.153 7.18222 108.69 7.84139 108.297 8.61043C107.857 9.42067 107.394 10.1027 107.66 10.2355C107.875 10.3453 109.529 9.00868 110.632 6.7153C110.71 6.50931 110.774 6.33536 110.802 6.21634C110.866 5.99662 110.999 5.90964 111.219 5.99661C111.571 6.12936 111.814 6.37198 111.814 6.69699C111.814 6.88467 111.622 7.31955 111.365 7.84139C112.501 6.58255 113.646 6.01493 114.008 6.01493C114.448 6.01493 114.887 6.45438 114.887 6.9808C114.887 7.35617 112.822 10.2767 113.041 10.4049C113.229 10.5147 113.82 10.0295 115.038 8.49599C115.075 8.43648 115.112 8.37697 115.153 8.31746C115.964 7.13186 116.825 6.4498 117.832 6.4498C118.405 6.4498 118.799 6.80685 118.959 7.15017C119.009 7.04489 119.06 6.93503 119.11 6.82516C119.197 6.62833 119.353 6.47269 119.614 6.58255C119.879 6.69241 120.118 7.04489 120.099 7.30581C120.076 7.58962 119.069 9.23757 118.716 9.89674C118.341 10.62 118.254 11.1693 118.542 11.3021C118.826 11.4348 119.399 11.0366 120.081 10.2263C120.214 10.0707 120.365 10.0066 120.498 10.0936C120.631 10.2172 120.759 10.5696 120.562 10.8535ZM112.918 18.8917L111.667 18.4523L110.834 17.8618L110.417 18.6949L108.681 16.8959L107.779 16.2596L106.987 14.5018L106.062 13.5359L105.402 13.3391L106.149 14.5018L105.819 15.3349L106.062 16.3649L105.622 16.6945L106.149 17.1111L106.171 17.7245L105.251 17.0241L104.875 17.3079L106.831 18.846L107.381 19.8988L104.504 17.6146L104.152 17.9213L107.578 20.6221L106.941 20.7319L103.776 18.2738L103.423 18.6034L106.258 20.8006L105.535 20.8464L102.81 18.6949L101.559 18.3424L104.765 20.8464L103.932 20.7823L100.68 18.2371L100.217 18.5026L102.943 20.6312L101.953 20.4344L99.4938 18.5026L99.3198 19.0062L100.79 20.146C99.0541 19.5967 97.932 19.0703 96.7916 18.521L97.2954 18.3012L98.2389 18.5667L99.4022 17.6238L100.369 17.7565L102.608 16.3512L103.245 14.836L104.188 14.1997L104.605 13.3437L105.219 12.7715L106.341 13.0782L107.463 14.218L108.384 15.93L109.084 16.4153L109.987 17.3582L110.733 17.1156L111.896 17.9716L113.655 18.5438L112.918 18.8917ZM109.29 3.67577C109.73 3.58879 110.5 4.05113 110.5 4.4448C110.5 5.01701 109.574 5.54343 109.181 5.34659C108.787 5.21384 108.832 3.89549 109.29 3.67577ZM105.228 0.929199C92.4406 0.929199 86.9904 5.03532 86.9904 10.4369C86.9904 16.2322 97.7351 22.9292 105.246 22.9292C112.739 22.9292 123.502 16.2322 123.502 10.4369C123.507 5.03532 118.015 0.929199 105.228 0.929199Z" fill="white"/>
</svg>
