<svg width="116" height="69" viewBox="0 0 116 69" fill="none" xmlns="http://www.w3.org/2000/svg">
<path d="M46.7776 10.7535C45.8139 10.4807 44.5049 12.7491 40.7075 20.5306C40.4486 21.0475 40.2184 21.55 39.9883 22.0094C43.7138 18.0181 45.2529 15.4626 46.5043 13.3664C47.4681 11.7872 47.3242 10.8827 46.7776 10.7535Z" fill="white"/>
<path d="M99.5678 21.8373C99.3664 21.0046 98.4602 20.3154 97.2232 20.3154C95.569 20.3154 93.4257 21.6937 91.2969 25.1394C89.2974 28.3123 89.5708 30.9253 90.6783 31.2699C91.8866 31.6288 95.7416 29.0876 99.5966 21.8804C99.5822 21.866 99.5678 21.8516 99.5678 21.8373Z" fill="white"/>
<path d="M105.839 31.1261C103.567 34.299 99.424 37.1848 96.5903 36.1511C95.6265 35.8065 94.7347 34.7728 94.7347 33.7391C94.7347 32.9925 94.8785 32.1742 95.1662 31.2553C91.6996 34.5718 89.7146 35.3758 88.5926 35.0456C87.3556 34.701 86.248 33.8683 86.0466 31.8152C85.9603 31.1979 85.9747 30.4513 86.1186 29.6042C82.7526 33.3801 80.8539 34.299 79.4298 33.8826C78.1928 33.5381 77.5024 32.4326 77.5024 31.1261C77.5024 28.9869 84.752 19.4825 83.4431 19.4825C82.6807 19.4825 77.8188 21.8084 72.5973 30.6092C72.2233 31.4563 71.9501 32.2029 71.8494 32.7772C71.7055 33.3945 71.2309 33.7391 70.6123 33.5381C69.3034 33.1935 68.7424 31.9588 68.7424 30.7815C68.7424 30.2934 69.1883 29.2453 69.8787 27.9101C66.4409 32.1311 63.8373 33.7534 62.1256 33.1935C61.0899 32.7772 60.2701 31.887 60.2701 30.638C60.2701 30.0206 61.0612 28.4557 62.0681 26.5749C58.7166 30.0493 55.3219 32.3608 52.7615 32.9064C52.2005 33.0356 51.6827 33.0787 51.2224 33.0212C51.1936 33.0212 51.1648 33.0069 51.1217 33.0069C51.021 32.9925 50.9347 32.9781 50.834 32.9638C50.7045 32.9351 50.5751 32.892 50.46 32.8489C49.6976 32.5761 48.9353 31.7434 48.8058 30.7815C48.662 30.1642 49.0072 29.4032 49.8415 29.6042C52.3875 30.2216 55.4369 27.9532 57.0192 24.8521C58.6015 21.7509 58.7453 19.2672 57.6377 18.9226C56.2568 18.4775 51.6395 23.5599 48.0147 29.9919C45.9289 34.1554 43.311 39.4245 42.7213 41.2335C42.448 42.0662 41.6856 42.4682 40.7938 42.0662C39.7581 41.578 38.9957 40.7597 38.9957 39.3814C38.9957 38.161 42.448 32.8059 45.2098 27.5512C40.2616 33.8252 36.723 34.9738 35.1983 34.2129C34.2345 33.7247 33.4003 32.691 33.3428 31.4563C33.3284 31.1405 33.3427 30.8102 33.3715 30.4657C29.7179 35.0743 26.5822 36.2372 24.8561 35.3183C23.9642 34.8302 23.2738 33.9401 23.2738 32.9782C23.2738 31.9157 23.6909 30.6523 24.2375 29.3171C18.7571 35.3184 14.7871 37.4288 11.3924 35.9357C8.42922 34.6292 6.70311 29.2597 10.3567 22.4401C14.9165 13.9694 24.9855 9.28901 31.8899 11.4856C34.3065 12.2466 35.4716 13.8976 35.4716 14.8596C35.4716 16.0943 34.2346 16.726 33.5441 16.0368C32.9975 15.4913 32.1632 15.0749 31.0557 14.8021C24.7697 13.1511 17.8078 17.6305 14.7727 23.3446C12.2267 28.2403 13.0465 31.1979 14.7007 31.8152C17.1892 32.7772 22.6984 28.8577 28.4953 18.5206C29.1138 17.3433 29.5309 16.9988 30.1494 16.9988C31.0413 16.9988 32.2208 18.4488 32.2208 19.7553C32.2208 20.789 30.2933 23.4738 28.9124 26.4313C27.4596 29.6042 27.3876 30.4226 28.3658 30.7672C29.2576 31.083 31.2283 29.6904 35.1264 24.6654C35.8744 22.8134 36.8381 20.6311 37.9601 18.0181C41.7575 9.20288 44.9364 5.90075 47.8996 6.66167C50.5175 7.35081 51.0066 10.1074 49.0791 13.6249C47.2236 16.9988 44.1165 21.191 38.0751 26.819C37.4422 29.0012 37.8306 29.7047 38.593 29.9488C39.5136 30.279 45.1378 26.5893 49.1942 18.7934C49.6976 17.4869 50.1436 16.2235 50.4744 15.0749C50.6758 14.3858 51.2367 14.1848 51.9272 14.3858C52.8909 14.8021 53.7971 16.0368 53.7971 17.2141C53.7971 17.573 53.1786 19.0805 52.2293 21.1767C55.0774 17.6161 57.8679 15.1467 59.3782 15.5631C62.0681 16.324 63.2476 19.7697 60.4139 25.412C60.2845 25.6561 60.1694 25.8858 60.0399 26.1155C62.4421 24.005 64.6716 21.392 66.0238 18.9944C66.4409 18.133 66.7573 17.3577 66.9012 16.726C67.045 16.1086 67.3903 15.8358 68.0807 16.1086C69.1883 16.5968 70.0082 17.3433 70.0082 18.7216C70.0082 19.6117 68.5554 21.6792 67.3183 24.0911C65.9374 26.6323 64.4846 28.7715 65.3189 29.1879C65.995 29.5325 71.1877 25.3402 74.6543 18.1473C74.8988 17.5012 75.1002 16.9557 75.1865 16.5824C75.3879 15.8933 75.805 15.6205 76.4955 15.8933C77.6031 16.3096 78.3654 17.0705 78.3654 18.0899C78.3654 18.6785 77.7613 20.0425 76.9558 21.6792C80.5231 17.731 84.1191 15.9507 85.2555 15.9507C86.6364 15.9507 88.0172 17.329 88.0172 18.98C88.0172 20.1573 81.5299 29.3171 82.2204 29.7191C82.8102 30.0637 84.6657 28.5418 88.4919 23.7322C88.607 23.5456 88.7221 23.3589 88.8516 23.1723C91.3976 19.4538 94.1018 17.3146 97.2663 17.3146C99.0644 17.3146 100.301 18.4345 100.805 19.5112C100.963 19.181 101.121 18.8365 101.28 18.4919C101.553 17.8745 102.042 17.3864 102.862 17.731C103.696 18.0755 104.444 19.181 104.387 19.9994C104.315 20.8895 101.15 26.0581 100.042 28.1255C98.863 30.3939 98.5897 32.1167 99.4959 32.5331C100.388 32.9494 102.186 31.7004 104.329 29.1592C104.746 28.671 105.221 28.47 105.638 28.7428C106.055 29.1305 106.458 30.236 105.839 31.1261ZM81.832 56.3371L77.9051 54.9588L75.2872 53.1067L73.9782 55.7197L68.5266 50.0774L65.6929 48.0818L63.2044 42.5687L60.2988 39.5393L58.2275 38.922L60.5721 42.5687L59.5364 45.1817L60.2988 48.412L58.9179 49.4457L60.5721 50.7522L60.644 52.676L57.7528 50.4794L56.5733 51.3695L62.7154 56.1935L64.4415 59.4956L55.4082 52.3315L54.3006 53.2934L65.06 61.764L63.0606 62.1086L53.1211 54.3989L52.0135 55.4326L60.9173 62.324L58.6446 62.4675L50.086 55.7197L46.1591 54.6142L56.2281 62.4675L53.6101 62.2665L43.3973 54.284L41.9445 55.1167L50.5031 61.7928L47.3961 61.1754L39.6718 55.1167L39.1252 56.696L43.7425 60.2709C38.2909 58.5481 34.7668 56.897 31.1851 55.1742L32.7674 54.485L35.7305 55.3177L39.3841 52.3602L42.4192 52.7765L49.4531 48.3689L51.4525 43.6167L54.4157 41.6211L55.7246 38.9363L57.6521 37.1417L61.1763 38.1036L64.7004 41.6785L67.5916 47.0481L69.7924 48.5699L72.6261 51.5275L74.9708 50.7665L78.6243 53.4513L84.1479 55.2459L81.832 56.3371ZM70.4397 8.61423C71.8206 8.34145 74.2372 9.79151 74.2372 11.0262C74.2372 12.8208 71.3315 14.4719 70.0945 13.8546C68.8574 13.4382 69.0013 9.30337 70.4397 8.61423ZM57.6809 0C17.5201 0 0.402832 12.8783 0.402832 29.8196C0.402832 47.9956 34.1483 69 57.7384 69C81.271 69 115.074 47.9956 115.074 29.8196C115.088 12.8783 97.8417 0 57.6809 0Z" fill="white"/>
</svg>
