<svg width="225" height="47" viewBox="0 0 225 47" fill="none" xmlns="http://www.w3.org/2000/svg">
<path d="M172.931 5.77939C172.351 5.63278 171.563 6.85192 169.278 11.034C169.122 11.3118 168.984 11.5819 168.845 11.8288C171.087 9.68371 172.013 8.31025 172.766 7.18371C173.346 6.33494 173.259 5.84883 172.931 5.77939Z" fill="#009490"/>
<path d="M204.696 11.736C204.575 11.2885 204.029 10.9181 203.285 10.9181C202.29 10.9181 201 11.6588 199.719 13.5107C198.516 15.2159 198.68 16.6203 199.347 16.8054C200.074 16.9983 202.393 15.6326 204.713 11.7591C204.704 11.7514 204.696 11.7437 204.696 11.736Z" fill="#009490"/>
<path d="M208.469 16.7284C207.102 18.4336 204.609 19.9846 202.904 19.429C202.324 19.2438 201.787 18.6883 201.787 18.1327C201.787 17.7315 201.874 17.2917 202.047 16.7978C199.961 18.5803 198.767 19.0124 198.091 18.8349C197.347 18.6497 196.681 18.2022 196.559 17.0988C196.508 16.767 196.516 16.3657 196.603 15.9105C194.577 17.9398 193.435 18.4336 192.578 18.2099C191.834 18.0247 191.418 17.4306 191.418 16.7284C191.418 15.5787 195.78 10.4707 194.993 10.4707C194.534 10.4707 191.609 11.7207 188.467 16.4506C188.242 16.9059 188.077 17.3071 188.017 17.6158C187.93 17.9475 187.645 18.1327 187.272 18.0247C186.485 17.8395 186.147 17.1759 186.147 16.5432C186.147 16.2809 186.415 15.7176 186.831 15C184.762 17.2685 183.196 18.1404 182.166 17.8395C181.543 17.6157 181.049 17.1374 181.049 16.4661C181.049 16.1343 181.525 15.2932 182.131 14.2824C180.114 16.1497 178.072 17.392 176.531 17.6852C176.194 17.7546 175.882 17.7778 175.605 17.7469C175.588 17.7469 175.57 17.7392 175.544 17.7392C175.484 17.7315 175.432 17.7238 175.371 17.7161C175.293 17.7006 175.216 17.6775 175.146 17.6543C174.688 17.5077 174.229 17.0602 174.151 16.5432C174.064 16.2114 174.272 15.8025 174.774 15.9105C176.306 16.2423 178.141 15.0232 179.093 13.3565C180.045 11.6898 180.132 10.3549 179.465 10.1698C178.634 9.93056 175.856 12.662 173.675 16.1188C172.42 18.3565 170.845 21.1883 170.49 22.1605C170.325 22.608 169.867 22.8241 169.33 22.608C168.707 22.3457 168.248 21.9059 168.248 21.1651C168.248 20.5093 170.325 17.6312 171.987 14.8071C169.01 18.179 166.88 18.7963 165.963 18.3874C165.383 18.125 164.881 17.5695 164.846 16.9059C164.838 16.7361 164.846 16.5586 164.864 16.3735C162.665 18.8503 160.779 19.4753 159.74 18.9815C159.203 18.7191 158.788 18.2408 158.788 17.7238C158.788 17.1528 159.039 16.4738 159.368 15.7562C156.07 18.9815 153.681 20.1158 151.639 19.3133C149.856 18.6111 148.817 15.7253 151.015 12.0602C153.759 7.50772 159.818 4.99229 163.972 6.17284C165.426 6.58179 166.127 7.46914 166.127 7.98612C166.127 8.6497 165.383 8.98921 164.968 8.61884C164.639 8.32563 164.137 8.10186 163.47 7.95525C159.688 7.06791 155.499 9.47531 153.673 12.5463C152.141 15.1775 152.634 16.767 153.629 17.0988C155.127 17.6158 158.442 15.5093 161.93 9.95371C162.302 9.32099 162.553 9.13581 162.925 9.13581C163.462 9.13581 164.171 9.91513 164.171 10.6173C164.171 11.1728 163.012 12.6157 162.181 14.2053C161.306 15.9105 161.263 16.3503 161.852 16.5355C162.388 16.7053 163.574 15.9568 165.92 13.2562C166.37 12.2608 166.95 11.088 167.625 9.68365C169.91 4.94599 171.823 3.1713 173.606 3.58025C175.181 3.95062 175.475 5.43211 174.315 7.32254C173.199 9.13581 171.329 11.3889 167.694 14.4136C167.313 15.5864 167.547 15.9645 168.006 16.0957C168.56 16.2732 171.944 14.2901 174.385 10.1003C174.688 9.39816 174.956 8.71914 175.155 8.10186C175.276 7.73148 175.614 7.62346 176.029 7.73149C176.609 7.95525 177.154 8.61883 177.154 9.25155C177.154 9.44445 176.782 10.2546 176.211 11.3812C177.925 9.4676 179.604 8.14044 180.513 8.3642C182.131 8.77316 182.841 10.625 181.136 13.6574C181.058 13.7886 180.989 13.912 180.911 14.0355C182.356 12.9012 183.698 11.4969 184.511 10.2083C184.762 9.74538 184.953 9.32871 185.039 8.9892C185.126 8.65741 185.334 8.51081 185.749 8.65741C186.415 8.91976 186.909 9.32099 186.909 10.0617C186.909 10.5401 186.035 11.6512 185.29 12.9475C184.459 14.3133 183.585 15.463 184.087 15.6867C184.494 15.8719 187.619 13.6188 189.704 9.75309C189.852 9.40587 189.973 9.11266 190.025 8.91204C190.146 8.54167 190.397 8.39507 190.812 8.54167C191.479 8.76544 191.938 9.17439 191.938 9.72223C191.938 10.0386 191.574 10.7716 191.089 11.6512C193.236 9.52933 195.4 8.57253 196.083 8.57253C196.914 8.57253 197.745 9.31328 197.745 10.2006C197.745 10.8333 193.842 15.7562 194.257 15.9722C194.612 16.1574 195.729 15.3395 198.031 12.7546C198.1 12.6543 198.169 12.554 198.247 12.4537C199.779 10.4553 201.406 9.30556 203.311 9.30556C204.393 9.30556 205.137 9.90741 205.44 10.4861C205.535 10.3086 205.63 10.1235 205.725 9.93828C205.89 9.60649 206.184 9.34414 206.678 9.52933C207.18 9.71451 207.63 10.3086 207.595 10.7485C207.552 11.2269 205.648 14.0046 204.981 15.1158C204.271 16.3349 204.107 17.2608 204.652 17.4846C205.189 17.7083 206.271 17.037 207.56 15.6713C207.811 15.409 208.097 15.3009 208.348 15.4475C208.599 15.6559 208.841 16.25 208.469 16.7284ZM194.023 30.2778L191.661 29.5371L190.085 28.5417L189.298 29.946L186.017 26.9136L184.312 25.8411L182.815 22.8781L181.067 21.25L179.82 20.9182L181.231 22.8781L180.608 24.2824L181.067 26.0185L180.236 26.5741L181.231 27.2762L181.274 28.3102L179.535 27.1296L178.825 27.608L182.521 30.2006L183.559 31.9753L178.124 28.125L177.457 28.642L183.931 33.1945L182.728 33.3796L176.748 29.2361L176.081 29.7917L181.439 33.4954L180.071 33.5725L174.921 29.946L172.558 29.3519L178.617 33.5725L177.042 33.4645L170.897 29.1744L170.022 29.6219L175.172 33.2099L173.303 32.8781L168.655 29.6219L168.326 30.4707L171.104 32.392C167.824 31.4661 165.703 30.5787 163.548 29.6528L164.5 29.2824L166.283 29.73L168.482 28.1404L170.308 28.3642L174.54 25.9954L175.744 23.4414L177.526 22.3688L178.314 20.9259L179.474 19.9614L181.594 20.4784L183.715 22.3997L185.455 25.2855L186.779 26.1034L188.484 27.6929L189.895 27.284L192.093 28.7269L195.417 29.6914L194.023 30.2778ZM187.168 4.62963C187.999 4.48303 189.453 5.26235 189.453 5.92593C189.453 6.89044 187.705 7.77778 186.961 7.44599C186.216 7.22223 186.303 5 187.168 4.62963ZM179.491 0C155.326 0 145.026 6.9213 145.026 16.0262C145.026 25.7948 165.331 37.0834 179.526 37.0834C193.686 37.0834 214.026 25.7948 214.026 16.0262C214.035 6.9213 203.657 0 179.491 0Z" fill="#009490"/>
<path d="M137.408 13.3149H131.164C130.738 13.3149 130.389 13.6629 130.389 14.0887V36.5953C130.389 37.0211 130.738 37.3691 131.164 37.3691H137.408C137.834 37.3691 138.183 37.0211 138.183 36.5953V14.0887C138.183 13.6629 137.834 13.3149 137.408 13.3149Z" fill="#009490"/>
<path d="M134.286 9.41496C135.602 9.41496 136.809 8.9372 137.678 8.07516C138.547 7.21312 139.026 6.02391 139.026 4.73085C139.026 3.41182 138.547 2.21223 137.678 1.345C136.809 0.477761 135.602 0 134.286 0C131.58 0 129.546 2.03567 129.546 4.73085C129.546 6.02391 130.03 7.20792 130.914 8.07516C131.788 8.9424 132.985 9.41496 134.286 9.41496Z" fill="#009490"/>
<path d="M123.428 16.3632C121.294 14.0315 118.37 12.754 115.191 12.754C113.87 12.754 112.616 13.0033 111.456 13.4914C110.478 13.9069 109.588 14.4833 108.802 15.2103C108.74 15.2675 108.641 15.2259 108.641 15.1376V14.0834C108.641 13.6576 108.292 13.3097 107.866 13.3097H101.622C101.196 13.3097 100.847 13.6576 100.847 14.0834V45.4753C100.847 45.9011 101.196 46.2491 101.622 46.2491H107.866C108.292 46.2491 108.641 45.9011 108.641 45.4753V35.5358C108.641 35.4528 108.74 35.406 108.802 35.4631C109.588 36.1902 110.478 36.7718 111.456 37.182C112.616 37.6702 113.87 37.9194 115.191 37.9194C118.37 37.9194 121.294 36.6368 123.428 34.3103C125.556 31.9838 126.726 28.7953 126.726 25.3315C126.726 21.8678 125.556 18.6897 123.428 16.3632ZM113.698 30.3844C110.816 30.3844 108.646 28.2189 108.646 25.3419C108.646 22.465 110.816 20.2995 113.698 20.2995C116.596 20.2995 118.703 22.4183 118.703 25.3419C118.703 28.2604 116.596 30.3844 113.698 30.3844Z" fill="#009490"/>
<path d="M79.047 16.4411C78.3186 15.3194 77.3509 14.4314 76.1594 13.7979C74.8587 13.1072 73.3603 12.7593 71.7058 12.7593C69.2344 12.7593 67.1377 13.6057 65.4623 15.2831C65.3999 15.3454 65.2958 15.2987 65.2958 15.2156V14.0939C65.2958 13.6681 64.9525 13.3201 64.5206 13.3201H58.2772C57.8505 13.3201 57.502 13.6629 57.502 14.0939V36.6005C57.502 37.0263 57.8505 37.3742 58.2772 37.3742H64.5206C64.9473 37.3742 65.2958 37.0315 65.2958 36.6005V24.0385C65.2958 21.8055 66.8567 20.3047 69.1772 20.3047C71.2791 20.3047 72.6371 21.7328 72.6371 23.9451V36.6005C72.6371 37.0263 72.9857 37.3742 73.4123 37.3742H79.6557C80.0824 37.3742 80.431 37.0315 80.431 36.6005V24.0385C80.431 21.8055 81.971 20.3047 84.2655 20.3047C86.3674 20.3047 87.7254 21.7328 87.7254 23.9451V29.8391C87.7254 34.84 90.3737 37.3742 95.6025 37.3742H97.0385C97.4652 37.3742 97.8137 37.0315 97.8137 36.6005V30.5973C97.8137 30.1819 97.486 29.8443 97.0749 29.8236C96.0552 29.782 95.5193 29.2056 95.5193 28.1514V21.6497C95.5193 19.0117 94.6972 16.7787 93.1364 15.1844C91.5807 13.5954 89.4059 12.7593 86.8409 12.7593C85.2228 12.7593 83.74 13.0968 82.4185 13.7667C81.1958 14.3847 80.1136 15.2883 79.2031 16.4567C79.1615 16.4983 79.0834 16.4931 79.047 16.4411Z" fill="#009490"/>
<path d="M28.9541 40.2252C29.1414 40.4641 29.3391 40.703 29.542 40.9367C29.901 41.3469 30.2808 41.7416 30.6762 42.1155C31.0664 42.4842 31.4775 42.8373 31.9041 43.1645C32.3255 43.4864 32.7626 43.7876 33.21 44.068C33.7875 44.4264 34.3911 44.7431 35.0154 45.0132C35.6293 45.2832 36.2641 45.5169 36.9092 45.6987C37.5492 45.8804 38.2048 46.0206 38.8655 46.1141C39.5263 46.2076 40.1922 46.2543 40.8582 46.2543C41.5242 46.2543 42.1901 46.2076 42.8509 46.1141C43.5117 46.0206 44.162 45.8804 44.8072 45.6987C45.4523 45.5117 46.0871 45.2832 46.701 45.0132C47.3254 44.738 47.9237 44.4212 48.5064 44.068C48.9591 43.7876 49.3961 43.4864 49.8123 43.1645C50.239 42.8373 50.65 42.4842 51.0402 42.1155C51.4356 41.7416 51.8154 41.3469 52.1744 40.9367C52.3774 40.7082 52.5751 40.4693 52.7624 40.2304C53.0069 39.9188 52.9757 39.4722 52.6895 39.2022C51.3264 37.8832 49.9632 36.5641 48.6001 35.2451C48.2619 34.9179 47.7052 34.9647 47.4294 35.3541C47.289 35.5515 47.1381 35.7436 46.982 35.9254C46.7687 36.1695 46.5397 36.4083 46.2952 36.6264C46.0507 36.8445 45.7957 37.0471 45.5304 37.234C45.265 37.421 44.9841 37.5872 44.6979 37.7429C44.4066 37.8935 44.11 38.0286 43.803 38.148C43.4961 38.2674 43.1787 38.3609 42.8561 38.444C42.5335 38.5219 42.2058 38.5842 41.8728 38.6258C41.5346 38.6673 41.1964 38.6881 40.8582 38.6881C40.52 38.6881 40.1818 38.6673 39.8437 38.6258C39.5107 38.5842 39.1829 38.5271 38.8603 38.444C38.5429 38.3661 38.2256 38.2674 37.9186 38.148C37.6116 38.0338 37.3151 37.8987 37.0237 37.7429C36.7323 37.5923 36.4566 37.421 36.1912 37.234C35.9259 37.0471 35.6658 36.8445 35.4264 36.6264C35.1819 36.4083 34.953 36.1746 34.7396 35.9254C34.5836 35.7436 34.4327 35.5515 34.2922 35.3541C34.0165 34.9647 33.4649 34.9179 33.1216 35.2451C31.7584 36.5641 30.3953 37.8832 29.0321 39.2022C28.7407 39.467 28.7095 39.9136 28.9541 40.2252Z" fill="#009490"/>
<path d="M50.1453 9.38374C47.7364 7.05727 44.4378 5.77979 40.853 5.77979C37.2526 5.77979 33.9436 7.06246 31.5399 9.38374C29.1414 11.705 27.8198 14.8935 27.8198 18.3677C27.8198 21.8366 29.1414 25.0303 31.5399 27.3464C33.9436 29.6729 37.2526 30.9556 40.853 30.9556C44.4378 30.9556 47.7416 29.6729 50.1453 27.3464C52.5542 25.02 53.8862 21.8314 53.8862 18.3677C53.8862 14.9039 52.5542 11.7154 50.1453 9.38374ZM40.8478 23.4101C37.9654 23.4101 35.7958 21.2446 35.7958 18.3677C35.7958 15.4907 37.9654 13.3253 40.8478 13.3253C43.699 13.3253 45.853 15.4907 45.853 18.3677C45.853 21.2446 43.7042 23.4101 40.8478 23.4101Z" fill="#009490"/>
<path d="M24.8645 27.575H18.0643C17.7938 27.575 17.5441 27.7152 17.4036 27.9437C16.4567 29.4756 14.8542 30.3792 13.0332 30.3792C10.1508 30.3792 7.98119 28.2137 7.98119 25.3368C7.98119 22.4651 10.1508 20.2944 13.0332 20.2944C14.849 20.2944 16.4567 21.198 17.4036 22.7351C17.5441 22.9636 17.7938 23.1038 18.0643 23.1038H24.8645C25.364 23.1038 25.7334 22.6364 25.6189 22.1483C25.3431 20.9902 24.9009 19.8945 24.2974 18.8767C23.569 17.6407 22.6273 16.5502 21.4982 15.6362C20.364 14.7171 19.0685 14.0056 17.6533 13.5123C16.1965 13.0086 14.6409 12.7489 13.0332 12.7489C9.43279 12.7489 6.12377 14.0316 3.72005 16.3529C1.32153 18.6741 0 21.8627 0 25.3316C0 28.8005 1.32153 31.9943 3.72005 34.3155C6.12377 36.642 9.43279 37.9195 13.0332 37.9195C14.6409 37.9195 16.1965 37.665 17.6533 37.1561C19.0685 36.668 20.3588 35.9513 21.4982 35.0322C22.6273 34.1182 23.569 33.0277 24.2974 31.7917C24.9009 30.7739 25.3431 29.673 25.6189 28.5201C25.7334 28.0424 25.364 27.575 24.8645 27.575Z" fill="#009490"/>
</svg>
