<svg width="326" height="72" viewBox="0 0 326 72" fill="none" xmlns="http://www.w3.org/2000/svg">
<path d="M213.746 20.7262H204.034C203.37 20.7262 202.828 21.2678 202.828 21.9306V56.9647C202.828 57.6275 203.37 58.1691 204.034 58.1691H213.746C214.41 58.1691 214.952 57.6275 214.952 56.9647V21.9306C214.952 21.2678 214.41 20.7262 213.746 20.7262Z" fill="#009490"/>
<path d="M208.889 14.6554C210.936 14.6554 212.814 13.9118 214.166 12.5699C215.517 11.228 216.262 9.37689 216.262 7.36409C216.262 5.31088 215.517 3.44359 214.166 2.09364C212.814 0.743688 210.936 0 208.889 0C204.68 0 201.516 3.16874 201.516 7.36409C201.516 9.37689 202.268 11.2199 203.644 12.5699C205.004 13.9198 206.865 14.6554 208.889 14.6554Z" fill="#009490"/>
<path d="M191.998 25.4712C188.68 21.8417 184.131 19.8531 179.186 19.8531C177.131 19.8531 175.18 20.2412 173.375 21.001C171.854 21.6477 170.47 22.545 169.248 23.6767C169.151 23.7656 168.997 23.7009 168.997 23.5635V21.9225C168.997 21.2597 168.455 20.7181 167.791 20.7181H158.079C157.415 20.7181 156.873 21.2597 156.873 21.9225V70.7875C156.873 71.4503 157.415 71.9919 158.079 71.9919H167.791C168.455 71.9919 168.997 71.4503 168.997 70.7875V55.3156C168.997 55.1863 169.151 55.1135 169.248 55.2024C170.47 56.3341 171.854 57.2395 173.375 57.8781C175.18 58.6379 177.131 59.0259 179.186 59.0259C184.131 59.0259 188.68 57.0293 191.998 53.4079C195.308 49.7865 197.129 44.8232 197.129 39.4314C197.129 34.0397 195.308 29.0926 191.998 25.4712ZM176.864 47.2967C172.38 47.2967 169.005 43.9259 169.005 39.4476C169.005 34.9693 172.38 31.5985 176.864 31.5985C181.372 31.5985 184.649 34.8966 184.649 39.4476C184.649 43.9906 181.372 47.2967 176.864 47.2967Z" fill="#009490"/>
<path d="M122.962 25.5924C121.829 23.8464 120.323 22.4641 118.47 21.4779C116.447 20.4028 114.116 19.8612 111.542 19.8612C107.698 19.8612 104.436 21.1788 101.83 23.7898C101.733 23.8868 101.571 23.8141 101.571 23.6847V21.9387C101.571 21.2758 101.037 20.7342 100.365 20.7342H90.6532C89.9895 20.7342 89.4473 21.2677 89.4473 21.9387V56.9727C89.4473 57.6355 89.9895 58.1771 90.6532 58.1771H100.365C101.029 58.1771 101.571 57.6436 101.571 56.9727V37.4186C101.571 33.9427 103.999 31.6066 107.609 31.6066C110.878 31.6066 112.991 33.8295 112.991 37.2731V56.9727C112.991 57.6355 113.533 58.1771 114.197 58.1771H123.909C124.572 58.1771 125.115 57.6436 125.115 56.9727V37.4186C125.115 33.9427 127.51 31.6066 131.079 31.6066C134.349 31.6066 136.462 33.8295 136.462 37.2731V46.4479C136.462 54.2324 140.581 58.1771 148.715 58.1771H150.949C151.612 58.1771 152.155 57.6436 152.155 56.9727V47.6281C152.155 46.9814 151.645 46.456 151.005 46.4237C149.419 46.359 148.585 45.4617 148.585 43.8208V33.7002C148.585 29.5938 147.307 26.1179 144.879 23.6362C142.459 21.1627 139.076 19.8612 135.086 19.8612C132.569 19.8612 130.262 20.3866 128.206 21.4294C126.304 22.3914 124.621 23.7979 123.205 25.6167C123.14 25.6813 123.018 25.6733 122.962 25.5924Z" fill="#009490"/>
<path d="M45.0403 62.615C45.3317 62.9869 45.6392 63.3587 45.9549 63.7225C46.5133 64.3611 47.1041 64.9754 47.7192 65.5574C48.3262 66.1314 48.9656 66.681 49.6292 67.1903C50.2848 67.6915 50.9646 68.1603 51.6607 68.5968C52.559 69.1546 53.4979 69.6477 54.4691 70.068C55.4241 70.4884 56.4115 70.8521 57.415 71.1351C58.4105 71.418 59.4303 71.6362 60.4581 71.7817C61.486 71.9272 62.5219 72 63.5579 72C64.5938 72 65.6298 71.9272 66.6576 71.7817C67.6855 71.6362 68.6972 71.418 69.7007 71.1351C70.7043 70.844 71.6917 70.4884 72.6467 70.068C73.6179 69.6396 74.5487 69.1465 75.4551 68.5968C76.1592 68.1603 76.8391 67.6915 77.4865 67.1903C78.1502 66.681 78.7896 66.1314 79.3966 65.5574C80.0117 64.9754 80.6025 64.3611 81.1609 63.7225C81.4766 63.3668 81.7841 62.9949 82.0755 62.6231C82.4559 62.1381 82.4073 61.4429 81.9622 61.0226C79.8417 58.9694 77.7213 56.9161 75.6008 54.8629C75.0747 54.3537 74.2087 54.4264 73.7798 55.0327C73.5613 55.3398 73.3266 55.6389 73.0838 55.9219C72.7519 56.3018 72.3958 56.6736 72.0154 57.0131C71.6351 57.3526 71.2385 57.6679 70.8257 57.9589C70.413 58.2499 69.9759 58.5086 69.5308 58.7511C69.0776 58.9855 68.6162 59.1957 68.1387 59.3816C67.6612 59.5675 67.1675 59.713 66.6657 59.8424C66.164 59.9636 65.6541 60.0606 65.1361 60.1253C64.61 60.19 64.084 60.2223 63.5579 60.2223C63.0318 60.2223 62.5058 60.19 61.9797 60.1253C61.4617 60.0606 60.9518 59.9717 60.45 59.8424C59.9564 59.7211 59.4627 59.5675 58.9852 59.3816C58.5076 59.2038 58.0463 58.9936 57.5931 58.7511C57.1399 58.5167 56.7109 58.2499 56.2982 57.9589C55.8854 57.6679 55.4807 57.3526 55.1084 57.0131C54.728 56.6736 54.3719 56.3099 54.0401 55.9219C53.7973 55.6389 53.5626 55.3398 53.3441 55.0327C52.9151 54.4264 52.0572 54.3537 51.5231 54.8629C49.4026 56.9161 47.2822 58.9694 45.1617 61.0226C44.7085 61.4348 44.6599 62.13 45.0403 62.615Z" fill="#009490"/>
<path d="M78.004 14.6069C74.2567 10.9855 69.1256 8.99695 63.5492 8.99695C57.9486 8.99695 52.8013 10.9936 49.0621 14.6069C45.3311 18.2202 43.2754 23.1835 43.2754 28.5914C43.2754 33.9912 45.3311 38.9626 49.0621 42.5678C52.8013 46.1893 57.9486 48.1859 63.5492 48.1859C69.1256 48.1859 74.2648 46.1893 78.004 42.5678C81.7512 38.9464 83.8231 33.9831 83.8231 28.5914C83.8231 23.1997 81.7512 18.2364 78.004 14.6069ZM63.5411 36.4405C59.0574 36.4405 55.6825 33.0697 55.6825 28.5914C55.6825 24.1131 59.0574 20.7423 63.5411 20.7423C67.9763 20.7423 71.3269 24.1131 71.3269 28.5914C71.3269 33.0697 67.9844 36.4405 63.5411 36.4405Z" fill="#009490"/>
<path d="M38.6781 42.9236H28.1001C27.6793 42.9236 27.2908 43.1418 27.0723 43.4975C25.5993 45.8821 23.1065 47.2887 20.2738 47.2887C15.7901 47.2887 12.4152 43.9178 12.4152 39.4396C12.4152 34.9694 15.7901 31.5905 20.2738 31.5905C23.0984 31.5905 25.5993 32.997 27.0723 35.3897C27.2908 35.7454 27.6793 35.9636 28.1001 35.9636H38.6781C39.4551 35.9636 40.0297 35.2361 39.8517 34.4763C39.4227 32.6737 38.7348 30.968 37.7959 29.3837C36.6629 27.4598 35.198 25.7622 33.4417 24.3395C31.6774 22.9087 29.6621 21.8013 27.4607 21.0334C25.1946 20.2493 22.7747 19.8451 20.2738 19.8451C14.6732 19.8451 9.52587 21.8417 5.78675 25.4551C2.05571 29.0684 0 34.0317 0 39.4315C0 44.8313 2.05571 49.8026 5.78675 53.416C9.52587 57.0374 14.6732 59.026 20.2738 59.026C22.7747 59.026 25.1946 58.6299 27.4607 57.8377C29.6621 57.0778 31.6693 55.9623 33.4417 54.5315C35.198 53.1088 36.6629 51.4113 37.7959 49.4874C38.7348 47.903 39.4227 46.1893 39.8517 44.3948C40.0297 43.6511 39.4551 42.9236 38.6781 42.9236Z" fill="#009490"/>
<path d="M267.459 9.09547C266.645 8.86475 265.538 10.7834 262.329 17.3649C262.11 17.8021 261.915 18.2271 261.721 18.6157C264.87 15.2399 266.17 13.0784 267.228 11.3055C268.043 9.96978 267.921 9.20476 267.459 9.09547Z" fill="#009490"/>
<path d="M312.078 18.4695C311.908 17.7652 311.142 17.1824 310.096 17.1824C308.698 17.1824 306.887 18.3481 305.087 21.2625C303.397 23.9461 303.628 26.1561 304.564 26.4476C305.586 26.7512 308.844 24.6018 312.102 18.506C312.09 18.4938 312.078 18.4817 312.078 18.4695Z" fill="#009490"/>
<path d="M317.379 26.3263C315.458 29.0099 311.957 31.4507 309.561 30.5764C308.747 30.2849 307.993 29.4106 307.993 28.5363C307.993 27.9049 308.115 27.2127 308.358 26.4356C305.428 29.2406 303.75 29.9206 302.802 29.6413C301.756 29.3499 300.82 28.6456 300.65 26.9092C300.577 26.387 300.589 25.7556 300.71 25.0391C297.866 28.2328 296.261 29.0099 295.057 28.6578C294.011 28.3663 293.428 27.4313 293.428 26.3263C293.428 24.517 299.555 16.4782 298.449 16.4782C297.805 16.4782 293.695 18.4454 289.282 25.8891C288.966 26.6056 288.735 27.237 288.65 27.7228C288.528 28.2449 288.127 28.5363 287.604 28.3663C286.498 28.0749 286.024 27.0306 286.024 26.0348C286.024 25.622 286.401 24.7355 286.984 23.6062C284.078 27.1763 281.878 28.5485 280.431 28.0749C279.556 27.7227 278.863 26.9699 278.863 25.9134C278.863 25.3913 279.531 24.0677 280.383 22.4769C277.55 25.4156 274.68 27.3706 272.516 27.832C272.042 27.9413 271.605 27.9778 271.215 27.9292C271.191 27.9292 271.167 27.917 271.13 27.917C271.045 27.9049 270.972 27.8927 270.887 27.8806C270.778 27.8563 270.668 27.8199 270.571 27.7835C269.927 27.5527 269.282 26.8484 269.173 26.0348C269.051 25.5127 269.343 24.8691 270.048 25.0391C272.2 25.5613 274.778 23.6427 276.115 21.0197C277.452 18.3968 277.574 16.2961 276.638 16.0046C275.471 15.6282 271.568 19.9269 268.504 25.367C266.741 28.8885 264.529 33.345 264.03 34.875C263.799 35.5793 263.155 35.9193 262.401 35.5793C261.526 35.1665 260.881 34.4743 260.881 33.3086C260.881 32.2764 263.799 27.747 266.133 23.3026C261.951 28.6092 258.96 29.5806 257.672 28.9371C256.857 28.5242 256.152 27.6499 256.103 26.6056C256.091 26.3384 256.103 26.0591 256.128 25.7677C253.039 29.6656 250.389 30.6492 248.93 29.8721C248.176 29.4592 247.593 28.7063 247.593 27.8928C247.593 26.9942 247.945 25.9256 248.407 24.7963C243.775 29.8721 240.42 31.6571 237.55 30.3942C235.046 29.2892 233.587 24.7477 236.675 18.9797C240.529 11.8153 249.04 7.8566 254.875 9.71449C256.918 10.3581 257.903 11.7545 257.903 12.5681C257.903 13.6124 256.857 14.1467 256.273 13.5639C255.811 13.1024 255.106 12.7503 254.17 12.5196C248.857 11.1231 242.973 14.9118 240.407 19.7447C238.255 23.8855 238.948 26.387 240.347 26.9092C242.45 27.7227 247.106 24.4077 252.006 15.6646C252.529 14.6689 252.881 14.3775 253.404 14.3775C254.158 14.3775 255.155 15.6039 255.155 16.7089C255.155 17.5832 253.526 19.854 252.359 22.3555C251.131 25.0391 251.07 25.7313 251.897 26.0227C252.65 26.2899 254.316 25.112 257.611 20.8619C258.243 19.2954 259.058 17.4497 260.006 15.2396C263.216 7.78374 265.902 4.99082 268.407 5.63441C270.62 6.21728 271.033 8.54876 269.404 11.5238C267.836 14.3775 265.209 17.9232 260.103 22.6833C259.568 24.5291 259.896 25.1241 260.541 25.3305C261.319 25.6098 266.073 22.4891 269.501 15.8953C269.927 14.7903 270.304 13.7217 270.583 12.7503C270.753 12.1674 271.228 11.9974 271.811 12.1674C272.626 12.5196 273.392 13.5639 273.392 14.5596C273.392 14.8632 272.869 16.1382 272.067 17.9111C274.474 14.8996 276.832 12.811 278.109 13.1631C280.383 13.8067 281.379 16.7211 278.984 21.4933C278.875 21.6998 278.778 21.894 278.668 22.0883C280.699 20.3033 282.583 18.0933 283.726 16.0653C284.079 15.3368 284.346 14.681 284.468 14.1467C284.589 13.6246 284.881 13.3939 285.464 13.6246C286.401 14.0374 287.094 14.6689 287.094 15.8346C287.094 16.5875 285.866 18.3361 284.82 20.3762C283.653 22.5255 282.425 24.3348 283.13 24.687C283.702 24.9784 288.091 21.4326 291.021 15.3489C291.227 14.8025 291.398 14.341 291.47 14.0253C291.641 13.4424 291.993 13.2117 292.577 13.4424C293.513 13.7946 294.157 14.4382 294.157 15.3003C294.157 15.7982 293.647 16.9518 292.966 18.3361C295.981 14.9968 299.021 13.491 299.981 13.491C301.148 13.491 302.315 14.6567 302.315 16.0532C302.315 17.0489 296.832 24.7963 297.416 25.1363C297.914 25.4277 299.483 24.1405 302.717 20.0726C302.814 19.9147 302.911 19.7569 303.02 19.599C305.172 16.4539 307.458 14.6446 310.133 14.6446C311.653 14.6446 312.698 15.5918 313.124 16.5025C313.257 16.2232 313.391 15.9318 313.525 15.6403C313.756 15.1182 314.169 14.7053 314.862 14.9968C315.567 15.2882 316.2 16.2232 316.151 16.9154C316.09 17.6682 313.415 22.0398 312.479 23.7884C311.482 25.707 311.251 27.1642 312.017 27.5163C312.771 27.8685 314.291 26.812 316.102 24.6627C316.455 24.2498 316.856 24.0798 317.209 24.3105C317.561 24.6384 317.902 25.5734 317.379 26.3263ZM297.087 47.6496L293.768 46.4839L291.556 44.9174L290.449 47.1274L285.841 42.3552L283.446 40.6673L281.343 36.0043L278.887 33.4422L277.136 32.92L279.118 36.0043L278.243 38.2144L278.887 40.9466L277.72 41.8209L279.118 42.9259L279.179 44.5531L276.735 42.6952L275.738 43.4481L280.93 47.5282L282.389 50.3211L274.753 44.2617L273.817 45.0753L282.911 52.2397L281.221 52.5311L272.82 46.0103L271.884 46.8846L279.41 52.7133L277.489 52.8347L270.255 47.1274L266.936 46.1924L275.446 52.8347L273.234 52.6647L264.602 45.9131L263.374 46.6174L270.608 52.264L267.981 51.7418L261.453 46.6174L260.991 47.9532L264.893 50.9768C260.286 49.5196 257.307 48.1232 254.28 46.666L255.617 46.0831L258.121 46.7874L261.21 44.286L263.775 44.6381L269.72 40.9102L271.41 36.8908L273.915 35.2029L275.021 32.9321L276.65 31.4143L279.629 32.2278L282.607 35.2515L285.051 39.793L286.911 41.0802L289.306 43.5817L291.288 42.9381L294.376 45.2088L299.045 46.7267L297.087 47.6496ZM287.458 7.28587C288.626 7.05515 290.668 8.28161 290.668 9.32592C290.668 10.8438 288.212 12.2403 287.167 11.7181C286.121 11.366 286.243 7.86874 287.458 7.28587ZM276.674 0C242.73 0 228.262 10.8924 228.262 25.2213C228.262 40.5944 256.784 58.3598 276.723 58.3598C296.613 58.3598 325.184 40.5944 325.184 25.2213C325.196 10.8924 310.619 0 276.674 0Z" fill="#009490"/>
</svg>
