<svg width="49" height="48" viewBox="0 0 49 48" fill="none" xmlns="http://www.w3.org/2000/svg">
<g id="message-circle">
<path id="Vector" d="M42.5 23C42.5069 25.6397 41.8901 28.2438 40.7 30.6C39.2889 33.4235 37.1195 35.7983 34.4349 37.4586C31.7503 39.1188 28.6565 39.9988 25.5 40C22.8603 40.0069 20.2562 39.3901 17.9 38.2L6.5 42L10.3 30.6C9.10986 28.2438 8.49312 25.6397 8.5 23C8.50122 19.8435 9.38122 16.7497 11.0414 14.0651C12.7017 11.3805 15.0765 9.21113 17.9 7.8C20.2562 6.60986 22.8603 5.99311 25.5 6H26.5C30.6687 6.22998 34.6061 7.98952 37.5583 10.9417C40.5105 13.8939 42.27 17.8313 42.5 22V23Z" stroke="white" stroke-width="4" stroke-linecap="round" stroke-linejoin="round"/>
</g>
</svg>
