<svg width="22" height="22" viewBox="0 0 22 22" fill="none" xmlns="http://www.w3.org/2000/svg">
<path fill-rule="evenodd" clip-rule="evenodd" d="M4.26273 9C4.26273 4.16288 8.20845 0.25 13.0654 0.25C17.9223 0.25 21.868 4.16288 21.868 9C21.868 10.0909 21.6668 11.1368 21.2987 12.1018C21.2625 12.1966 21.24 12.2558 21.2241 12.3005C21.2136 12.3301 21.2097 12.3431 21.2089 12.3459C21.2054 12.3618 21.2049 12.3666 21.2049 12.3668C21.2049 12.367 21.2042 12.3723 21.2037 12.3903C21.2038 12.3927 21.2042 12.4028 21.2064 12.4262C21.21 12.4634 21.2159 12.5122 21.2263 12.5967L21.6318 15.8907C21.6511 16.0467 21.6711 16.2089 21.6758 16.3475C21.6809 16.4984 21.6733 16.7111 21.573 16.9303C21.444 17.2122 21.2149 17.4361 20.9301 17.5585C20.7087 17.6537 20.4959 17.6564 20.3452 17.6478C20.2067 17.6399 20.0451 17.6162 19.8896 17.5934L16.6804 17.123C16.5933 17.1102 16.5428 17.1029 16.5045 17.0983C16.4803 17.0955 16.4699 17.0949 16.4674 17.0948C16.4493 17.0949 16.4437 17.0955 16.4431 17.0956C16.4427 17.0956 16.4377 17.0961 16.4213 17.0995C16.4184 17.1003 16.405 17.1041 16.3743 17.1148C16.3281 17.1308 16.2669 17.1537 16.1688 17.1905C15.2026 17.5524 14.1563 17.75 13.0654 17.75C12.8294 17.75 12.5955 17.7408 12.364 17.7226C11.4889 20.0701 9.26767 21.75 6.64435 21.75C5.94549 21.75 5.27264 21.63 4.64543 21.4086C4.53841 21.3709 4.46865 21.3463 4.4166 21.3291C4.38011 21.317 4.36448 21.3127 4.36163 21.3119C4.351 21.3098 4.34531 21.3089 4.34285 21.3085C4.34003 21.3083 4.33298 21.3081 4.31906 21.308C4.32473 21.308 4.31882 21.3074 4.28304 21.3114C4.24487 21.3156 4.19448 21.3224 4.10906 21.3341L1.11425 21.7431C0.871212 21.7763 0.627299 21.6885 0.461114 21.5081C0.294929 21.3277 0.227477 21.0774 0.280494 20.8379L0.891839 18.0762C0.912779 17.9816 0.925061 17.9258 0.933187 17.8834C0.938359 17.8565 0.939863 17.8447 0.94018 17.842C0.941038 17.8269 0.941178 17.8194 0.941188 17.8167C0.940932 17.8142 0.940183 17.8078 0.938267 17.7952C0.937455 17.792 0.933297 17.7747 0.921134 17.7344C0.903659 17.6765 0.878391 17.599 0.839392 17.4796C0.63581 16.8564 0.525925 16.1905 0.525925 15.5C0.525925 12.9096 2.07449 10.6714 4.29277 9.72762C4.27287 9.48756 4.26273 9.24489 4.26273 9ZM5.76941 9.31324C6.05498 9.27157 6.34708 9.25 6.64435 9.25C10.0405 9.25 12.7628 12.0654 12.7628 15.5C12.7628 15.7509 12.7482 15.9986 12.72 16.242C12.8344 16.2473 12.9495 16.25 13.0654 16.25C13.9741 16.25 14.8423 16.0856 15.6427 15.7858C15.6563 15.7807 15.6699 15.7756 15.6835 15.7705C15.8298 15.7155 15.9774 15.66 16.1096 15.6322C16.2323 15.6064 16.3344 15.5955 16.4598 15.5948C16.5946 15.594 16.733 15.6145 16.8643 15.6339C16.8756 15.6355 16.8868 15.6372 16.898 15.6388L20.0833 16.1057C20.1061 16.1091 20.1277 16.1122 20.1481 16.1152C20.1456 16.0947 20.143 16.0731 20.1401 16.0502L19.7376 12.78C19.7362 12.7691 19.7349 12.7582 19.7335 12.7473C19.7177 12.62 19.701 12.4859 19.7041 12.3558C19.707 12.2346 19.7189 12.1363 19.7452 12.0179C19.7735 11.8905 19.828 11.748 19.8821 11.6067C19.8871 11.5935 19.8922 11.5803 19.8972 11.5672C20.2012 10.7701 20.368 9.90523 20.368 9C20.368 5.00056 17.1031 1.75 13.0654 1.75C9.02758 1.75 5.76273 5.00056 5.76273 9C5.76273 9.10499 5.76497 9.20941 5.76941 9.31324ZM20.1767 16.4213C20.1766 16.4213 20.1767 16.4204 20.1768 16.4187L20.1767 16.4213ZM20.4508 16.1509C20.4526 16.1508 20.4535 16.1508 20.4535 16.1508L20.4508 16.1509ZM11.1142 16.7012C11.2111 16.318 11.2628 15.9156 11.2628 15.5C11.2628 12.8594 9.17801 10.75 6.64435 10.75C4.11068 10.75 2.02592 12.8594 2.02592 15.5C2.02592 16.0307 2.11028 16.5395 2.26524 17.0138C2.2709 17.0312 2.27657 17.0485 2.28223 17.0657C2.34047 17.2433 2.39714 17.4161 2.41936 17.5577C2.44062 17.6931 2.44551 17.7931 2.4376 17.93C2.42935 18.0726 2.3963 18.2211 2.36465 18.3632C2.36188 18.3757 2.35912 18.3881 2.35638 18.4004L1.97766 20.1113L3.90608 19.8479C3.91723 19.8464 3.92843 19.8448 3.93968 19.8433C4.06807 19.8256 4.20211 19.8072 4.32922 19.808C4.4519 19.8088 4.53919 19.8178 4.65951 19.8417C4.78459 19.8667 4.93873 19.9213 5.09792 19.9776C5.11346 19.9831 5.12904 19.9886 5.14465 19.9942C5.61408 20.1598 6.11826 20.25 6.64435 20.25C8.7664 20.25 10.5736 18.7703 11.1047 16.7381C11.1076 16.7257 11.1108 16.7134 11.1142 16.7012Z" fill="#1C3D1A"/>
</svg>
