<svg width="24" height="32" viewBox="0 0 24 32" fill="none" xmlns="http://www.w3.org/2000/svg">
<path d="M20.8601 21.1529C20.8601 26.6828 16.3772 31.1657 10.8473 31.1657C5.31741 31.1657 0.834534 26.6828 0.834534 21.1529C0.834534 15.623 5.31741 11.1401 10.8473 11.1401C16.3772 11.1401 20.8601 15.623 20.8601 21.1529Z" fill="#FFAC2F"/>
<path fill-rule="evenodd" clip-rule="evenodd" d="M21.6944 21.1528C21.6944 27.1435 16.8379 32 10.8472 32C4.85645 32 0 27.1435 0 21.1528C0 15.162 4.85645 10.3056 10.8472 10.3056C16.8379 10.3056 21.6944 15.162 21.6944 21.1528ZM10.8472 31.1656C16.3771 31.1656 20.86 26.6827 20.86 21.1528C20.86 15.6229 16.3771 11.14 10.8472 11.14C5.31728 11.14 0.834399 15.6229 0.834399 21.1528C0.834399 26.6827 5.31728 31.1656 10.8472 31.1656Z" fill="#884A28"/>
<path fill-rule="evenodd" clip-rule="evenodd" d="M10.8473 31.1657C16.3772 31.1657 20.8601 26.6828 20.8601 21.1529C20.8601 15.623 16.3772 11.1401 10.8473 11.1401C10.4497 11.1401 10.0575 11.1633 9.67196 11.2084C13.4472 11.7123 16.3592 14.9452 16.3592 18.8583C16.3592 23.1209 12.9036 26.5765 8.641 26.5765C4.62344 26.5765 1.32283 23.5069 0.956571 19.585C0.87624 20.0959 0.834534 20.6195 0.834534 21.1529C0.834534 26.6828 5.31741 31.1657 10.8473 31.1657Z" fill="#FF862F"/>
<path d="M17.1946 18.5896C17.1946 19.034 16.8344 19.3942 16.39 19.3942C15.9457 19.3942 15.5854 19.034 15.5854 18.5896C15.5854 18.1453 15.9457 17.785 16.39 17.785C16.8344 17.785 17.1946 18.1453 17.1946 18.5896Z" fill="#DD7429"/>
<path d="M19.6088 20.1989C19.6088 20.6433 19.2485 21.0035 18.8042 21.0035C18.3598 21.0035 17.9996 20.6433 17.9996 20.1989C17.9996 19.7545 18.3598 19.3943 18.8042 19.3943C19.2485 19.3943 19.6088 19.7545 19.6088 20.1989Z" fill="#DD7429"/>
<path d="M19.2065 17.584C19.2065 17.9173 18.9363 18.1875 18.603 18.1875C18.2697 18.1875 17.9996 17.9173 17.9996 17.584C17.9996 17.2508 18.2697 16.9806 18.603 16.9806C18.9363 16.9806 19.2065 17.2508 19.2065 17.584Z" fill="#DD7429"/>
<path d="M19.6968 23.6558C19.6968 24.3471 19.1364 24.9074 18.4452 24.9074C17.754 24.9074 17.1936 24.3471 17.1936 23.6558C17.1936 22.9646 17.754 22.4042 18.4452 22.4042C19.1364 22.4042 19.6968 22.9646 19.6968 23.6558Z" fill="#DD7429"/>
<path d="M17.1946 21.4058C17.1946 21.8502 16.8344 22.2104 16.39 22.2104C15.9457 22.2104 15.5854 21.8502 15.5854 21.4058C15.5854 20.9614 15.9457 20.6012 16.39 20.6012C16.8344 20.6012 17.1946 20.9614 17.1946 21.4058Z" fill="#DD7429"/>
<path d="M17.9995 26.2633C17.9995 26.7077 17.6392 27.0679 17.1949 27.0679C16.7505 27.0679 16.3903 26.7077 16.3903 26.2633C16.3903 25.8189 16.7505 25.4587 17.1949 25.4587C17.6392 25.4587 17.9995 25.8189 17.9995 26.2633Z" fill="#DD7429"/>
<path d="M15.8827 27.798C15.8827 28.2423 15.5225 28.6026 15.0781 28.6026C14.6337 28.6026 14.2735 28.2423 14.2735 27.798C14.2735 27.3536 14.6337 26.9934 15.0781 26.9934C15.5225 26.9934 15.8827 27.3536 15.8827 27.798Z" fill="#DD7429"/>
<path d="M16.0026 25.0565C16.0026 25.5008 15.6424 25.8611 15.198 25.8611C14.7537 25.8611 14.3934 25.5008 14.3934 25.0565C14.3934 24.6121 14.7537 24.2519 15.198 24.2519C15.6424 24.2519 16.0026 24.6121 16.0026 25.0565Z" fill="#DD7429"/>
<path d="M13.0526 28.8932C13.0526 29.2264 12.7824 29.4966 12.4492 29.4966C12.1159 29.4966 11.8457 29.2264 11.8457 28.8932C11.8457 28.5599 12.1159 28.2897 12.4492 28.2897C12.7824 28.2897 13.0526 28.5599 13.0526 28.8932Z" fill="#DD7429"/>
<path d="M18.7087 10.9803C18.7087 10.9803 16.8016 7.7227 14.8631 7.63789C12.9246 7.55308 11.2764 9.23931 11.2764 9.23931C11.2764 9.23931 12.771 11.063 14.7095 11.1479C16.648 11.2327 18.7087 10.9803 18.7087 10.9803Z" fill="#64AC1D"/>
<path fill-rule="evenodd" clip-rule="evenodd" d="M19.4285 10.5589L18.7084 10.9804L18.8099 11.8086C19.0887 11.7745 19.3316 11.6023 19.4562 11.3506C19.5809 11.0988 19.5704 10.8013 19.4285 10.5589ZM11.2761 9.23939C10.6794 8.65614 10.6796 8.65596 10.6798 8.65576L10.6812 8.6544L10.6835 8.65204L10.69 8.64549C10.6951 8.64032 10.7019 8.63358 10.7103 8.62537C10.727 8.60895 10.75 8.58662 10.7791 8.55925C10.8373 8.50456 10.9199 8.42943 11.0242 8.34092C11.2321 8.16463 11.5308 7.93138 11.8988 7.70027C12.6185 7.24832 13.6875 6.75135 14.8994 6.80437C15.6054 6.83526 16.2423 7.14848 16.7614 7.51341C17.2874 7.88316 17.7571 8.35164 18.1416 8.79275C18.5289 9.23711 18.848 9.67502 19.0696 10.0001C19.1809 10.1634 19.2689 10.3 19.3297 10.3971C19.3602 10.4457 19.3839 10.4846 19.4005 10.512C19.4089 10.5258 19.4154 10.5367 19.4201 10.5445L19.4257 10.554L19.4275 10.557L19.4281 10.5581L19.4285 10.5589C19.4286 10.559 19.4285 10.5589 18.7084 10.9804C18.8099 11.8086 18.8099 11.8086 18.8099 11.8086L18.8019 11.8096L18.7821 11.8119C18.7651 11.8139 18.7406 11.8168 18.709 11.8203C18.6458 11.8274 18.5544 11.8373 18.4391 11.8488C18.2087 11.8718 17.882 11.9015 17.4935 11.9284C16.7201 11.982 15.6858 12.0259 14.6728 11.9815C13.461 11.9285 12.4394 11.3401 11.762 10.827C11.4156 10.5647 11.1384 10.3062 10.9467 10.1124C10.8505 10.0151 10.7748 9.93309 10.7216 9.87353C10.695 9.84372 10.674 9.81946 10.6588 9.80165C10.6512 9.79274 10.645 9.78543 10.6404 9.77984L10.6344 9.77274L10.6323 9.77019L10.6311 9.76871C10.631 9.7685 10.6308 9.7683 11.2761 9.23939ZM11.2761 9.23939L10.6794 8.65614C10.3822 8.96028 10.3612 9.43936 10.6308 9.7683L11.2761 9.23939ZM18.1885 10.1966C17.4903 9.22693 16.1839 7.69577 14.8629 7.63797C12.9244 7.55316 11.2761 9.23939 11.2761 9.23939C11.2761 9.23939 12.7708 11.0631 14.7093 11.1479C15.833 11.1971 16.9977 11.133 17.7783 11.0704C18.3444 11.025 18.7084 10.9804 18.7084 10.9804C18.7084 10.9804 18.5149 10.6498 18.1885 10.1966Z" fill="#156319"/>
<path d="M21.0967 3.34157C21.0967 3.34157 18.8049 7.37936 16.359 8.66871C13.913 9.95807 10.7629 8.78892 10.7629 8.78892C10.7629 8.78892 11.5785 5.52933 14.0244 4.23997C16.4703 2.95062 21.0967 3.34157 21.0967 3.34157Z" fill="#87D623"/>
<path fill-rule="evenodd" clip-rule="evenodd" d="M21.8227 3.75338L21.097 3.34151L21.1672 2.51007C21.4507 2.53402 21.7025 2.70075 21.8351 2.95241C21.9678 3.20407 21.9631 3.50597 21.8227 3.75338ZM20.1529 3.29487C20.732 3.31066 21.097 3.34151 21.097 3.34151C21.097 3.34151 20.9162 3.66006 20.6019 4.14678C19.7974 5.39292 18.1182 7.74145 16.3593 8.66865C13.9134 9.958 10.7633 8.78886 10.7633 8.78886C10.7633 8.78886 11.5788 5.52926 14.0247 4.23991C15.7836 3.31271 18.6701 3.25445 20.1529 3.29487ZM10.7633 8.78886C9.95381 8.58634 9.95387 8.58609 9.95394 8.58582L9.95445 8.5838L9.9554 8.58006L9.95825 8.56903C9.96057 8.56013 9.96374 8.54814 9.96779 8.53322C9.97589 8.5034 9.98752 8.46185 10.0029 8.40987C10.0336 8.30598 10.0793 8.15996 10.1419 7.98232C10.2666 7.62811 10.46 7.14246 10.7371 6.61171C11.2824 5.56732 12.1978 4.2597 13.6356 3.50179C15.0342 2.76455 16.9641 2.53769 18.4419 2.47358C19.2 2.4407 19.8772 2.44962 20.3651 2.46668C20.6094 2.47522 20.8073 2.48585 20.9453 2.49444C21.0143 2.49873 21.0684 2.50253 21.1059 2.5053C21.1247 2.50669 21.1393 2.50782 21.1496 2.50864L21.1618 2.50962L21.1654 2.50991L21.1672 2.51007C21.1674 2.51008 21.1672 2.51007 21.097 3.34151C21.8227 3.75338 21.8227 3.75323 21.8227 3.75338L21.8217 3.75503L21.8199 3.75815L21.8139 3.76872C21.8087 3.77767 21.8014 3.79038 21.7919 3.80665C21.773 3.83919 21.7456 3.88598 21.7101 3.94536C21.6392 4.06406 21.5362 4.23332 21.4051 4.43972C21.1436 4.85183 20.7682 5.4156 20.3127 6.02247C19.4247 7.2055 18.1469 8.66954 16.7484 9.40677C15.3106 10.1647 13.7145 10.181 12.5447 10.0407C11.9502 9.96943 11.4402 9.85459 11.0775 9.75731C10.8956 9.70852 10.7493 9.66375 10.6463 9.63037C10.5947 9.61366 10.5538 9.59977 10.5247 9.5896C10.5101 9.58452 10.4984 9.58036 10.4897 9.57724L10.479 9.57336L10.4754 9.57203L10.4734 9.57131C10.4732 9.57121 10.4729 9.57112 10.7633 8.78886ZM9.95381 8.58634L10.7633 8.78886L10.4729 9.57112C10.0742 9.42313 9.85058 8.99893 9.95381 8.58634Z" fill="#156319"/>
<path d="M16.1473 8.29681C18.2268 7.20058 20.2388 3.88803 20.2388 3.88803C15.5101 5.09301 12.4112 7.47772 11.4529 8.51946C11.4529 8.51946 14.0677 9.39304 16.1473 8.29681Z" fill="#79C01E"/>
<path d="M7.06982 6.61438C7.92673 6.96813 10.0127 10.3057 10.5929 12.0011C10.6413 12.1426 11.0299 11.9947 10.9893 11.8711C10.7531 10.3063 9.80413 6.55093 8.76113 5.29933C7.53827 5.37197 7.07272 6.27129 7.06982 6.61438Z" fill="#8C5936"/>
<path fill-rule="evenodd" clip-rule="evenodd" d="M6.74411 7.38228C6.43375 7.25059 6.23285 6.94479 6.2357 6.60712C6.23946 6.16331 6.48622 5.65734 6.86052 5.27305C7.27121 4.85141 7.88716 4.5152 8.7119 4.4662C8.97645 4.45049 9.23273 4.56138 9.40239 4.76497C9.73968 5.16972 10.0322 5.72559 10.282 6.30229C10.5373 6.89168 10.7713 7.55818 10.9755 8.22222C11.3763 9.52494 11.6796 10.8728 11.8085 11.7059C11.9105 12.1704 11.6098 12.4912 11.5172 12.5766C11.3804 12.7028 11.2258 12.7784 11.1032 12.8218C10.9829 12.8644 10.8041 12.9077 10.6014 12.8882C10.4069 12.8695 9.96877 12.7534 9.80372 12.2711C9.54505 11.5152 8.91897 10.3218 8.23354 9.25568C7.89461 8.72851 7.55597 8.25573 7.26016 7.90168C7.11193 7.72426 6.98388 7.58805 6.88003 7.49291C6.78729 7.40795 6.7428 7.38273 6.74319 7.38202C6.74322 7.38196 6.74353 7.38205 6.74411 7.38228ZM10.9896 11.8709C10.9893 11.8691 10.9891 11.8673 10.9888 11.8655C10.9617 11.6868 10.9254 11.4797 10.8808 11.2512C10.8084 10.8809 10.7142 10.4542 10.602 10.0009C10.1763 8.28069 9.49191 6.17576 8.76138 5.29914C8.14049 5.33602 7.71484 5.58602 7.44584 5.86812C7.39622 5.92015 7.35194 5.97328 7.31274 6.02636C7.1459 6.25229 7.07123 6.47743 7.07007 6.61419C7.6882 6.86936 8.94588 8.67716 9.81657 10.3012C10.0199 10.6804 10.202 11.0495 10.3501 11.3866C10.4356 11.5813 10.5097 11.7653 10.5699 11.9343C10.5779 11.9567 10.5857 11.979 10.5932 12.0009C10.6416 12.1424 11.0301 11.9945 10.9896 11.8709ZM10.1615 11.9757C10.1677 12.025 10.179 12.0769 10.1968 12.131C10.1823 12.0868 10.1715 12.0414 10.1645 11.9954C10.1636 11.9889 10.1625 11.9823 10.1615 11.9757Z" fill="#583A24"/>
<path d="M9.03889 5.44405C9.26218 5.7545 9.00454 6.32167 8.46343 6.71087C7.92232 7.10006 7.30265 7.1639 7.07935 6.85344C6.85606 6.54299 7.11371 5.97582 7.65482 5.58662C8.19593 5.19743 8.8156 5.1336 9.03889 5.44405Z" fill="#C27A49"/>
<path d="M9.36792 14.7544C10.0639 15.9489 9.17564 17.7636 7.38389 18.8076C5.59214 19.8516 3.57542 19.7296 2.87942 18.5351C2.18342 17.3406 3.0717 15.5259 4.86345 14.4819C6.6552 13.4379 8.67192 13.5599 9.36792 14.7544Z" fill="#FFC671"/>
<path fill-rule="evenodd" clip-rule="evenodd" d="M5.87555 15.7939C6.1216 16.1835 6.0052 16.6988 5.61556 16.9449C5.31827 17.1326 5.08872 17.3598 4.91534 17.6272C4.66467 18.0139 4.14799 18.1242 3.7613 17.8735C3.37462 17.6228 3.26435 17.1062 3.51502 16.7195C3.82601 16.2397 4.23303 15.8442 4.72453 15.5339C5.11417 15.2878 5.6295 15.4042 5.87555 15.7939Z" fill="white"/>
</svg>
