<svg width="16" height="18" viewBox="0 0 16 18" fill="none" xmlns="http://www.w3.org/2000/svg">
<path fill-rule="evenodd" clip-rule="evenodd" d="M3.08301 5.66667C3.08301 2.95127 5.28428 0.75 7.99967 0.75C10.7151 0.75 12.9163 2.95127 12.9163 5.66667V6.69298C13.1702 6.74354 13.4108 6.81987 13.6418 6.93756C14.2533 7.24915 14.7505 7.74634 15.0621 8.35786C15.2612 8.7486 15.3419 9.167 15.3798 9.63026C15.4164 10.0778 15.4164 10.6285 15.4163 11.3019V12.5314C15.4164 13.2048 15.4164 13.7555 15.3798 14.2031C15.3419 14.6663 15.2612 15.0847 15.0621 15.4755C14.7505 16.087 14.2533 16.5842 13.6418 16.8958C13.2511 17.0949 12.8327 17.1756 12.3694 17.2134C11.9219 17.25 11.3711 17.25 10.6978 17.25H5.30157C4.6282 17.25 4.0775 17.25 3.62994 17.2134C3.16668 17.1756 2.74828 17.0949 2.35754 16.8958C1.74601 16.5842 1.24883 16.087 0.937237 15.4755C0.738145 15.0847 0.65741 14.6663 0.61956 14.2031C0.582992 13.7555 0.582999 13.2048 0.583008 12.5314V11.3019C0.582999 10.6285 0.582992 10.0778 0.61956 9.63026C0.65741 9.167 0.738145 8.7486 0.937237 8.35786C1.24883 7.74634 1.74601 7.24915 2.35754 6.93756C2.58851 6.81987 2.82915 6.74354 3.08301 6.69298V5.66667ZM4.58301 6.58536C4.80539 6.58333 5.04455 6.58333 5.3016 6.58333H10.6978C10.9548 6.58333 11.194 6.58333 11.4163 6.58536V5.66667C11.4163 3.77969 9.88665 2.25 7.99967 2.25C6.1127 2.25 4.58301 3.77969 4.58301 5.66667V6.58536ZM3.75209 8.1149C3.38159 8.14517 3.18256 8.20068 3.03852 8.27407C2.70924 8.44185 2.44153 8.70957 2.27375 9.03885C2.20036 9.18289 2.14485 9.38191 2.11458 9.75241C2.08359 10.1317 2.08301 10.6209 2.08301 11.3333V12.5C2.08301 13.2124 2.08359 13.7017 2.11458 14.0809C2.14485 14.4514 2.20036 14.6504 2.27375 14.7945C2.44153 15.1238 2.70924 15.3915 3.03852 15.5593C3.18256 15.6327 3.38159 15.6882 3.75209 15.7184C4.13134 15.7494 4.62057 15.75 5.33301 15.75H10.6663C11.3788 15.75 11.868 15.7494 12.2473 15.7184C12.6178 15.6882 12.8168 15.6327 12.9608 15.5593C13.2901 15.3915 13.5578 15.1238 13.7256 14.7945C13.799 14.6504 13.8545 14.4514 13.8848 14.0809C13.9158 13.7017 13.9163 13.2124 13.9163 12.5V11.3333C13.9163 10.6209 13.9158 10.1317 13.8848 9.75241C13.8545 9.38191 13.799 9.18289 13.7256 9.03885C13.5578 8.70957 13.2901 8.44185 12.9608 8.27407C12.8168 8.20068 12.6178 8.14517 12.2473 8.1149C11.868 8.08392 11.3788 8.08333 10.6663 8.08333H5.33301C4.62057 8.08333 4.13134 8.08392 3.75209 8.1149ZM7.99967 10.3333C8.41389 10.3333 8.74967 10.6691 8.74967 11.0833V12.75C8.74967 13.1642 8.41389 13.5 7.99967 13.5C7.58546 13.5 7.24967 13.1642 7.24967 12.75V11.0833C7.24967 10.6691 7.58546 10.3333 7.99967 10.3333Z" fill="#FF8080"/>
</svg>
