<svg width="40" height="56" viewBox="0 0 40 56" fill="none" xmlns="http://www.w3.org/2000/svg">
<path d="M9.2 24.4545C9.2 22.4963 7.5884 20.9091 5.6 20.9091C3.6116 20.9091 2 22.4963 2 24.4545V36.2727C2 46.0629 10.0592 54 20 54C29.9408 54 38 46.0629 38 36.2727V28C38 26.0417 36.3884 24.4545 34.4 24.4545C32.4116 24.4545 30.8 26.0417 30.8 28V25.6363C30.8 23.6781 29.1884 22.0909 27.2 22.0909C25.2116 22.0909 23.6 23.6781 23.6 25.6363V23.2727C23.6 21.3144 21.9884 19.7273 20 19.7273C18.0116 19.7273 16.4 21.3144 16.4 23.2727V5.54545C16.4 3.58718 14.7884 2 12.8 2C10.8116 2 9.2 3.58718 9.2 5.54545V35.0909V24.4545Z" stroke="white" stroke-width="4" stroke-miterlimit="10" stroke-linecap="round" stroke-linejoin="round"/>
</svg>
