<svg width="16" height="15" viewBox="0 0 16 15" fill="none" xmlns="http://www.w3.org/2000/svg">
<path fill-rule="evenodd" clip-rule="evenodd" d="M8.57508 1.03608C8.86237 1.16383 9.04611 1.38759 9.169 1.56109C9.28964 1.73141 9.41809 1.95333 9.55637 2.19222L15.0702 11.7162C15.2091 11.956 15.338 12.1786 15.4259 12.3686C15.5153 12.5619 15.6182 12.8334 15.5856 13.1469C15.5439 13.5464 15.3346 13.9095 15.0096 14.1458C14.7547 14.3311 14.4682 14.3781 14.2561 14.3976C14.0477 14.4167 13.7904 14.4167 13.5133 14.4166H2.48564C2.20856 14.4167 1.95133 14.4167 1.74291 14.3976C1.5308 14.3781 1.24426 14.3311 0.989348 14.1458C0.664425 13.9095 0.455083 13.5464 0.413426 13.1469C0.380744 12.8334 0.483647 12.5619 0.573082 12.3686C0.660959 12.1786 0.789865 11.956 0.928714 11.7162L6.44262 2.19222C6.58089 1.95333 6.70934 1.73141 6.82998 1.56109C6.95287 1.38759 7.13661 1.16383 7.4239 1.03608C7.79033 0.873145 8.20865 0.873146 8.57508 1.03608ZM7.99949 2.50931C7.9326 2.61331 7.84856 2.75756 7.72544 2.97023L2.24218 12.4413C2.11859 12.6548 2.03498 12.8001 1.97785 12.9104C2.10191 12.9162 2.26956 12.9166 2.51623 12.9166H13.4827C13.7294 12.9166 13.8971 12.9162 14.0211 12.9104C13.964 12.8001 13.8804 12.6548 13.7568 12.4413L8.27354 2.97023C8.15042 2.75756 8.06638 2.61331 7.99949 2.50931ZM7.24949 5.99997C7.24949 5.58576 7.58528 5.24997 7.99949 5.24997C8.4137 5.24997 8.74949 5.58576 8.74949 5.99997V8.66664C8.74949 9.08085 8.4137 9.41664 7.99949 9.41664C7.58528 9.41664 7.24949 9.08085 7.24949 8.66664V5.99997ZM7.24949 11.3333C7.24949 10.9191 7.58528 10.5833 7.99949 10.5833H8.00616C8.42037 10.5833 8.75616 10.9191 8.75616 11.3333C8.75616 11.7475 8.42037 12.0833 8.00616 12.0833H7.99949C7.58528 12.0833 7.24949 11.7475 7.24949 11.3333Z" fill="#FF0000"/>
</svg>
