<svg width="22" height="22" viewBox="0 0 22 22" fill="none" xmlns="http://www.w3.org/2000/svg">
<path fill-rule="evenodd" clip-rule="evenodd" d="M6.37178 0.249664C6.40038 0.24974 6.42887 0.249815 6.45719 0.249815H15.5683C15.5966 0.249815 15.6251 0.24974 15.6537 0.249664C15.9772 0.24881 16.3161 0.247914 16.6113 0.355353C17.0974 0.532276 17.4803 0.915189 17.6572 1.40128C17.7526 1.66345 17.7626 1.96011 17.763 2.24982L19.5345 2.24981C19.7488 2.2498 19.9456 2.24979 20.111 2.26107C20.2886 2.27319 20.4839 2.3008 20.6824 2.38303C21.1112 2.56064 21.4519 2.90132 21.6295 3.33012C21.7118 3.52862 21.7394 3.72396 21.7515 3.90161C21.7628 4.06693 21.7628 4.26378 21.7627 4.47805V4.99982C21.7627 5.03898 21.7628 5.07757 21.7628 5.1156C21.763 5.93357 21.7632 6.49172 21.635 6.97039C21.2882 8.26448 20.2774 9.27528 18.9833 9.62204C18.5881 9.72792 18.1388 9.74627 17.5338 9.74929C16.8257 12.3953 14.55 14.4005 11.7627 14.7086V16.2498H12.4572C14.8351 16.2498 16.7627 18.1775 16.7627 20.5554C16.7627 21.215 16.228 21.7498 15.5683 21.7498H6.45719C5.79752 21.7498 5.26274 21.215 5.26274 20.5554C5.26274 18.1775 7.19041 16.2498 9.5683 16.2498H10.2627V14.7086C7.47552 14.4005 5.19976 12.3953 4.49167 9.74929C3.88668 9.74627 3.43734 9.72792 3.04217 9.62204C1.74808 9.27528 0.737275 8.26448 0.390523 6.97039C0.262266 6.49173 0.26245 5.93357 0.262719 5.11561C0.262732 5.07758 0.262745 5.03899 0.262745 4.99982L0.262744 4.47806C0.262731 4.26378 0.262719 4.06693 0.273999 3.90161C0.28612 3.72396 0.313733 3.52862 0.395956 3.33012C0.57357 2.90132 0.91425 2.56064 1.34305 2.38303C1.54155 2.3008 1.73689 2.27319 1.91454 2.26107C2.07986 2.24979 2.27671 2.2498 2.49099 2.24981C2.49822 2.24981 2.50547 2.24982 2.51274 2.24982H4.26246C4.26289 1.96011 4.27286 1.66345 4.36828 1.40128C4.54521 0.915189 4.92812 0.532276 5.41421 0.355353C5.7094 0.247914 6.04829 0.24881 6.37178 0.249664ZM4.26274 3.74982H2.51274C2.26951 3.74982 2.12465 3.75022 2.01664 3.75759C1.94981 3.76215 1.92141 3.76825 1.91406 3.77012C1.85522 3.7954 1.80833 3.84229 1.78305 3.90112C1.78118 3.90848 1.77508 3.93688 1.77052 4.00371C1.76315 4.11172 1.76274 4.25658 1.76274 4.49982V4.99982C1.76274 5.97807 1.76919 6.32008 1.83941 6.58216C2.04746 7.35862 2.65394 7.9651 3.4304 8.17315C3.61087 8.22151 3.82924 8.23962 4.26716 8.24621C4.26422 8.16444 4.26274 8.0823 4.26274 7.99982V3.74982ZM5.76274 2.44426C5.76274 2.22824 5.76307 2.09959 5.76891 2.00342C5.77254 1.94353 5.77744 1.91793 5.77889 1.91142C5.80426 1.84431 5.85724 1.79133 5.92435 1.76597C5.93086 1.76451 5.95645 1.75961 6.01635 1.75598C6.11252 1.75014 6.24117 1.74982 6.45719 1.74982H15.5683C15.7843 1.74982 15.913 1.75014 16.0091 1.75598C16.069 1.75961 16.0946 1.76451 16.1011 1.76597C16.1682 1.79133 16.2212 1.84431 16.2466 1.91141C16.2481 1.91793 16.2529 1.94352 16.2566 2.00342C16.2624 2.09959 16.2627 2.22824 16.2627 2.44426V7.99982C16.2627 10.8993 13.9122 13.2498 11.0127 13.2498C8.11325 13.2498 5.76274 10.8993 5.76274 7.99982V2.44426ZM17.7627 3.74982V7.99982C17.7627 8.0823 17.7613 8.16444 17.7583 8.24621C18.1963 8.23962 18.4146 8.22151 18.5951 8.17315C19.3715 7.9651 19.978 7.35861 20.1861 6.58216C20.2563 6.32008 20.2627 5.97807 20.2627 4.99982V4.49982C20.2627 4.25658 20.2623 4.11172 20.255 4.00371C20.2504 3.93686 20.2443 3.90846 20.2424 3.90112C20.2172 3.84229 20.1703 3.7954 20.1114 3.77012C20.1041 3.76825 20.0757 3.76215 20.0088 3.75759C19.9008 3.75022 19.756 3.74982 19.5127 3.74982H17.7627ZM9.5683 17.7498C8.12208 17.7498 6.93145 18.8441 6.77919 20.2498H15.2463C15.094 18.8441 13.9034 17.7498 12.4572 17.7498H9.5683Z" fill="#1C3D1A"/>
</svg>
