<svg width="25" height="25" viewBox="0 0 25 25" fill="none" xmlns="http://www.w3.org/2000/svg">
<g clip-path="url(#clip0_1162_2246)">
<path d="M23.5 3.0706C22.5424 3.74608 21.4821 4.26271 20.36 4.6006C19.7577 3.90811 18.9573 3.41729 18.067 3.19453C17.1767 2.97176 16.2395 3.0278 15.3821 3.35506C14.5247 3.68231 13.7884 4.265 13.273 5.02432C12.7575 5.78363 12.4877 6.68294 12.5 7.6006V8.6006C10.7426 8.64617 9.00127 8.25642 7.43101 7.46605C5.86074 6.67568 4.51032 5.50924 3.5 4.0706C3.5 4.0706 -0.5 13.0706 8.5 17.0706C6.44053 18.4686 3.98716 19.1695 1.5 19.0706C10.5 24.0706 21.5 19.0706 21.5 7.5706C21.4991 7.29206 21.4723 7.0142 21.42 6.7406C22.4406 5.7341 23.1608 4.46332 23.5 3.0706Z" stroke="white" stroke-width="2" stroke-linecap="round" stroke-linejoin="round"/>
</g>
<defs>
<clipPath id="clip0_1162_2246">
<rect width="24" height="24" fill="white" transform="translate(0.5 0.0708008)"/>
</clipPath>
</defs>
</svg>
