<svg width="25" height="25" viewBox="0 0 25 25" fill="none" xmlns="http://www.w3.org/2000/svg">
<path d="M12.5503 0.0708008C5.96348 0.0708008 0.602968 5.406 0.600645 11.9628C0.599097 14.0596 1.15032 16.106 2.19548 17.9084L0.5 24.0708L6.83523 22.4172C8.59746 23.3697 10.5569 23.8666 12.5457 23.8652H12.5503C19.1372 23.8652 24.4977 18.5292 24.5 11.9724C24.5015 8.7964 23.2597 5.8068 21.003 3.5596C18.747 1.3116 15.747 0.0716008 12.5503 0.0708008ZM12.5503 21.8564H12.5465C10.7643 21.8564 9.01613 21.3796 7.49097 20.4788L7.1271 20.2644L3.36916 21.2452L4.37252 17.5972L4.13639 17.2236C3.14457 15.6605 2.61659 13.8319 2.61742 11.9628C2.61974 6.5124 7.076 2.0796 12.5542 2.0796C15.2066 2.0804 17.7003 3.11 19.5761 4.978C21.452 6.846 22.484 9.33 22.4825 11.9716C22.4801 17.422 18.0246 21.8564 12.5495 21.8564H12.5503ZM17.9983 14.4524C17.6995 14.3044 16.2316 13.5852 15.9575 13.4852C15.6843 13.3868 15.4853 13.3356 15.2863 13.6332C15.0881 13.9308 14.5152 14.6004 14.3418 14.798C14.1668 14.9964 13.9926 15.0204 13.6938 14.8724C13.395 14.7236 12.4326 14.41 11.293 13.3972C10.405 12.61 9.80581 11.6372 9.63161 11.3388C9.45742 11.042 9.61303 10.8812 9.76245 10.7332C9.89639 10.6012 10.0613 10.3868 10.2099 10.2132C10.3586 10.0396 10.4081 9.9156 10.5088 9.7172C10.6079 9.5196 10.5583 9.3452 10.4832 9.1972C10.4081 9.0476 9.812 7.5852 9.56194 6.9908C9.32039 6.4116 9.07419 6.4892 8.89071 6.4796C8.71652 6.4716 8.51832 6.4692 8.31781 6.4692C8.12039 6.4692 7.796 6.5436 7.52193 6.8412C7.24864 7.1388 6.47677 7.8572 6.47677 9.3196C6.47677 10.7828 7.54671 12.1956 7.69613 12.394C7.84555 12.5916 9.80194 15.594 12.7973 16.882C13.5095 17.1868 14.0654 17.37 14.4997 17.5076C15.2151 17.734 15.8662 17.7012 16.3803 17.6252C16.9532 17.5396 18.147 16.9068 18.3947 16.2132C18.644 15.5196 18.644 14.9244 18.5697 14.8004C18.4969 14.6764 18.2972 14.602 17.9983 14.4524Z" fill="white"/>
</svg>
