<svg width="22" height="22" viewBox="0 0 22 22" fill="none" xmlns="http://www.w3.org/2000/svg">
<path fill-rule="evenodd" clip-rule="evenodd" d="M1.76067 10.5517C1.75358 10.7002 1.75 10.8497 1.75 11C1.75 15.3326 4.72879 18.9695 8.7501 19.9745L8.75016 18.6849C8.75018 18.3865 8.85691 18.098 9.05108 17.8715L9.62053 18.3596L9.05108 17.8715L11.34 15.201L8.74642 13.7189C8.55242 13.6081 8.39168 13.4472 8.28093 13.2531L6.49857 10.1297L1.76067 10.5517ZM0.31771 9.78671C0.272976 10.185 0.25 10.5898 0.25 11C0.25 16.3896 4.21625 20.8528 9.38918 21.6301C9.91464 21.7091 10.4525 21.75 11 21.75C16.9371 21.75 21.75 16.9371 21.75 11C21.75 9.25811 21.3352 7.61113 20.5984 6.15434C20.6957 5.78478 20.75 5.40048 20.75 5C20.75 2.37665 18.6234 0.25 16 0.25C15.2938 0.25 14.6236 0.404117 14.0212 0.68055C13.0619 0.400152 12.0479 0.25 11 0.25C5.48087 0.25 0.933164 4.40919 0.32026 9.76422C0.319298 9.77168 0.318448 9.77918 0.31771 9.78671ZM1.96068 9.02793L6.52529 8.62137C7.01215 8.578 7.47961 8.82239 7.72186 9.24691L9.54991 12.4504L12.3469 14.0487C13.0282 14.4381 13.1865 15.3516 12.6758 15.9475L10.2502 18.7774L10.2501 20.22C10.4974 20.2399 10.7475 20.25 11 20.25C16.1086 20.25 20.25 16.1086 20.25 11C20.25 9.9409 20.0723 8.9243 19.7452 7.97773C19.6189 8.16799 19.4844 8.354 19.3442 8.53605C18.6809 9.39739 17.8318 10.2389 16.9983 11.0651C16.8413 11.2207 16.6849 11.3758 16.5303 11.5303C16.2374 11.8232 15.7626 11.8232 15.4697 11.5303C15.3151 11.3758 15.1587 11.2207 15.0017 11.0651C14.1682 10.2389 13.3191 9.39739 12.6558 8.53605C11.8601 7.50289 11.25 6.34235 11.25 5C11.25 3.79654 11.6976 2.69761 12.4353 1.86058C11.9678 1.7878 11.4885 1.75 11 1.75C6.56816 1.75 2.86428 4.86675 1.96068 9.02793ZM9.49064 12.4166C9.49076 12.4166 9.49089 12.4167 9.49101 12.4168ZM16 1.75C14.2051 1.75 12.75 3.20507 12.75 5C12.75 5.86679 13.1399 6.70625 13.8442 7.62081C14.4314 8.38321 15.1803 9.12905 16 9.94223C16.8197 9.12905 17.5686 8.38321 18.1558 7.62081C18.8601 6.70625 19.25 5.86679 19.25 5C19.25 3.20507 17.7949 1.75 16 1.75ZM15 4.75C15 4.19772 15.4477 3.75 16 3.75C16.5523 3.75 17 4.19772 17 4.75C17 5.30228 16.5523 5.75 16 5.75C15.4477 5.75 15 5.30228 15 4.75Z" fill="#FF8080"/>
</svg>
